<?xml version="1.0" encoding="utf-8" standalone="no"?>
<!DOCTYPE svg PUBLIC "-//W3C//DTD SVG 1.1//EN"
  "http://www.w3.org/Graphics/SVG/1.1/DTD/svg11.dtd">
<svg xmlns:xlink="http://www.w3.org/1999/xlink" width="404.923125pt" height="325.986375pt" viewBox="0 0 404.923125 325.986375" xmlns="http://www.w3.org/2000/svg" version="1.1">
 <metadata>
  <rdf:RDF xmlns:dc="http://purl.org/dc/elements/1.1/" xmlns:cc="http://creativecommons.org/ns#" xmlns:rdf="http://www.w3.org/1999/02/22-rdf-syntax-ns#">
   <cc:Work>
    <dc:type rdf:resource="http://purl.org/dc/dcmitype/StillImage"/>
    <dc:date>2024-08-07T18:13:11.123318</dc:date>
    <dc:format>image/svg+xml</dc:format>
    <dc:creator>
     <cc:Agent>
      <dc:title>Matplotlib v3.8.4, https://matplotlib.org/</dc:title>
     </cc:Agent>
    </dc:creator>
   </cc:Work>
  </rdf:RDF>
 </metadata>
 <defs>
  <style type="text/css">*{stroke-linejoin: round; stroke-linecap: butt}</style>
 </defs>
 <g id="figure_1">
  <g id="patch_1">
   <path d="M 0 325.986375 
L 404.923125 325.986375 
L 404.923125 0 
L 0 0 
z
" style="fill: #ffffff"/>
  </g>
  <g id="axes_1">
   <g id="patch_2">
    <path d="M 40.603125 288.430125 
L 397.723125 288.430125 
L 397.723125 22.318125 
L 40.603125 22.318125 
z
" style="fill: #ffffff"/>
   </g>
   <g id="PolyCollection_1">
    <path d="M 56.835852 38.353158 
L 56.835852 71.818232 
L 70.363125 73.146353 
L 83.890398 73.398374 
L 97.41767 71.69757 
L 110.944943 69.017332 
L 124.472216 67.204016 
L 137.999489 66.686315 
L 151.526761 66.676376 
L 165.054034 67.538746 
L 178.581307 67.981264 
L 192.10858 68.382903 
L 205.635852 69.441069 
L 219.163125 71.641999 
L 232.690398 74.105439 
L 246.21767 75.129149 
L 259.744943 75.026019 
L 273.272216 75.236578 
L 286.799489 75.687871 
L 300.326761 76.32781 
L 313.854034 76.044012 
L 327.381307 74.661394 
L 340.90858 72.951799 
L 354.435852 72.335314 
L 367.963125 72.369251 
L 381.490398 72.692332 
L 381.490398 43.806679 
L 381.490398 43.806679 
L 367.963125 44.976596 
L 354.435852 45.729609 
L 340.90858 46.132265 
L 327.381307 46.08899 
L 313.854034 45.997463 
L 300.326761 46.91494 
L 286.799489 48.781076 
L 273.272216 50.397112 
L 259.744943 51.135558 
L 246.21767 51.02035 
L 232.690398 50.26295 
L 219.163125 49.425924 
L 205.635852 48.8591 
L 192.10858 48.335291 
L 178.581307 47.606119 
L 165.054034 45.602702 
L 151.526761 43.214873 
L 137.999489 40.778848 
L 124.472216 37.892777 
L 110.944943 35.211498 
L 97.41767 34.414125 
L 83.890398 35.038321 
L 70.363125 36.79909 
L 56.835852 38.353158 
z
" clip-path="url(#p48d68af3ea)" style="fill: #46327e; fill-opacity: 0.2"/>
   </g>
   <g id="PolyCollection_2">
    <path d="M 56.835852 57.157081 
L 56.835852 78.430717 
L 70.363125 80.026325 
L 83.890398 80.8017 
L 97.41767 79.79818 
L 110.944943 77.721866 
L 124.472216 75.959683 
L 137.999489 75.393294 
L 151.526761 75.934533 
L 165.054034 76.898772 
L 178.581307 77.792124 
L 192.10858 78.485576 
L 205.635852 79.802998 
L 219.163125 82.340198 
L 232.690398 85.019517 
L 246.21767 85.931547 
L 259.744943 85.566331 
L 273.272216 85.028888 
L 286.799489 84.81728 
L 300.326761 84.26432 
L 313.854034 83.687642 
L 327.381307 82.537228 
L 340.90858 81.259704 
L 354.435852 80.824182 
L 367.963125 81.017739 
L 381.490398 81.498939 
L 381.490398 60.669603 
L 381.490398 60.669603 
L 367.963125 61.187162 
L 354.435852 61.561465 
L 340.90858 61.759262 
L 327.381307 61.634108 
L 313.854034 61.913678 
L 300.326761 62.387749 
L 286.799489 63.120582 
L 273.272216 63.565681 
L 259.744943 63.80174 
L 246.21767 63.65724 
L 232.690398 63.454867 
L 219.163125 63.949534 
L 205.635852 64.447659 
L 192.10858 64.494013 
L 178.581307 64.387507 
L 165.054034 63.50621 
L 151.526761 61.748332 
L 137.999489 59.553719 
L 124.472216 56.820645 
L 110.944943 54.338412 
L 97.41767 53.245394 
L 83.890398 54.127096 
L 70.363125 55.748638 
L 56.835852 57.157081 
z
" clip-path="url(#p48d68af3ea)" style="fill: #365c8d; fill-opacity: 0.2"/>
   </g>
   <g id="PolyCollection_3">
    <path d="M 56.835852 87.416897 
L 56.835852 106.587623 
L 70.363125 108.443945 
L 83.890398 109.502358 
L 97.41767 109.05679 
L 110.944943 107.586974 
L 124.472216 106.495686 
L 137.999489 106.159607 
L 151.526761 106.97978 
L 165.054034 107.582886 
L 178.581307 107.948701 
L 192.10858 108.592114 
L 205.635852 109.602322 
L 219.163125 111.803263 
L 232.690398 113.678921 
L 246.21767 113.985895 
L 259.744943 113.408861 
L 273.272216 112.882882 
L 286.799489 112.487933 
L 300.326761 112.297354 
L 313.854034 112.146955 
L 327.381307 111.455357 
L 340.90858 111.13683 
L 354.435852 110.619636 
L 367.963125 110.452053 
L 381.490398 110.887932 
L 381.490398 88.24589 
L 381.490398 88.24589 
L 367.963125 88.468278 
L 354.435852 88.771187 
L 340.90858 88.771458 
L 327.381307 89.106322 
L 313.854034 89.841789 
L 300.326761 90.39381 
L 286.799489 90.571556 
L 273.272216 90.418263 
L 259.744943 90.380545 
L 246.21767 90.232918 
L 232.690398 90.843991 
L 219.163125 91.816088 
L 205.635852 92.650131 
L 192.10858 92.553831 
L 178.581307 92.038613 
L 165.054034 90.87819 
L 151.526761 89.42507 
L 137.999489 87.481671 
L 124.472216 85.163318 
L 110.944943 83.404853 
L 97.41767 82.523856 
L 83.890398 83.992039 
L 70.363125 85.83175 
L 56.835852 87.416897 
z
" clip-path="url(#p48d68af3ea)" style="fill: #277f8e; fill-opacity: 0.2"/>
   </g>
   <g id="PolyCollection_4">
    <path d="M 56.835852 153.05781 
L 56.835852 197.066886 
L 70.363125 196.82354 
L 83.890398 196.184923 
L 97.41767 195.190903 
L 110.944943 194.137729 
L 124.472216 193.672951 
L 137.999489 193.193323 
L 151.526761 193.156607 
L 165.054034 193.274135 
L 178.581307 193.85848 
L 192.10858 194.528093 
L 205.635852 195.421042 
L 219.163125 196.670691 
L 232.690398 198.108162 
L 246.21767 199.044291 
L 259.744943 199.678061 
L 273.272216 199.80371 
L 286.799489 199.578018 
L 300.326761 199.448915 
L 313.854034 199.505766 
L 327.381307 198.981312 
L 340.90858 198.710427 
L 354.435852 198.180159 
L 367.963125 197.827886 
L 381.490398 197.620575 
L 381.490398 159.762781 
L 381.490398 159.762781 
L 367.963125 160.175692 
L 354.435852 160.364085 
L 340.90858 160.435013 
L 327.381307 159.997918 
L 313.854034 159.956564 
L 300.326761 159.95314 
L 286.799489 159.510362 
L 273.272216 158.798675 
L 259.744943 158.135361 
L 246.21767 157.19111 
L 232.690398 156.261439 
L 219.163125 155.239098 
L 205.635852 153.799831 
L 192.10858 152.533322 
L 178.581307 151.242963 
L 165.054034 149.723451 
L 151.526761 148.749242 
L 137.999489 148.374839 
L 124.472216 148.046102 
L 110.944943 147.49676 
L 97.41767 147.70137 
L 83.890398 148.446258 
L 70.363125 150.436037 
L 56.835852 153.05781 
z
" clip-path="url(#p48d68af3ea)" style="fill: #1fa187; fill-opacity: 0.2"/>
   </g>
   <g id="PolyCollection_5">
    <path d="M 56.835852 199.225963 
L 56.835852 242.51658 
L 70.363125 241.260648 
L 83.890398 240.513073 
L 97.41767 239.834908 
L 110.944943 239.469188 
L 124.472216 239.467293 
L 137.999489 239.648724 
L 151.526761 240.124623 
L 165.054034 241.086986 
L 178.581307 242.171973 
L 192.10858 243.467557 
L 205.635852 244.783529 
L 219.163125 246.16628 
L 232.690398 247.749976 
L 246.21767 248.964777 
L 259.744943 249.747289 
L 273.272216 249.945832 
L 286.799489 249.730479 
L 300.326761 249.068101 
L 313.854034 248.420001 
L 327.381307 247.645636 
L 340.90858 246.788737 
L 354.435852 245.942942 
L 367.963125 244.933107 
L 381.490398 244.022355 
L 381.490398 200.925515 
L 381.490398 200.925515 
L 367.963125 200.687037 
L 354.435852 200.429693 
L 340.90858 199.964993 
L 327.381307 199.454491 
L 313.854034 199.019394 
L 300.326761 198.33256 
L 286.799489 197.472903 
L 273.272216 196.619009 
L 259.744943 196.079518 
L 246.21767 195.969259 
L 232.690398 196.448946 
L 219.163125 196.784343 
L 205.635852 196.939908 
L 192.10858 196.571639 
L 178.581307 196.108859 
L 165.054034 195.569575 
L 151.526761 195.39004 
L 137.999489 195.443164 
L 124.472216 195.773614 
L 110.944943 195.957382 
L 97.41767 196.47888 
L 83.890398 197.167795 
L 70.363125 198.26491 
L 56.835852 199.225963 
z
" clip-path="url(#p48d68af3ea)" style="fill: #4ac16d; fill-opacity: 0.2"/>
   </g>
   <g id="PolyCollection_6">
    <path d="M 56.835852 262.676736 
L 56.835852 265.043751 
L 70.363125 263.754591 
L 83.890398 263.305767 
L 97.41767 262.830318 
L 110.944943 262.489961 
L 124.472216 262.390867 
L 137.999489 262.89956 
L 151.526761 263.914926 
L 165.054034 265.413794 
L 178.581307 267.063064 
L 192.10858 268.813282 
L 205.635852 270.534002 
L 219.163125 272.041129 
L 232.690398 273.647849 
L 246.21767 274.926474 
L 259.744943 275.861352 
L 273.272216 276.334125 
L 286.799489 276.149123 
L 300.326761 275.575343 
L 313.854034 274.760471 
L 327.381307 273.674902 
L 340.90858 272.514469 
L 354.435852 271.22297 
L 367.963125 269.800364 
L 381.490398 268.365898 
L 381.490398 263.493203 
L 381.490398 263.493203 
L 367.963125 262.744377 
L 354.435852 261.845747 
L 340.90858 260.940836 
L 327.381307 260.018196 
L 313.854034 259.044943 
L 300.326761 257.916394 
L 286.799489 256.786192 
L 273.272216 255.95745 
L 259.744943 255.272113 
L 246.21767 254.974904 
L 232.690398 254.829012 
L 219.163125 254.586042 
L 205.635852 254.36089 
L 192.10858 254.290775 
L 178.581307 254.333118 
L 165.054034 254.772153 
L 151.526761 255.430723 
L 137.999489 256.407255 
L 124.472216 257.580874 
L 110.944943 258.257129 
L 97.41767 259.151639 
L 83.890398 260.17154 
L 70.363125 261.74487 
L 56.835852 262.676736 
z
" clip-path="url(#p48d68af3ea)" style="fill: #a0da39; fill-opacity: 0.2"/>
   </g>
   <g id="matplotlib.axis_1">
    <g id="xtick_1">
     <g id="line2d_1">
      <defs>
       <path id="m1eeb45a262" d="M 0 0 
L 0 3.5 
" style="stroke: #000000; stroke-width: 0.8"/>
      </defs>
      <g>
       <use xlink:href="#m1eeb45a262" x="56.835852" y="288.430125" style="stroke: #000000; stroke-width: 0.8"/>
      </g>
     </g>
     <g id="text_1">
      <!-- 0 -->
      <g transform="translate(53.654602 303.028562) scale(0.1 -0.1)">
       <defs>
        <path id="DejaVuSans-30" d="M 2034 4250 
Q 1547 4250 1301 3770 
Q 1056 3291 1056 2328 
Q 1056 1369 1301 889 
Q 1547 409 2034 409 
Q 2525 409 2770 889 
Q 3016 1369 3016 2328 
Q 3016 3291 2770 3770 
Q 2525 4250 2034 4250 
z
M 2034 4750 
Q 2819 4750 3233 4129 
Q 3647 3509 3647 2328 
Q 3647 1150 3233 529 
Q 2819 -91 2034 -91 
Q 1250 -91 836 529 
Q 422 1150 422 2328 
Q 422 3509 836 4129 
Q 1250 4750 2034 4750 
z
" transform="scale(0.015625)"/>
       </defs>
       <use xlink:href="#DejaVuSans-30"/>
      </g>
     </g>
    </g>
    <g id="xtick_2">
     <g id="line2d_2">
      <g>
       <use xlink:href="#m1eeb45a262" x="121.766761" y="288.430125" style="stroke: #000000; stroke-width: 0.8"/>
      </g>
     </g>
     <g id="text_2">
      <!-- 20 -->
      <g transform="translate(115.404261 303.028562) scale(0.1 -0.1)">
       <defs>
        <path id="DejaVuSans-32" d="M 1228 531 
L 3431 531 
L 3431 0 
L 469 0 
L 469 531 
Q 828 903 1448 1529 
Q 2069 2156 2228 2338 
Q 2531 2678 2651 2914 
Q 2772 3150 2772 3378 
Q 2772 3750 2511 3984 
Q 2250 4219 1831 4219 
Q 1534 4219 1204 4116 
Q 875 4013 500 3803 
L 500 4441 
Q 881 4594 1212 4672 
Q 1544 4750 1819 4750 
Q 2544 4750 2975 4387 
Q 3406 4025 3406 3419 
Q 3406 3131 3298 2873 
Q 3191 2616 2906 2266 
Q 2828 2175 2409 1742 
Q 1991 1309 1228 531 
z
" transform="scale(0.015625)"/>
       </defs>
       <use xlink:href="#DejaVuSans-32"/>
       <use xlink:href="#DejaVuSans-30" x="63.623047"/>
      </g>
     </g>
    </g>
    <g id="xtick_3">
     <g id="line2d_3">
      <g>
       <use xlink:href="#m1eeb45a262" x="186.69767" y="288.430125" style="stroke: #000000; stroke-width: 0.8"/>
      </g>
     </g>
     <g id="text_3">
      <!-- 40 -->
      <g transform="translate(180.33517 303.028562) scale(0.1 -0.1)">
       <defs>
        <path id="DejaVuSans-34" d="M 2419 4116 
L 825 1625 
L 2419 1625 
L 2419 4116 
z
M 2253 4666 
L 3047 4666 
L 3047 1625 
L 3713 1625 
L 3713 1100 
L 3047 1100 
L 3047 0 
L 2419 0 
L 2419 1100 
L 313 1100 
L 313 1709 
L 2253 4666 
z
" transform="scale(0.015625)"/>
       </defs>
       <use xlink:href="#DejaVuSans-34"/>
       <use xlink:href="#DejaVuSans-30" x="63.623047"/>
      </g>
     </g>
    </g>
    <g id="xtick_4">
     <g id="line2d_4">
      <g>
       <use xlink:href="#m1eeb45a262" x="251.62858" y="288.430125" style="stroke: #000000; stroke-width: 0.8"/>
      </g>
     </g>
     <g id="text_4">
      <!-- 60 -->
      <g transform="translate(245.26608 303.028562) scale(0.1 -0.1)">
       <defs>
        <path id="DejaVuSans-36" d="M 2113 2584 
Q 1688 2584 1439 2293 
Q 1191 2003 1191 1497 
Q 1191 994 1439 701 
Q 1688 409 2113 409 
Q 2538 409 2786 701 
Q 3034 994 3034 1497 
Q 3034 2003 2786 2293 
Q 2538 2584 2113 2584 
z
M 3366 4563 
L 3366 3988 
Q 3128 4100 2886 4159 
Q 2644 4219 2406 4219 
Q 1781 4219 1451 3797 
Q 1122 3375 1075 2522 
Q 1259 2794 1537 2939 
Q 1816 3084 2150 3084 
Q 2853 3084 3261 2657 
Q 3669 2231 3669 1497 
Q 3669 778 3244 343 
Q 2819 -91 2113 -91 
Q 1303 -91 875 529 
Q 447 1150 447 2328 
Q 447 3434 972 4092 
Q 1497 4750 2381 4750 
Q 2619 4750 2861 4703 
Q 3103 4656 3366 4563 
z
" transform="scale(0.015625)"/>
       </defs>
       <use xlink:href="#DejaVuSans-36"/>
       <use xlink:href="#DejaVuSans-30" x="63.623047"/>
      </g>
     </g>
    </g>
    <g id="xtick_5">
     <g id="line2d_5">
      <g>
       <use xlink:href="#m1eeb45a262" x="316.559489" y="288.430125" style="stroke: #000000; stroke-width: 0.8"/>
      </g>
     </g>
     <g id="text_5">
      <!-- 80 -->
      <g transform="translate(310.196989 303.028562) scale(0.1 -0.1)">
       <defs>
        <path id="DejaVuSans-38" d="M 2034 2216 
Q 1584 2216 1326 1975 
Q 1069 1734 1069 1313 
Q 1069 891 1326 650 
Q 1584 409 2034 409 
Q 2484 409 2743 651 
Q 3003 894 3003 1313 
Q 3003 1734 2745 1975 
Q 2488 2216 2034 2216 
z
M 1403 2484 
Q 997 2584 770 2862 
Q 544 3141 544 3541 
Q 544 4100 942 4425 
Q 1341 4750 2034 4750 
Q 2731 4750 3128 4425 
Q 3525 4100 3525 3541 
Q 3525 3141 3298 2862 
Q 3072 2584 2669 2484 
Q 3125 2378 3379 2068 
Q 3634 1759 3634 1313 
Q 3634 634 3220 271 
Q 2806 -91 2034 -91 
Q 1263 -91 848 271 
Q 434 634 434 1313 
Q 434 1759 690 2068 
Q 947 2378 1403 2484 
z
M 1172 3481 
Q 1172 3119 1398 2916 
Q 1625 2713 2034 2713 
Q 2441 2713 2670 2916 
Q 2900 3119 2900 3481 
Q 2900 3844 2670 4047 
Q 2441 4250 2034 4250 
Q 1625 4250 1398 4047 
Q 1172 3844 1172 3481 
z
" transform="scale(0.015625)"/>
       </defs>
       <use xlink:href="#DejaVuSans-38"/>
       <use xlink:href="#DejaVuSans-30" x="63.623047"/>
      </g>
     </g>
    </g>
    <g id="xtick_6">
     <g id="line2d_6">
      <g>
       <use xlink:href="#m1eeb45a262" x="381.490398" y="288.430125" style="stroke: #000000; stroke-width: 0.8"/>
      </g>
     </g>
     <g id="text_6">
      <!-- 100 -->
      <g transform="translate(371.946648 303.028562) scale(0.1 -0.1)">
       <defs>
        <path id="DejaVuSans-31" d="M 794 531 
L 1825 531 
L 1825 4091 
L 703 3866 
L 703 4441 
L 1819 4666 
L 2450 4666 
L 2450 531 
L 3481 531 
L 3481 0 
L 794 0 
L 794 531 
z
" transform="scale(0.015625)"/>
       </defs>
       <use xlink:href="#DejaVuSans-31"/>
       <use xlink:href="#DejaVuSans-30" x="63.623047"/>
       <use xlink:href="#DejaVuSans-30" x="127.246094"/>
      </g>
     </g>
    </g>
    <g id="text_7">
     <!-- Percentage -->
     <g transform="translate(191.040469 316.706687) scale(0.1 -0.1)">
      <defs>
       <path id="DejaVuSans-50" d="M 1259 4147 
L 1259 2394 
L 2053 2394 
Q 2494 2394 2734 2622 
Q 2975 2850 2975 3272 
Q 2975 3691 2734 3919 
Q 2494 4147 2053 4147 
L 1259 4147 
z
M 628 4666 
L 2053 4666 
Q 2838 4666 3239 4311 
Q 3641 3956 3641 3272 
Q 3641 2581 3239 2228 
Q 2838 1875 2053 1875 
L 1259 1875 
L 1259 0 
L 628 0 
L 628 4666 
z
" transform="scale(0.015625)"/>
       <path id="DejaVuSans-65" d="M 3597 1894 
L 3597 1613 
L 953 1613 
Q 991 1019 1311 708 
Q 1631 397 2203 397 
Q 2534 397 2845 478 
Q 3156 559 3463 722 
L 3463 178 
Q 3153 47 2828 -22 
Q 2503 -91 2169 -91 
Q 1331 -91 842 396 
Q 353 884 353 1716 
Q 353 2575 817 3079 
Q 1281 3584 2069 3584 
Q 2775 3584 3186 3129 
Q 3597 2675 3597 1894 
z
M 3022 2063 
Q 3016 2534 2758 2815 
Q 2500 3097 2075 3097 
Q 1594 3097 1305 2825 
Q 1016 2553 972 2059 
L 3022 2063 
z
" transform="scale(0.015625)"/>
       <path id="DejaVuSans-72" d="M 2631 2963 
Q 2534 3019 2420 3045 
Q 2306 3072 2169 3072 
Q 1681 3072 1420 2755 
Q 1159 2438 1159 1844 
L 1159 0 
L 581 0 
L 581 3500 
L 1159 3500 
L 1159 2956 
Q 1341 3275 1631 3429 
Q 1922 3584 2338 3584 
Q 2397 3584 2469 3576 
Q 2541 3569 2628 3553 
L 2631 2963 
z
" transform="scale(0.015625)"/>
       <path id="DejaVuSans-63" d="M 3122 3366 
L 3122 2828 
Q 2878 2963 2633 3030 
Q 2388 3097 2138 3097 
Q 1578 3097 1268 2742 
Q 959 2388 959 1747 
Q 959 1106 1268 751 
Q 1578 397 2138 397 
Q 2388 397 2633 464 
Q 2878 531 3122 666 
L 3122 134 
Q 2881 22 2623 -34 
Q 2366 -91 2075 -91 
Q 1284 -91 818 406 
Q 353 903 353 1747 
Q 353 2603 823 3093 
Q 1294 3584 2113 3584 
Q 2378 3584 2631 3529 
Q 2884 3475 3122 3366 
z
" transform="scale(0.015625)"/>
       <path id="DejaVuSans-6e" d="M 3513 2113 
L 3513 0 
L 2938 0 
L 2938 2094 
Q 2938 2591 2744 2837 
Q 2550 3084 2163 3084 
Q 1697 3084 1428 2787 
Q 1159 2491 1159 1978 
L 1159 0 
L 581 0 
L 581 3500 
L 1159 3500 
L 1159 2956 
Q 1366 3272 1645 3428 
Q 1925 3584 2291 3584 
Q 2894 3584 3203 3211 
Q 3513 2838 3513 2113 
z
" transform="scale(0.015625)"/>
       <path id="DejaVuSans-74" d="M 1172 4494 
L 1172 3500 
L 2356 3500 
L 2356 3053 
L 1172 3053 
L 1172 1153 
Q 1172 725 1289 603 
Q 1406 481 1766 481 
L 2356 481 
L 2356 0 
L 1766 0 
Q 1100 0 847 248 
Q 594 497 594 1153 
L 594 3053 
L 172 3053 
L 172 3500 
L 594 3500 
L 594 4494 
L 1172 4494 
z
" transform="scale(0.015625)"/>
       <path id="DejaVuSans-61" d="M 2194 1759 
Q 1497 1759 1228 1600 
Q 959 1441 959 1056 
Q 959 750 1161 570 
Q 1363 391 1709 391 
Q 2188 391 2477 730 
Q 2766 1069 2766 1631 
L 2766 1759 
L 2194 1759 
z
M 3341 1997 
L 3341 0 
L 2766 0 
L 2766 531 
Q 2569 213 2275 61 
Q 1981 -91 1556 -91 
Q 1019 -91 701 211 
Q 384 513 384 1019 
Q 384 1609 779 1909 
Q 1175 2209 1959 2209 
L 2766 2209 
L 2766 2266 
Q 2766 2663 2505 2880 
Q 2244 3097 1772 3097 
Q 1472 3097 1187 3025 
Q 903 2953 641 2809 
L 641 3341 
Q 956 3463 1253 3523 
Q 1550 3584 1831 3584 
Q 2591 3584 2966 3190 
Q 3341 2797 3341 1997 
z
" transform="scale(0.015625)"/>
       <path id="DejaVuSans-67" d="M 2906 1791 
Q 2906 2416 2648 2759 
Q 2391 3103 1925 3103 
Q 1463 3103 1205 2759 
Q 947 2416 947 1791 
Q 947 1169 1205 825 
Q 1463 481 1925 481 
Q 2391 481 2648 825 
Q 2906 1169 2906 1791 
z
M 3481 434 
Q 3481 -459 3084 -895 
Q 2688 -1331 1869 -1331 
Q 1566 -1331 1297 -1286 
Q 1028 -1241 775 -1147 
L 775 -588 
Q 1028 -725 1275 -790 
Q 1522 -856 1778 -856 
Q 2344 -856 2625 -561 
Q 2906 -266 2906 331 
L 2906 616 
Q 2728 306 2450 153 
Q 2172 0 1784 0 
Q 1141 0 747 490 
Q 353 981 353 1791 
Q 353 2603 747 3093 
Q 1141 3584 1784 3584 
Q 2172 3584 2450 3431 
Q 2728 3278 2906 2969 
L 2906 3500 
L 3481 3500 
L 3481 434 
z
" transform="scale(0.015625)"/>
      </defs>
      <use xlink:href="#DejaVuSans-50"/>
      <use xlink:href="#DejaVuSans-65" x="56.677734"/>
      <use xlink:href="#DejaVuSans-72" x="118.201172"/>
      <use xlink:href="#DejaVuSans-63" x="157.064453"/>
      <use xlink:href="#DejaVuSans-65" x="212.044922"/>
      <use xlink:href="#DejaVuSans-6e" x="273.568359"/>
      <use xlink:href="#DejaVuSans-74" x="336.947266"/>
      <use xlink:href="#DejaVuSans-61" x="376.15625"/>
      <use xlink:href="#DejaVuSans-67" x="437.435547"/>
      <use xlink:href="#DejaVuSans-65" x="500.912109"/>
     </g>
    </g>
   </g>
   <g id="matplotlib.axis_2">
    <g id="ytick_1">
     <g id="line2d_7">
      <defs>
       <path id="mbd354cba68" d="M 0 0 
L -3.5 0 
" style="stroke: #000000; stroke-width: 0.8"/>
      </defs>
      <g>
       <use xlink:href="#mbd354cba68" x="40.603125" y="281.131273" style="stroke: #000000; stroke-width: 0.8"/>
      </g>
     </g>
     <g id="text_8">
      <!-- 5 -->
      <g transform="translate(27.240625 284.930491) scale(0.1 -0.1)">
       <defs>
        <path id="DejaVuSans-35" d="M 691 4666 
L 3169 4666 
L 3169 4134 
L 1269 4134 
L 1269 2991 
Q 1406 3038 1543 3061 
Q 1681 3084 1819 3084 
Q 2600 3084 3056 2656 
Q 3513 2228 3513 1497 
Q 3513 744 3044 326 
Q 2575 -91 1722 -91 
Q 1428 -91 1123 -41 
Q 819 9 494 109 
L 494 744 
Q 775 591 1075 516 
Q 1375 441 1709 441 
Q 2250 441 2565 725 
Q 2881 1009 2881 1497 
Q 2881 1984 2565 2268 
Q 2250 2553 1709 2553 
Q 1456 2553 1204 2497 
Q 953 2441 691 2322 
L 691 4666 
z
" transform="scale(0.015625)"/>
       </defs>
       <use xlink:href="#DejaVuSans-35"/>
      </g>
     </g>
    </g>
    <g id="ytick_2">
     <g id="line2d_8">
      <g>
       <use xlink:href="#mbd354cba68" x="40.603125" y="243.663217" style="stroke: #000000; stroke-width: 0.8"/>
      </g>
     </g>
     <g id="text_9">
      <!-- 10 -->
      <g transform="translate(20.878125 247.462436) scale(0.1 -0.1)">
       <use xlink:href="#DejaVuSans-31"/>
       <use xlink:href="#DejaVuSans-30" x="63.623047"/>
      </g>
     </g>
    </g>
    <g id="ytick_3">
     <g id="line2d_9">
      <g>
       <use xlink:href="#mbd354cba68" x="40.603125" y="206.195161" style="stroke: #000000; stroke-width: 0.8"/>
      </g>
     </g>
     <g id="text_10">
      <!-- 15 -->
      <g transform="translate(20.878125 209.99438) scale(0.1 -0.1)">
       <use xlink:href="#DejaVuSans-31"/>
       <use xlink:href="#DejaVuSans-35" x="63.623047"/>
      </g>
     </g>
    </g>
    <g id="ytick_4">
     <g id="line2d_10">
      <g>
       <use xlink:href="#mbd354cba68" x="40.603125" y="168.727105" style="stroke: #000000; stroke-width: 0.8"/>
      </g>
     </g>
     <g id="text_11">
      <!-- 20 -->
      <g transform="translate(20.878125 172.526324) scale(0.1 -0.1)">
       <use xlink:href="#DejaVuSans-32"/>
       <use xlink:href="#DejaVuSans-30" x="63.623047"/>
      </g>
     </g>
    </g>
    <g id="ytick_5">
     <g id="line2d_11">
      <g>
       <use xlink:href="#mbd354cba68" x="40.603125" y="131.25905" style="stroke: #000000; stroke-width: 0.8"/>
      </g>
     </g>
     <g id="text_12">
      <!-- 25 -->
      <g transform="translate(20.878125 135.058269) scale(0.1 -0.1)">
       <use xlink:href="#DejaVuSans-32"/>
       <use xlink:href="#DejaVuSans-35" x="63.623047"/>
      </g>
     </g>
    </g>
    <g id="ytick_6">
     <g id="line2d_12">
      <g>
       <use xlink:href="#mbd354cba68" x="40.603125" y="93.790994" style="stroke: #000000; stroke-width: 0.8"/>
      </g>
     </g>
     <g id="text_13">
      <!-- 30 -->
      <g transform="translate(20.878125 97.590213) scale(0.1 -0.1)">
       <defs>
        <path id="DejaVuSans-33" d="M 2597 2516 
Q 3050 2419 3304 2112 
Q 3559 1806 3559 1356 
Q 3559 666 3084 287 
Q 2609 -91 1734 -91 
Q 1441 -91 1130 -33 
Q 819 25 488 141 
L 488 750 
Q 750 597 1062 519 
Q 1375 441 1716 441 
Q 2309 441 2620 675 
Q 2931 909 2931 1356 
Q 2931 1769 2642 2001 
Q 2353 2234 1838 2234 
L 1294 2234 
L 1294 2753 
L 1863 2753 
Q 2328 2753 2575 2939 
Q 2822 3125 2822 3475 
Q 2822 3834 2567 4026 
Q 2313 4219 1838 4219 
Q 1578 4219 1281 4162 
Q 984 4106 628 3988 
L 628 4550 
Q 988 4650 1302 4700 
Q 1616 4750 1894 4750 
Q 2613 4750 3031 4423 
Q 3450 4097 3450 3541 
Q 3450 3153 3228 2886 
Q 3006 2619 2597 2516 
z
" transform="scale(0.015625)"/>
       </defs>
       <use xlink:href="#DejaVuSans-33"/>
       <use xlink:href="#DejaVuSans-30" x="63.623047"/>
      </g>
     </g>
    </g>
    <g id="ytick_7">
     <g id="line2d_13">
      <g>
       <use xlink:href="#mbd354cba68" x="40.603125" y="56.322938" style="stroke: #000000; stroke-width: 0.8"/>
      </g>
     </g>
     <g id="text_14">
      <!-- 35 -->
      <g transform="translate(20.878125 60.122157) scale(0.1 -0.1)">
       <use xlink:href="#DejaVuSans-33"/>
       <use xlink:href="#DejaVuSans-35" x="63.623047"/>
      </g>
     </g>
    </g>
    <g id="text_15">
     <!-- y (pixel) -->
     <g transform="translate(14.798438 175.656156) rotate(-90) scale(0.1 -0.1)">
      <defs>
       <path id="DejaVuSans-79" d="M 2059 -325 
Q 1816 -950 1584 -1140 
Q 1353 -1331 966 -1331 
L 506 -1331 
L 506 -850 
L 844 -850 
Q 1081 -850 1212 -737 
Q 1344 -625 1503 -206 
L 1606 56 
L 191 3500 
L 800 3500 
L 1894 763 
L 2988 3500 
L 3597 3500 
L 2059 -325 
z
" transform="scale(0.015625)"/>
       <path id="DejaVuSans-20" transform="scale(0.015625)"/>
       <path id="DejaVuSans-28" d="M 1984 4856 
Q 1566 4138 1362 3434 
Q 1159 2731 1159 2009 
Q 1159 1288 1364 580 
Q 1569 -128 1984 -844 
L 1484 -844 
Q 1016 -109 783 600 
Q 550 1309 550 2009 
Q 550 2706 781 3412 
Q 1013 4119 1484 4856 
L 1984 4856 
z
" transform="scale(0.015625)"/>
       <path id="DejaVuSans-70" d="M 1159 525 
L 1159 -1331 
L 581 -1331 
L 581 3500 
L 1159 3500 
L 1159 2969 
Q 1341 3281 1617 3432 
Q 1894 3584 2278 3584 
Q 2916 3584 3314 3078 
Q 3713 2572 3713 1747 
Q 3713 922 3314 415 
Q 2916 -91 2278 -91 
Q 1894 -91 1617 61 
Q 1341 213 1159 525 
z
M 3116 1747 
Q 3116 2381 2855 2742 
Q 2594 3103 2138 3103 
Q 1681 3103 1420 2742 
Q 1159 2381 1159 1747 
Q 1159 1113 1420 752 
Q 1681 391 2138 391 
Q 2594 391 2855 752 
Q 3116 1113 3116 1747 
z
" transform="scale(0.015625)"/>
       <path id="DejaVuSans-69" d="M 603 3500 
L 1178 3500 
L 1178 0 
L 603 0 
L 603 3500 
z
M 603 4863 
L 1178 4863 
L 1178 4134 
L 603 4134 
L 603 4863 
z
" transform="scale(0.015625)"/>
       <path id="DejaVuSans-78" d="M 3513 3500 
L 2247 1797 
L 3578 0 
L 2900 0 
L 1881 1375 
L 863 0 
L 184 0 
L 1544 1831 
L 300 3500 
L 978 3500 
L 1906 2253 
L 2834 3500 
L 3513 3500 
z
" transform="scale(0.015625)"/>
       <path id="DejaVuSans-6c" d="M 603 4863 
L 1178 4863 
L 1178 0 
L 603 0 
L 603 4863 
z
" transform="scale(0.015625)"/>
       <path id="DejaVuSans-29" d="M 513 4856 
L 1013 4856 
Q 1481 4119 1714 3412 
Q 1947 2706 1947 2009 
Q 1947 1309 1714 600 
Q 1481 -109 1013 -844 
L 513 -844 
Q 928 -128 1133 580 
Q 1338 1288 1338 2009 
Q 1338 2731 1133 3434 
Q 928 4138 513 4856 
z
" transform="scale(0.015625)"/>
      </defs>
      <use xlink:href="#DejaVuSans-79"/>
      <use xlink:href="#DejaVuSans-20" x="59.179688"/>
      <use xlink:href="#DejaVuSans-28" x="90.966797"/>
      <use xlink:href="#DejaVuSans-70" x="129.980469"/>
      <use xlink:href="#DejaVuSans-69" x="193.457031"/>
      <use xlink:href="#DejaVuSans-78" x="221.240234"/>
      <use xlink:href="#DejaVuSans-65" x="277.294922"/>
      <use xlink:href="#DejaVuSans-6c" x="338.818359"/>
      <use xlink:href="#DejaVuSans-29" x="366.601562"/>
     </g>
    </g>
   </g>
   <g id="line2d_14">
    <path d="M 56.835852 55.085695 
L 70.363125 54.972721 
L 83.890398 54.218347 
L 97.41767 53.055848 
L 110.944943 52.114415 
L 124.472216 52.548397 
L 137.999489 53.732581 
L 151.526761 54.945625 
L 165.054034 56.570724 
L 178.581307 57.793691 
L 192.10858 58.359097 
L 205.635852 59.150085 
L 219.163125 60.533961 
L 232.690398 62.184195 
L 246.21767 63.074749 
L 259.744943 63.080788 
L 273.272216 62.816845 
L 286.799489 62.234474 
L 300.326761 61.621375 
L 313.854034 61.020738 
L 327.381307 60.375192 
L 340.90858 59.542032 
L 354.435852 59.032461 
L 367.963125 58.672923 
L 381.490398 58.249506 
" clip-path="url(#p48d68af3ea)" style="fill: none; stroke: #46327e; stroke-width: 1.5; stroke-linecap: square"/>
   </g>
   <g id="line2d_15">
    <path d="M 56.835852 67.793899 
L 70.363125 67.887481 
L 83.890398 67.464398 
L 97.41767 66.521787 
L 110.944943 66.030139 
L 124.472216 66.390164 
L 137.999489 67.473506 
L 151.526761 68.841433 
L 165.054034 70.202491 
L 178.581307 71.089815 
L 192.10858 71.489795 
L 205.635852 72.125329 
L 219.163125 73.144866 
L 232.690398 74.237192 
L 246.21767 74.794394 
L 259.744943 74.684035 
L 273.272216 74.297285 
L 286.799489 73.968931 
L 300.326761 73.326034 
L 313.854034 72.80066 
L 327.381307 72.085668 
L 340.90858 71.509483 
L 354.435852 71.192823 
L 367.963125 71.10245 
L 381.490398 71.084271 
" clip-path="url(#p48d68af3ea)" style="fill: none; stroke: #365c8d; stroke-width: 1.5; stroke-linecap: square"/>
   </g>
   <g id="line2d_16">
    <path d="M 56.835852 97.00226 
L 70.363125 97.137847 
L 83.890398 96.747199 
L 97.41767 95.790323 
L 110.944943 95.495914 
L 124.472216 95.829502 
L 137.999489 96.820639 
L 151.526761 98.202425 
L 165.054034 99.230538 
L 178.581307 99.993657 
L 192.10858 100.572972 
L 205.635852 101.126226 
L 219.163125 101.809675 
L 232.690398 102.261456 
L 246.21767 102.109406 
L 259.744943 101.894703 
L 273.272216 101.650572 
L 286.799489 101.529745 
L 300.326761 101.345582 
L 313.854034 100.994372 
L 327.381307 100.28084 
L 340.90858 99.954144 
L 354.435852 99.695411 
L 367.963125 99.460166 
L 381.490398 99.566911 
" clip-path="url(#p48d68af3ea)" style="fill: none; stroke: #277f8e; stroke-width: 1.5; stroke-linecap: square"/>
   </g>
   <g id="line2d_17">
    <path d="M 56.835852 175.062348 
L 70.363125 173.629789 
L 83.890398 172.315591 
L 97.41767 171.446137 
L 110.944943 170.817244 
L 124.472216 170.859526 
L 137.999489 170.784081 
L 151.526761 170.952924 
L 165.054034 171.498793 
L 178.581307 172.550722 
L 192.10858 173.530707 
L 205.635852 174.610437 
L 219.163125 175.954895 
L 232.690398 177.184801 
L 246.21767 178.117701 
L 259.744943 178.906711 
L 273.272216 179.301193 
L 286.799489 179.54419 
L 300.326761 179.701027 
L 313.854034 179.731165 
L 327.381307 179.489615 
L 340.90858 179.57272 
L 354.435852 179.272122 
L 367.963125 179.001789 
L 381.490398 178.691678 
" clip-path="url(#p48d68af3ea)" style="fill: none; stroke: #1fa187; stroke-width: 1.5; stroke-linecap: square"/>
   </g>
   <g id="line2d_18">
    <path d="M 56.835852 220.871271 
L 70.363125 219.762779 
L 83.890398 218.840434 
L 97.41767 218.156894 
L 110.944943 217.713285 
L 124.472216 217.620453 
L 137.999489 217.545944 
L 151.526761 217.757331 
L 165.054034 218.32828 
L 178.581307 219.140416 
L 192.10858 220.019598 
L 205.635852 220.861718 
L 219.163125 221.475312 
L 232.690398 222.099461 
L 246.21767 222.467018 
L 259.744943 222.913403 
L 273.272216 223.282421 
L 286.799489 223.601691 
L 300.326761 223.700331 
L 313.854034 223.719697 
L 327.381307 223.550064 
L 340.90858 223.376865 
L 354.435852 223.186317 
L 367.963125 222.810072 
L 381.490398 222.473935 
" clip-path="url(#p48d68af3ea)" style="fill: none; stroke: #4ac16d; stroke-width: 1.5; stroke-linecap: square"/>
   </g>
   <g id="line2d_19">
    <path d="M 56.835852 263.860244 
L 70.363125 262.749731 
L 83.890398 261.738653 
L 97.41767 260.990978 
L 110.944943 260.373545 
L 124.472216 259.98587 
L 137.999489 259.653408 
L 151.526761 259.672824 
L 165.054034 260.092974 
L 178.581307 260.698091 
L 192.10858 261.552028 
L 205.635852 262.447446 
L 219.163125 263.313586 
L 232.690398 264.238431 
L 246.21767 264.950689 
L 259.744943 265.566732 
L 273.272216 266.145787 
L 286.799489 266.467657 
L 300.326761 266.745869 
L 313.854034 266.902707 
L 327.381307 266.846549 
L 340.90858 266.727652 
L 354.435852 266.534358 
L 367.963125 266.27237 
L 381.490398 265.929551 
" clip-path="url(#p48d68af3ea)" style="fill: none; stroke: #a0da39; stroke-width: 1.5; stroke-linecap: square"/>
   </g>
   <g id="patch_3">
    <path d="M 40.603125 288.430125 
L 40.603125 22.318125 
" style="fill: none; stroke: #000000; stroke-width: 0.8; stroke-linejoin: miter; stroke-linecap: square"/>
   </g>
   <g id="patch_4">
    <path d="M 397.723125 288.430125 
L 397.723125 22.318125 
" style="fill: none; stroke: #000000; stroke-width: 0.8; stroke-linejoin: miter; stroke-linecap: square"/>
   </g>
   <g id="patch_5">
    <path d="M 40.603125 288.430125 
L 397.723125 288.430125 
" style="fill: none; stroke: #000000; stroke-width: 0.8; stroke-linejoin: miter; stroke-linecap: square"/>
   </g>
   <g id="patch_6">
    <path d="M 40.603125 22.318125 
L 397.723125 22.318125 
" style="fill: none; stroke: #000000; stroke-width: 0.8; stroke-linejoin: miter; stroke-linecap: square"/>
   </g>
   <g id="text_16">
    <!-- V3Off - Joint Y over average step cycle -->
    <g transform="translate(103.42125 16.318125) scale(0.12 -0.12)">
     <defs>
      <path id="DejaVuSans-56" d="M 1831 0 
L 50 4666 
L 709 4666 
L 2188 738 
L 3669 4666 
L 4325 4666 
L 2547 0 
L 1831 0 
z
" transform="scale(0.015625)"/>
      <path id="DejaVuSans-4f" d="M 2522 4238 
Q 1834 4238 1429 3725 
Q 1025 3213 1025 2328 
Q 1025 1447 1429 934 
Q 1834 422 2522 422 
Q 3209 422 3611 934 
Q 4013 1447 4013 2328 
Q 4013 3213 3611 3725 
Q 3209 4238 2522 4238 
z
M 2522 4750 
Q 3503 4750 4090 4092 
Q 4678 3434 4678 2328 
Q 4678 1225 4090 567 
Q 3503 -91 2522 -91 
Q 1538 -91 948 565 
Q 359 1222 359 2328 
Q 359 3434 948 4092 
Q 1538 4750 2522 4750 
z
" transform="scale(0.015625)"/>
      <path id="DejaVuSans-66" d="M 2375 4863 
L 2375 4384 
L 1825 4384 
Q 1516 4384 1395 4259 
Q 1275 4134 1275 3809 
L 1275 3500 
L 2222 3500 
L 2222 3053 
L 1275 3053 
L 1275 0 
L 697 0 
L 697 3053 
L 147 3053 
L 147 3500 
L 697 3500 
L 697 3744 
Q 697 4328 969 4595 
Q 1241 4863 1831 4863 
L 2375 4863 
z
" transform="scale(0.015625)"/>
      <path id="DejaVuSans-2d" d="M 313 2009 
L 1997 2009 
L 1997 1497 
L 313 1497 
L 313 2009 
z
" transform="scale(0.015625)"/>
      <path id="DejaVuSans-4a" d="M 628 4666 
L 1259 4666 
L 1259 325 
Q 1259 -519 939 -900 
Q 619 -1281 -91 -1281 
L -331 -1281 
L -331 -750 
L -134 -750 
Q 284 -750 456 -515 
Q 628 -281 628 325 
L 628 4666 
z
" transform="scale(0.015625)"/>
      <path id="DejaVuSans-6f" d="M 1959 3097 
Q 1497 3097 1228 2736 
Q 959 2375 959 1747 
Q 959 1119 1226 758 
Q 1494 397 1959 397 
Q 2419 397 2687 759 
Q 2956 1122 2956 1747 
Q 2956 2369 2687 2733 
Q 2419 3097 1959 3097 
z
M 1959 3584 
Q 2709 3584 3137 3096 
Q 3566 2609 3566 1747 
Q 3566 888 3137 398 
Q 2709 -91 1959 -91 
Q 1206 -91 779 398 
Q 353 888 353 1747 
Q 353 2609 779 3096 
Q 1206 3584 1959 3584 
z
" transform="scale(0.015625)"/>
      <path id="DejaVuSans-59" d="M -13 4666 
L 666 4666 
L 1959 2747 
L 3244 4666 
L 3922 4666 
L 2272 2222 
L 2272 0 
L 1638 0 
L 1638 2222 
L -13 4666 
z
" transform="scale(0.015625)"/>
      <path id="DejaVuSans-76" d="M 191 3500 
L 800 3500 
L 1894 563 
L 2988 3500 
L 3597 3500 
L 2284 0 
L 1503 0 
L 191 3500 
z
" transform="scale(0.015625)"/>
      <path id="DejaVuSans-73" d="M 2834 3397 
L 2834 2853 
Q 2591 2978 2328 3040 
Q 2066 3103 1784 3103 
Q 1356 3103 1142 2972 
Q 928 2841 928 2578 
Q 928 2378 1081 2264 
Q 1234 2150 1697 2047 
L 1894 2003 
Q 2506 1872 2764 1633 
Q 3022 1394 3022 966 
Q 3022 478 2636 193 
Q 2250 -91 1575 -91 
Q 1294 -91 989 -36 
Q 684 19 347 128 
L 347 722 
Q 666 556 975 473 
Q 1284 391 1588 391 
Q 1994 391 2212 530 
Q 2431 669 2431 922 
Q 2431 1156 2273 1281 
Q 2116 1406 1581 1522 
L 1381 1569 
Q 847 1681 609 1914 
Q 372 2147 372 2553 
Q 372 3047 722 3315 
Q 1072 3584 1716 3584 
Q 2034 3584 2315 3537 
Q 2597 3491 2834 3397 
z
" transform="scale(0.015625)"/>
     </defs>
     <use xlink:href="#DejaVuSans-56"/>
     <use xlink:href="#DejaVuSans-33" x="68.408203"/>
     <use xlink:href="#DejaVuSans-4f" x="132.03125"/>
     <use xlink:href="#DejaVuSans-66" x="210.742188"/>
     <use xlink:href="#DejaVuSans-66" x="245.947266"/>
     <use xlink:href="#DejaVuSans-20" x="281.152344"/>
     <use xlink:href="#DejaVuSans-2d" x="312.939453"/>
     <use xlink:href="#DejaVuSans-20" x="349.023438"/>
     <use xlink:href="#DejaVuSans-4a" x="380.810547"/>
     <use xlink:href="#DejaVuSans-6f" x="410.302734"/>
     <use xlink:href="#DejaVuSans-69" x="471.484375"/>
     <use xlink:href="#DejaVuSans-6e" x="499.267578"/>
     <use xlink:href="#DejaVuSans-74" x="562.646484"/>
     <use xlink:href="#DejaVuSans-20" x="601.855469"/>
     <use xlink:href="#DejaVuSans-59" x="633.642578"/>
     <use xlink:href="#DejaVuSans-20" x="694.726562"/>
     <use xlink:href="#DejaVuSans-6f" x="726.513672"/>
     <use xlink:href="#DejaVuSans-76" x="787.695312"/>
     <use xlink:href="#DejaVuSans-65" x="846.875"/>
     <use xlink:href="#DejaVuSans-72" x="908.398438"/>
     <use xlink:href="#DejaVuSans-20" x="949.511719"/>
     <use xlink:href="#DejaVuSans-61" x="981.298828"/>
     <use xlink:href="#DejaVuSans-76" x="1042.578125"/>
     <use xlink:href="#DejaVuSans-65" x="1101.757812"/>
     <use xlink:href="#DejaVuSans-72" x="1163.28125"/>
     <use xlink:href="#DejaVuSans-61" x="1204.394531"/>
     <use xlink:href="#DejaVuSans-67" x="1265.673828"/>
     <use xlink:href="#DejaVuSans-65" x="1329.150391"/>
     <use xlink:href="#DejaVuSans-20" x="1390.673828"/>
     <use xlink:href="#DejaVuSans-73" x="1422.460938"/>
     <use xlink:href="#DejaVuSans-74" x="1474.560547"/>
     <use xlink:href="#DejaVuSans-65" x="1513.769531"/>
     <use xlink:href="#DejaVuSans-70" x="1575.292969"/>
     <use xlink:href="#DejaVuSans-20" x="1638.769531"/>
     <use xlink:href="#DejaVuSans-63" x="1670.556641"/>
     <use xlink:href="#DejaVuSans-79" x="1725.537109"/>
     <use xlink:href="#DejaVuSans-63" x="1784.716797"/>
     <use xlink:href="#DejaVuSans-6c" x="1839.697266"/>
     <use xlink:href="#DejaVuSans-65" x="1867.480469"/>
    </g>
   </g>
   <g id="legend_1">
    <g id="patch_7">
     <path d="M 302.440313 200.9085 
L 390.723125 200.9085 
Q 392.723125 200.9085 392.723125 198.9085 
L 392.723125 111.83975 
Q 392.723125 109.83975 390.723125 109.83975 
L 302.440313 109.83975 
Q 300.440313 109.83975 300.440313 111.83975 
L 300.440313 198.9085 
Q 300.440313 200.9085 302.440313 200.9085 
z
" style="fill: #ffffff; opacity: 0.8; stroke: #cccccc; stroke-linejoin: miter"/>
    </g>
    <g id="line2d_20">
     <path d="M 304.440313 117.938187 
L 314.440313 117.938187 
L 324.440313 117.938187 
" style="fill: none; stroke: #46327e; stroke-width: 1.5; stroke-linecap: square"/>
    </g>
    <g id="text_17">
     <!-- ToeTip  -->
     <g transform="translate(332.440313 121.438187) scale(0.1 -0.1)">
      <defs>
       <path id="DejaVuSans-54" d="M -19 4666 
L 3928 4666 
L 3928 4134 
L 2272 4134 
L 2272 0 
L 1638 0 
L 1638 4134 
L -19 4134 
L -19 4666 
z
" transform="scale(0.015625)"/>
      </defs>
      <use xlink:href="#DejaVuSans-54"/>
      <use xlink:href="#DejaVuSans-6f" x="44.083984"/>
      <use xlink:href="#DejaVuSans-65" x="105.265625"/>
      <use xlink:href="#DejaVuSans-54" x="166.789062"/>
      <use xlink:href="#DejaVuSans-69" x="224.748047"/>
      <use xlink:href="#DejaVuSans-70" x="252.53125"/>
      <use xlink:href="#DejaVuSans-20" x="316.007812"/>
     </g>
    </g>
    <g id="line2d_21">
     <path d="M 304.440313 132.616312 
L 314.440313 132.616312 
L 324.440313 132.616312 
" style="fill: none; stroke: #365c8d; stroke-width: 1.5; stroke-linecap: square"/>
    </g>
    <g id="text_18">
     <!-- Metatarsal  -->
     <g transform="translate(332.440313 136.116312) scale(0.1 -0.1)">
      <defs>
       <path id="DejaVuSans-4d" d="M 628 4666 
L 1569 4666 
L 2759 1491 
L 3956 4666 
L 4897 4666 
L 4897 0 
L 4281 0 
L 4281 4097 
L 3078 897 
L 2444 897 
L 1241 4097 
L 1241 0 
L 628 0 
L 628 4666 
z
" transform="scale(0.015625)"/>
      </defs>
      <use xlink:href="#DejaVuSans-4d"/>
      <use xlink:href="#DejaVuSans-65" x="86.279297"/>
      <use xlink:href="#DejaVuSans-74" x="147.802734"/>
      <use xlink:href="#DejaVuSans-61" x="187.011719"/>
      <use xlink:href="#DejaVuSans-74" x="248.291016"/>
      <use xlink:href="#DejaVuSans-61" x="287.5"/>
      <use xlink:href="#DejaVuSans-72" x="348.779297"/>
      <use xlink:href="#DejaVuSans-73" x="389.892578"/>
      <use xlink:href="#DejaVuSans-61" x="441.992188"/>
      <use xlink:href="#DejaVuSans-6c" x="503.271484"/>
      <use xlink:href="#DejaVuSans-20" x="531.054688"/>
     </g>
    </g>
    <g id="line2d_22">
     <path d="M 304.440313 147.294437 
L 314.440313 147.294437 
L 324.440313 147.294437 
" style="fill: none; stroke: #277f8e; stroke-width: 1.5; stroke-linecap: square"/>
    </g>
    <g id="text_19">
     <!-- Ankle  -->
     <g transform="translate(332.440313 150.794437) scale(0.1 -0.1)">
      <defs>
       <path id="DejaVuSans-41" d="M 2188 4044 
L 1331 1722 
L 3047 1722 
L 2188 4044 
z
M 1831 4666 
L 2547 4666 
L 4325 0 
L 3669 0 
L 3244 1197 
L 1141 1197 
L 716 0 
L 50 0 
L 1831 4666 
z
" transform="scale(0.015625)"/>
       <path id="DejaVuSans-6b" d="M 581 4863 
L 1159 4863 
L 1159 1991 
L 2875 3500 
L 3609 3500 
L 1753 1863 
L 3688 0 
L 2938 0 
L 1159 1709 
L 1159 0 
L 581 0 
L 581 4863 
z
" transform="scale(0.015625)"/>
      </defs>
      <use xlink:href="#DejaVuSans-41"/>
      <use xlink:href="#DejaVuSans-6e" x="68.408203"/>
      <use xlink:href="#DejaVuSans-6b" x="131.787109"/>
      <use xlink:href="#DejaVuSans-6c" x="189.697266"/>
      <use xlink:href="#DejaVuSans-65" x="217.480469"/>
      <use xlink:href="#DejaVuSans-20" x="279.003906"/>
     </g>
    </g>
    <g id="line2d_23">
     <path d="M 304.440313 161.972562 
L 314.440313 161.972562 
L 324.440313 161.972562 
" style="fill: none; stroke: #1fa187; stroke-width: 1.5; stroke-linecap: square"/>
    </g>
    <g id="text_20">
     <!-- Knee  -->
     <g transform="translate(332.440313 165.472562) scale(0.1 -0.1)">
      <defs>
       <path id="DejaVuSans-4b" d="M 628 4666 
L 1259 4666 
L 1259 2694 
L 3353 4666 
L 4166 4666 
L 1850 2491 
L 4331 0 
L 3500 0 
L 1259 2247 
L 1259 0 
L 628 0 
L 628 4666 
z
" transform="scale(0.015625)"/>
      </defs>
      <use xlink:href="#DejaVuSans-4b"/>
      <use xlink:href="#DejaVuSans-6e" x="65.576172"/>
      <use xlink:href="#DejaVuSans-65" x="128.955078"/>
      <use xlink:href="#DejaVuSans-65" x="190.478516"/>
      <use xlink:href="#DejaVuSans-20" x="252.001953"/>
     </g>
    </g>
    <g id="line2d_24">
     <path d="M 304.440313 176.650687 
L 314.440313 176.650687 
L 324.440313 176.650687 
" style="fill: none; stroke: #4ac16d; stroke-width: 1.5; stroke-linecap: square"/>
    </g>
    <g id="text_21">
     <!-- Hip  -->
     <g transform="translate(332.440313 180.150687) scale(0.1 -0.1)">
      <defs>
       <path id="DejaVuSans-48" d="M 628 4666 
L 1259 4666 
L 1259 2753 
L 3553 2753 
L 3553 4666 
L 4184 4666 
L 4184 0 
L 3553 0 
L 3553 2222 
L 1259 2222 
L 1259 0 
L 628 0 
L 628 4666 
z
" transform="scale(0.015625)"/>
      </defs>
      <use xlink:href="#DejaVuSans-48"/>
      <use xlink:href="#DejaVuSans-69" x="75.195312"/>
      <use xlink:href="#DejaVuSans-70" x="102.978516"/>
      <use xlink:href="#DejaVuSans-20" x="166.455078"/>
     </g>
    </g>
    <g id="line2d_25">
     <path d="M 304.440313 191.328812 
L 314.440313 191.328812 
L 324.440313 191.328812 
" style="fill: none; stroke: #a0da39; stroke-width: 1.5; stroke-linecap: square"/>
    </g>
    <g id="text_22">
     <!-- Crest  -->
     <g transform="translate(332.440313 194.828812) scale(0.1 -0.1)">
      <defs>
       <path id="DejaVuSans-43" d="M 4122 4306 
L 4122 3641 
Q 3803 3938 3442 4084 
Q 3081 4231 2675 4231 
Q 1875 4231 1450 3742 
Q 1025 3253 1025 2328 
Q 1025 1406 1450 917 
Q 1875 428 2675 428 
Q 3081 428 3442 575 
Q 3803 722 4122 1019 
L 4122 359 
Q 3791 134 3420 21 
Q 3050 -91 2638 -91 
Q 1578 -91 968 557 
Q 359 1206 359 2328 
Q 359 3453 968 4101 
Q 1578 4750 2638 4750 
Q 3056 4750 3426 4639 
Q 3797 4528 4122 4306 
z
" transform="scale(0.015625)"/>
      </defs>
      <use xlink:href="#DejaVuSans-43"/>
      <use xlink:href="#DejaVuSans-72" x="69.824219"/>
      <use xlink:href="#DejaVuSans-65" x="108.6875"/>
      <use xlink:href="#DejaVuSans-73" x="170.210938"/>
      <use xlink:href="#DejaVuSans-74" x="222.310547"/>
      <use xlink:href="#DejaVuSans-20" x="261.519531"/>
     </g>
    </g>
   </g>
  </g>
 </g>
 <defs>
  <clipPath id="p48d68af3ea">
   <rect x="40.603125" y="22.318125" width="357.12" height="266.112"/>
  </clipPath>
 </defs>
</svg>
