<?xml version="1.0" encoding="utf-8" standalone="no"?>
<!DOCTYPE svg PUBLIC "-//W3C//DTD SVG 1.1//EN"
  "http://www.w3.org/Graphics/SVG/1.1/DTD/svg11.dtd">
<svg xmlns:xlink="http://www.w3.org/1999/xlink" width="416.480937pt" height="325.986375pt" viewBox="0 0 416.480937 325.986375" xmlns="http://www.w3.org/2000/svg" version="1.1">
 <metadata>
  <rdf:RDF xmlns:dc="http://purl.org/dc/elements/1.1/" xmlns:cc="http://creativecommons.org/ns#" xmlns:rdf="http://www.w3.org/1999/02/22-rdf-syntax-ns#">
   <cc:Work>
    <dc:type rdf:resource="http://purl.org/dc/dcmitype/StillImage"/>
    <dc:date>2024-08-07T13:01:32.364152</dc:date>
    <dc:format>image/svg+xml</dc:format>
    <dc:creator>
     <cc:Agent>
      <dc:title>Matplotlib v3.8.4, https://matplotlib.org/</dc:title>
     </cc:Agent>
    </dc:creator>
   </cc:Work>
  </rdf:RDF>
 </metadata>
 <defs>
  <style type="text/css">*{stroke-linejoin: round; stroke-linecap: butt}</style>
 </defs>
 <g id="figure_1">
  <g id="patch_1">
   <path d="M 0 325.986375 
L 416.480937 325.986375 
L 416.480937 0 
L 0 0 
z
" style="fill: #ffffff"/>
  </g>
  <g id="axes_1">
   <g id="patch_2">
    <path d="M 52.160938 288.430125 
L 409.280938 288.430125 
L 409.280938 22.318125 
L 52.160938 22.318125 
z
" style="fill: #ffffff"/>
   </g>
   <g id="PolyCollection_1">
    <path d="M 68.393665 84.274989 
L 68.393665 134.822436 
L 81.920938 164.824922 
L 95.44821 170.798184 
L 108.975483 180.861944 
L 122.502756 176.298726 
L 136.030028 183.036339 
L 149.557301 231.886885 
L 163.084574 260.507664 
L 176.611847 276.334125 
L 190.139119 264.543986 
L 203.666392 252.948524 
L 217.193665 235.331056 
L 230.720938 239.669822 
L 244.24821 248.207442 
L 257.775483 251.067412 
L 271.302756 253.453604 
L 284.830028 246.304862 
L 298.357301 220.049015 
L 311.884574 194.173508 
L 325.411847 183.765138 
L 338.939119 160.745989 
L 352.466392 146.314319 
L 365.993665 114.856294 
L 379.520938 117.043765 
L 393.04821 121.265177 
L 393.04821 85.590473 
L 393.04821 85.590473 
L 379.520938 90.778034 
L 365.993665 96.445381 
L 352.466392 91.669703 
L 338.939119 80.698323 
L 325.411847 93.168618 
L 311.884574 100.93993 
L 298.357301 93.516311 
L 284.830028 79.666699 
L 271.302756 70.586658 
L 257.775483 61.106874 
L 244.24821 67.426395 
L 230.720938 52.569434 
L 217.193665 34.414125 
L 203.666392 48.301074 
L 190.139119 54.699674 
L 176.611847 58.207227 
L 163.084574 78.105726 
L 149.557301 99.130166 
L 136.030028 93.078387 
L 122.502756 116.65461 
L 108.975483 114.323251 
L 95.44821 123.082384 
L 81.920938 126.360546 
L 68.393665 84.274989 
z
" clip-path="url(#p325886d4af)" style="fill: #46327e; fill-opacity: 0.2"/>
   </g>
   <g id="PolyCollection_2">
    <path d="M 68.393665 93.078656 
L 68.393665 140.152617 
L 81.920938 158.541562 
L 95.44821 173.43769 
L 108.975483 185.207956 
L 122.502756 175.293142 
L 136.030028 195.439177 
L 149.557301 235.694679 
L 163.084574 252.630443 
L 176.611847 256.78558 
L 190.139119 258.661292 
L 203.666392 253.286365 
L 217.193665 241.542049 
L 230.720938 249.604951 
L 244.24821 256.542105 
L 257.775483 247.823723 
L 271.302756 242.594974 
L 284.830028 232.856012 
L 298.357301 211.635894 
L 311.884574 195.493616 
L 325.411847 184.0892 
L 338.939119 171.428476 
L 352.466392 147.000792 
L 365.993665 111.277251 
L 379.520938 119.797877 
L 393.04821 130.802342 
L 393.04821 87.901425 
L 393.04821 87.901425 
L 379.520938 92.329411 
L 365.993665 101.824433 
L 352.466392 96.040324 
L 338.939119 91.719821 
L 325.411847 92.317622 
L 311.884574 98.917268 
L 298.357301 90.252551 
L 284.830028 81.396294 
L 271.302756 71.951637 
L 257.775483 61.625627 
L 244.24821 65.160908 
L 230.720938 57.936668 
L 217.193665 43.587162 
L 203.666392 57.653864 
L 190.139119 68.492114 
L 176.611847 70.833463 
L 163.084574 85.158563 
L 149.557301 99.25298 
L 136.030028 95.973211 
L 122.502756 114.223876 
L 108.975483 113.750714 
L 95.44821 114.128341 
L 81.920938 119.809606 
L 68.393665 93.078656 
z
" clip-path="url(#p325886d4af)" style="fill: #365c8d; fill-opacity: 0.2"/>
   </g>
   <g id="PolyCollection_3">
    <path d="M 68.393665 104.465692 
L 68.393665 142.88999 
L 81.920938 154.554669 
L 95.44821 164.326553 
L 108.975483 176.692987 
L 122.502756 182.433888 
L 136.030028 203.404548 
L 149.557301 213.365583 
L 163.084574 228.410165 
L 176.611847 236.135177 
L 190.139119 242.158408 
L 203.666392 247.540979 
L 217.193665 244.098961 
L 230.720938 243.589973 
L 244.24821 243.23101 
L 257.775483 233.694185 
L 271.302756 227.099823 
L 284.830028 217.184816 
L 298.357301 208.469424 
L 311.884574 203.692769 
L 325.411847 198.808968 
L 338.939119 190.896195 
L 352.466392 173.495366 
L 365.993665 149.5261 
L 379.520938 138.914082 
L 393.04821 139.716277 
L 393.04821 96.143055 
L 393.04821 96.143055 
L 379.520938 99.902416 
L 365.993665 100.910295 
L 352.466392 92.660227 
L 338.939119 94.037671 
L 325.411847 101.397896 
L 311.884574 99.386152 
L 298.357301 85.10125 
L 284.830028 76.654693 
L 271.302756 71.398774 
L 257.775483 62.171737 
L 244.24821 57.831351 
L 230.720938 58.122148 
L 217.193665 66.374412 
L 203.666392 77.015755 
L 190.139119 87.395775 
L 176.611847 90.434275 
L 163.084574 99.266771 
L 149.557301 107.712283 
L 136.030028 111.265319 
L 122.502756 121.350756 
L 108.975483 118.491129 
L 95.44821 108.785291 
L 81.920938 105.798691 
L 68.393665 104.465692 
z
" clip-path="url(#p325886d4af)" style="fill: #277f8e; fill-opacity: 0.2"/>
   </g>
   <g id="PolyCollection_4">
    <path d="M 68.393665 116.625581 
L 68.393665 178.079921 
L 81.920938 176.003468 
L 95.44821 173.88441 
L 108.975483 181.47438 
L 122.502756 183.570119 
L 136.030028 185.250498 
L 149.557301 188.424393 
L 163.084574 196.373083 
L 176.611847 191.038976 
L 190.139119 189.13852 
L 203.666392 187.51522 
L 217.193665 183.624724 
L 230.720938 184.329275 
L 244.24821 182.239866 
L 257.775483 183.634793 
L 271.302756 182.910918 
L 284.830028 184.492754 
L 298.357301 188.407681 
L 311.884574 186.806133 
L 325.411847 182.448868 
L 338.939119 179.076757 
L 352.466392 176.871793 
L 365.993665 176.313981 
L 379.520938 176.302059 
L 393.04821 175.260311 
L 393.04821 118.122217 
L 393.04821 118.122217 
L 379.520938 117.553774 
L 365.993665 117.570613 
L 352.466392 116.176197 
L 338.939119 113.777454 
L 325.411847 114.393774 
L 311.884574 106.432822 
L 298.357301 101.380912 
L 284.830028 104.960082 
L 271.302756 105.360804 
L 257.775483 106.433649 
L 244.24821 106.364433 
L 230.720938 106.029495 
L 217.193665 109.604021 
L 203.666392 112.465915 
L 190.139119 114.260726 
L 176.611847 112.132941 
L 163.084574 114.187043 
L 149.557301 116.565814 
L 136.030028 111.902713 
L 122.502756 113.727147 
L 108.975483 116.910128 
L 95.44821 114.888781 
L 81.920938 113.949014 
L 68.393665 116.625581 
z
" clip-path="url(#p325886d4af)" style="fill: #1fa187; fill-opacity: 0.2"/>
   </g>
   <g id="PolyCollection_5">
    <path d="M 68.393665 114.307536 
L 68.393665 179.018772 
L 81.920938 175.818573 
L 95.44821 170.103573 
L 108.975483 174.389743 
L 122.502756 175.139799 
L 136.030028 172.847023 
L 149.557301 177.865625 
L 163.084574 182.332751 
L 176.611847 179.660801 
L 190.139119 179.983324 
L 203.666392 178.98386 
L 217.193665 179.098785 
L 230.720938 181.497447 
L 244.24821 181.788141 
L 257.775483 186.503776 
L 271.302756 190.244404 
L 284.830028 194.674562 
L 298.357301 196.090393 
L 311.884574 193.638645 
L 325.411847 194.590545 
L 338.939119 196.261307 
L 352.466392 195.192374 
L 365.993665 192.827405 
L 379.520938 188.542886 
L 393.04821 184.936919 
L 393.04821 117.231756 
L 393.04821 117.231756 
L 379.520938 113.115115 
L 365.993665 110.249303 
L 352.466392 110.892911 
L 338.939119 109.110417 
L 325.411847 110.041959 
L 311.884574 107.165672 
L 298.357301 106.474176 
L 284.830028 106.673081 
L 271.302756 106.068564 
L 257.775483 110.589443 
L 244.24821 110.631406 
L 230.720938 111.630935 
L 217.193665 116.399378 
L 203.666392 118.282808 
L 190.139119 115.354892 
L 176.611847 115.475921 
L 163.084574 114.562103 
L 149.557301 115.184147 
L 136.030028 117.038063 
L 122.502756 116.240472 
L 108.975483 119.510128 
L 95.44821 117.11891 
L 81.920938 114.810101 
L 68.393665 114.307536 
z
" clip-path="url(#p325886d4af)" style="fill: #4ac16d; fill-opacity: 0.2"/>
   </g>
   <g id="PolyCollection_6">
    <path d="M 68.393665 113.825154 
L 68.393665 175.15225 
L 81.920938 178.398429 
L 95.44821 173.558013 
L 108.975483 176.549574 
L 122.502756 180.107622 
L 136.030028 178.367836 
L 149.557301 180.679271 
L 163.084574 185.981616 
L 176.611847 182.689145 
L 190.139119 184.808977 
L 203.666392 183.041845 
L 217.193665 182.215006 
L 230.720938 181.971068 
L 244.24821 179.046036 
L 257.775483 179.12794 
L 271.302756 182.148146 
L 284.830028 183.151646 
L 298.357301 184.520194 
L 311.884574 187.486691 
L 325.411847 187.585926 
L 338.939119 187.101844 
L 352.466392 187.191367 
L 365.993665 191.422455 
L 379.520938 189.31596 
L 393.04821 186.546877 
L 393.04821 120.081091 
L 393.04821 120.081091 
L 379.520938 116.257163 
L 365.993665 110.485394 
L 352.466392 111.592031 
L 338.939119 113.291375 
L 325.411847 110.232262 
L 311.884574 110.580517 
L 298.357301 116.269307 
L 284.830028 118.327413 
L 271.302756 121.162136 
L 257.775483 121.907185 
L 244.24821 119.581745 
L 230.720938 121.428582 
L 217.193665 119.567513 
L 203.666392 118.926136 
L 190.139119 117.716654 
L 176.611847 114.165918 
L 163.084574 114.389916 
L 149.557301 114.920079 
L 136.030028 114.952509 
L 122.502756 113.997632 
L 108.975483 115.385351 
L 95.44821 113.317477 
L 81.920938 110.136456 
L 68.393665 113.825154 
z
" clip-path="url(#p325886d4af)" style="fill: #a0da39; fill-opacity: 0.2"/>
   </g>
   <g id="matplotlib.axis_1">
    <g id="xtick_1">
     <g id="line2d_1">
      <defs>
       <path id="m739712147e" d="M 0 0 
L 0 3.5 
" style="stroke: #000000; stroke-width: 0.8"/>
      </defs>
      <g>
       <use xlink:href="#m739712147e" x="68.393665" y="288.430125" style="stroke: #000000; stroke-width: 0.8"/>
      </g>
     </g>
     <g id="text_1">
      <!-- 0 -->
      <g transform="translate(65.212415 303.028562) scale(0.1 -0.1)">
       <defs>
        <path id="DejaVuSans-30" d="M 2034 4250 
Q 1547 4250 1301 3770 
Q 1056 3291 1056 2328 
Q 1056 1369 1301 889 
Q 1547 409 2034 409 
Q 2525 409 2770 889 
Q 3016 1369 3016 2328 
Q 3016 3291 2770 3770 
Q 2525 4250 2034 4250 
z
M 2034 4750 
Q 2819 4750 3233 4129 
Q 3647 3509 3647 2328 
Q 3647 1150 3233 529 
Q 2819 -91 2034 -91 
Q 1250 -91 836 529 
Q 422 1150 422 2328 
Q 422 3509 836 4129 
Q 1250 4750 2034 4750 
z
" transform="scale(0.015625)"/>
       </defs>
       <use xlink:href="#DejaVuSans-30"/>
      </g>
     </g>
    </g>
    <g id="xtick_2">
     <g id="line2d_2">
      <g>
       <use xlink:href="#m739712147e" x="133.324574" y="288.430125" style="stroke: #000000; stroke-width: 0.8"/>
      </g>
     </g>
     <g id="text_2">
      <!-- 20 -->
      <g transform="translate(126.962074 303.028562) scale(0.1 -0.1)">
       <defs>
        <path id="DejaVuSans-32" d="M 1228 531 
L 3431 531 
L 3431 0 
L 469 0 
L 469 531 
Q 828 903 1448 1529 
Q 2069 2156 2228 2338 
Q 2531 2678 2651 2914 
Q 2772 3150 2772 3378 
Q 2772 3750 2511 3984 
Q 2250 4219 1831 4219 
Q 1534 4219 1204 4116 
Q 875 4013 500 3803 
L 500 4441 
Q 881 4594 1212 4672 
Q 1544 4750 1819 4750 
Q 2544 4750 2975 4387 
Q 3406 4025 3406 3419 
Q 3406 3131 3298 2873 
Q 3191 2616 2906 2266 
Q 2828 2175 2409 1742 
Q 1991 1309 1228 531 
z
" transform="scale(0.015625)"/>
       </defs>
       <use xlink:href="#DejaVuSans-32"/>
       <use xlink:href="#DejaVuSans-30" x="63.623047"/>
      </g>
     </g>
    </g>
    <g id="xtick_3">
     <g id="line2d_3">
      <g>
       <use xlink:href="#m739712147e" x="198.255483" y="288.430125" style="stroke: #000000; stroke-width: 0.8"/>
      </g>
     </g>
     <g id="text_3">
      <!-- 40 -->
      <g transform="translate(191.892983 303.028562) scale(0.1 -0.1)">
       <defs>
        <path id="DejaVuSans-34" d="M 2419 4116 
L 825 1625 
L 2419 1625 
L 2419 4116 
z
M 2253 4666 
L 3047 4666 
L 3047 1625 
L 3713 1625 
L 3713 1100 
L 3047 1100 
L 3047 0 
L 2419 0 
L 2419 1100 
L 313 1100 
L 313 1709 
L 2253 4666 
z
" transform="scale(0.015625)"/>
       </defs>
       <use xlink:href="#DejaVuSans-34"/>
       <use xlink:href="#DejaVuSans-30" x="63.623047"/>
      </g>
     </g>
    </g>
    <g id="xtick_4">
     <g id="line2d_4">
      <g>
       <use xlink:href="#m739712147e" x="263.186392" y="288.430125" style="stroke: #000000; stroke-width: 0.8"/>
      </g>
     </g>
     <g id="text_4">
      <!-- 60 -->
      <g transform="translate(256.823892 303.028562) scale(0.1 -0.1)">
       <defs>
        <path id="DejaVuSans-36" d="M 2113 2584 
Q 1688 2584 1439 2293 
Q 1191 2003 1191 1497 
Q 1191 994 1439 701 
Q 1688 409 2113 409 
Q 2538 409 2786 701 
Q 3034 994 3034 1497 
Q 3034 2003 2786 2293 
Q 2538 2584 2113 2584 
z
M 3366 4563 
L 3366 3988 
Q 3128 4100 2886 4159 
Q 2644 4219 2406 4219 
Q 1781 4219 1451 3797 
Q 1122 3375 1075 2522 
Q 1259 2794 1537 2939 
Q 1816 3084 2150 3084 
Q 2853 3084 3261 2657 
Q 3669 2231 3669 1497 
Q 3669 778 3244 343 
Q 2819 -91 2113 -91 
Q 1303 -91 875 529 
Q 447 1150 447 2328 
Q 447 3434 972 4092 
Q 1497 4750 2381 4750 
Q 2619 4750 2861 4703 
Q 3103 4656 3366 4563 
z
" transform="scale(0.015625)"/>
       </defs>
       <use xlink:href="#DejaVuSans-36"/>
       <use xlink:href="#DejaVuSans-30" x="63.623047"/>
      </g>
     </g>
    </g>
    <g id="xtick_5">
     <g id="line2d_5">
      <g>
       <use xlink:href="#m739712147e" x="328.117301" y="288.430125" style="stroke: #000000; stroke-width: 0.8"/>
      </g>
     </g>
     <g id="text_5">
      <!-- 80 -->
      <g transform="translate(321.754801 303.028562) scale(0.1 -0.1)">
       <defs>
        <path id="DejaVuSans-38" d="M 2034 2216 
Q 1584 2216 1326 1975 
Q 1069 1734 1069 1313 
Q 1069 891 1326 650 
Q 1584 409 2034 409 
Q 2484 409 2743 651 
Q 3003 894 3003 1313 
Q 3003 1734 2745 1975 
Q 2488 2216 2034 2216 
z
M 1403 2484 
Q 997 2584 770 2862 
Q 544 3141 544 3541 
Q 544 4100 942 4425 
Q 1341 4750 2034 4750 
Q 2731 4750 3128 4425 
Q 3525 4100 3525 3541 
Q 3525 3141 3298 2862 
Q 3072 2584 2669 2484 
Q 3125 2378 3379 2068 
Q 3634 1759 3634 1313 
Q 3634 634 3220 271 
Q 2806 -91 2034 -91 
Q 1263 -91 848 271 
Q 434 634 434 1313 
Q 434 1759 690 2068 
Q 947 2378 1403 2484 
z
M 1172 3481 
Q 1172 3119 1398 2916 
Q 1625 2713 2034 2713 
Q 2441 2713 2670 2916 
Q 2900 3119 2900 3481 
Q 2900 3844 2670 4047 
Q 2441 4250 2034 4250 
Q 1625 4250 1398 4047 
Q 1172 3844 1172 3481 
z
" transform="scale(0.015625)"/>
       </defs>
       <use xlink:href="#DejaVuSans-38"/>
       <use xlink:href="#DejaVuSans-30" x="63.623047"/>
      </g>
     </g>
    </g>
    <g id="xtick_6">
     <g id="line2d_6">
      <g>
       <use xlink:href="#m739712147e" x="393.04821" y="288.430125" style="stroke: #000000; stroke-width: 0.8"/>
      </g>
     </g>
     <g id="text_6">
      <!-- 100 -->
      <g transform="translate(383.50446 303.028562) scale(0.1 -0.1)">
       <defs>
        <path id="DejaVuSans-31" d="M 794 531 
L 1825 531 
L 1825 4091 
L 703 3866 
L 703 4441 
L 1819 4666 
L 2450 4666 
L 2450 531 
L 3481 531 
L 3481 0 
L 794 0 
L 794 531 
z
" transform="scale(0.015625)"/>
       </defs>
       <use xlink:href="#DejaVuSans-31"/>
       <use xlink:href="#DejaVuSans-30" x="63.623047"/>
       <use xlink:href="#DejaVuSans-30" x="127.246094"/>
      </g>
     </g>
    </g>
    <g id="text_7">
     <!-- Percentage -->
     <g transform="translate(202.598281 316.706687) scale(0.1 -0.1)">
      <defs>
       <path id="DejaVuSans-50" d="M 1259 4147 
L 1259 2394 
L 2053 2394 
Q 2494 2394 2734 2622 
Q 2975 2850 2975 3272 
Q 2975 3691 2734 3919 
Q 2494 4147 2053 4147 
L 1259 4147 
z
M 628 4666 
L 2053 4666 
Q 2838 4666 3239 4311 
Q 3641 3956 3641 3272 
Q 3641 2581 3239 2228 
Q 2838 1875 2053 1875 
L 1259 1875 
L 1259 0 
L 628 0 
L 628 4666 
z
" transform="scale(0.015625)"/>
       <path id="DejaVuSans-65" d="M 3597 1894 
L 3597 1613 
L 953 1613 
Q 991 1019 1311 708 
Q 1631 397 2203 397 
Q 2534 397 2845 478 
Q 3156 559 3463 722 
L 3463 178 
Q 3153 47 2828 -22 
Q 2503 -91 2169 -91 
Q 1331 -91 842 396 
Q 353 884 353 1716 
Q 353 2575 817 3079 
Q 1281 3584 2069 3584 
Q 2775 3584 3186 3129 
Q 3597 2675 3597 1894 
z
M 3022 2063 
Q 3016 2534 2758 2815 
Q 2500 3097 2075 3097 
Q 1594 3097 1305 2825 
Q 1016 2553 972 2059 
L 3022 2063 
z
" transform="scale(0.015625)"/>
       <path id="DejaVuSans-72" d="M 2631 2963 
Q 2534 3019 2420 3045 
Q 2306 3072 2169 3072 
Q 1681 3072 1420 2755 
Q 1159 2438 1159 1844 
L 1159 0 
L 581 0 
L 581 3500 
L 1159 3500 
L 1159 2956 
Q 1341 3275 1631 3429 
Q 1922 3584 2338 3584 
Q 2397 3584 2469 3576 
Q 2541 3569 2628 3553 
L 2631 2963 
z
" transform="scale(0.015625)"/>
       <path id="DejaVuSans-63" d="M 3122 3366 
L 3122 2828 
Q 2878 2963 2633 3030 
Q 2388 3097 2138 3097 
Q 1578 3097 1268 2742 
Q 959 2388 959 1747 
Q 959 1106 1268 751 
Q 1578 397 2138 397 
Q 2388 397 2633 464 
Q 2878 531 3122 666 
L 3122 134 
Q 2881 22 2623 -34 
Q 2366 -91 2075 -91 
Q 1284 -91 818 406 
Q 353 903 353 1747 
Q 353 2603 823 3093 
Q 1294 3584 2113 3584 
Q 2378 3584 2631 3529 
Q 2884 3475 3122 3366 
z
" transform="scale(0.015625)"/>
       <path id="DejaVuSans-6e" d="M 3513 2113 
L 3513 0 
L 2938 0 
L 2938 2094 
Q 2938 2591 2744 2837 
Q 2550 3084 2163 3084 
Q 1697 3084 1428 2787 
Q 1159 2491 1159 1978 
L 1159 0 
L 581 0 
L 581 3500 
L 1159 3500 
L 1159 2956 
Q 1366 3272 1645 3428 
Q 1925 3584 2291 3584 
Q 2894 3584 3203 3211 
Q 3513 2838 3513 2113 
z
" transform="scale(0.015625)"/>
       <path id="DejaVuSans-74" d="M 1172 4494 
L 1172 3500 
L 2356 3500 
L 2356 3053 
L 1172 3053 
L 1172 1153 
Q 1172 725 1289 603 
Q 1406 481 1766 481 
L 2356 481 
L 2356 0 
L 1766 0 
Q 1100 0 847 248 
Q 594 497 594 1153 
L 594 3053 
L 172 3053 
L 172 3500 
L 594 3500 
L 594 4494 
L 1172 4494 
z
" transform="scale(0.015625)"/>
       <path id="DejaVuSans-61" d="M 2194 1759 
Q 1497 1759 1228 1600 
Q 959 1441 959 1056 
Q 959 750 1161 570 
Q 1363 391 1709 391 
Q 2188 391 2477 730 
Q 2766 1069 2766 1631 
L 2766 1759 
L 2194 1759 
z
M 3341 1997 
L 3341 0 
L 2766 0 
L 2766 531 
Q 2569 213 2275 61 
Q 1981 -91 1556 -91 
Q 1019 -91 701 211 
Q 384 513 384 1019 
Q 384 1609 779 1909 
Q 1175 2209 1959 2209 
L 2766 2209 
L 2766 2266 
Q 2766 2663 2505 2880 
Q 2244 3097 1772 3097 
Q 1472 3097 1187 3025 
Q 903 2953 641 2809 
L 641 3341 
Q 956 3463 1253 3523 
Q 1550 3584 1831 3584 
Q 2591 3584 2966 3190 
Q 3341 2797 3341 1997 
z
" transform="scale(0.015625)"/>
       <path id="DejaVuSans-67" d="M 2906 1791 
Q 2906 2416 2648 2759 
Q 2391 3103 1925 3103 
Q 1463 3103 1205 2759 
Q 947 2416 947 1791 
Q 947 1169 1205 825 
Q 1463 481 1925 481 
Q 2391 481 2648 825 
Q 2906 1169 2906 1791 
z
M 3481 434 
Q 3481 -459 3084 -895 
Q 2688 -1331 1869 -1331 
Q 1566 -1331 1297 -1286 
Q 1028 -1241 775 -1147 
L 775 -588 
Q 1028 -725 1275 -790 
Q 1522 -856 1778 -856 
Q 2344 -856 2625 -561 
Q 2906 -266 2906 331 
L 2906 616 
Q 2728 306 2450 153 
Q 2172 0 1784 0 
Q 1141 0 747 490 
Q 353 981 353 1791 
Q 353 2603 747 3093 
Q 1141 3584 1784 3584 
Q 2172 3584 2450 3431 
Q 2728 3278 2906 2969 
L 2906 3500 
L 3481 3500 
L 3481 434 
z
" transform="scale(0.015625)"/>
      </defs>
      <use xlink:href="#DejaVuSans-50"/>
      <use xlink:href="#DejaVuSans-65" x="56.677734"/>
      <use xlink:href="#DejaVuSans-72" x="118.201172"/>
      <use xlink:href="#DejaVuSans-63" x="157.064453"/>
      <use xlink:href="#DejaVuSans-65" x="212.044922"/>
      <use xlink:href="#DejaVuSans-6e" x="273.568359"/>
      <use xlink:href="#DejaVuSans-74" x="336.947266"/>
      <use xlink:href="#DejaVuSans-61" x="376.15625"/>
      <use xlink:href="#DejaVuSans-67" x="437.435547"/>
      <use xlink:href="#DejaVuSans-65" x="500.912109"/>
     </g>
    </g>
   </g>
   <g id="matplotlib.axis_2">
    <g id="ytick_1">
     <g id="line2d_7">
      <defs>
       <path id="mc4b0a80b9d" d="M 0 0 
L -3.5 0 
" style="stroke: #000000; stroke-width: 0.8"/>
      </defs>
      <g>
       <use xlink:href="#mc4b0a80b9d" x="52.160938" y="260.182322" style="stroke: #000000; stroke-width: 0.8"/>
      </g>
     </g>
     <g id="text_8">
      <!-- −0.4 -->
      <g transform="translate(20.878125 263.98154) scale(0.1 -0.1)">
       <defs>
        <path id="DejaVuSans-2212" d="M 678 2272 
L 4684 2272 
L 4684 1741 
L 678 1741 
L 678 2272 
z
" transform="scale(0.015625)"/>
        <path id="DejaVuSans-2e" d="M 684 794 
L 1344 794 
L 1344 0 
L 684 0 
L 684 794 
z
" transform="scale(0.015625)"/>
       </defs>
       <use xlink:href="#DejaVuSans-2212"/>
       <use xlink:href="#DejaVuSans-30" x="83.789062"/>
       <use xlink:href="#DejaVuSans-2e" x="147.412109"/>
       <use xlink:href="#DejaVuSans-34" x="179.199219"/>
      </g>
     </g>
    </g>
    <g id="ytick_2">
     <g id="line2d_8">
      <g>
       <use xlink:href="#mc4b0a80b9d" x="52.160938" y="207.82967" style="stroke: #000000; stroke-width: 0.8"/>
      </g>
     </g>
     <g id="text_9">
      <!-- −0.2 -->
      <g transform="translate(20.878125 211.628888) scale(0.1 -0.1)">
       <use xlink:href="#DejaVuSans-2212"/>
       <use xlink:href="#DejaVuSans-30" x="83.789062"/>
       <use xlink:href="#DejaVuSans-2e" x="147.412109"/>
       <use xlink:href="#DejaVuSans-32" x="179.199219"/>
      </g>
     </g>
    </g>
    <g id="ytick_3">
     <g id="line2d_9">
      <g>
       <use xlink:href="#mc4b0a80b9d" x="52.160938" y="155.477018" style="stroke: #000000; stroke-width: 0.8"/>
      </g>
     </g>
     <g id="text_10">
      <!-- 0.0 -->
      <g transform="translate(29.257813 159.276236) scale(0.1 -0.1)">
       <use xlink:href="#DejaVuSans-30"/>
       <use xlink:href="#DejaVuSans-2e" x="63.623047"/>
       <use xlink:href="#DejaVuSans-30" x="95.410156"/>
      </g>
     </g>
    </g>
    <g id="ytick_4">
     <g id="line2d_10">
      <g>
       <use xlink:href="#mc4b0a80b9d" x="52.160938" y="103.124366" style="stroke: #000000; stroke-width: 0.8"/>
      </g>
     </g>
     <g id="text_11">
      <!-- 0.2 -->
      <g transform="translate(29.257813 106.923584) scale(0.1 -0.1)">
       <use xlink:href="#DejaVuSans-30"/>
       <use xlink:href="#DejaVuSans-2e" x="63.623047"/>
       <use xlink:href="#DejaVuSans-32" x="95.410156"/>
      </g>
     </g>
    </g>
    <g id="ytick_5">
     <g id="line2d_11">
      <g>
       <use xlink:href="#mc4b0a80b9d" x="52.160938" y="50.771714" style="stroke: #000000; stroke-width: 0.8"/>
      </g>
     </g>
     <g id="text_12">
      <!-- 0.4 -->
      <g transform="translate(29.257813 54.570932) scale(0.1 -0.1)">
       <use xlink:href="#DejaVuSans-30"/>
       <use xlink:href="#DejaVuSans-2e" x="63.623047"/>
       <use xlink:href="#DejaVuSans-34" x="95.410156"/>
      </g>
     </g>
    </g>
    <g id="text_13">
     <!-- Velocity (x in pixels / 10ms) -->
     <g transform="translate(14.798438 224.312406) rotate(-90) scale(0.1 -0.1)">
      <defs>
       <path id="DejaVuSans-56" d="M 1831 0 
L 50 4666 
L 709 4666 
L 2188 738 
L 3669 4666 
L 4325 4666 
L 2547 0 
L 1831 0 
z
" transform="scale(0.015625)"/>
       <path id="DejaVuSans-6c" d="M 603 4863 
L 1178 4863 
L 1178 0 
L 603 0 
L 603 4863 
z
" transform="scale(0.015625)"/>
       <path id="DejaVuSans-6f" d="M 1959 3097 
Q 1497 3097 1228 2736 
Q 959 2375 959 1747 
Q 959 1119 1226 758 
Q 1494 397 1959 397 
Q 2419 397 2687 759 
Q 2956 1122 2956 1747 
Q 2956 2369 2687 2733 
Q 2419 3097 1959 3097 
z
M 1959 3584 
Q 2709 3584 3137 3096 
Q 3566 2609 3566 1747 
Q 3566 888 3137 398 
Q 2709 -91 1959 -91 
Q 1206 -91 779 398 
Q 353 888 353 1747 
Q 353 2609 779 3096 
Q 1206 3584 1959 3584 
z
" transform="scale(0.015625)"/>
       <path id="DejaVuSans-69" d="M 603 3500 
L 1178 3500 
L 1178 0 
L 603 0 
L 603 3500 
z
M 603 4863 
L 1178 4863 
L 1178 4134 
L 603 4134 
L 603 4863 
z
" transform="scale(0.015625)"/>
       <path id="DejaVuSans-79" d="M 2059 -325 
Q 1816 -950 1584 -1140 
Q 1353 -1331 966 -1331 
L 506 -1331 
L 506 -850 
L 844 -850 
Q 1081 -850 1212 -737 
Q 1344 -625 1503 -206 
L 1606 56 
L 191 3500 
L 800 3500 
L 1894 763 
L 2988 3500 
L 3597 3500 
L 2059 -325 
z
" transform="scale(0.015625)"/>
       <path id="DejaVuSans-20" transform="scale(0.015625)"/>
       <path id="DejaVuSans-28" d="M 1984 4856 
Q 1566 4138 1362 3434 
Q 1159 2731 1159 2009 
Q 1159 1288 1364 580 
Q 1569 -128 1984 -844 
L 1484 -844 
Q 1016 -109 783 600 
Q 550 1309 550 2009 
Q 550 2706 781 3412 
Q 1013 4119 1484 4856 
L 1984 4856 
z
" transform="scale(0.015625)"/>
       <path id="DejaVuSans-78" d="M 3513 3500 
L 2247 1797 
L 3578 0 
L 2900 0 
L 1881 1375 
L 863 0 
L 184 0 
L 1544 1831 
L 300 3500 
L 978 3500 
L 1906 2253 
L 2834 3500 
L 3513 3500 
z
" transform="scale(0.015625)"/>
       <path id="DejaVuSans-70" d="M 1159 525 
L 1159 -1331 
L 581 -1331 
L 581 3500 
L 1159 3500 
L 1159 2969 
Q 1341 3281 1617 3432 
Q 1894 3584 2278 3584 
Q 2916 3584 3314 3078 
Q 3713 2572 3713 1747 
Q 3713 922 3314 415 
Q 2916 -91 2278 -91 
Q 1894 -91 1617 61 
Q 1341 213 1159 525 
z
M 3116 1747 
Q 3116 2381 2855 2742 
Q 2594 3103 2138 3103 
Q 1681 3103 1420 2742 
Q 1159 2381 1159 1747 
Q 1159 1113 1420 752 
Q 1681 391 2138 391 
Q 2594 391 2855 752 
Q 3116 1113 3116 1747 
z
" transform="scale(0.015625)"/>
       <path id="DejaVuSans-73" d="M 2834 3397 
L 2834 2853 
Q 2591 2978 2328 3040 
Q 2066 3103 1784 3103 
Q 1356 3103 1142 2972 
Q 928 2841 928 2578 
Q 928 2378 1081 2264 
Q 1234 2150 1697 2047 
L 1894 2003 
Q 2506 1872 2764 1633 
Q 3022 1394 3022 966 
Q 3022 478 2636 193 
Q 2250 -91 1575 -91 
Q 1294 -91 989 -36 
Q 684 19 347 128 
L 347 722 
Q 666 556 975 473 
Q 1284 391 1588 391 
Q 1994 391 2212 530 
Q 2431 669 2431 922 
Q 2431 1156 2273 1281 
Q 2116 1406 1581 1522 
L 1381 1569 
Q 847 1681 609 1914 
Q 372 2147 372 2553 
Q 372 3047 722 3315 
Q 1072 3584 1716 3584 
Q 2034 3584 2315 3537 
Q 2597 3491 2834 3397 
z
" transform="scale(0.015625)"/>
       <path id="DejaVuSans-2f" d="M 1625 4666 
L 2156 4666 
L 531 -594 
L 0 -594 
L 1625 4666 
z
" transform="scale(0.015625)"/>
       <path id="DejaVuSans-6d" d="M 3328 2828 
Q 3544 3216 3844 3400 
Q 4144 3584 4550 3584 
Q 5097 3584 5394 3201 
Q 5691 2819 5691 2113 
L 5691 0 
L 5113 0 
L 5113 2094 
Q 5113 2597 4934 2840 
Q 4756 3084 4391 3084 
Q 3944 3084 3684 2787 
Q 3425 2491 3425 1978 
L 3425 0 
L 2847 0 
L 2847 2094 
Q 2847 2600 2669 2842 
Q 2491 3084 2119 3084 
Q 1678 3084 1418 2786 
Q 1159 2488 1159 1978 
L 1159 0 
L 581 0 
L 581 3500 
L 1159 3500 
L 1159 2956 
Q 1356 3278 1631 3431 
Q 1906 3584 2284 3584 
Q 2666 3584 2933 3390 
Q 3200 3197 3328 2828 
z
" transform="scale(0.015625)"/>
       <path id="DejaVuSans-29" d="M 513 4856 
L 1013 4856 
Q 1481 4119 1714 3412 
Q 1947 2706 1947 2009 
Q 1947 1309 1714 600 
Q 1481 -109 1013 -844 
L 513 -844 
Q 928 -128 1133 580 
Q 1338 1288 1338 2009 
Q 1338 2731 1133 3434 
Q 928 4138 513 4856 
z
" transform="scale(0.015625)"/>
      </defs>
      <use xlink:href="#DejaVuSans-56"/>
      <use xlink:href="#DejaVuSans-65" x="60.658203"/>
      <use xlink:href="#DejaVuSans-6c" x="122.181641"/>
      <use xlink:href="#DejaVuSans-6f" x="149.964844"/>
      <use xlink:href="#DejaVuSans-63" x="211.146484"/>
      <use xlink:href="#DejaVuSans-69" x="266.126953"/>
      <use xlink:href="#DejaVuSans-74" x="293.910156"/>
      <use xlink:href="#DejaVuSans-79" x="333.119141"/>
      <use xlink:href="#DejaVuSans-20" x="392.298828"/>
      <use xlink:href="#DejaVuSans-28" x="424.085938"/>
      <use xlink:href="#DejaVuSans-78" x="463.099609"/>
      <use xlink:href="#DejaVuSans-20" x="522.279297"/>
      <use xlink:href="#DejaVuSans-69" x="554.066406"/>
      <use xlink:href="#DejaVuSans-6e" x="581.849609"/>
      <use xlink:href="#DejaVuSans-20" x="645.228516"/>
      <use xlink:href="#DejaVuSans-70" x="677.015625"/>
      <use xlink:href="#DejaVuSans-69" x="740.492188"/>
      <use xlink:href="#DejaVuSans-78" x="768.275391"/>
      <use xlink:href="#DejaVuSans-65" x="824.330078"/>
      <use xlink:href="#DejaVuSans-6c" x="885.853516"/>
      <use xlink:href="#DejaVuSans-73" x="913.636719"/>
      <use xlink:href="#DejaVuSans-20" x="965.736328"/>
      <use xlink:href="#DejaVuSans-2f" x="997.523438"/>
      <use xlink:href="#DejaVuSans-20" x="1031.214844"/>
      <use xlink:href="#DejaVuSans-31" x="1063.001953"/>
      <use xlink:href="#DejaVuSans-30" x="1126.625"/>
      <use xlink:href="#DejaVuSans-6d" x="1190.248047"/>
      <use xlink:href="#DejaVuSans-73" x="1287.660156"/>
      <use xlink:href="#DejaVuSans-29" x="1339.759766"/>
     </g>
    </g>
   </g>
   <g id="line2d_12">
    <path d="M 68.393665 109.548713 
L 81.920938 145.592734 
L 95.44821 146.940284 
L 108.975483 147.592597 
L 122.502756 146.476668 
L 136.030028 138.057363 
L 149.557301 165.508525 
L 163.084574 169.306695 
L 176.611847 167.270676 
L 190.139119 159.62183 
L 203.666392 150.624799 
L 217.193665 134.87259 
L 230.720938 146.119628 
L 244.24821 157.816919 
L 257.775483 156.087143 
L 271.302756 162.020131 
L 284.830028 162.985781 
L 298.357301 156.782663 
L 311.884574 147.556719 
L 325.411847 138.466878 
L 338.939119 120.722156 
L 352.466392 118.992011 
L 365.993665 105.650837 
L 379.520938 103.910899 
L 393.04821 103.427825 
" clip-path="url(#p325886d4af)" style="fill: none; stroke: #46327e; stroke-width: 1.5; stroke-linecap: square"/>
   </g>
   <g id="line2d_13">
    <path d="M 68.393665 116.615636 
L 81.920938 139.175584 
L 95.44821 143.783015 
L 108.975483 149.479335 
L 122.502756 144.758509 
L 136.030028 145.706194 
L 149.557301 167.47383 
L 163.084574 168.894503 
L 176.611847 163.809522 
L 190.139119 163.576703 
L 203.666392 155.470114 
L 217.193665 142.564606 
L 230.720938 153.77081 
L 244.24821 160.851506 
L 257.775483 154.724675 
L 271.302756 157.273305 
L 284.830028 157.126153 
L 298.357301 150.944223 
L 311.884574 147.205442 
L 325.411847 138.203411 
L 338.939119 131.574149 
L 352.466392 121.520558 
L 365.993665 106.550842 
L 379.520938 106.063644 
L 393.04821 109.351884 
" clip-path="url(#p325886d4af)" style="fill: none; stroke: #365c8d; stroke-width: 1.5; stroke-linecap: square"/>
   </g>
   <g id="line2d_14">
    <path d="M 68.393665 123.677841 
L 81.920938 130.17668 
L 95.44821 136.555922 
L 108.975483 147.592058 
L 122.502756 151.892322 
L 136.030028 157.334934 
L 149.557301 160.538933 
L 163.084574 163.838468 
L 176.611847 163.284726 
L 190.139119 164.777091 
L 203.666392 162.278367 
L 217.193665 155.236686 
L 230.720938 150.856061 
L 244.24821 150.531181 
L 257.775483 147.932961 
L 271.302756 149.249299 
L 284.830028 146.919754 
L 298.357301 146.785337 
L 311.884574 151.53946 
L 325.411847 150.103432 
L 338.939119 142.466933 
L 352.466392 133.077796 
L 365.993665 125.218198 
L 379.520938 119.408249 
L 393.04821 117.929666 
" clip-path="url(#p325886d4af)" style="fill: none; stroke: #277f8e; stroke-width: 1.5; stroke-linecap: square"/>
   </g>
   <g id="line2d_15">
    <path d="M 68.393665 147.352751 
L 81.920938 144.976241 
L 95.44821 144.386596 
L 108.975483 149.192254 
L 122.502756 148.648633 
L 136.030028 148.576605 
L 149.557301 152.495103 
L 163.084574 155.280063 
L 176.611847 151.585958 
L 190.139119 151.699623 
L 203.666392 149.990568 
L 217.193665 146.614372 
L 230.720938 145.179385 
L 244.24821 144.302149 
L 257.775483 145.034221 
L 271.302756 144.135861 
L 284.830028 144.726418 
L 298.357301 144.894296 
L 311.884574 146.619478 
L 325.411847 148.421321 
L 338.939119 146.427105 
L 352.466392 146.523995 
L 365.993665 146.942297 
L 379.520938 146.927917 
L 393.04821 146.691264 
" clip-path="url(#p325886d4af)" style="fill: none; stroke: #1fa187; stroke-width: 1.5; stroke-linecap: square"/>
   </g>
   <g id="line2d_16">
    <path d="M 68.393665 146.663154 
L 81.920938 145.314337 
L 95.44821 143.611241 
L 108.975483 146.949936 
L 122.502756 145.690136 
L 136.030028 144.942543 
L 149.557301 146.524886 
L 163.084574 148.447427 
L 176.611847 147.568361 
L 190.139119 147.669108 
L 203.666392 148.633334 
L 217.193665 147.749081 
L 230.720938 146.564191 
L 244.24821 146.209773 
L 257.775483 148.54661 
L 271.302756 148.156484 
L 284.830028 150.673822 
L 298.357301 151.282284 
L 311.884574 150.402159 
L 325.411847 152.316252 
L 338.939119 152.685862 
L 352.466392 153.042643 
L 365.993665 151.538354 
L 379.520938 150.829001 
L 393.04821 151.084338 
" clip-path="url(#p325886d4af)" style="fill: none; stroke: #4ac16d; stroke-width: 1.5; stroke-linecap: square"/>
   </g>
   <g id="line2d_17">
    <path d="M 68.393665 144.488702 
L 81.920938 144.267442 
L 95.44821 143.437745 
L 108.975483 145.967462 
L 122.502756 147.052627 
L 136.030028 146.660172 
L 149.557301 147.799675 
L 163.084574 150.185766 
L 176.611847 148.427531 
L 190.139119 151.262815 
L 203.666392 150.983991 
L 217.193665 150.89126 
L 230.720938 151.699825 
L 244.24821 149.313891 
L 257.775483 150.517563 
L 271.302756 151.655141 
L 284.830028 150.739529 
L 298.357301 150.39475 
L 311.884574 149.033604 
L 325.411847 148.909094 
L 338.939119 150.196609 
L 352.466392 149.391699 
L 365.993665 150.953925 
L 379.520938 152.786562 
L 393.04821 153.313984 
" clip-path="url(#p325886d4af)" style="fill: none; stroke: #a0da39; stroke-width: 1.5; stroke-linecap: square"/>
   </g>
   <g id="patch_3">
    <path d="M 52.160938 288.430125 
L 52.160938 22.318125 
" style="fill: none; stroke: #000000; stroke-width: 0.8; stroke-linejoin: miter; stroke-linecap: square"/>
   </g>
   <g id="patch_4">
    <path d="M 409.280938 288.430125 
L 409.280938 22.318125 
" style="fill: none; stroke: #000000; stroke-width: 0.8; stroke-linejoin: miter; stroke-linecap: square"/>
   </g>
   <g id="patch_5">
    <path d="M 52.160938 288.430125 
L 409.280938 288.430125 
" style="fill: none; stroke: #000000; stroke-width: 0.8; stroke-linejoin: miter; stroke-linecap: square"/>
   </g>
   <g id="patch_6">
    <path d="M 52.160938 22.318125 
L 409.280938 22.318125 
" style="fill: none; stroke: #000000; stroke-width: 0.8; stroke-linejoin: miter; stroke-linecap: square"/>
   </g>
   <g id="text_14">
    <!-- V3Off - Joint velocities over average step cycle -->
    <g transform="translate(90.26 16.318125) scale(0.12 -0.12)">
     <defs>
      <path id="DejaVuSans-33" d="M 2597 2516 
Q 3050 2419 3304 2112 
Q 3559 1806 3559 1356 
Q 3559 666 3084 287 
Q 2609 -91 1734 -91 
Q 1441 -91 1130 -33 
Q 819 25 488 141 
L 488 750 
Q 750 597 1062 519 
Q 1375 441 1716 441 
Q 2309 441 2620 675 
Q 2931 909 2931 1356 
Q 2931 1769 2642 2001 
Q 2353 2234 1838 2234 
L 1294 2234 
L 1294 2753 
L 1863 2753 
Q 2328 2753 2575 2939 
Q 2822 3125 2822 3475 
Q 2822 3834 2567 4026 
Q 2313 4219 1838 4219 
Q 1578 4219 1281 4162 
Q 984 4106 628 3988 
L 628 4550 
Q 988 4650 1302 4700 
Q 1616 4750 1894 4750 
Q 2613 4750 3031 4423 
Q 3450 4097 3450 3541 
Q 3450 3153 3228 2886 
Q 3006 2619 2597 2516 
z
" transform="scale(0.015625)"/>
      <path id="DejaVuSans-4f" d="M 2522 4238 
Q 1834 4238 1429 3725 
Q 1025 3213 1025 2328 
Q 1025 1447 1429 934 
Q 1834 422 2522 422 
Q 3209 422 3611 934 
Q 4013 1447 4013 2328 
Q 4013 3213 3611 3725 
Q 3209 4238 2522 4238 
z
M 2522 4750 
Q 3503 4750 4090 4092 
Q 4678 3434 4678 2328 
Q 4678 1225 4090 567 
Q 3503 -91 2522 -91 
Q 1538 -91 948 565 
Q 359 1222 359 2328 
Q 359 3434 948 4092 
Q 1538 4750 2522 4750 
z
" transform="scale(0.015625)"/>
      <path id="DejaVuSans-66" d="M 2375 4863 
L 2375 4384 
L 1825 4384 
Q 1516 4384 1395 4259 
Q 1275 4134 1275 3809 
L 1275 3500 
L 2222 3500 
L 2222 3053 
L 1275 3053 
L 1275 0 
L 697 0 
L 697 3053 
L 147 3053 
L 147 3500 
L 697 3500 
L 697 3744 
Q 697 4328 969 4595 
Q 1241 4863 1831 4863 
L 2375 4863 
z
" transform="scale(0.015625)"/>
      <path id="DejaVuSans-2d" d="M 313 2009 
L 1997 2009 
L 1997 1497 
L 313 1497 
L 313 2009 
z
" transform="scale(0.015625)"/>
      <path id="DejaVuSans-4a" d="M 628 4666 
L 1259 4666 
L 1259 325 
Q 1259 -519 939 -900 
Q 619 -1281 -91 -1281 
L -331 -1281 
L -331 -750 
L -134 -750 
Q 284 -750 456 -515 
Q 628 -281 628 325 
L 628 4666 
z
" transform="scale(0.015625)"/>
      <path id="DejaVuSans-76" d="M 191 3500 
L 800 3500 
L 1894 563 
L 2988 3500 
L 3597 3500 
L 2284 0 
L 1503 0 
L 191 3500 
z
" transform="scale(0.015625)"/>
     </defs>
     <use xlink:href="#DejaVuSans-56"/>
     <use xlink:href="#DejaVuSans-33" x="68.408203"/>
     <use xlink:href="#DejaVuSans-4f" x="132.03125"/>
     <use xlink:href="#DejaVuSans-66" x="210.742188"/>
     <use xlink:href="#DejaVuSans-66" x="245.947266"/>
     <use xlink:href="#DejaVuSans-20" x="281.152344"/>
     <use xlink:href="#DejaVuSans-2d" x="312.939453"/>
     <use xlink:href="#DejaVuSans-20" x="349.023438"/>
     <use xlink:href="#DejaVuSans-4a" x="380.810547"/>
     <use xlink:href="#DejaVuSans-6f" x="410.302734"/>
     <use xlink:href="#DejaVuSans-69" x="471.484375"/>
     <use xlink:href="#DejaVuSans-6e" x="499.267578"/>
     <use xlink:href="#DejaVuSans-74" x="562.646484"/>
     <use xlink:href="#DejaVuSans-20" x="601.855469"/>
     <use xlink:href="#DejaVuSans-76" x="633.642578"/>
     <use xlink:href="#DejaVuSans-65" x="692.822266"/>
     <use xlink:href="#DejaVuSans-6c" x="754.345703"/>
     <use xlink:href="#DejaVuSans-6f" x="782.128906"/>
     <use xlink:href="#DejaVuSans-63" x="843.310547"/>
     <use xlink:href="#DejaVuSans-69" x="898.291016"/>
     <use xlink:href="#DejaVuSans-74" x="926.074219"/>
     <use xlink:href="#DejaVuSans-69" x="965.283203"/>
     <use xlink:href="#DejaVuSans-65" x="993.066406"/>
     <use xlink:href="#DejaVuSans-73" x="1054.589844"/>
     <use xlink:href="#DejaVuSans-20" x="1106.689453"/>
     <use xlink:href="#DejaVuSans-6f" x="1138.476562"/>
     <use xlink:href="#DejaVuSans-76" x="1199.658203"/>
     <use xlink:href="#DejaVuSans-65" x="1258.837891"/>
     <use xlink:href="#DejaVuSans-72" x="1320.361328"/>
     <use xlink:href="#DejaVuSans-20" x="1361.474609"/>
     <use xlink:href="#DejaVuSans-61" x="1393.261719"/>
     <use xlink:href="#DejaVuSans-76" x="1454.541016"/>
     <use xlink:href="#DejaVuSans-65" x="1513.720703"/>
     <use xlink:href="#DejaVuSans-72" x="1575.244141"/>
     <use xlink:href="#DejaVuSans-61" x="1616.357422"/>
     <use xlink:href="#DejaVuSans-67" x="1677.636719"/>
     <use xlink:href="#DejaVuSans-65" x="1741.113281"/>
     <use xlink:href="#DejaVuSans-20" x="1802.636719"/>
     <use xlink:href="#DejaVuSans-73" x="1834.423828"/>
     <use xlink:href="#DejaVuSans-74" x="1886.523438"/>
     <use xlink:href="#DejaVuSans-65" x="1925.732422"/>
     <use xlink:href="#DejaVuSans-70" x="1987.255859"/>
     <use xlink:href="#DejaVuSans-20" x="2050.732422"/>
     <use xlink:href="#DejaVuSans-63" x="2082.519531"/>
     <use xlink:href="#DejaVuSans-79" x="2137.5"/>
     <use xlink:href="#DejaVuSans-63" x="2196.679688"/>
     <use xlink:href="#DejaVuSans-6c" x="2251.660156"/>
     <use xlink:href="#DejaVuSans-65" x="2279.443359"/>
    </g>
   </g>
   <g id="legend_1">
    <g id="patch_7">
     <path d="M 59.160938 283.430125 
L 147.44375 283.430125 
Q 149.44375 283.430125 149.44375 281.430125 
L 149.44375 194.361375 
Q 149.44375 192.361375 147.44375 192.361375 
L 59.160938 192.361375 
Q 57.160938 192.361375 57.160938 194.361375 
L 57.160938 281.430125 
Q 57.160938 283.430125 59.160938 283.430125 
z
" style="fill: #ffffff; opacity: 0.8; stroke: #cccccc; stroke-linejoin: miter"/>
    </g>
    <g id="line2d_18">
     <path d="M 61.160938 200.459812 
L 71.160938 200.459812 
L 81.160938 200.459812 
" style="fill: none; stroke: #46327e; stroke-width: 1.5; stroke-linecap: square"/>
    </g>
    <g id="text_15">
     <!-- ToeTip  -->
     <g transform="translate(89.160938 203.959812) scale(0.1 -0.1)">
      <defs>
       <path id="DejaVuSans-54" d="M -19 4666 
L 3928 4666 
L 3928 4134 
L 2272 4134 
L 2272 0 
L 1638 0 
L 1638 4134 
L -19 4134 
L -19 4666 
z
" transform="scale(0.015625)"/>
      </defs>
      <use xlink:href="#DejaVuSans-54"/>
      <use xlink:href="#DejaVuSans-6f" x="44.083984"/>
      <use xlink:href="#DejaVuSans-65" x="105.265625"/>
      <use xlink:href="#DejaVuSans-54" x="166.789062"/>
      <use xlink:href="#DejaVuSans-69" x="224.748047"/>
      <use xlink:href="#DejaVuSans-70" x="252.53125"/>
      <use xlink:href="#DejaVuSans-20" x="316.007812"/>
     </g>
    </g>
    <g id="line2d_19">
     <path d="M 61.160938 215.137937 
L 71.160938 215.137937 
L 81.160938 215.137937 
" style="fill: none; stroke: #365c8d; stroke-width: 1.5; stroke-linecap: square"/>
    </g>
    <g id="text_16">
     <!-- Metatarsal  -->
     <g transform="translate(89.160938 218.637937) scale(0.1 -0.1)">
      <defs>
       <path id="DejaVuSans-4d" d="M 628 4666 
L 1569 4666 
L 2759 1491 
L 3956 4666 
L 4897 4666 
L 4897 0 
L 4281 0 
L 4281 4097 
L 3078 897 
L 2444 897 
L 1241 4097 
L 1241 0 
L 628 0 
L 628 4666 
z
" transform="scale(0.015625)"/>
      </defs>
      <use xlink:href="#DejaVuSans-4d"/>
      <use xlink:href="#DejaVuSans-65" x="86.279297"/>
      <use xlink:href="#DejaVuSans-74" x="147.802734"/>
      <use xlink:href="#DejaVuSans-61" x="187.011719"/>
      <use xlink:href="#DejaVuSans-74" x="248.291016"/>
      <use xlink:href="#DejaVuSans-61" x="287.5"/>
      <use xlink:href="#DejaVuSans-72" x="348.779297"/>
      <use xlink:href="#DejaVuSans-73" x="389.892578"/>
      <use xlink:href="#DejaVuSans-61" x="441.992188"/>
      <use xlink:href="#DejaVuSans-6c" x="503.271484"/>
      <use xlink:href="#DejaVuSans-20" x="531.054688"/>
     </g>
    </g>
    <g id="line2d_20">
     <path d="M 61.160938 229.816062 
L 71.160938 229.816062 
L 81.160938 229.816062 
" style="fill: none; stroke: #277f8e; stroke-width: 1.5; stroke-linecap: square"/>
    </g>
    <g id="text_17">
     <!-- Ankle  -->
     <g transform="translate(89.160938 233.316062) scale(0.1 -0.1)">
      <defs>
       <path id="DejaVuSans-41" d="M 2188 4044 
L 1331 1722 
L 3047 1722 
L 2188 4044 
z
M 1831 4666 
L 2547 4666 
L 4325 0 
L 3669 0 
L 3244 1197 
L 1141 1197 
L 716 0 
L 50 0 
L 1831 4666 
z
" transform="scale(0.015625)"/>
       <path id="DejaVuSans-6b" d="M 581 4863 
L 1159 4863 
L 1159 1991 
L 2875 3500 
L 3609 3500 
L 1753 1863 
L 3688 0 
L 2938 0 
L 1159 1709 
L 1159 0 
L 581 0 
L 581 4863 
z
" transform="scale(0.015625)"/>
      </defs>
      <use xlink:href="#DejaVuSans-41"/>
      <use xlink:href="#DejaVuSans-6e" x="68.408203"/>
      <use xlink:href="#DejaVuSans-6b" x="131.787109"/>
      <use xlink:href="#DejaVuSans-6c" x="189.697266"/>
      <use xlink:href="#DejaVuSans-65" x="217.480469"/>
      <use xlink:href="#DejaVuSans-20" x="279.003906"/>
     </g>
    </g>
    <g id="line2d_21">
     <path d="M 61.160938 244.494187 
L 71.160938 244.494187 
L 81.160938 244.494187 
" style="fill: none; stroke: #1fa187; stroke-width: 1.5; stroke-linecap: square"/>
    </g>
    <g id="text_18">
     <!-- Knee  -->
     <g transform="translate(89.160938 247.994187) scale(0.1 -0.1)">
      <defs>
       <path id="DejaVuSans-4b" d="M 628 4666 
L 1259 4666 
L 1259 2694 
L 3353 4666 
L 4166 4666 
L 1850 2491 
L 4331 0 
L 3500 0 
L 1259 2247 
L 1259 0 
L 628 0 
L 628 4666 
z
" transform="scale(0.015625)"/>
      </defs>
      <use xlink:href="#DejaVuSans-4b"/>
      <use xlink:href="#DejaVuSans-6e" x="65.576172"/>
      <use xlink:href="#DejaVuSans-65" x="128.955078"/>
      <use xlink:href="#DejaVuSans-65" x="190.478516"/>
      <use xlink:href="#DejaVuSans-20" x="252.001953"/>
     </g>
    </g>
    <g id="line2d_22">
     <path d="M 61.160938 259.172312 
L 71.160938 259.172312 
L 81.160938 259.172312 
" style="fill: none; stroke: #4ac16d; stroke-width: 1.5; stroke-linecap: square"/>
    </g>
    <g id="text_19">
     <!-- Hip  -->
     <g transform="translate(89.160938 262.672312) scale(0.1 -0.1)">
      <defs>
       <path id="DejaVuSans-48" d="M 628 4666 
L 1259 4666 
L 1259 2753 
L 3553 2753 
L 3553 4666 
L 4184 4666 
L 4184 0 
L 3553 0 
L 3553 2222 
L 1259 2222 
L 1259 0 
L 628 0 
L 628 4666 
z
" transform="scale(0.015625)"/>
      </defs>
      <use xlink:href="#DejaVuSans-48"/>
      <use xlink:href="#DejaVuSans-69" x="75.195312"/>
      <use xlink:href="#DejaVuSans-70" x="102.978516"/>
      <use xlink:href="#DejaVuSans-20" x="166.455078"/>
     </g>
    </g>
    <g id="line2d_23">
     <path d="M 61.160938 273.850437 
L 71.160938 273.850437 
L 81.160938 273.850437 
" style="fill: none; stroke: #a0da39; stroke-width: 1.5; stroke-linecap: square"/>
    </g>
    <g id="text_20">
     <!-- Crest  -->
     <g transform="translate(89.160938 277.350437) scale(0.1 -0.1)">
      <defs>
       <path id="DejaVuSans-43" d="M 4122 4306 
L 4122 3641 
Q 3803 3938 3442 4084 
Q 3081 4231 2675 4231 
Q 1875 4231 1450 3742 
Q 1025 3253 1025 2328 
Q 1025 1406 1450 917 
Q 1875 428 2675 428 
Q 3081 428 3442 575 
Q 3803 722 4122 1019 
L 4122 359 
Q 3791 134 3420 21 
Q 3050 -91 2638 -91 
Q 1578 -91 968 557 
Q 359 1206 359 2328 
Q 359 3453 968 4101 
Q 1578 4750 2638 4750 
Q 3056 4750 3426 4639 
Q 3797 4528 4122 4306 
z
" transform="scale(0.015625)"/>
      </defs>
      <use xlink:href="#DejaVuSans-43"/>
      <use xlink:href="#DejaVuSans-72" x="69.824219"/>
      <use xlink:href="#DejaVuSans-65" x="108.6875"/>
      <use xlink:href="#DejaVuSans-73" x="170.210938"/>
      <use xlink:href="#DejaVuSans-74" x="222.310547"/>
      <use xlink:href="#DejaVuSans-20" x="261.519531"/>
     </g>
    </g>
   </g>
  </g>
 </g>
 <defs>
  <clipPath id="p325886d4af">
   <rect x="52.160938" y="22.318125" width="357.12" height="266.112"/>
  </clipPath>
 </defs>
</svg>
