<?xml version="1.0" encoding="utf-8" standalone="no"?>
<!DOCTYPE svg PUBLIC "-//W3C//DTD SVG 1.1//EN"
  "http://www.w3.org/Graphics/SVG/1.1/DTD/svg11.dtd">
<svg xmlns:xlink="http://www.w3.org/1999/xlink" width="417.834687pt" height="325.986375pt" viewBox="0 0 417.834687 325.986375" xmlns="http://www.w3.org/2000/svg" version="1.1">
 <metadata>
  <rdf:RDF xmlns:dc="http://purl.org/dc/elements/1.1/" xmlns:cc="http://creativecommons.org/ns#" xmlns:rdf="http://www.w3.org/1999/02/22-rdf-syntax-ns#">
   <cc:Work>
    <dc:type rdf:resource="http://purl.org/dc/dcmitype/StillImage"/>
    <dc:date>2024-08-08T17:49:48.507238</dc:date>
    <dc:format>image/svg+xml</dc:format>
    <dc:creator>
     <cc:Agent>
      <dc:title>Matplotlib v3.8.4, https://matplotlib.org/</dc:title>
     </cc:Agent>
    </dc:creator>
   </cc:Work>
  </rdf:RDF>
 </metadata>
 <defs>
  <style type="text/css">*{stroke-linejoin: round; stroke-linecap: butt}</style>
 </defs>
 <g id="figure_1">
  <g id="patch_1">
   <path d="M 0 325.986375 
L 417.834687 325.986375 
L 417.834687 0 
L 0 0 
z
" style="fill: #ffffff"/>
  </g>
  <g id="axes_1">
   <g id="patch_2">
    <path d="M 48.982813 288.430125 
L 406.102813 288.430125 
L 406.102813 22.318125 
L 48.982813 22.318125 
z
" style="fill: #ffffff"/>
   </g>
   <g id="PolyCollection_1">
    <path d="M 65.21554 190.463966 
L 65.21554 276.334125 
L 78.742813 169.549662 
L 92.270085 151.24633 
L 105.797358 135.810543 
L 119.324631 137.197567 
L 132.851903 125.767495 
L 146.379176 103.657376 
L 159.906449 121.550611 
L 173.433722 134.439971 
L 186.960994 169.587925 
L 200.488267 137.929098 
L 214.01554 131.374878 
L 227.542812 129.549991 
L 241.070085 126.723083 
L 254.597358 123.278972 
L 268.124631 123.57966 
L 281.651903 122.159857 
L 295.179176 121.799419 
L 308.706449 118.612581 
L 322.233722 117.23431 
L 335.760994 114.724943 
L 349.288267 111.8865 
L 362.81554 109.448274 
L 376.342813 113.266507 
L 389.870085 137.78435 
L 389.870085 103.452277 
L 389.870085 103.452277 
L 376.342813 93.023132 
L 362.81554 94.728635 
L 349.288267 93.960965 
L 335.760994 96.25527 
L 322.233722 98.357502 
L 308.706449 101.70771 
L 295.179176 104.986376 
L 281.651903 104.665121 
L 268.124631 105.79793 
L 254.597358 107.335042 
L 241.070085 106.254972 
L 227.542812 104.154849 
L 214.01554 94.276529 
L 200.488267 65.174915 
L 186.960994 114.113061 
L 173.433722 116.70259 
L 159.906449 105.822781 
L 146.379176 64.513146 
L 132.851903 46.711088 
L 119.324631 34.414125 
L 105.797358 55.396783 
L 92.270085 74.19859 
L 78.742813 59.072175 
L 65.21554 190.463966 
z
" clip-path="url(#peba6185a10)" style="fill: #3b528b; fill-opacity: 0.2"/>
   </g>
   <g id="PolyCollection_2">
    <path d="M 65.21554 144.512042 
L 65.21554 167.6733 
L 78.742813 117.325702 
L 92.270085 87.700155 
L 105.797358 96.100826 
L 119.324631 101.889329 
L 132.851903 122.409808 
L 146.379176 148.628971 
L 159.906449 149.084044 
L 173.433722 138.269372 
L 186.960994 142.525661 
L 200.488267 140.609834 
L 214.01554 136.775678 
L 227.542812 131.041873 
L 241.070085 129.91035 
L 254.597358 126.806807 
L 268.124631 126.202672 
L 281.651903 126.652699 
L 295.179176 129.427995 
L 308.706449 130.724355 
L 322.233722 129.519357 
L 335.760994 134.445443 
L 349.288267 134.555642 
L 362.81554 137.302041 
L 376.342813 144.80703 
L 389.870085 154.399615 
L 389.870085 128.285261 
L 389.870085 128.285261 
L 376.342813 114.058745 
L 362.81554 114.259606 
L 349.288267 117.28408 
L 335.760994 118.176836 
L 322.233722 118.829308 
L 308.706449 112.651687 
L 295.179176 111.218436 
L 281.651903 109.217678 
L 268.124631 108.69852 
L 254.597358 108.439044 
L 241.070085 102.521592 
L 227.542812 94.866246 
L 214.01554 92.927403 
L 200.488267 92.343499 
L 186.960994 107.305598 
L 173.433722 114.385683 
L 159.906449 110.225642 
L 146.379176 78.427608 
L 132.851903 64.695182 
L 119.324631 54.88351 
L 105.797358 58.549308 
L 92.270085 54.3643 
L 78.742813 42.583721 
L 65.21554 144.512042 
z
" clip-path="url(#peba6185a10)" style="fill: #21918c; fill-opacity: 0.2"/>
   </g>
   <g id="PolyCollection_3">
    <path d="M 65.21554 100.043854 
L 65.21554 158.351456 
L 78.742813 165.174141 
L 92.270085 151.301358 
L 105.797358 127.359966 
L 119.324631 111.724952 
L 132.851903 116.035638 
L 146.379176 127.694234 
L 159.906449 140.03218 
L 173.433722 136.929748 
L 186.960994 121.887098 
L 200.488267 121.803536 
L 214.01554 122.54782 
L 227.542812 120.828951 
L 241.070085 116.415715 
L 254.597358 114.7144 
L 268.124631 114.230552 
L 281.651903 123.60179 
L 295.179176 126.495046 
L 308.706449 133.113049 
L 322.233722 130.538895 
L 335.760994 125.110734 
L 349.288267 110.314803 
L 362.81554 116.991925 
L 376.342813 118.717265 
L 389.870085 128.80706 
L 389.870085 95.972196 
L 389.870085 95.972196 
L 376.342813 108.135752 
L 362.81554 103.003071 
L 349.288267 101.706219 
L 335.760994 96.609826 
L 322.233722 96.438757 
L 308.706449 94.863357 
L 295.179176 96.446626 
L 281.651903 100.695395 
L 268.124631 105.276834 
L 254.597358 107.373031 
L 241.070085 103.135921 
L 227.542812 98.804489 
L 214.01554 96.290424 
L 200.488267 90.946485 
L 186.960994 104.246345 
L 173.433722 112.321586 
L 159.906449 101.174303 
L 146.379176 87.97495 
L 132.851903 88.173368 
L 119.324631 100.33779 
L 105.797358 113.391114 
L 92.270085 121.041529 
L 78.742813 119.668596 
L 65.21554 100.043854 
z
" clip-path="url(#peba6185a10)" style="fill: #5ec962; fill-opacity: 0.2"/>
   </g>
   <g id="matplotlib.axis_1">
    <g id="xtick_1">
     <g id="line2d_1">
      <defs>
       <path id="m6e666d5da2" d="M 0 0 
L 0 3.5 
" style="stroke: #000000; stroke-width: 0.8"/>
      </defs>
      <g>
       <use xlink:href="#m6e666d5da2" x="65.21554" y="288.430125" style="stroke: #000000; stroke-width: 0.8"/>
      </g>
     </g>
     <g id="text_1">
      <!-- 0 -->
      <g transform="translate(62.03429 303.028562) scale(0.1 -0.1)">
       <defs>
        <path id="DejaVuSans-30" d="M 2034 4250 
Q 1547 4250 1301 3770 
Q 1056 3291 1056 2328 
Q 1056 1369 1301 889 
Q 1547 409 2034 409 
Q 2525 409 2770 889 
Q 3016 1369 3016 2328 
Q 3016 3291 2770 3770 
Q 2525 4250 2034 4250 
z
M 2034 4750 
Q 2819 4750 3233 4129 
Q 3647 3509 3647 2328 
Q 3647 1150 3233 529 
Q 2819 -91 2034 -91 
Q 1250 -91 836 529 
Q 422 1150 422 2328 
Q 422 3509 836 4129 
Q 1250 4750 2034 4750 
z
" transform="scale(0.015625)"/>
       </defs>
       <use xlink:href="#DejaVuSans-30"/>
      </g>
     </g>
    </g>
    <g id="xtick_2">
     <g id="line2d_2">
      <g>
       <use xlink:href="#m6e666d5da2" x="130.146449" y="288.430125" style="stroke: #000000; stroke-width: 0.8"/>
      </g>
     </g>
     <g id="text_2">
      <!-- 20 -->
      <g transform="translate(123.783949 303.028562) scale(0.1 -0.1)">
       <defs>
        <path id="DejaVuSans-32" d="M 1228 531 
L 3431 531 
L 3431 0 
L 469 0 
L 469 531 
Q 828 903 1448 1529 
Q 2069 2156 2228 2338 
Q 2531 2678 2651 2914 
Q 2772 3150 2772 3378 
Q 2772 3750 2511 3984 
Q 2250 4219 1831 4219 
Q 1534 4219 1204 4116 
Q 875 4013 500 3803 
L 500 4441 
Q 881 4594 1212 4672 
Q 1544 4750 1819 4750 
Q 2544 4750 2975 4387 
Q 3406 4025 3406 3419 
Q 3406 3131 3298 2873 
Q 3191 2616 2906 2266 
Q 2828 2175 2409 1742 
Q 1991 1309 1228 531 
z
" transform="scale(0.015625)"/>
       </defs>
       <use xlink:href="#DejaVuSans-32"/>
       <use xlink:href="#DejaVuSans-30" x="63.623047"/>
      </g>
     </g>
    </g>
    <g id="xtick_3">
     <g id="line2d_3">
      <g>
       <use xlink:href="#m6e666d5da2" x="195.077358" y="288.430125" style="stroke: #000000; stroke-width: 0.8"/>
      </g>
     </g>
     <g id="text_3">
      <!-- 40 -->
      <g transform="translate(188.714858 303.028562) scale(0.1 -0.1)">
       <defs>
        <path id="DejaVuSans-34" d="M 2419 4116 
L 825 1625 
L 2419 1625 
L 2419 4116 
z
M 2253 4666 
L 3047 4666 
L 3047 1625 
L 3713 1625 
L 3713 1100 
L 3047 1100 
L 3047 0 
L 2419 0 
L 2419 1100 
L 313 1100 
L 313 1709 
L 2253 4666 
z
" transform="scale(0.015625)"/>
       </defs>
       <use xlink:href="#DejaVuSans-34"/>
       <use xlink:href="#DejaVuSans-30" x="63.623047"/>
      </g>
     </g>
    </g>
    <g id="xtick_4">
     <g id="line2d_4">
      <g>
       <use xlink:href="#m6e666d5da2" x="260.008267" y="288.430125" style="stroke: #000000; stroke-width: 0.8"/>
      </g>
     </g>
     <g id="text_4">
      <!-- 60 -->
      <g transform="translate(253.645767 303.028562) scale(0.1 -0.1)">
       <defs>
        <path id="DejaVuSans-36" d="M 2113 2584 
Q 1688 2584 1439 2293 
Q 1191 2003 1191 1497 
Q 1191 994 1439 701 
Q 1688 409 2113 409 
Q 2538 409 2786 701 
Q 3034 994 3034 1497 
Q 3034 2003 2786 2293 
Q 2538 2584 2113 2584 
z
M 3366 4563 
L 3366 3988 
Q 3128 4100 2886 4159 
Q 2644 4219 2406 4219 
Q 1781 4219 1451 3797 
Q 1122 3375 1075 2522 
Q 1259 2794 1537 2939 
Q 1816 3084 2150 3084 
Q 2853 3084 3261 2657 
Q 3669 2231 3669 1497 
Q 3669 778 3244 343 
Q 2819 -91 2113 -91 
Q 1303 -91 875 529 
Q 447 1150 447 2328 
Q 447 3434 972 4092 
Q 1497 4750 2381 4750 
Q 2619 4750 2861 4703 
Q 3103 4656 3366 4563 
z
" transform="scale(0.015625)"/>
       </defs>
       <use xlink:href="#DejaVuSans-36"/>
       <use xlink:href="#DejaVuSans-30" x="63.623047"/>
      </g>
     </g>
    </g>
    <g id="xtick_5">
     <g id="line2d_5">
      <g>
       <use xlink:href="#m6e666d5da2" x="324.939176" y="288.430125" style="stroke: #000000; stroke-width: 0.8"/>
      </g>
     </g>
     <g id="text_5">
      <!-- 80 -->
      <g transform="translate(318.576676 303.028562) scale(0.1 -0.1)">
       <defs>
        <path id="DejaVuSans-38" d="M 2034 2216 
Q 1584 2216 1326 1975 
Q 1069 1734 1069 1313 
Q 1069 891 1326 650 
Q 1584 409 2034 409 
Q 2484 409 2743 651 
Q 3003 894 3003 1313 
Q 3003 1734 2745 1975 
Q 2488 2216 2034 2216 
z
M 1403 2484 
Q 997 2584 770 2862 
Q 544 3141 544 3541 
Q 544 4100 942 4425 
Q 1341 4750 2034 4750 
Q 2731 4750 3128 4425 
Q 3525 4100 3525 3541 
Q 3525 3141 3298 2862 
Q 3072 2584 2669 2484 
Q 3125 2378 3379 2068 
Q 3634 1759 3634 1313 
Q 3634 634 3220 271 
Q 2806 -91 2034 -91 
Q 1263 -91 848 271 
Q 434 634 434 1313 
Q 434 1759 690 2068 
Q 947 2378 1403 2484 
z
M 1172 3481 
Q 1172 3119 1398 2916 
Q 1625 2713 2034 2713 
Q 2441 2713 2670 2916 
Q 2900 3119 2900 3481 
Q 2900 3844 2670 4047 
Q 2441 4250 2034 4250 
Q 1625 4250 1398 4047 
Q 1172 3844 1172 3481 
z
" transform="scale(0.015625)"/>
       </defs>
       <use xlink:href="#DejaVuSans-38"/>
       <use xlink:href="#DejaVuSans-30" x="63.623047"/>
      </g>
     </g>
    </g>
    <g id="xtick_6">
     <g id="line2d_6">
      <g>
       <use xlink:href="#m6e666d5da2" x="389.870085" y="288.430125" style="stroke: #000000; stroke-width: 0.8"/>
      </g>
     </g>
     <g id="text_6">
      <!-- 100 -->
      <g transform="translate(380.326335 303.028562) scale(0.1 -0.1)">
       <defs>
        <path id="DejaVuSans-31" d="M 794 531 
L 1825 531 
L 1825 4091 
L 703 3866 
L 703 4441 
L 1819 4666 
L 2450 4666 
L 2450 531 
L 3481 531 
L 3481 0 
L 794 0 
L 794 531 
z
" transform="scale(0.015625)"/>
       </defs>
       <use xlink:href="#DejaVuSans-31"/>
       <use xlink:href="#DejaVuSans-30" x="63.623047"/>
       <use xlink:href="#DejaVuSans-30" x="127.246094"/>
      </g>
     </g>
    </g>
    <g id="text_7">
     <!-- Percentage -->
     <g transform="translate(199.420156 316.706687) scale(0.1 -0.1)">
      <defs>
       <path id="DejaVuSans-50" d="M 1259 4147 
L 1259 2394 
L 2053 2394 
Q 2494 2394 2734 2622 
Q 2975 2850 2975 3272 
Q 2975 3691 2734 3919 
Q 2494 4147 2053 4147 
L 1259 4147 
z
M 628 4666 
L 2053 4666 
Q 2838 4666 3239 4311 
Q 3641 3956 3641 3272 
Q 3641 2581 3239 2228 
Q 2838 1875 2053 1875 
L 1259 1875 
L 1259 0 
L 628 0 
L 628 4666 
z
" transform="scale(0.015625)"/>
       <path id="DejaVuSans-65" d="M 3597 1894 
L 3597 1613 
L 953 1613 
Q 991 1019 1311 708 
Q 1631 397 2203 397 
Q 2534 397 2845 478 
Q 3156 559 3463 722 
L 3463 178 
Q 3153 47 2828 -22 
Q 2503 -91 2169 -91 
Q 1331 -91 842 396 
Q 353 884 353 1716 
Q 353 2575 817 3079 
Q 1281 3584 2069 3584 
Q 2775 3584 3186 3129 
Q 3597 2675 3597 1894 
z
M 3022 2063 
Q 3016 2534 2758 2815 
Q 2500 3097 2075 3097 
Q 1594 3097 1305 2825 
Q 1016 2553 972 2059 
L 3022 2063 
z
" transform="scale(0.015625)"/>
       <path id="DejaVuSans-72" d="M 2631 2963 
Q 2534 3019 2420 3045 
Q 2306 3072 2169 3072 
Q 1681 3072 1420 2755 
Q 1159 2438 1159 1844 
L 1159 0 
L 581 0 
L 581 3500 
L 1159 3500 
L 1159 2956 
Q 1341 3275 1631 3429 
Q 1922 3584 2338 3584 
Q 2397 3584 2469 3576 
Q 2541 3569 2628 3553 
L 2631 2963 
z
" transform="scale(0.015625)"/>
       <path id="DejaVuSans-63" d="M 3122 3366 
L 3122 2828 
Q 2878 2963 2633 3030 
Q 2388 3097 2138 3097 
Q 1578 3097 1268 2742 
Q 959 2388 959 1747 
Q 959 1106 1268 751 
Q 1578 397 2138 397 
Q 2388 397 2633 464 
Q 2878 531 3122 666 
L 3122 134 
Q 2881 22 2623 -34 
Q 2366 -91 2075 -91 
Q 1284 -91 818 406 
Q 353 903 353 1747 
Q 353 2603 823 3093 
Q 1294 3584 2113 3584 
Q 2378 3584 2631 3529 
Q 2884 3475 3122 3366 
z
" transform="scale(0.015625)"/>
       <path id="DejaVuSans-6e" d="M 3513 2113 
L 3513 0 
L 2938 0 
L 2938 2094 
Q 2938 2591 2744 2837 
Q 2550 3084 2163 3084 
Q 1697 3084 1428 2787 
Q 1159 2491 1159 1978 
L 1159 0 
L 581 0 
L 581 3500 
L 1159 3500 
L 1159 2956 
Q 1366 3272 1645 3428 
Q 1925 3584 2291 3584 
Q 2894 3584 3203 3211 
Q 3513 2838 3513 2113 
z
" transform="scale(0.015625)"/>
       <path id="DejaVuSans-74" d="M 1172 4494 
L 1172 3500 
L 2356 3500 
L 2356 3053 
L 1172 3053 
L 1172 1153 
Q 1172 725 1289 603 
Q 1406 481 1766 481 
L 2356 481 
L 2356 0 
L 1766 0 
Q 1100 0 847 248 
Q 594 497 594 1153 
L 594 3053 
L 172 3053 
L 172 3500 
L 594 3500 
L 594 4494 
L 1172 4494 
z
" transform="scale(0.015625)"/>
       <path id="DejaVuSans-61" d="M 2194 1759 
Q 1497 1759 1228 1600 
Q 959 1441 959 1056 
Q 959 750 1161 570 
Q 1363 391 1709 391 
Q 2188 391 2477 730 
Q 2766 1069 2766 1631 
L 2766 1759 
L 2194 1759 
z
M 3341 1997 
L 3341 0 
L 2766 0 
L 2766 531 
Q 2569 213 2275 61 
Q 1981 -91 1556 -91 
Q 1019 -91 701 211 
Q 384 513 384 1019 
Q 384 1609 779 1909 
Q 1175 2209 1959 2209 
L 2766 2209 
L 2766 2266 
Q 2766 2663 2505 2880 
Q 2244 3097 1772 3097 
Q 1472 3097 1187 3025 
Q 903 2953 641 2809 
L 641 3341 
Q 956 3463 1253 3523 
Q 1550 3584 1831 3584 
Q 2591 3584 2966 3190 
Q 3341 2797 3341 1997 
z
" transform="scale(0.015625)"/>
       <path id="DejaVuSans-67" d="M 2906 1791 
Q 2906 2416 2648 2759 
Q 2391 3103 1925 3103 
Q 1463 3103 1205 2759 
Q 947 2416 947 1791 
Q 947 1169 1205 825 
Q 1463 481 1925 481 
Q 2391 481 2648 825 
Q 2906 1169 2906 1791 
z
M 3481 434 
Q 3481 -459 3084 -895 
Q 2688 -1331 1869 -1331 
Q 1566 -1331 1297 -1286 
Q 1028 -1241 775 -1147 
L 775 -588 
Q 1028 -725 1275 -790 
Q 1522 -856 1778 -856 
Q 2344 -856 2625 -561 
Q 2906 -266 2906 331 
L 2906 616 
Q 2728 306 2450 153 
Q 2172 0 1784 0 
Q 1141 0 747 490 
Q 353 981 353 1791 
Q 353 2603 747 3093 
Q 1141 3584 1784 3584 
Q 2172 3584 2450 3431 
Q 2728 3278 2906 2969 
L 2906 3500 
L 3481 3500 
L 3481 434 
z
" transform="scale(0.015625)"/>
      </defs>
      <use xlink:href="#DejaVuSans-50"/>
      <use xlink:href="#DejaVuSans-65" x="56.677734"/>
      <use xlink:href="#DejaVuSans-72" x="118.201172"/>
      <use xlink:href="#DejaVuSans-63" x="157.064453"/>
      <use xlink:href="#DejaVuSans-65" x="212.044922"/>
      <use xlink:href="#DejaVuSans-6e" x="273.568359"/>
      <use xlink:href="#DejaVuSans-74" x="336.947266"/>
      <use xlink:href="#DejaVuSans-61" x="376.15625"/>
      <use xlink:href="#DejaVuSans-67" x="437.435547"/>
      <use xlink:href="#DejaVuSans-65" x="500.912109"/>
     </g>
    </g>
   </g>
   <g id="matplotlib.axis_2">
    <g id="ytick_1">
     <g id="line2d_7">
      <defs>
       <path id="m2a4ecc5509" d="M 0 0 
L -3.5 0 
" style="stroke: #000000; stroke-width: 0.8"/>
      </defs>
      <g>
       <use xlink:href="#m2a4ecc5509" x="48.982813" y="267.973185" style="stroke: #000000; stroke-width: 0.8"/>
      </g>
     </g>
     <g id="text_8">
      <!-- −10 -->
      <g transform="translate(20.878125 271.772404) scale(0.1 -0.1)">
       <defs>
        <path id="DejaVuSans-2212" d="M 678 2272 
L 4684 2272 
L 4684 1741 
L 678 1741 
L 678 2272 
z
" transform="scale(0.015625)"/>
       </defs>
       <use xlink:href="#DejaVuSans-2212"/>
       <use xlink:href="#DejaVuSans-31" x="83.789062"/>
       <use xlink:href="#DejaVuSans-30" x="147.412109"/>
      </g>
     </g>
    </g>
    <g id="ytick_2">
     <g id="line2d_8">
      <g>
       <use xlink:href="#m2a4ecc5509" x="48.982813" y="237.38341" style="stroke: #000000; stroke-width: 0.8"/>
      </g>
     </g>
     <g id="text_9">
      <!-- −8 -->
      <g transform="translate(27.240625 241.182629) scale(0.1 -0.1)">
       <use xlink:href="#DejaVuSans-2212"/>
       <use xlink:href="#DejaVuSans-38" x="83.789062"/>
      </g>
     </g>
    </g>
    <g id="ytick_3">
     <g id="line2d_9">
      <g>
       <use xlink:href="#m2a4ecc5509" x="48.982813" y="206.793635" style="stroke: #000000; stroke-width: 0.8"/>
      </g>
     </g>
     <g id="text_10">
      <!-- −6 -->
      <g transform="translate(27.240625 210.592854) scale(0.1 -0.1)">
       <use xlink:href="#DejaVuSans-2212"/>
       <use xlink:href="#DejaVuSans-36" x="83.789062"/>
      </g>
     </g>
    </g>
    <g id="ytick_4">
     <g id="line2d_10">
      <g>
       <use xlink:href="#m2a4ecc5509" x="48.982813" y="176.20386" style="stroke: #000000; stroke-width: 0.8"/>
      </g>
     </g>
     <g id="text_11">
      <!-- −4 -->
      <g transform="translate(27.240625 180.003078) scale(0.1 -0.1)">
       <use xlink:href="#DejaVuSans-2212"/>
       <use xlink:href="#DejaVuSans-34" x="83.789062"/>
      </g>
     </g>
    </g>
    <g id="ytick_5">
     <g id="line2d_11">
      <g>
       <use xlink:href="#m2a4ecc5509" x="48.982813" y="145.614084" style="stroke: #000000; stroke-width: 0.8"/>
      </g>
     </g>
     <g id="text_12">
      <!-- −2 -->
      <g transform="translate(27.240625 149.413303) scale(0.1 -0.1)">
       <use xlink:href="#DejaVuSans-2212"/>
       <use xlink:href="#DejaVuSans-32" x="83.789062"/>
      </g>
     </g>
    </g>
    <g id="ytick_6">
     <g id="line2d_12">
      <g>
       <use xlink:href="#m2a4ecc5509" x="48.982813" y="115.024309" style="stroke: #000000; stroke-width: 0.8"/>
      </g>
     </g>
     <g id="text_13">
      <!-- 0 -->
      <g transform="translate(35.620313 118.823528) scale(0.1 -0.1)">
       <use xlink:href="#DejaVuSans-30"/>
      </g>
     </g>
    </g>
    <g id="ytick_7">
     <g id="line2d_13">
      <g>
       <use xlink:href="#m2a4ecc5509" x="48.982813" y="84.434534" style="stroke: #000000; stroke-width: 0.8"/>
      </g>
     </g>
     <g id="text_14">
      <!-- 2 -->
      <g transform="translate(35.620313 88.233752) scale(0.1 -0.1)">
       <use xlink:href="#DejaVuSans-32"/>
      </g>
     </g>
    </g>
    <g id="ytick_8">
     <g id="line2d_14">
      <g>
       <use xlink:href="#m2a4ecc5509" x="48.982813" y="53.844758" style="stroke: #000000; stroke-width: 0.8"/>
      </g>
     </g>
     <g id="text_15">
      <!-- 4 -->
      <g transform="translate(35.620313 57.643977) scale(0.1 -0.1)">
       <use xlink:href="#DejaVuSans-34"/>
      </g>
     </g>
    </g>
    <g id="ytick_9">
     <g id="line2d_15">
      <g>
       <use xlink:href="#m2a4ecc5509" x="48.982813" y="23.254983" style="stroke: #000000; stroke-width: 0.8"/>
      </g>
     </g>
     <g id="text_16">
      <!-- 6 -->
      <g transform="translate(35.620313 27.054202) scale(0.1 -0.1)">
       <use xlink:href="#DejaVuSans-36"/>
      </g>
     </g>
    </g>
    <g id="text_17">
     <!-- Velocity (degree / 4 ms) -->
     <g transform="translate(14.798438 215.109281) rotate(-90) scale(0.1 -0.1)">
      <defs>
       <path id="DejaVuSans-56" d="M 1831 0 
L 50 4666 
L 709 4666 
L 2188 738 
L 3669 4666 
L 4325 4666 
L 2547 0 
L 1831 0 
z
" transform="scale(0.015625)"/>
       <path id="DejaVuSans-6c" d="M 603 4863 
L 1178 4863 
L 1178 0 
L 603 0 
L 603 4863 
z
" transform="scale(0.015625)"/>
       <path id="DejaVuSans-6f" d="M 1959 3097 
Q 1497 3097 1228 2736 
Q 959 2375 959 1747 
Q 959 1119 1226 758 
Q 1494 397 1959 397 
Q 2419 397 2687 759 
Q 2956 1122 2956 1747 
Q 2956 2369 2687 2733 
Q 2419 3097 1959 3097 
z
M 1959 3584 
Q 2709 3584 3137 3096 
Q 3566 2609 3566 1747 
Q 3566 888 3137 398 
Q 2709 -91 1959 -91 
Q 1206 -91 779 398 
Q 353 888 353 1747 
Q 353 2609 779 3096 
Q 1206 3584 1959 3584 
z
" transform="scale(0.015625)"/>
       <path id="DejaVuSans-69" d="M 603 3500 
L 1178 3500 
L 1178 0 
L 603 0 
L 603 3500 
z
M 603 4863 
L 1178 4863 
L 1178 4134 
L 603 4134 
L 603 4863 
z
" transform="scale(0.015625)"/>
       <path id="DejaVuSans-79" d="M 2059 -325 
Q 1816 -950 1584 -1140 
Q 1353 -1331 966 -1331 
L 506 -1331 
L 506 -850 
L 844 -850 
Q 1081 -850 1212 -737 
Q 1344 -625 1503 -206 
L 1606 56 
L 191 3500 
L 800 3500 
L 1894 763 
L 2988 3500 
L 3597 3500 
L 2059 -325 
z
" transform="scale(0.015625)"/>
       <path id="DejaVuSans-20" transform="scale(0.015625)"/>
       <path id="DejaVuSans-28" d="M 1984 4856 
Q 1566 4138 1362 3434 
Q 1159 2731 1159 2009 
Q 1159 1288 1364 580 
Q 1569 -128 1984 -844 
L 1484 -844 
Q 1016 -109 783 600 
Q 550 1309 550 2009 
Q 550 2706 781 3412 
Q 1013 4119 1484 4856 
L 1984 4856 
z
" transform="scale(0.015625)"/>
       <path id="DejaVuSans-64" d="M 2906 2969 
L 2906 4863 
L 3481 4863 
L 3481 0 
L 2906 0 
L 2906 525 
Q 2725 213 2448 61 
Q 2172 -91 1784 -91 
Q 1150 -91 751 415 
Q 353 922 353 1747 
Q 353 2572 751 3078 
Q 1150 3584 1784 3584 
Q 2172 3584 2448 3432 
Q 2725 3281 2906 2969 
z
M 947 1747 
Q 947 1113 1208 752 
Q 1469 391 1925 391 
Q 2381 391 2643 752 
Q 2906 1113 2906 1747 
Q 2906 2381 2643 2742 
Q 2381 3103 1925 3103 
Q 1469 3103 1208 2742 
Q 947 2381 947 1747 
z
" transform="scale(0.015625)"/>
       <path id="DejaVuSans-2f" d="M 1625 4666 
L 2156 4666 
L 531 -594 
L 0 -594 
L 1625 4666 
z
" transform="scale(0.015625)"/>
       <path id="DejaVuSans-6d" d="M 3328 2828 
Q 3544 3216 3844 3400 
Q 4144 3584 4550 3584 
Q 5097 3584 5394 3201 
Q 5691 2819 5691 2113 
L 5691 0 
L 5113 0 
L 5113 2094 
Q 5113 2597 4934 2840 
Q 4756 3084 4391 3084 
Q 3944 3084 3684 2787 
Q 3425 2491 3425 1978 
L 3425 0 
L 2847 0 
L 2847 2094 
Q 2847 2600 2669 2842 
Q 2491 3084 2119 3084 
Q 1678 3084 1418 2786 
Q 1159 2488 1159 1978 
L 1159 0 
L 581 0 
L 581 3500 
L 1159 3500 
L 1159 2956 
Q 1356 3278 1631 3431 
Q 1906 3584 2284 3584 
Q 2666 3584 2933 3390 
Q 3200 3197 3328 2828 
z
" transform="scale(0.015625)"/>
       <path id="DejaVuSans-73" d="M 2834 3397 
L 2834 2853 
Q 2591 2978 2328 3040 
Q 2066 3103 1784 3103 
Q 1356 3103 1142 2972 
Q 928 2841 928 2578 
Q 928 2378 1081 2264 
Q 1234 2150 1697 2047 
L 1894 2003 
Q 2506 1872 2764 1633 
Q 3022 1394 3022 966 
Q 3022 478 2636 193 
Q 2250 -91 1575 -91 
Q 1294 -91 989 -36 
Q 684 19 347 128 
L 347 722 
Q 666 556 975 473 
Q 1284 391 1588 391 
Q 1994 391 2212 530 
Q 2431 669 2431 922 
Q 2431 1156 2273 1281 
Q 2116 1406 1581 1522 
L 1381 1569 
Q 847 1681 609 1914 
Q 372 2147 372 2553 
Q 372 3047 722 3315 
Q 1072 3584 1716 3584 
Q 2034 3584 2315 3537 
Q 2597 3491 2834 3397 
z
" transform="scale(0.015625)"/>
       <path id="DejaVuSans-29" d="M 513 4856 
L 1013 4856 
Q 1481 4119 1714 3412 
Q 1947 2706 1947 2009 
Q 1947 1309 1714 600 
Q 1481 -109 1013 -844 
L 513 -844 
Q 928 -128 1133 580 
Q 1338 1288 1338 2009 
Q 1338 2731 1133 3434 
Q 928 4138 513 4856 
z
" transform="scale(0.015625)"/>
      </defs>
      <use xlink:href="#DejaVuSans-56"/>
      <use xlink:href="#DejaVuSans-65" x="60.658203"/>
      <use xlink:href="#DejaVuSans-6c" x="122.181641"/>
      <use xlink:href="#DejaVuSans-6f" x="149.964844"/>
      <use xlink:href="#DejaVuSans-63" x="211.146484"/>
      <use xlink:href="#DejaVuSans-69" x="266.126953"/>
      <use xlink:href="#DejaVuSans-74" x="293.910156"/>
      <use xlink:href="#DejaVuSans-79" x="333.119141"/>
      <use xlink:href="#DejaVuSans-20" x="392.298828"/>
      <use xlink:href="#DejaVuSans-28" x="424.085938"/>
      <use xlink:href="#DejaVuSans-64" x="463.099609"/>
      <use xlink:href="#DejaVuSans-65" x="526.576172"/>
      <use xlink:href="#DejaVuSans-67" x="588.099609"/>
      <use xlink:href="#DejaVuSans-72" x="651.576172"/>
      <use xlink:href="#DejaVuSans-65" x="690.439453"/>
      <use xlink:href="#DejaVuSans-65" x="751.962891"/>
      <use xlink:href="#DejaVuSans-20" x="813.486328"/>
      <use xlink:href="#DejaVuSans-2f" x="845.273438"/>
      <use xlink:href="#DejaVuSans-20" x="878.964844"/>
      <use xlink:href="#DejaVuSans-34" x="910.751953"/>
      <use xlink:href="#DejaVuSans-20" x="974.375"/>
      <use xlink:href="#DejaVuSans-6d" x="1006.162109"/>
      <use xlink:href="#DejaVuSans-73" x="1103.574219"/>
      <use xlink:href="#DejaVuSans-29" x="1155.673828"/>
     </g>
    </g>
   </g>
   <g id="line2d_16">
    <path d="M 65.21554 233.399045 
L 78.742813 114.310919 
L 92.270085 112.72246 
L 105.797358 95.603663 
L 119.324631 85.805846 
L 132.851903 86.239291 
L 146.379176 84.085261 
L 159.906449 113.686696 
L 173.433722 125.571281 
L 186.960994 141.850493 
L 200.488267 101.552006 
L 214.01554 112.825703 
L 227.542812 116.85242 
L 241.070085 116.489028 
L 254.597358 115.307007 
L 268.124631 114.688795 
L 281.651903 113.412489 
L 295.179176 113.392898 
L 308.706449 110.160146 
L 322.233722 107.795906 
L 335.760994 105.490106 
L 349.288267 102.923733 
L 362.81554 102.088454 
L 376.342813 103.14482 
L 389.870085 120.618314 
" clip-path="url(#peba6185a10)" style="fill: none; stroke: #3b528b; stroke-width: 1.5; stroke-linecap: square"/>
   </g>
   <g id="line2d_17">
    <path d="M 65.21554 156.092671 
L 78.742813 79.954712 
L 92.270085 71.032228 
L 105.797358 77.325067 
L 119.324631 78.38642 
L 132.851903 93.552495 
L 146.379176 113.52829 
L 159.906449 129.654843 
L 173.433722 126.327527 
L 186.960994 124.915629 
L 200.488267 116.476666 
L 214.01554 114.85154 
L 227.542812 112.954059 
L 241.070085 116.215971 
L 254.597358 117.622926 
L 268.124631 117.450596 
L 281.651903 117.935188 
L 295.179176 120.323216 
L 308.706449 121.688021 
L 322.233722 124.174333 
L 335.760994 126.31114 
L 349.288267 125.919861 
L 362.81554 125.780823 
L 376.342813 129.432888 
L 389.870085 141.342438 
" clip-path="url(#peba6185a10)" style="fill: none; stroke: #21918c; stroke-width: 1.5; stroke-linecap: square"/>
   </g>
   <g id="line2d_18">
    <path d="M 65.21554 129.197655 
L 78.742813 142.421368 
L 92.270085 136.171443 
L 105.797358 120.37554 
L 119.324631 106.031371 
L 132.851903 102.104503 
L 146.379176 107.834592 
L 159.906449 120.603241 
L 173.433722 124.625667 
L 186.960994 113.066722 
L 200.488267 106.375011 
L 214.01554 109.419122 
L 227.542812 109.81672 
L 241.070085 109.775818 
L 254.597358 111.043716 
L 268.124631 109.753693 
L 281.651903 112.148592 
L 295.179176 111.470836 
L 308.706449 113.988203 
L 322.233722 113.488826 
L 335.760994 110.86028 
L 349.288267 106.010511 
L 362.81554 109.997498 
L 376.342813 113.426509 
L 389.870085 112.389628 
" clip-path="url(#peba6185a10)" style="fill: none; stroke: #5ec962; stroke-width: 1.5; stroke-linecap: square"/>
   </g>
   <g id="patch_3">
    <path d="M 48.982813 288.430125 
L 48.982813 22.318125 
" style="fill: none; stroke: #000000; stroke-width: 0.8; stroke-linejoin: miter; stroke-linecap: square"/>
   </g>
   <g id="patch_4">
    <path d="M 406.102813 288.430125 
L 406.102813 22.318125 
" style="fill: none; stroke: #000000; stroke-width: 0.8; stroke-linejoin: miter; stroke-linecap: square"/>
   </g>
   <g id="patch_5">
    <path d="M 48.982813 288.430125 
L 406.102813 288.430125 
" style="fill: none; stroke: #000000; stroke-width: 0.8; stroke-linejoin: miter; stroke-linecap: square"/>
   </g>
   <g id="patch_6">
    <path d="M 48.982813 22.318125 
L 406.102813 22.318125 
" style="fill: none; stroke: #000000; stroke-width: 0.8; stroke-linejoin: miter; stroke-linecap: square"/>
   </g>
   <g id="text_18">
    <!-- V3Off_Levelwalk - Angular velocities over average step cycle -->
    <g transform="translate(44.450938 16.318125) scale(0.12 -0.12)">
     <defs>
      <path id="DejaVuSans-33" d="M 2597 2516 
Q 3050 2419 3304 2112 
Q 3559 1806 3559 1356 
Q 3559 666 3084 287 
Q 2609 -91 1734 -91 
Q 1441 -91 1130 -33 
Q 819 25 488 141 
L 488 750 
Q 750 597 1062 519 
Q 1375 441 1716 441 
Q 2309 441 2620 675 
Q 2931 909 2931 1356 
Q 2931 1769 2642 2001 
Q 2353 2234 1838 2234 
L 1294 2234 
L 1294 2753 
L 1863 2753 
Q 2328 2753 2575 2939 
Q 2822 3125 2822 3475 
Q 2822 3834 2567 4026 
Q 2313 4219 1838 4219 
Q 1578 4219 1281 4162 
Q 984 4106 628 3988 
L 628 4550 
Q 988 4650 1302 4700 
Q 1616 4750 1894 4750 
Q 2613 4750 3031 4423 
Q 3450 4097 3450 3541 
Q 3450 3153 3228 2886 
Q 3006 2619 2597 2516 
z
" transform="scale(0.015625)"/>
      <path id="DejaVuSans-4f" d="M 2522 4238 
Q 1834 4238 1429 3725 
Q 1025 3213 1025 2328 
Q 1025 1447 1429 934 
Q 1834 422 2522 422 
Q 3209 422 3611 934 
Q 4013 1447 4013 2328 
Q 4013 3213 3611 3725 
Q 3209 4238 2522 4238 
z
M 2522 4750 
Q 3503 4750 4090 4092 
Q 4678 3434 4678 2328 
Q 4678 1225 4090 567 
Q 3503 -91 2522 -91 
Q 1538 -91 948 565 
Q 359 1222 359 2328 
Q 359 3434 948 4092 
Q 1538 4750 2522 4750 
z
" transform="scale(0.015625)"/>
      <path id="DejaVuSans-66" d="M 2375 4863 
L 2375 4384 
L 1825 4384 
Q 1516 4384 1395 4259 
Q 1275 4134 1275 3809 
L 1275 3500 
L 2222 3500 
L 2222 3053 
L 1275 3053 
L 1275 0 
L 697 0 
L 697 3053 
L 147 3053 
L 147 3500 
L 697 3500 
L 697 3744 
Q 697 4328 969 4595 
Q 1241 4863 1831 4863 
L 2375 4863 
z
" transform="scale(0.015625)"/>
      <path id="DejaVuSans-5f" d="M 3263 -1063 
L 3263 -1509 
L -63 -1509 
L -63 -1063 
L 3263 -1063 
z
" transform="scale(0.015625)"/>
      <path id="DejaVuSans-4c" d="M 628 4666 
L 1259 4666 
L 1259 531 
L 3531 531 
L 3531 0 
L 628 0 
L 628 4666 
z
" transform="scale(0.015625)"/>
      <path id="DejaVuSans-76" d="M 191 3500 
L 800 3500 
L 1894 563 
L 2988 3500 
L 3597 3500 
L 2284 0 
L 1503 0 
L 191 3500 
z
" transform="scale(0.015625)"/>
      <path id="DejaVuSans-77" d="M 269 3500 
L 844 3500 
L 1563 769 
L 2278 3500 
L 2956 3500 
L 3675 769 
L 4391 3500 
L 4966 3500 
L 4050 0 
L 3372 0 
L 2619 2869 
L 1863 0 
L 1184 0 
L 269 3500 
z
" transform="scale(0.015625)"/>
      <path id="DejaVuSans-6b" d="M 581 4863 
L 1159 4863 
L 1159 1991 
L 2875 3500 
L 3609 3500 
L 1753 1863 
L 3688 0 
L 2938 0 
L 1159 1709 
L 1159 0 
L 581 0 
L 581 4863 
z
" transform="scale(0.015625)"/>
      <path id="DejaVuSans-2d" d="M 313 2009 
L 1997 2009 
L 1997 1497 
L 313 1497 
L 313 2009 
z
" transform="scale(0.015625)"/>
      <path id="DejaVuSans-41" d="M 2188 4044 
L 1331 1722 
L 3047 1722 
L 2188 4044 
z
M 1831 4666 
L 2547 4666 
L 4325 0 
L 3669 0 
L 3244 1197 
L 1141 1197 
L 716 0 
L 50 0 
L 1831 4666 
z
" transform="scale(0.015625)"/>
      <path id="DejaVuSans-75" d="M 544 1381 
L 544 3500 
L 1119 3500 
L 1119 1403 
Q 1119 906 1312 657 
Q 1506 409 1894 409 
Q 2359 409 2629 706 
Q 2900 1003 2900 1516 
L 2900 3500 
L 3475 3500 
L 3475 0 
L 2900 0 
L 2900 538 
Q 2691 219 2414 64 
Q 2138 -91 1772 -91 
Q 1169 -91 856 284 
Q 544 659 544 1381 
z
M 1991 3584 
L 1991 3584 
z
" transform="scale(0.015625)"/>
      <path id="DejaVuSans-70" d="M 1159 525 
L 1159 -1331 
L 581 -1331 
L 581 3500 
L 1159 3500 
L 1159 2969 
Q 1341 3281 1617 3432 
Q 1894 3584 2278 3584 
Q 2916 3584 3314 3078 
Q 3713 2572 3713 1747 
Q 3713 922 3314 415 
Q 2916 -91 2278 -91 
Q 1894 -91 1617 61 
Q 1341 213 1159 525 
z
M 3116 1747 
Q 3116 2381 2855 2742 
Q 2594 3103 2138 3103 
Q 1681 3103 1420 2742 
Q 1159 2381 1159 1747 
Q 1159 1113 1420 752 
Q 1681 391 2138 391 
Q 2594 391 2855 752 
Q 3116 1113 3116 1747 
z
" transform="scale(0.015625)"/>
     </defs>
     <use xlink:href="#DejaVuSans-56"/>
     <use xlink:href="#DejaVuSans-33" x="68.408203"/>
     <use xlink:href="#DejaVuSans-4f" x="132.03125"/>
     <use xlink:href="#DejaVuSans-66" x="210.742188"/>
     <use xlink:href="#DejaVuSans-66" x="245.947266"/>
     <use xlink:href="#DejaVuSans-5f" x="281.152344"/>
     <use xlink:href="#DejaVuSans-4c" x="331.152344"/>
     <use xlink:href="#DejaVuSans-65" x="385.115234"/>
     <use xlink:href="#DejaVuSans-76" x="446.638672"/>
     <use xlink:href="#DejaVuSans-65" x="505.818359"/>
     <use xlink:href="#DejaVuSans-6c" x="567.341797"/>
     <use xlink:href="#DejaVuSans-77" x="595.125"/>
     <use xlink:href="#DejaVuSans-61" x="676.912109"/>
     <use xlink:href="#DejaVuSans-6c" x="738.191406"/>
     <use xlink:href="#DejaVuSans-6b" x="765.974609"/>
     <use xlink:href="#DejaVuSans-20" x="823.884766"/>
     <use xlink:href="#DejaVuSans-2d" x="855.671875"/>
     <use xlink:href="#DejaVuSans-20" x="891.755859"/>
     <use xlink:href="#DejaVuSans-41" x="923.542969"/>
     <use xlink:href="#DejaVuSans-6e" x="991.951172"/>
     <use xlink:href="#DejaVuSans-67" x="1055.330078"/>
     <use xlink:href="#DejaVuSans-75" x="1118.806641"/>
     <use xlink:href="#DejaVuSans-6c" x="1182.185547"/>
     <use xlink:href="#DejaVuSans-61" x="1209.96875"/>
     <use xlink:href="#DejaVuSans-72" x="1271.248047"/>
     <use xlink:href="#DejaVuSans-20" x="1312.361328"/>
     <use xlink:href="#DejaVuSans-76" x="1344.148438"/>
     <use xlink:href="#DejaVuSans-65" x="1403.328125"/>
     <use xlink:href="#DejaVuSans-6c" x="1464.851562"/>
     <use xlink:href="#DejaVuSans-6f" x="1492.634766"/>
     <use xlink:href="#DejaVuSans-63" x="1553.816406"/>
     <use xlink:href="#DejaVuSans-69" x="1608.796875"/>
     <use xlink:href="#DejaVuSans-74" x="1636.580078"/>
     <use xlink:href="#DejaVuSans-69" x="1675.789062"/>
     <use xlink:href="#DejaVuSans-65" x="1703.572266"/>
     <use xlink:href="#DejaVuSans-73" x="1765.095703"/>
     <use xlink:href="#DejaVuSans-20" x="1817.195312"/>
     <use xlink:href="#DejaVuSans-6f" x="1848.982422"/>
     <use xlink:href="#DejaVuSans-76" x="1910.164062"/>
     <use xlink:href="#DejaVuSans-65" x="1969.34375"/>
     <use xlink:href="#DejaVuSans-72" x="2030.867188"/>
     <use xlink:href="#DejaVuSans-20" x="2071.980469"/>
     <use xlink:href="#DejaVuSans-61" x="2103.767578"/>
     <use xlink:href="#DejaVuSans-76" x="2165.046875"/>
     <use xlink:href="#DejaVuSans-65" x="2224.226562"/>
     <use xlink:href="#DejaVuSans-72" x="2285.75"/>
     <use xlink:href="#DejaVuSans-61" x="2326.863281"/>
     <use xlink:href="#DejaVuSans-67" x="2388.142578"/>
     <use xlink:href="#DejaVuSans-65" x="2451.619141"/>
     <use xlink:href="#DejaVuSans-20" x="2513.142578"/>
     <use xlink:href="#DejaVuSans-73" x="2544.929688"/>
     <use xlink:href="#DejaVuSans-74" x="2597.029297"/>
     <use xlink:href="#DejaVuSans-65" x="2636.238281"/>
     <use xlink:href="#DejaVuSans-70" x="2697.761719"/>
     <use xlink:href="#DejaVuSans-20" x="2761.238281"/>
     <use xlink:href="#DejaVuSans-63" x="2793.025391"/>
     <use xlink:href="#DejaVuSans-79" x="2848.005859"/>
     <use xlink:href="#DejaVuSans-63" x="2907.185547"/>
     <use xlink:href="#DejaVuSans-6c" x="2962.166016"/>
     <use xlink:href="#DejaVuSans-65" x="2989.949219"/>
    </g>
   </g>
   <g id="legend_1">
    <g id="patch_7">
     <path d="M 336.024688 74.3525 
L 399.102813 74.3525 
Q 401.102813 74.3525 401.102813 72.3525 
L 401.102813 29.318125 
Q 401.102813 27.318125 399.102813 27.318125 
L 336.024688 27.318125 
Q 334.024688 27.318125 334.024688 29.318125 
L 334.024688 72.3525 
Q 334.024688 74.3525 336.024688 74.3525 
z
" style="fill: #ffffff; opacity: 0.8; stroke: #cccccc; stroke-linejoin: miter"/>
    </g>
    <g id="line2d_19">
     <path d="M 338.024688 35.416562 
L 348.024688 35.416562 
L 358.024688 35.416562 
" style="fill: none; stroke: #3b528b; stroke-width: 1.5; stroke-linecap: square"/>
    </g>
    <g id="text_19">
     <!-- Ankle  -->
     <g transform="translate(366.024688 38.916562) scale(0.1 -0.1)">
      <use xlink:href="#DejaVuSans-41"/>
      <use xlink:href="#DejaVuSans-6e" x="68.408203"/>
      <use xlink:href="#DejaVuSans-6b" x="131.787109"/>
      <use xlink:href="#DejaVuSans-6c" x="189.697266"/>
      <use xlink:href="#DejaVuSans-65" x="217.480469"/>
      <use xlink:href="#DejaVuSans-20" x="279.003906"/>
     </g>
    </g>
    <g id="line2d_20">
     <path d="M 338.024688 50.094688 
L 348.024688 50.094688 
L 358.024688 50.094688 
" style="fill: none; stroke: #21918c; stroke-width: 1.5; stroke-linecap: square"/>
    </g>
    <g id="text_20">
     <!-- Knee  -->
     <g transform="translate(366.024688 53.594688) scale(0.1 -0.1)">
      <defs>
       <path id="DejaVuSans-4b" d="M 628 4666 
L 1259 4666 
L 1259 2694 
L 3353 4666 
L 4166 4666 
L 1850 2491 
L 4331 0 
L 3500 0 
L 1259 2247 
L 1259 0 
L 628 0 
L 628 4666 
z
" transform="scale(0.015625)"/>
      </defs>
      <use xlink:href="#DejaVuSans-4b"/>
      <use xlink:href="#DejaVuSans-6e" x="65.576172"/>
      <use xlink:href="#DejaVuSans-65" x="128.955078"/>
      <use xlink:href="#DejaVuSans-65" x="190.478516"/>
      <use xlink:href="#DejaVuSans-20" x="252.001953"/>
     </g>
    </g>
    <g id="line2d_21">
     <path d="M 338.024688 64.772812 
L 348.024688 64.772812 
L 358.024688 64.772812 
" style="fill: none; stroke: #5ec962; stroke-width: 1.5; stroke-linecap: square"/>
    </g>
    <g id="text_21">
     <!-- Hip  -->
     <g transform="translate(366.024688 68.272812) scale(0.1 -0.1)">
      <defs>
       <path id="DejaVuSans-48" d="M 628 4666 
L 1259 4666 
L 1259 2753 
L 3553 2753 
L 3553 4666 
L 4184 4666 
L 4184 0 
L 3553 0 
L 3553 2222 
L 1259 2222 
L 1259 0 
L 628 0 
L 628 4666 
z
" transform="scale(0.015625)"/>
      </defs>
      <use xlink:href="#DejaVuSans-48"/>
      <use xlink:href="#DejaVuSans-69" x="75.195312"/>
      <use xlink:href="#DejaVuSans-70" x="102.978516"/>
      <use xlink:href="#DejaVuSans-20" x="166.455078"/>
     </g>
    </g>
   </g>
  </g>
 </g>
 <defs>
  <clipPath id="peba6185a10">
   <rect x="48.982813" y="22.318125" width="357.12" height="266.112"/>
  </clipPath>
 </defs>
</svg>
