<?xml version="1.0" encoding="utf-8" standalone="no"?>
<!DOCTYPE svg PUBLIC "-//W3C//DTD SVG 1.1//EN"
  "http://www.w3.org/Graphics/SVG/1.1/DTD/svg11.dtd">
<svg xmlns:xlink="http://www.w3.org/1999/xlink" width="416.480937pt" height="325.986375pt" viewBox="0 0 416.480937 325.986375" xmlns="http://www.w3.org/2000/svg" version="1.1">
 <metadata>
  <rdf:RDF xmlns:dc="http://purl.org/dc/elements/1.1/" xmlns:cc="http://creativecommons.org/ns#" xmlns:rdf="http://www.w3.org/1999/02/22-rdf-syntax-ns#">
   <cc:Work>
    <dc:type rdf:resource="http://purl.org/dc/dcmitype/StillImage"/>
    <dc:date>2024-08-08T17:49:46.623403</dc:date>
    <dc:format>image/svg+xml</dc:format>
    <dc:creator>
     <cc:Agent>
      <dc:title>Matplotlib v3.8.4, https://matplotlib.org/</dc:title>
     </cc:Agent>
    </dc:creator>
   </cc:Work>
  </rdf:RDF>
 </metadata>
 <defs>
  <style type="text/css">*{stroke-linejoin: round; stroke-linecap: butt}</style>
 </defs>
 <g id="figure_1">
  <g id="patch_1">
   <path d="M 0 325.986375 
L 416.480937 325.986375 
L 416.480937 0 
L 0 0 
z
" style="fill: #ffffff"/>
  </g>
  <g id="axes_1">
   <g id="patch_2">
    <path d="M 52.160938 288.430125 
L 409.280938 288.430125 
L 409.280938 22.318125 
L 52.160938 22.318125 
z
" style="fill: #ffffff"/>
   </g>
   <g id="PolyCollection_1">
    <path d="M 68.393665 156.557573 
L 68.393665 177.808911 
L 81.920938 178.973652 
L 95.44821 181.014306 
L 108.975483 180.99532 
L 122.502756 180.228248 
L 136.030028 177.86465 
L 149.557301 175.937694 
L 163.084574 175.276471 
L 176.611847 173.961711 
L 190.139119 170.627179 
L 203.666392 167.425409 
L 217.193665 164.390049 
L 230.720938 162.576301 
L 244.24821 161.400445 
L 257.775483 163.586348 
L 271.302756 167.11049 
L 284.830028 171.2721 
L 298.357301 173.550761 
L 311.884574 172.341521 
L 325.411847 170.518882 
L 338.939119 171.717494 
L 352.466392 172.733561 
L 365.993665 176.039694 
L 379.520938 178.637276 
L 393.04821 178.394739 
L 393.04821 156.146274 
L 393.04821 156.146274 
L 379.520938 155.992585 
L 365.993665 158.720146 
L 352.466392 161.940446 
L 338.939119 165.875494 
L 325.411847 167.099451 
L 311.884574 162.156644 
L 298.357301 158.043606 
L 284.830028 155.946954 
L 271.302756 154.621588 
L 257.775483 154.078348 
L 244.24821 154.398336 
L 230.720938 155.101772 
L 217.193665 155.448224 
L 203.666392 156.596914 
L 190.139119 158.61175 
L 176.611847 160.899375 
L 163.084574 161.840622 
L 149.557301 165.220258 
L 136.030028 167.507897 
L 122.502756 167.546706 
L 108.975483 165.076842 
L 95.44821 163.176341 
L 81.920938 160.479674 
L 68.393665 156.557573 
z
" clip-path="url(#pba1d19d6f4)" style="fill: #46327e; fill-opacity: 0.2"/>
   </g>
   <g id="PolyCollection_2">
    <path d="M 68.393665 155.763102 
L 68.393665 175.7686 
L 81.920938 178.141318 
L 95.44821 179.611526 
L 108.975483 182.11522 
L 122.502756 183.861978 
L 136.030028 183.933388 
L 149.557301 181.862571 
L 163.084574 179.590391 
L 176.611847 176.619343 
L 190.139119 176.949301 
L 203.666392 176.413869 
L 217.193665 173.957136 
L 230.720938 171.377051 
L 244.24821 169.972673 
L 257.775483 170.482489 
L 271.302756 171.03731 
L 284.830028 170.882172 
L 298.357301 170.203393 
L 311.884574 170.759017 
L 325.411847 170.802581 
L 338.939119 170.019815 
L 352.466392 170.702156 
L 365.993665 175.339339 
L 379.520938 178.626189 
L 393.04821 177.725562 
L 393.04821 157.345567 
L 393.04821 157.345567 
L 379.520938 158.334288 
L 365.993665 160.39597 
L 352.466392 163.486289 
L 338.939119 165.970186 
L 325.411847 166.67562 
L 311.884574 163.373015 
L 298.357301 161.89643 
L 284.830028 158.033497 
L 271.302756 154.102596 
L 257.775483 150.851107 
L 244.24821 150.028469 
L 230.720938 151.534492 
L 217.193665 152.669601 
L 203.666392 154.363839 
L 190.139119 158.185916 
L 176.611847 164.780379 
L 163.084574 164.034891 
L 149.557301 159.516644 
L 136.030028 155.581851 
L 122.502756 152.366703 
L 108.975483 153.057065 
L 95.44821 155.115545 
L 81.920938 156.049044 
L 68.393665 155.763102 
z
" clip-path="url(#pba1d19d6f4)" style="fill: #365c8d; fill-opacity: 0.2"/>
   </g>
   <g id="PolyCollection_3">
    <path d="M 68.393665 132.079943 
L 68.393665 192.867694 
L 81.920938 193.406209 
L 95.44821 195.492065 
L 108.975483 192.613734 
L 122.502756 190.358366 
L 136.030028 184.411742 
L 149.557301 179.398259 
L 163.084574 177.017145 
L 176.611847 177.96101 
L 190.139119 178.420455 
L 203.666392 177.571496 
L 217.193665 176.797549 
L 230.720938 175.903679 
L 244.24821 175.881785 
L 257.775483 177.159307 
L 271.302756 178.419192 
L 284.830028 178.242493 
L 298.357301 177.519764 
L 311.884574 176.853714 
L 325.411847 176.995867 
L 338.939119 176.018072 
L 352.466392 173.971818 
L 365.993665 173.874237 
L 379.520938 174.899558 
L 393.04821 182.647943 
L 393.04821 155.529351 
L 393.04821 155.529351 
L 379.520938 166.205138 
L 365.993665 166.776692 
L 352.466392 165.475094 
L 338.939119 164.949708 
L 325.411847 162.063697 
L 311.884574 159.671337 
L 298.357301 156.234472 
L 284.830028 151.509668 
L 271.302756 148.032153 
L 257.775483 145.389147 
L 244.24821 146.090554 
L 230.720938 148.72991 
L 217.193665 152.96271 
L 203.666392 156.586145 
L 190.139119 157.531567 
L 176.611847 158.637982 
L 163.084574 161.849022 
L 149.557301 160.193025 
L 136.030028 155.389796 
L 122.502756 148.752669 
L 108.975483 144.273704 
L 95.44821 135.048854 
L 81.920938 126.502908 
L 68.393665 132.079943 
z
" clip-path="url(#pba1d19d6f4)" style="fill: #277f8e; fill-opacity: 0.2"/>
   </g>
   <g id="PolyCollection_4">
    <path d="M 68.393665 129.700116 
L 68.393665 185.012916 
L 81.920938 217.88871 
L 95.44821 237.600283 
L 108.975483 226.398418 
L 122.502756 230.924068 
L 136.030028 229.07569 
L 149.557301 215.232262 
L 163.084574 194.228551 
L 176.611847 200.828496 
L 190.139119 206.624497 
L 203.666392 205.911247 
L 217.193665 204.140334 
L 230.720938 201.847333 
L 244.24821 200.303272 
L 257.775483 198.813926 
L 271.302756 197.841481 
L 284.830028 196.291401 
L 298.357301 194.685258 
L 311.884574 190.966543 
L 325.411847 188.040225 
L 338.939119 184.879345 
L 352.466392 180.395555 
L 365.993665 178.646816 
L 379.520938 172.304994 
L 393.04821 172.155171 
L 393.04821 160.541153 
L 393.04821 160.541153 
L 379.520938 161.25861 
L 365.993665 154.04766 
L 352.466392 150.694448 
L 338.939119 147.07339 
L 325.411847 143.385525 
L 311.884574 141.116304 
L 298.357301 138.582086 
L 284.830028 136.163748 
L 271.302756 134.438792 
L 257.775483 132.743608 
L 244.24821 131.01782 
L 230.720938 129.190348 
L 217.193665 130.888191 
L 203.666392 130.597763 
L 190.139119 135.675003 
L 176.611847 155.161453 
L 163.084574 181.786605 
L 149.557301 151.913479 
L 136.030028 115.660099 
L 122.502756 79.141236 
L 108.975483 69.155809 
L 95.44821 84.060881 
L 81.920938 104.356879 
L 68.393665 129.700116 
z
" clip-path="url(#pba1d19d6f4)" style="fill: #1fa187; fill-opacity: 0.2"/>
   </g>
   <g id="PolyCollection_5">
    <path d="M 68.393665 56.305226 
L 68.393665 249.05915 
L 81.920938 246.801499 
L 95.44821 247.086401 
L 108.975483 231.314303 
L 122.502756 235.646909 
L 136.030028 232.946801 
L 149.557301 217.198833 
L 163.084574 193.266961 
L 176.611847 205.989001 
L 190.139119 210.747534 
L 203.666392 209.401189 
L 217.193665 207.722096 
L 230.720938 206.991838 
L 244.24821 205.840478 
L 257.775483 204.704382 
L 271.302756 204.385831 
L 284.830028 203.464907 
L 298.357301 203.121792 
L 311.884574 201.75773 
L 325.411847 200.467112 
L 338.939119 199.386328 
L 352.466392 197.235118 
L 365.993665 194.837789 
L 379.520938 189.732695 
L 393.04821 173.340145 
L 393.04821 156.401725 
L 393.04821 156.401725 
L 379.520938 143.947713 
L 365.993665 138.619629 
L 352.466392 135.38291 
L 338.939119 133.311168 
L 325.411847 131.824451 
L 311.884574 131.323278 
L 298.357301 130.337155 
L 284.830028 129.318065 
L 271.302756 128.875745 
L 257.775483 128.222413 
L 244.24821 127.646743 
L 230.720938 126.825368 
L 217.193665 129.844009 
L 203.666392 130.810408 
L 190.139119 131.432392 
L 176.611847 149.397957 
L 163.084574 181.117172 
L 149.557301 152.052881 
L 136.030028 110.568842 
L 122.502756 71.204006 
L 108.975483 65.447333 
L 95.44821 74.319351 
L 81.920938 70.238554 
L 68.393665 56.305226 
z
" clip-path="url(#pba1d19d6f4)" style="fill: #4ac16d; fill-opacity: 0.2"/>
   </g>
   <g id="PolyCollection_6">
    <path d="M 68.393665 34.414125 
L 68.393665 276.334125 
L 81.920938 272.513195 
L 95.44821 256.117447 
L 108.975483 234.055353 
L 122.502756 236.769581 
L 136.030028 232.441432 
L 149.557301 216.52285 
L 163.084574 190.133659 
L 176.611847 205.061388 
L 190.139119 211.046118 
L 203.666392 209.22862 
L 217.193665 208.424557 
L 230.720938 208.360531 
L 244.24821 208.158694 
L 257.775483 207.807477 
L 271.302756 207.783641 
L 284.830028 208.310145 
L 298.357301 208.388913 
L 311.884574 208.551021 
L 325.411847 207.747657 
L 338.939119 207.517015 
L 352.466392 207.115552 
L 365.993665 205.783206 
L 379.520938 203.44198 
L 393.04821 191.977965 
L 393.04821 138.71743 
L 393.04821 138.71743 
L 379.520938 128.523875 
L 365.993665 128.420603 
L 352.466392 127.041939 
L 338.939119 126.048793 
L 325.411847 127.418172 
L 311.884574 126.825963 
L 298.357301 127.194997 
L 284.830028 126.609524 
L 271.302756 126.270193 
L 257.775483 126.384434 
L 244.24821 126.096459 
L 230.720938 126.193684 
L 217.193665 129.973155 
L 203.666392 132.204237 
L 190.139119 132.360811 
L 176.611847 148.590906 
L 163.084574 179.98425 
L 149.557301 151.35997 
L 136.030028 108.434891 
L 122.502756 68.377982 
L 108.975483 60.522406 
L 95.44821 60.615563 
L 81.920938 43.614208 
L 68.393665 34.414125 
z
" clip-path="url(#pba1d19d6f4)" style="fill: #a0da39; fill-opacity: 0.2"/>
   </g>
   <g id="matplotlib.axis_1">
    <g id="xtick_1">
     <g id="line2d_1">
      <defs>
       <path id="m06f759f3eb" d="M 0 0 
L 0 3.5 
" style="stroke: #000000; stroke-width: 0.8"/>
      </defs>
      <g>
       <use xlink:href="#m06f759f3eb" x="68.393665" y="288.430125" style="stroke: #000000; stroke-width: 0.8"/>
      </g>
     </g>
     <g id="text_1">
      <!-- 0 -->
      <g transform="translate(65.212415 303.028562) scale(0.1 -0.1)">
       <defs>
        <path id="DejaVuSans-30" d="M 2034 4250 
Q 1547 4250 1301 3770 
Q 1056 3291 1056 2328 
Q 1056 1369 1301 889 
Q 1547 409 2034 409 
Q 2525 409 2770 889 
Q 3016 1369 3016 2328 
Q 3016 3291 2770 3770 
Q 2525 4250 2034 4250 
z
M 2034 4750 
Q 2819 4750 3233 4129 
Q 3647 3509 3647 2328 
Q 3647 1150 3233 529 
Q 2819 -91 2034 -91 
Q 1250 -91 836 529 
Q 422 1150 422 2328 
Q 422 3509 836 4129 
Q 1250 4750 2034 4750 
z
" transform="scale(0.015625)"/>
       </defs>
       <use xlink:href="#DejaVuSans-30"/>
      </g>
     </g>
    </g>
    <g id="xtick_2">
     <g id="line2d_2">
      <g>
       <use xlink:href="#m06f759f3eb" x="133.324574" y="288.430125" style="stroke: #000000; stroke-width: 0.8"/>
      </g>
     </g>
     <g id="text_2">
      <!-- 20 -->
      <g transform="translate(126.962074 303.028562) scale(0.1 -0.1)">
       <defs>
        <path id="DejaVuSans-32" d="M 1228 531 
L 3431 531 
L 3431 0 
L 469 0 
L 469 531 
Q 828 903 1448 1529 
Q 2069 2156 2228 2338 
Q 2531 2678 2651 2914 
Q 2772 3150 2772 3378 
Q 2772 3750 2511 3984 
Q 2250 4219 1831 4219 
Q 1534 4219 1204 4116 
Q 875 4013 500 3803 
L 500 4441 
Q 881 4594 1212 4672 
Q 1544 4750 1819 4750 
Q 2544 4750 2975 4387 
Q 3406 4025 3406 3419 
Q 3406 3131 3298 2873 
Q 3191 2616 2906 2266 
Q 2828 2175 2409 1742 
Q 1991 1309 1228 531 
z
" transform="scale(0.015625)"/>
       </defs>
       <use xlink:href="#DejaVuSans-32"/>
       <use xlink:href="#DejaVuSans-30" x="63.623047"/>
      </g>
     </g>
    </g>
    <g id="xtick_3">
     <g id="line2d_3">
      <g>
       <use xlink:href="#m06f759f3eb" x="198.255483" y="288.430125" style="stroke: #000000; stroke-width: 0.8"/>
      </g>
     </g>
     <g id="text_3">
      <!-- 40 -->
      <g transform="translate(191.892983 303.028562) scale(0.1 -0.1)">
       <defs>
        <path id="DejaVuSans-34" d="M 2419 4116 
L 825 1625 
L 2419 1625 
L 2419 4116 
z
M 2253 4666 
L 3047 4666 
L 3047 1625 
L 3713 1625 
L 3713 1100 
L 3047 1100 
L 3047 0 
L 2419 0 
L 2419 1100 
L 313 1100 
L 313 1709 
L 2253 4666 
z
" transform="scale(0.015625)"/>
       </defs>
       <use xlink:href="#DejaVuSans-34"/>
       <use xlink:href="#DejaVuSans-30" x="63.623047"/>
      </g>
     </g>
    </g>
    <g id="xtick_4">
     <g id="line2d_4">
      <g>
       <use xlink:href="#m06f759f3eb" x="263.186392" y="288.430125" style="stroke: #000000; stroke-width: 0.8"/>
      </g>
     </g>
     <g id="text_4">
      <!-- 60 -->
      <g transform="translate(256.823892 303.028562) scale(0.1 -0.1)">
       <defs>
        <path id="DejaVuSans-36" d="M 2113 2584 
Q 1688 2584 1439 2293 
Q 1191 2003 1191 1497 
Q 1191 994 1439 701 
Q 1688 409 2113 409 
Q 2538 409 2786 701 
Q 3034 994 3034 1497 
Q 3034 2003 2786 2293 
Q 2538 2584 2113 2584 
z
M 3366 4563 
L 3366 3988 
Q 3128 4100 2886 4159 
Q 2644 4219 2406 4219 
Q 1781 4219 1451 3797 
Q 1122 3375 1075 2522 
Q 1259 2794 1537 2939 
Q 1816 3084 2150 3084 
Q 2853 3084 3261 2657 
Q 3669 2231 3669 1497 
Q 3669 778 3244 343 
Q 2819 -91 2113 -91 
Q 1303 -91 875 529 
Q 447 1150 447 2328 
Q 447 3434 972 4092 
Q 1497 4750 2381 4750 
Q 2619 4750 2861 4703 
Q 3103 4656 3366 4563 
z
" transform="scale(0.015625)"/>
       </defs>
       <use xlink:href="#DejaVuSans-36"/>
       <use xlink:href="#DejaVuSans-30" x="63.623047"/>
      </g>
     </g>
    </g>
    <g id="xtick_5">
     <g id="line2d_5">
      <g>
       <use xlink:href="#m06f759f3eb" x="328.117301" y="288.430125" style="stroke: #000000; stroke-width: 0.8"/>
      </g>
     </g>
     <g id="text_5">
      <!-- 80 -->
      <g transform="translate(321.754801 303.028562) scale(0.1 -0.1)">
       <defs>
        <path id="DejaVuSans-38" d="M 2034 2216 
Q 1584 2216 1326 1975 
Q 1069 1734 1069 1313 
Q 1069 891 1326 650 
Q 1584 409 2034 409 
Q 2484 409 2743 651 
Q 3003 894 3003 1313 
Q 3003 1734 2745 1975 
Q 2488 2216 2034 2216 
z
M 1403 2484 
Q 997 2584 770 2862 
Q 544 3141 544 3541 
Q 544 4100 942 4425 
Q 1341 4750 2034 4750 
Q 2731 4750 3128 4425 
Q 3525 4100 3525 3541 
Q 3525 3141 3298 2862 
Q 3072 2584 2669 2484 
Q 3125 2378 3379 2068 
Q 3634 1759 3634 1313 
Q 3634 634 3220 271 
Q 2806 -91 2034 -91 
Q 1263 -91 848 271 
Q 434 634 434 1313 
Q 434 1759 690 2068 
Q 947 2378 1403 2484 
z
M 1172 3481 
Q 1172 3119 1398 2916 
Q 1625 2713 2034 2713 
Q 2441 2713 2670 2916 
Q 2900 3119 2900 3481 
Q 2900 3844 2670 4047 
Q 2441 4250 2034 4250 
Q 1625 4250 1398 4047 
Q 1172 3844 1172 3481 
z
" transform="scale(0.015625)"/>
       </defs>
       <use xlink:href="#DejaVuSans-38"/>
       <use xlink:href="#DejaVuSans-30" x="63.623047"/>
      </g>
     </g>
    </g>
    <g id="xtick_6">
     <g id="line2d_6">
      <g>
       <use xlink:href="#m06f759f3eb" x="393.04821" y="288.430125" style="stroke: #000000; stroke-width: 0.8"/>
      </g>
     </g>
     <g id="text_6">
      <!-- 100 -->
      <g transform="translate(383.50446 303.028562) scale(0.1 -0.1)">
       <defs>
        <path id="DejaVuSans-31" d="M 794 531 
L 1825 531 
L 1825 4091 
L 703 3866 
L 703 4441 
L 1819 4666 
L 2450 4666 
L 2450 531 
L 3481 531 
L 3481 0 
L 794 0 
L 794 531 
z
" transform="scale(0.015625)"/>
       </defs>
       <use xlink:href="#DejaVuSans-31"/>
       <use xlink:href="#DejaVuSans-30" x="63.623047"/>
       <use xlink:href="#DejaVuSans-30" x="127.246094"/>
      </g>
     </g>
    </g>
    <g id="text_7">
     <!-- Percentage -->
     <g transform="translate(202.598281 316.706687) scale(0.1 -0.1)">
      <defs>
       <path id="DejaVuSans-50" d="M 1259 4147 
L 1259 2394 
L 2053 2394 
Q 2494 2394 2734 2622 
Q 2975 2850 2975 3272 
Q 2975 3691 2734 3919 
Q 2494 4147 2053 4147 
L 1259 4147 
z
M 628 4666 
L 2053 4666 
Q 2838 4666 3239 4311 
Q 3641 3956 3641 3272 
Q 3641 2581 3239 2228 
Q 2838 1875 2053 1875 
L 1259 1875 
L 1259 0 
L 628 0 
L 628 4666 
z
" transform="scale(0.015625)"/>
       <path id="DejaVuSans-65" d="M 3597 1894 
L 3597 1613 
L 953 1613 
Q 991 1019 1311 708 
Q 1631 397 2203 397 
Q 2534 397 2845 478 
Q 3156 559 3463 722 
L 3463 178 
Q 3153 47 2828 -22 
Q 2503 -91 2169 -91 
Q 1331 -91 842 396 
Q 353 884 353 1716 
Q 353 2575 817 3079 
Q 1281 3584 2069 3584 
Q 2775 3584 3186 3129 
Q 3597 2675 3597 1894 
z
M 3022 2063 
Q 3016 2534 2758 2815 
Q 2500 3097 2075 3097 
Q 1594 3097 1305 2825 
Q 1016 2553 972 2059 
L 3022 2063 
z
" transform="scale(0.015625)"/>
       <path id="DejaVuSans-72" d="M 2631 2963 
Q 2534 3019 2420 3045 
Q 2306 3072 2169 3072 
Q 1681 3072 1420 2755 
Q 1159 2438 1159 1844 
L 1159 0 
L 581 0 
L 581 3500 
L 1159 3500 
L 1159 2956 
Q 1341 3275 1631 3429 
Q 1922 3584 2338 3584 
Q 2397 3584 2469 3576 
Q 2541 3569 2628 3553 
L 2631 2963 
z
" transform="scale(0.015625)"/>
       <path id="DejaVuSans-63" d="M 3122 3366 
L 3122 2828 
Q 2878 2963 2633 3030 
Q 2388 3097 2138 3097 
Q 1578 3097 1268 2742 
Q 959 2388 959 1747 
Q 959 1106 1268 751 
Q 1578 397 2138 397 
Q 2388 397 2633 464 
Q 2878 531 3122 666 
L 3122 134 
Q 2881 22 2623 -34 
Q 2366 -91 2075 -91 
Q 1284 -91 818 406 
Q 353 903 353 1747 
Q 353 2603 823 3093 
Q 1294 3584 2113 3584 
Q 2378 3584 2631 3529 
Q 2884 3475 3122 3366 
z
" transform="scale(0.015625)"/>
       <path id="DejaVuSans-6e" d="M 3513 2113 
L 3513 0 
L 2938 0 
L 2938 2094 
Q 2938 2591 2744 2837 
Q 2550 3084 2163 3084 
Q 1697 3084 1428 2787 
Q 1159 2491 1159 1978 
L 1159 0 
L 581 0 
L 581 3500 
L 1159 3500 
L 1159 2956 
Q 1366 3272 1645 3428 
Q 1925 3584 2291 3584 
Q 2894 3584 3203 3211 
Q 3513 2838 3513 2113 
z
" transform="scale(0.015625)"/>
       <path id="DejaVuSans-74" d="M 1172 4494 
L 1172 3500 
L 2356 3500 
L 2356 3053 
L 1172 3053 
L 1172 1153 
Q 1172 725 1289 603 
Q 1406 481 1766 481 
L 2356 481 
L 2356 0 
L 1766 0 
Q 1100 0 847 248 
Q 594 497 594 1153 
L 594 3053 
L 172 3053 
L 172 3500 
L 594 3500 
L 594 4494 
L 1172 4494 
z
" transform="scale(0.015625)"/>
       <path id="DejaVuSans-61" d="M 2194 1759 
Q 1497 1759 1228 1600 
Q 959 1441 959 1056 
Q 959 750 1161 570 
Q 1363 391 1709 391 
Q 2188 391 2477 730 
Q 2766 1069 2766 1631 
L 2766 1759 
L 2194 1759 
z
M 3341 1997 
L 3341 0 
L 2766 0 
L 2766 531 
Q 2569 213 2275 61 
Q 1981 -91 1556 -91 
Q 1019 -91 701 211 
Q 384 513 384 1019 
Q 384 1609 779 1909 
Q 1175 2209 1959 2209 
L 2766 2209 
L 2766 2266 
Q 2766 2663 2505 2880 
Q 2244 3097 1772 3097 
Q 1472 3097 1187 3025 
Q 903 2953 641 2809 
L 641 3341 
Q 956 3463 1253 3523 
Q 1550 3584 1831 3584 
Q 2591 3584 2966 3190 
Q 3341 2797 3341 1997 
z
" transform="scale(0.015625)"/>
       <path id="DejaVuSans-67" d="M 2906 1791 
Q 2906 2416 2648 2759 
Q 2391 3103 1925 3103 
Q 1463 3103 1205 2759 
Q 947 2416 947 1791 
Q 947 1169 1205 825 
Q 1463 481 1925 481 
Q 2391 481 2648 825 
Q 2906 1169 2906 1791 
z
M 3481 434 
Q 3481 -459 3084 -895 
Q 2688 -1331 1869 -1331 
Q 1566 -1331 1297 -1286 
Q 1028 -1241 775 -1147 
L 775 -588 
Q 1028 -725 1275 -790 
Q 1522 -856 1778 -856 
Q 2344 -856 2625 -561 
Q 2906 -266 2906 331 
L 2906 616 
Q 2728 306 2450 153 
Q 2172 0 1784 0 
Q 1141 0 747 490 
Q 353 981 353 1791 
Q 353 2603 747 3093 
Q 1141 3584 1784 3584 
Q 2172 3584 2450 3431 
Q 2728 3278 2906 2969 
L 2906 3500 
L 3481 3500 
L 3481 434 
z
" transform="scale(0.015625)"/>
      </defs>
      <use xlink:href="#DejaVuSans-50"/>
      <use xlink:href="#DejaVuSans-65" x="56.677734"/>
      <use xlink:href="#DejaVuSans-72" x="118.201172"/>
      <use xlink:href="#DejaVuSans-63" x="157.064453"/>
      <use xlink:href="#DejaVuSans-65" x="212.044922"/>
      <use xlink:href="#DejaVuSans-6e" x="273.568359"/>
      <use xlink:href="#DejaVuSans-74" x="336.947266"/>
      <use xlink:href="#DejaVuSans-61" x="376.15625"/>
      <use xlink:href="#DejaVuSans-67" x="437.435547"/>
      <use xlink:href="#DejaVuSans-65" x="500.912109"/>
     </g>
    </g>
   </g>
   <g id="matplotlib.axis_2">
    <g id="ytick_1">
     <g id="line2d_7">
      <defs>
       <path id="m53b3637685" d="M 0 0 
L -3.5 0 
" style="stroke: #000000; stroke-width: 0.8"/>
      </defs>
      <g>
       <use xlink:href="#m53b3637685" x="52.160938" y="268.97576" style="stroke: #000000; stroke-width: 0.8"/>
      </g>
     </g>
     <g id="text_8">
      <!-- −1.5 -->
      <g transform="translate(20.878125 272.774979) scale(0.1 -0.1)">
       <defs>
        <path id="DejaVuSans-2212" d="M 678 2272 
L 4684 2272 
L 4684 1741 
L 678 1741 
L 678 2272 
z
" transform="scale(0.015625)"/>
        <path id="DejaVuSans-2e" d="M 684 794 
L 1344 794 
L 1344 0 
L 684 0 
L 684 794 
z
" transform="scale(0.015625)"/>
        <path id="DejaVuSans-35" d="M 691 4666 
L 3169 4666 
L 3169 4134 
L 1269 4134 
L 1269 2991 
Q 1406 3038 1543 3061 
Q 1681 3084 1819 3084 
Q 2600 3084 3056 2656 
Q 3513 2228 3513 1497 
Q 3513 744 3044 326 
Q 2575 -91 1722 -91 
Q 1428 -91 1123 -41 
Q 819 9 494 109 
L 494 744 
Q 775 591 1075 516 
Q 1375 441 1709 441 
Q 2250 441 2565 725 
Q 2881 1009 2881 1497 
Q 2881 1984 2565 2268 
Q 2250 2553 1709 2553 
Q 1456 2553 1204 2497 
Q 953 2441 691 2322 
L 691 4666 
z
" transform="scale(0.015625)"/>
       </defs>
       <use xlink:href="#DejaVuSans-2212"/>
       <use xlink:href="#DejaVuSans-31" x="83.789062"/>
       <use xlink:href="#DejaVuSans-2e" x="147.412109"/>
       <use xlink:href="#DejaVuSans-35" x="179.199219"/>
      </g>
     </g>
    </g>
    <g id="ytick_2">
     <g id="line2d_8">
      <g>
       <use xlink:href="#m53b3637685" x="52.160938" y="235.507282" style="stroke: #000000; stroke-width: 0.8"/>
      </g>
     </g>
     <g id="text_9">
      <!-- −1.0 -->
      <g transform="translate(20.878125 239.306501) scale(0.1 -0.1)">
       <use xlink:href="#DejaVuSans-2212"/>
       <use xlink:href="#DejaVuSans-31" x="83.789062"/>
       <use xlink:href="#DejaVuSans-2e" x="147.412109"/>
       <use xlink:href="#DejaVuSans-30" x="179.199219"/>
      </g>
     </g>
    </g>
    <g id="ytick_3">
     <g id="line2d_9">
      <g>
       <use xlink:href="#m53b3637685" x="52.160938" y="202.038804" style="stroke: #000000; stroke-width: 0.8"/>
      </g>
     </g>
     <g id="text_10">
      <!-- −0.5 -->
      <g transform="translate(20.878125 205.838023) scale(0.1 -0.1)">
       <use xlink:href="#DejaVuSans-2212"/>
       <use xlink:href="#DejaVuSans-30" x="83.789062"/>
       <use xlink:href="#DejaVuSans-2e" x="147.412109"/>
       <use xlink:href="#DejaVuSans-35" x="179.199219"/>
      </g>
     </g>
    </g>
    <g id="ytick_4">
     <g id="line2d_10">
      <g>
       <use xlink:href="#m53b3637685" x="52.160938" y="168.570326" style="stroke: #000000; stroke-width: 0.8"/>
      </g>
     </g>
     <g id="text_11">
      <!-- 0.0 -->
      <g transform="translate(29.257813 172.369545) scale(0.1 -0.1)">
       <use xlink:href="#DejaVuSans-30"/>
       <use xlink:href="#DejaVuSans-2e" x="63.623047"/>
       <use xlink:href="#DejaVuSans-30" x="95.410156"/>
      </g>
     </g>
    </g>
    <g id="ytick_5">
     <g id="line2d_11">
      <g>
       <use xlink:href="#m53b3637685" x="52.160938" y="135.101848" style="stroke: #000000; stroke-width: 0.8"/>
      </g>
     </g>
     <g id="text_12">
      <!-- 0.5 -->
      <g transform="translate(29.257813 138.901067) scale(0.1 -0.1)">
       <use xlink:href="#DejaVuSans-30"/>
       <use xlink:href="#DejaVuSans-2e" x="63.623047"/>
       <use xlink:href="#DejaVuSans-35" x="95.410156"/>
      </g>
     </g>
    </g>
    <g id="ytick_6">
     <g id="line2d_12">
      <g>
       <use xlink:href="#m53b3637685" x="52.160938" y="101.63337" style="stroke: #000000; stroke-width: 0.8"/>
      </g>
     </g>
     <g id="text_13">
      <!-- 1.0 -->
      <g transform="translate(29.257813 105.432589) scale(0.1 -0.1)">
       <use xlink:href="#DejaVuSans-31"/>
       <use xlink:href="#DejaVuSans-2e" x="63.623047"/>
       <use xlink:href="#DejaVuSans-30" x="95.410156"/>
      </g>
     </g>
    </g>
    <g id="ytick_7">
     <g id="line2d_13">
      <g>
       <use xlink:href="#m53b3637685" x="52.160938" y="68.164892" style="stroke: #000000; stroke-width: 0.8"/>
      </g>
     </g>
     <g id="text_14">
      <!-- 1.5 -->
      <g transform="translate(29.257813 71.964111) scale(0.1 -0.1)">
       <use xlink:href="#DejaVuSans-31"/>
       <use xlink:href="#DejaVuSans-2e" x="63.623047"/>
       <use xlink:href="#DejaVuSans-35" x="95.410156"/>
      </g>
     </g>
    </g>
    <g id="ytick_8">
     <g id="line2d_14">
      <g>
       <use xlink:href="#m53b3637685" x="52.160938" y="34.696414" style="stroke: #000000; stroke-width: 0.8"/>
      </g>
     </g>
     <g id="text_15">
      <!-- 2.0 -->
      <g transform="translate(29.257813 38.495633) scale(0.1 -0.1)">
       <use xlink:href="#DejaVuSans-32"/>
       <use xlink:href="#DejaVuSans-2e" x="63.623047"/>
       <use xlink:href="#DejaVuSans-30" x="95.410156"/>
      </g>
     </g>
    </g>
    <g id="text_16">
     <!-- Velocity (x in pixels / 4 ms) -->
     <g transform="translate(14.798438 222.720219) rotate(-90) scale(0.1 -0.1)">
      <defs>
       <path id="DejaVuSans-56" d="M 1831 0 
L 50 4666 
L 709 4666 
L 2188 738 
L 3669 4666 
L 4325 4666 
L 2547 0 
L 1831 0 
z
" transform="scale(0.015625)"/>
       <path id="DejaVuSans-6c" d="M 603 4863 
L 1178 4863 
L 1178 0 
L 603 0 
L 603 4863 
z
" transform="scale(0.015625)"/>
       <path id="DejaVuSans-6f" d="M 1959 3097 
Q 1497 3097 1228 2736 
Q 959 2375 959 1747 
Q 959 1119 1226 758 
Q 1494 397 1959 397 
Q 2419 397 2687 759 
Q 2956 1122 2956 1747 
Q 2956 2369 2687 2733 
Q 2419 3097 1959 3097 
z
M 1959 3584 
Q 2709 3584 3137 3096 
Q 3566 2609 3566 1747 
Q 3566 888 3137 398 
Q 2709 -91 1959 -91 
Q 1206 -91 779 398 
Q 353 888 353 1747 
Q 353 2609 779 3096 
Q 1206 3584 1959 3584 
z
" transform="scale(0.015625)"/>
       <path id="DejaVuSans-69" d="M 603 3500 
L 1178 3500 
L 1178 0 
L 603 0 
L 603 3500 
z
M 603 4863 
L 1178 4863 
L 1178 4134 
L 603 4134 
L 603 4863 
z
" transform="scale(0.015625)"/>
       <path id="DejaVuSans-79" d="M 2059 -325 
Q 1816 -950 1584 -1140 
Q 1353 -1331 966 -1331 
L 506 -1331 
L 506 -850 
L 844 -850 
Q 1081 -850 1212 -737 
Q 1344 -625 1503 -206 
L 1606 56 
L 191 3500 
L 800 3500 
L 1894 763 
L 2988 3500 
L 3597 3500 
L 2059 -325 
z
" transform="scale(0.015625)"/>
       <path id="DejaVuSans-20" transform="scale(0.015625)"/>
       <path id="DejaVuSans-28" d="M 1984 4856 
Q 1566 4138 1362 3434 
Q 1159 2731 1159 2009 
Q 1159 1288 1364 580 
Q 1569 -128 1984 -844 
L 1484 -844 
Q 1016 -109 783 600 
Q 550 1309 550 2009 
Q 550 2706 781 3412 
Q 1013 4119 1484 4856 
L 1984 4856 
z
" transform="scale(0.015625)"/>
       <path id="DejaVuSans-78" d="M 3513 3500 
L 2247 1797 
L 3578 0 
L 2900 0 
L 1881 1375 
L 863 0 
L 184 0 
L 1544 1831 
L 300 3500 
L 978 3500 
L 1906 2253 
L 2834 3500 
L 3513 3500 
z
" transform="scale(0.015625)"/>
       <path id="DejaVuSans-70" d="M 1159 525 
L 1159 -1331 
L 581 -1331 
L 581 3500 
L 1159 3500 
L 1159 2969 
Q 1341 3281 1617 3432 
Q 1894 3584 2278 3584 
Q 2916 3584 3314 3078 
Q 3713 2572 3713 1747 
Q 3713 922 3314 415 
Q 2916 -91 2278 -91 
Q 1894 -91 1617 61 
Q 1341 213 1159 525 
z
M 3116 1747 
Q 3116 2381 2855 2742 
Q 2594 3103 2138 3103 
Q 1681 3103 1420 2742 
Q 1159 2381 1159 1747 
Q 1159 1113 1420 752 
Q 1681 391 2138 391 
Q 2594 391 2855 752 
Q 3116 1113 3116 1747 
z
" transform="scale(0.015625)"/>
       <path id="DejaVuSans-73" d="M 2834 3397 
L 2834 2853 
Q 2591 2978 2328 3040 
Q 2066 3103 1784 3103 
Q 1356 3103 1142 2972 
Q 928 2841 928 2578 
Q 928 2378 1081 2264 
Q 1234 2150 1697 2047 
L 1894 2003 
Q 2506 1872 2764 1633 
Q 3022 1394 3022 966 
Q 3022 478 2636 193 
Q 2250 -91 1575 -91 
Q 1294 -91 989 -36 
Q 684 19 347 128 
L 347 722 
Q 666 556 975 473 
Q 1284 391 1588 391 
Q 1994 391 2212 530 
Q 2431 669 2431 922 
Q 2431 1156 2273 1281 
Q 2116 1406 1581 1522 
L 1381 1569 
Q 847 1681 609 1914 
Q 372 2147 372 2553 
Q 372 3047 722 3315 
Q 1072 3584 1716 3584 
Q 2034 3584 2315 3537 
Q 2597 3491 2834 3397 
z
" transform="scale(0.015625)"/>
       <path id="DejaVuSans-2f" d="M 1625 4666 
L 2156 4666 
L 531 -594 
L 0 -594 
L 1625 4666 
z
" transform="scale(0.015625)"/>
       <path id="DejaVuSans-6d" d="M 3328 2828 
Q 3544 3216 3844 3400 
Q 4144 3584 4550 3584 
Q 5097 3584 5394 3201 
Q 5691 2819 5691 2113 
L 5691 0 
L 5113 0 
L 5113 2094 
Q 5113 2597 4934 2840 
Q 4756 3084 4391 3084 
Q 3944 3084 3684 2787 
Q 3425 2491 3425 1978 
L 3425 0 
L 2847 0 
L 2847 2094 
Q 2847 2600 2669 2842 
Q 2491 3084 2119 3084 
Q 1678 3084 1418 2786 
Q 1159 2488 1159 1978 
L 1159 0 
L 581 0 
L 581 3500 
L 1159 3500 
L 1159 2956 
Q 1356 3278 1631 3431 
Q 1906 3584 2284 3584 
Q 2666 3584 2933 3390 
Q 3200 3197 3328 2828 
z
" transform="scale(0.015625)"/>
       <path id="DejaVuSans-29" d="M 513 4856 
L 1013 4856 
Q 1481 4119 1714 3412 
Q 1947 2706 1947 2009 
Q 1947 1309 1714 600 
Q 1481 -109 1013 -844 
L 513 -844 
Q 928 -128 1133 580 
Q 1338 1288 1338 2009 
Q 1338 2731 1133 3434 
Q 928 4138 513 4856 
z
" transform="scale(0.015625)"/>
      </defs>
      <use xlink:href="#DejaVuSans-56"/>
      <use xlink:href="#DejaVuSans-65" x="60.658203"/>
      <use xlink:href="#DejaVuSans-6c" x="122.181641"/>
      <use xlink:href="#DejaVuSans-6f" x="149.964844"/>
      <use xlink:href="#DejaVuSans-63" x="211.146484"/>
      <use xlink:href="#DejaVuSans-69" x="266.126953"/>
      <use xlink:href="#DejaVuSans-74" x="293.910156"/>
      <use xlink:href="#DejaVuSans-79" x="333.119141"/>
      <use xlink:href="#DejaVuSans-20" x="392.298828"/>
      <use xlink:href="#DejaVuSans-28" x="424.085938"/>
      <use xlink:href="#DejaVuSans-78" x="463.099609"/>
      <use xlink:href="#DejaVuSans-20" x="522.279297"/>
      <use xlink:href="#DejaVuSans-69" x="554.066406"/>
      <use xlink:href="#DejaVuSans-6e" x="581.849609"/>
      <use xlink:href="#DejaVuSans-20" x="645.228516"/>
      <use xlink:href="#DejaVuSans-70" x="677.015625"/>
      <use xlink:href="#DejaVuSans-69" x="740.492188"/>
      <use xlink:href="#DejaVuSans-78" x="768.275391"/>
      <use xlink:href="#DejaVuSans-65" x="824.330078"/>
      <use xlink:href="#DejaVuSans-6c" x="885.853516"/>
      <use xlink:href="#DejaVuSans-73" x="913.636719"/>
      <use xlink:href="#DejaVuSans-20" x="965.736328"/>
      <use xlink:href="#DejaVuSans-2f" x="997.523438"/>
      <use xlink:href="#DejaVuSans-20" x="1031.214844"/>
      <use xlink:href="#DejaVuSans-34" x="1063.001953"/>
      <use xlink:href="#DejaVuSans-20" x="1126.625"/>
      <use xlink:href="#DejaVuSans-6d" x="1158.412109"/>
      <use xlink:href="#DejaVuSans-73" x="1255.824219"/>
      <use xlink:href="#DejaVuSans-29" x="1307.923828"/>
     </g>
    </g>
   </g>
   <g id="line2d_15">
    <path d="M 68.393665 167.183242 
L 81.920938 169.726663 
L 95.44821 172.095323 
L 108.975483 173.036081 
L 122.502756 173.887477 
L 136.030028 172.686273 
L 149.557301 170.578976 
L 163.084574 168.558547 
L 176.611847 167.430543 
L 190.139119 164.619464 
L 203.666392 162.011161 
L 217.193665 159.919137 
L 230.720938 158.839037 
L 244.24821 157.899391 
L 257.775483 158.832348 
L 271.302756 160.866039 
L 284.830028 163.609527 
L 298.357301 165.797184 
L 311.884574 167.249083 
L 325.411847 168.809166 
L 338.939119 168.796494 
L 352.466392 167.337004 
L 365.993665 167.37992 
L 379.520938 167.314931 
L 393.04821 167.270507 
" clip-path="url(#pba1d19d6f4)" style="fill: none; stroke: #46327e; stroke-width: 1.5; stroke-linecap: square"/>
   </g>
   <g id="line2d_16">
    <path d="M 68.393665 165.765851 
L 81.920938 167.095181 
L 95.44821 167.363536 
L 108.975483 167.586143 
L 122.502756 168.114341 
L 136.030028 169.757619 
L 149.557301 170.689608 
L 163.084574 171.812641 
L 176.611847 170.699861 
L 190.139119 167.567609 
L 203.666392 165.388854 
L 217.193665 163.313368 
L 230.720938 161.455772 
L 244.24821 160.000571 
L 257.775483 160.666798 
L 271.302756 162.569953 
L 284.830028 164.457835 
L 298.357301 166.049912 
L 311.884574 167.066016 
L 325.411847 168.739101 
L 338.939119 167.995001 
L 352.466392 167.094222 
L 365.993665 167.867654 
L 379.520938 168.480239 
L 393.04821 167.535564 
" clip-path="url(#pba1d19d6f4)" style="fill: none; stroke: #365c8d; stroke-width: 1.5; stroke-linecap: square"/>
   </g>
   <g id="line2d_17">
    <path d="M 68.393665 162.473818 
L 81.920938 159.954558 
L 95.44821 165.270459 
L 108.975483 168.443719 
L 122.502756 169.555518 
L 136.030028 169.900769 
L 149.557301 169.795642 
L 163.084574 169.433083 
L 176.611847 168.299496 
L 190.139119 167.976011 
L 203.666392 167.07882 
L 217.193665 164.880129 
L 230.720938 162.316794 
L 244.24821 160.98617 
L 257.775483 161.274227 
L 271.302756 163.225673 
L 284.830028 164.87608 
L 298.357301 166.877118 
L 311.884574 168.262526 
L 325.411847 169.529782 
L 338.939119 170.48389 
L 352.466392 169.723456 
L 365.993665 170.325465 
L 379.520938 170.552348 
L 393.04821 169.088647 
" clip-path="url(#pba1d19d6f4)" style="fill: none; stroke: #277f8e; stroke-width: 1.5; stroke-linecap: square"/>
   </g>
   <g id="line2d_18">
    <path d="M 68.393665 157.356516 
L 81.920938 161.122795 
L 95.44821 160.830582 
L 108.975483 147.777113 
L 122.502756 155.032652 
L 136.030028 172.367895 
L 149.557301 183.572871 
L 163.084574 188.007578 
L 176.611847 177.994975 
L 190.139119 171.14975 
L 203.666392 168.254505 
L 217.193665 167.514262 
L 230.720938 165.518841 
L 244.24821 165.660546 
L 257.775483 165.778767 
L 271.302756 166.140137 
L 284.830028 166.227575 
L 298.357301 166.633672 
L 311.884574 166.041424 
L 325.411847 165.712875 
L 338.939119 165.976367 
L 352.466392 165.545002 
L 365.993665 166.347238 
L 379.520938 166.781802 
L 393.04821 166.348162 
" clip-path="url(#pba1d19d6f4)" style="fill: none; stroke: #1fa187; stroke-width: 1.5; stroke-linecap: square"/>
   </g>
   <g id="line2d_19">
    <path d="M 68.393665 152.682188 
L 81.920938 158.520026 
L 95.44821 160.702876 
L 108.975483 148.380818 
L 122.502756 153.425457 
L 136.030028 171.757821 
L 149.557301 184.625857 
L 163.084574 187.192066 
L 176.611847 177.693479 
L 190.139119 171.089963 
L 203.666392 170.105798 
L 217.193665 168.783052 
L 230.720938 166.908603 
L 244.24821 166.74361 
L 257.775483 166.463397 
L 271.302756 166.630788 
L 284.830028 166.391486 
L 298.357301 166.729474 
L 311.884574 166.540504 
L 325.411847 166.145781 
L 338.939119 166.348748 
L 352.466392 166.309014 
L 365.993665 166.728709 
L 379.520938 166.840204 
L 393.04821 164.870935 
" clip-path="url(#pba1d19d6f4)" style="fill: none; stroke: #4ac16d; stroke-width: 1.5; stroke-linecap: square"/>
   </g>
   <g id="line2d_20">
    <path d="M 68.393665 155.374125 
L 81.920938 158.063702 
L 95.44821 158.366505 
L 108.975483 147.28888 
L 122.502756 152.573782 
L 136.030028 170.438162 
L 149.557301 183.94141 
L 163.084574 185.058954 
L 176.611847 176.826147 
L 190.139119 171.703464 
L 203.666392 170.716428 
L 217.193665 169.198856 
L 230.720938 167.277108 
L 244.24821 167.127576 
L 257.775483 167.095955 
L 271.302756 167.026917 
L 284.830028 167.459834 
L 298.357301 167.791955 
L 311.884574 167.688492 
L 325.411847 167.582914 
L 338.939119 166.782904 
L 352.466392 167.078745 
L 365.993665 167.101905 
L 379.520938 165.982928 
L 393.04821 165.347698 
" clip-path="url(#pba1d19d6f4)" style="fill: none; stroke: #a0da39; stroke-width: 1.5; stroke-linecap: square"/>
   </g>
   <g id="patch_3">
    <path d="M 52.160938 288.430125 
L 52.160938 22.318125 
" style="fill: none; stroke: #000000; stroke-width: 0.8; stroke-linejoin: miter; stroke-linecap: square"/>
   </g>
   <g id="patch_4">
    <path d="M 409.280938 288.430125 
L 409.280938 22.318125 
" style="fill: none; stroke: #000000; stroke-width: 0.8; stroke-linejoin: miter; stroke-linecap: square"/>
   </g>
   <g id="patch_5">
    <path d="M 52.160938 288.430125 
L 409.280938 288.430125 
" style="fill: none; stroke: #000000; stroke-width: 0.8; stroke-linejoin: miter; stroke-linecap: square"/>
   </g>
   <g id="patch_6">
    <path d="M 52.160938 22.318125 
L 409.280938 22.318125 
" style="fill: none; stroke: #000000; stroke-width: 0.8; stroke-linejoin: miter; stroke-linecap: square"/>
   </g>
   <g id="text_17">
    <!-- V3Off_Levelwalk - Joint velocities over average step cycle -->
    <g transform="translate(57.695 16.318125) scale(0.12 -0.12)">
     <defs>
      <path id="DejaVuSans-33" d="M 2597 2516 
Q 3050 2419 3304 2112 
Q 3559 1806 3559 1356 
Q 3559 666 3084 287 
Q 2609 -91 1734 -91 
Q 1441 -91 1130 -33 
Q 819 25 488 141 
L 488 750 
Q 750 597 1062 519 
Q 1375 441 1716 441 
Q 2309 441 2620 675 
Q 2931 909 2931 1356 
Q 2931 1769 2642 2001 
Q 2353 2234 1838 2234 
L 1294 2234 
L 1294 2753 
L 1863 2753 
Q 2328 2753 2575 2939 
Q 2822 3125 2822 3475 
Q 2822 3834 2567 4026 
Q 2313 4219 1838 4219 
Q 1578 4219 1281 4162 
Q 984 4106 628 3988 
L 628 4550 
Q 988 4650 1302 4700 
Q 1616 4750 1894 4750 
Q 2613 4750 3031 4423 
Q 3450 4097 3450 3541 
Q 3450 3153 3228 2886 
Q 3006 2619 2597 2516 
z
" transform="scale(0.015625)"/>
      <path id="DejaVuSans-4f" d="M 2522 4238 
Q 1834 4238 1429 3725 
Q 1025 3213 1025 2328 
Q 1025 1447 1429 934 
Q 1834 422 2522 422 
Q 3209 422 3611 934 
Q 4013 1447 4013 2328 
Q 4013 3213 3611 3725 
Q 3209 4238 2522 4238 
z
M 2522 4750 
Q 3503 4750 4090 4092 
Q 4678 3434 4678 2328 
Q 4678 1225 4090 567 
Q 3503 -91 2522 -91 
Q 1538 -91 948 565 
Q 359 1222 359 2328 
Q 359 3434 948 4092 
Q 1538 4750 2522 4750 
z
" transform="scale(0.015625)"/>
      <path id="DejaVuSans-66" d="M 2375 4863 
L 2375 4384 
L 1825 4384 
Q 1516 4384 1395 4259 
Q 1275 4134 1275 3809 
L 1275 3500 
L 2222 3500 
L 2222 3053 
L 1275 3053 
L 1275 0 
L 697 0 
L 697 3053 
L 147 3053 
L 147 3500 
L 697 3500 
L 697 3744 
Q 697 4328 969 4595 
Q 1241 4863 1831 4863 
L 2375 4863 
z
" transform="scale(0.015625)"/>
      <path id="DejaVuSans-5f" d="M 3263 -1063 
L 3263 -1509 
L -63 -1509 
L -63 -1063 
L 3263 -1063 
z
" transform="scale(0.015625)"/>
      <path id="DejaVuSans-4c" d="M 628 4666 
L 1259 4666 
L 1259 531 
L 3531 531 
L 3531 0 
L 628 0 
L 628 4666 
z
" transform="scale(0.015625)"/>
      <path id="DejaVuSans-76" d="M 191 3500 
L 800 3500 
L 1894 563 
L 2988 3500 
L 3597 3500 
L 2284 0 
L 1503 0 
L 191 3500 
z
" transform="scale(0.015625)"/>
      <path id="DejaVuSans-77" d="M 269 3500 
L 844 3500 
L 1563 769 
L 2278 3500 
L 2956 3500 
L 3675 769 
L 4391 3500 
L 4966 3500 
L 4050 0 
L 3372 0 
L 2619 2869 
L 1863 0 
L 1184 0 
L 269 3500 
z
" transform="scale(0.015625)"/>
      <path id="DejaVuSans-6b" d="M 581 4863 
L 1159 4863 
L 1159 1991 
L 2875 3500 
L 3609 3500 
L 1753 1863 
L 3688 0 
L 2938 0 
L 1159 1709 
L 1159 0 
L 581 0 
L 581 4863 
z
" transform="scale(0.015625)"/>
      <path id="DejaVuSans-2d" d="M 313 2009 
L 1997 2009 
L 1997 1497 
L 313 1497 
L 313 2009 
z
" transform="scale(0.015625)"/>
      <path id="DejaVuSans-4a" d="M 628 4666 
L 1259 4666 
L 1259 325 
Q 1259 -519 939 -900 
Q 619 -1281 -91 -1281 
L -331 -1281 
L -331 -750 
L -134 -750 
Q 284 -750 456 -515 
Q 628 -281 628 325 
L 628 4666 
z
" transform="scale(0.015625)"/>
     </defs>
     <use xlink:href="#DejaVuSans-56"/>
     <use xlink:href="#DejaVuSans-33" x="68.408203"/>
     <use xlink:href="#DejaVuSans-4f" x="132.03125"/>
     <use xlink:href="#DejaVuSans-66" x="210.742188"/>
     <use xlink:href="#DejaVuSans-66" x="245.947266"/>
     <use xlink:href="#DejaVuSans-5f" x="281.152344"/>
     <use xlink:href="#DejaVuSans-4c" x="331.152344"/>
     <use xlink:href="#DejaVuSans-65" x="385.115234"/>
     <use xlink:href="#DejaVuSans-76" x="446.638672"/>
     <use xlink:href="#DejaVuSans-65" x="505.818359"/>
     <use xlink:href="#DejaVuSans-6c" x="567.341797"/>
     <use xlink:href="#DejaVuSans-77" x="595.125"/>
     <use xlink:href="#DejaVuSans-61" x="676.912109"/>
     <use xlink:href="#DejaVuSans-6c" x="738.191406"/>
     <use xlink:href="#DejaVuSans-6b" x="765.974609"/>
     <use xlink:href="#DejaVuSans-20" x="823.884766"/>
     <use xlink:href="#DejaVuSans-2d" x="855.671875"/>
     <use xlink:href="#DejaVuSans-20" x="891.755859"/>
     <use xlink:href="#DejaVuSans-4a" x="923.542969"/>
     <use xlink:href="#DejaVuSans-6f" x="953.035156"/>
     <use xlink:href="#DejaVuSans-69" x="1014.216797"/>
     <use xlink:href="#DejaVuSans-6e" x="1042"/>
     <use xlink:href="#DejaVuSans-74" x="1105.378906"/>
     <use xlink:href="#DejaVuSans-20" x="1144.587891"/>
     <use xlink:href="#DejaVuSans-76" x="1176.375"/>
     <use xlink:href="#DejaVuSans-65" x="1235.554688"/>
     <use xlink:href="#DejaVuSans-6c" x="1297.078125"/>
     <use xlink:href="#DejaVuSans-6f" x="1324.861328"/>
     <use xlink:href="#DejaVuSans-63" x="1386.042969"/>
     <use xlink:href="#DejaVuSans-69" x="1441.023438"/>
     <use xlink:href="#DejaVuSans-74" x="1468.806641"/>
     <use xlink:href="#DejaVuSans-69" x="1508.015625"/>
     <use xlink:href="#DejaVuSans-65" x="1535.798828"/>
     <use xlink:href="#DejaVuSans-73" x="1597.322266"/>
     <use xlink:href="#DejaVuSans-20" x="1649.421875"/>
     <use xlink:href="#DejaVuSans-6f" x="1681.208984"/>
     <use xlink:href="#DejaVuSans-76" x="1742.390625"/>
     <use xlink:href="#DejaVuSans-65" x="1801.570312"/>
     <use xlink:href="#DejaVuSans-72" x="1863.09375"/>
     <use xlink:href="#DejaVuSans-20" x="1904.207031"/>
     <use xlink:href="#DejaVuSans-61" x="1935.994141"/>
     <use xlink:href="#DejaVuSans-76" x="1997.273438"/>
     <use xlink:href="#DejaVuSans-65" x="2056.453125"/>
     <use xlink:href="#DejaVuSans-72" x="2117.976562"/>
     <use xlink:href="#DejaVuSans-61" x="2159.089844"/>
     <use xlink:href="#DejaVuSans-67" x="2220.369141"/>
     <use xlink:href="#DejaVuSans-65" x="2283.845703"/>
     <use xlink:href="#DejaVuSans-20" x="2345.369141"/>
     <use xlink:href="#DejaVuSans-73" x="2377.15625"/>
     <use xlink:href="#DejaVuSans-74" x="2429.255859"/>
     <use xlink:href="#DejaVuSans-65" x="2468.464844"/>
     <use xlink:href="#DejaVuSans-70" x="2529.988281"/>
     <use xlink:href="#DejaVuSans-20" x="2593.464844"/>
     <use xlink:href="#DejaVuSans-63" x="2625.251953"/>
     <use xlink:href="#DejaVuSans-79" x="2680.232422"/>
     <use xlink:href="#DejaVuSans-63" x="2739.412109"/>
     <use xlink:href="#DejaVuSans-6c" x="2794.392578"/>
     <use xlink:href="#DejaVuSans-65" x="2822.175781"/>
    </g>
   </g>
   <g id="legend_1">
    <g id="patch_7">
     <path d="M 313.998125 118.386875 
L 402.280938 118.386875 
Q 404.280938 118.386875 404.280938 116.386875 
L 404.280938 29.318125 
Q 404.280938 27.318125 402.280938 27.318125 
L 313.998125 27.318125 
Q 311.998125 27.318125 311.998125 29.318125 
L 311.998125 116.386875 
Q 311.998125 118.386875 313.998125 118.386875 
z
" style="fill: #ffffff; opacity: 0.8; stroke: #cccccc; stroke-linejoin: miter"/>
    </g>
    <g id="line2d_21">
     <path d="M 315.998125 35.416562 
L 325.998125 35.416562 
L 335.998125 35.416562 
" style="fill: none; stroke: #46327e; stroke-width: 1.5; stroke-linecap: square"/>
    </g>
    <g id="text_18">
     <!-- Crest  -->
     <g transform="translate(343.998125 38.916562) scale(0.1 -0.1)">
      <defs>
       <path id="DejaVuSans-43" d="M 4122 4306 
L 4122 3641 
Q 3803 3938 3442 4084 
Q 3081 4231 2675 4231 
Q 1875 4231 1450 3742 
Q 1025 3253 1025 2328 
Q 1025 1406 1450 917 
Q 1875 428 2675 428 
Q 3081 428 3442 575 
Q 3803 722 4122 1019 
L 4122 359 
Q 3791 134 3420 21 
Q 3050 -91 2638 -91 
Q 1578 -91 968 557 
Q 359 1206 359 2328 
Q 359 3453 968 4101 
Q 1578 4750 2638 4750 
Q 3056 4750 3426 4639 
Q 3797 4528 4122 4306 
z
" transform="scale(0.015625)"/>
      </defs>
      <use xlink:href="#DejaVuSans-43"/>
      <use xlink:href="#DejaVuSans-72" x="69.824219"/>
      <use xlink:href="#DejaVuSans-65" x="108.6875"/>
      <use xlink:href="#DejaVuSans-73" x="170.210938"/>
      <use xlink:href="#DejaVuSans-74" x="222.310547"/>
      <use xlink:href="#DejaVuSans-20" x="261.519531"/>
     </g>
    </g>
    <g id="line2d_22">
     <path d="M 315.998125 50.094688 
L 325.998125 50.094688 
L 335.998125 50.094688 
" style="fill: none; stroke: #365c8d; stroke-width: 1.5; stroke-linecap: square"/>
    </g>
    <g id="text_19">
     <!-- Hip  -->
     <g transform="translate(343.998125 53.594688) scale(0.1 -0.1)">
      <defs>
       <path id="DejaVuSans-48" d="M 628 4666 
L 1259 4666 
L 1259 2753 
L 3553 2753 
L 3553 4666 
L 4184 4666 
L 4184 0 
L 3553 0 
L 3553 2222 
L 1259 2222 
L 1259 0 
L 628 0 
L 628 4666 
z
" transform="scale(0.015625)"/>
      </defs>
      <use xlink:href="#DejaVuSans-48"/>
      <use xlink:href="#DejaVuSans-69" x="75.195312"/>
      <use xlink:href="#DejaVuSans-70" x="102.978516"/>
      <use xlink:href="#DejaVuSans-20" x="166.455078"/>
     </g>
    </g>
    <g id="line2d_23">
     <path d="M 315.998125 64.772812 
L 325.998125 64.772812 
L 335.998125 64.772812 
" style="fill: none; stroke: #277f8e; stroke-width: 1.5; stroke-linecap: square"/>
    </g>
    <g id="text_20">
     <!-- Knee  -->
     <g transform="translate(343.998125 68.272812) scale(0.1 -0.1)">
      <defs>
       <path id="DejaVuSans-4b" d="M 628 4666 
L 1259 4666 
L 1259 2694 
L 3353 4666 
L 4166 4666 
L 1850 2491 
L 4331 0 
L 3500 0 
L 1259 2247 
L 1259 0 
L 628 0 
L 628 4666 
z
" transform="scale(0.015625)"/>
      </defs>
      <use xlink:href="#DejaVuSans-4b"/>
      <use xlink:href="#DejaVuSans-6e" x="65.576172"/>
      <use xlink:href="#DejaVuSans-65" x="128.955078"/>
      <use xlink:href="#DejaVuSans-65" x="190.478516"/>
      <use xlink:href="#DejaVuSans-20" x="252.001953"/>
     </g>
    </g>
    <g id="line2d_24">
     <path d="M 315.998125 79.450938 
L 325.998125 79.450938 
L 335.998125 79.450938 
" style="fill: none; stroke: #1fa187; stroke-width: 1.5; stroke-linecap: square"/>
    </g>
    <g id="text_21">
     <!-- Ankle  -->
     <g transform="translate(343.998125 82.950938) scale(0.1 -0.1)">
      <defs>
       <path id="DejaVuSans-41" d="M 2188 4044 
L 1331 1722 
L 3047 1722 
L 2188 4044 
z
M 1831 4666 
L 2547 4666 
L 4325 0 
L 3669 0 
L 3244 1197 
L 1141 1197 
L 716 0 
L 50 0 
L 1831 4666 
z
" transform="scale(0.015625)"/>
      </defs>
      <use xlink:href="#DejaVuSans-41"/>
      <use xlink:href="#DejaVuSans-6e" x="68.408203"/>
      <use xlink:href="#DejaVuSans-6b" x="131.787109"/>
      <use xlink:href="#DejaVuSans-6c" x="189.697266"/>
      <use xlink:href="#DejaVuSans-65" x="217.480469"/>
      <use xlink:href="#DejaVuSans-20" x="279.003906"/>
     </g>
    </g>
    <g id="line2d_25">
     <path d="M 315.998125 94.129063 
L 325.998125 94.129063 
L 335.998125 94.129063 
" style="fill: none; stroke: #4ac16d; stroke-width: 1.5; stroke-linecap: square"/>
    </g>
    <g id="text_22">
     <!-- Metatarsal  -->
     <g transform="translate(343.998125 97.629063) scale(0.1 -0.1)">
      <defs>
       <path id="DejaVuSans-4d" d="M 628 4666 
L 1569 4666 
L 2759 1491 
L 3956 4666 
L 4897 4666 
L 4897 0 
L 4281 0 
L 4281 4097 
L 3078 897 
L 2444 897 
L 1241 4097 
L 1241 0 
L 628 0 
L 628 4666 
z
" transform="scale(0.015625)"/>
      </defs>
      <use xlink:href="#DejaVuSans-4d"/>
      <use xlink:href="#DejaVuSans-65" x="86.279297"/>
      <use xlink:href="#DejaVuSans-74" x="147.802734"/>
      <use xlink:href="#DejaVuSans-61" x="187.011719"/>
      <use xlink:href="#DejaVuSans-74" x="248.291016"/>
      <use xlink:href="#DejaVuSans-61" x="287.5"/>
      <use xlink:href="#DejaVuSans-72" x="348.779297"/>
      <use xlink:href="#DejaVuSans-73" x="389.892578"/>
      <use xlink:href="#DejaVuSans-61" x="441.992188"/>
      <use xlink:href="#DejaVuSans-6c" x="503.271484"/>
      <use xlink:href="#DejaVuSans-20" x="531.054688"/>
     </g>
    </g>
    <g id="line2d_26">
     <path d="M 315.998125 108.807187 
L 325.998125 108.807187 
L 335.998125 108.807187 
" style="fill: none; stroke: #a0da39; stroke-width: 1.5; stroke-linecap: square"/>
    </g>
    <g id="text_23">
     <!-- ToeTip  -->
     <g transform="translate(343.998125 112.307187) scale(0.1 -0.1)">
      <defs>
       <path id="DejaVuSans-54" d="M -19 4666 
L 3928 4666 
L 3928 4134 
L 2272 4134 
L 2272 0 
L 1638 0 
L 1638 4134 
L -19 4134 
L -19 4666 
z
" transform="scale(0.015625)"/>
      </defs>
      <use xlink:href="#DejaVuSans-54"/>
      <use xlink:href="#DejaVuSans-6f" x="44.083984"/>
      <use xlink:href="#DejaVuSans-65" x="105.265625"/>
      <use xlink:href="#DejaVuSans-54" x="166.789062"/>
      <use xlink:href="#DejaVuSans-69" x="224.748047"/>
      <use xlink:href="#DejaVuSans-70" x="252.53125"/>
      <use xlink:href="#DejaVuSans-20" x="316.007812"/>
     </g>
    </g>
   </g>
  </g>
 </g>
 <defs>
  <clipPath id="pba1d19d6f4">
   <rect x="52.160938" y="22.318125" width="357.12" height="266.112"/>
  </clipPath>
 </defs>
</svg>
