<?xml version="1.0" encoding="utf-8" standalone="no"?>
<!DOCTYPE svg PUBLIC "-//W3C//DTD SVG 1.1//EN"
  "http://www.w3.org/Graphics/SVG/1.1/DTD/svg11.dtd">
<svg xmlns:xlink="http://www.w3.org/1999/xlink" width="404.923125pt" height="325.986375pt" viewBox="0 0 404.923125 325.986375" xmlns="http://www.w3.org/2000/svg" version="1.1">
 <metadata>
  <rdf:RDF xmlns:dc="http://purl.org/dc/elements/1.1/" xmlns:cc="http://creativecommons.org/ns#" xmlns:rdf="http://www.w3.org/1999/02/22-rdf-syntax-ns#">
   <cc:Work>
    <dc:type rdf:resource="http://purl.org/dc/dcmitype/StillImage"/>
    <dc:date>2024-08-08T17:49:43.495462</dc:date>
    <dc:format>image/svg+xml</dc:format>
    <dc:creator>
     <cc:Agent>
      <dc:title>Matplotlib v3.8.4, https://matplotlib.org/</dc:title>
     </cc:Agent>
    </dc:creator>
   </cc:Work>
  </rdf:RDF>
 </metadata>
 <defs>
  <style type="text/css">*{stroke-linejoin: round; stroke-linecap: butt}</style>
 </defs>
 <g id="figure_1">
  <g id="patch_1">
   <path d="M 0 325.986375 
L 404.923125 325.986375 
L 404.923125 0 
L 0 0 
z
" style="fill: #ffffff"/>
  </g>
  <g id="axes_1">
   <g id="patch_2">
    <path d="M 40.603125 288.430125 
L 397.723125 288.430125 
L 397.723125 22.318125 
L 40.603125 22.318125 
z
" style="fill: #ffffff"/>
   </g>
   <g id="PolyCollection_1">
    <path d="M 56.835852 239.598842 
L 56.835852 244.951367 
L 70.363125 255.182623 
L 83.890398 265.099301 
L 97.41767 271.501684 
L 110.944943 274.874208 
L 124.472216 276.334125 
L 137.999489 274.576614 
L 151.526761 269.631092 
L 165.054034 260.267719 
L 178.581307 249.3978 
L 192.10858 240.828897 
L 205.635852 236.5261 
L 219.163125 235.300632 
L 232.690398 235.609692 
L 246.21767 236.665349 
L 259.744943 238.112871 
L 273.272216 239.640953 
L 286.799489 240.571896 
L 300.326761 240.54804 
L 313.854034 240.372224 
L 327.381307 240.755104 
L 340.90858 241.811284 
L 354.435852 241.765481 
L 367.963125 240.817153 
L 381.490398 241.584313 
L 381.490398 236.762889 
L 381.490398 236.762889 
L 367.963125 234.662645 
L 354.435852 233.45923 
L 340.90858 233.4146 
L 327.381307 233.622613 
L 313.854034 232.785383 
L 300.326761 231.690287 
L 286.799489 229.99784 
L 273.272216 228.121764 
L 259.744943 226.278703 
L 246.21767 224.895369 
L 232.690398 224.3362 
L 219.163125 224.905831 
L 205.635852 226.078798 
L 192.10858 227.669674 
L 178.581307 229.958377 
L 165.054034 233.877313 
L 151.526761 241.367139 
L 137.999489 250.965104 
L 124.472216 258.917671 
L 110.944943 262.051263 
L 97.41767 258.353605 
L 83.890398 251.725302 
L 70.363125 244.881923 
L 56.835852 239.598842 
z
" clip-path="url(#paf05906168)" style="fill: #46327e; fill-opacity: 0.2"/>
   </g>
   <g id="PolyCollection_2">
    <path d="M 56.835852 197.198193 
L 56.835852 230.256981 
L 70.363125 238.069385 
L 83.890398 245.817345 
L 97.41767 251.611717 
L 110.944943 255.101745 
L 124.472216 255.098623 
L 137.999489 251.190361 
L 151.526761 244.791281 
L 165.054034 235.765328 
L 178.581307 225.580516 
L 192.10858 216.955894 
L 205.635852 211.866783 
L 219.163125 210.440707 
L 232.690398 211.175736 
L 246.21767 213.585263 
L 259.744943 216.750671 
L 273.272216 219.688667 
L 286.799489 222.142637 
L 300.326761 223.254807 
L 313.854034 223.802262 
L 327.381307 224.258976 
L 340.90858 224.845177 
L 354.435852 225.028796 
L 367.963125 225.34871 
L 381.490398 226.790593 
L 381.490398 193.026689 
L 381.490398 193.026689 
L 367.963125 189.68161 
L 354.435852 187.549728 
L 340.90858 185.97163 
L 327.381307 184.652665 
L 313.854034 183.282731 
L 300.326761 182.610387 
L 286.799489 181.862483 
L 273.272216 180.331941 
L 259.744943 177.887875 
L 246.21767 175.505857 
L 232.690398 173.277592 
L 219.163125 171.268669 
L 205.635852 169.364222 
L 192.10858 168.154795 
L 178.581307 168.932744 
L 165.054034 172.442154 
L 151.526761 180.169571 
L 137.999489 190.045987 
L 124.472216 198.724624 
L 110.944943 204.964912 
L 97.41767 207.083579 
L 83.890398 206.792725 
L 70.363125 203.806992 
L 56.835852 197.198193 
z
" clip-path="url(#paf05906168)" style="fill: #365c8d; fill-opacity: 0.2"/>
   </g>
   <g id="PolyCollection_3">
    <path d="M 56.835852 137.986848 
L 56.835852 178.069258 
L 70.363125 192.718089 
L 83.890398 206.808208 
L 97.41767 216.715764 
L 110.944943 222.509104 
L 124.472216 223.79574 
L 137.999489 218.754515 
L 151.526761 210.210892 
L 165.054034 198.528006 
L 178.581307 188.247087 
L 192.10858 181.953957 
L 205.635852 178.595738 
L 219.163125 176.795588 
L 232.690398 175.828049 
L 246.21767 175.562416 
L 259.744943 175.578455 
L 273.272216 175.419732 
L 286.799489 175.074622 
L 300.326761 174.096087 
L 313.854034 172.724886 
L 327.381307 171.542762 
L 340.90858 170.562585 
L 354.435852 169.105611 
L 367.963125 168.359074 
L 381.490398 170.004821 
L 381.490398 130.315558 
L 381.490398 130.315558 
L 367.963125 128.080477 
L 354.435852 128.784677 
L 340.90858 130.204328 
L 327.381307 132.177506 
L 313.854034 133.981932 
L 300.326761 136.489655 
L 286.799489 139.083444 
L 273.272216 140.898109 
L 259.744943 141.528763 
L 246.21767 141.880458 
L 232.690398 142.214374 
L 219.163125 142.827367 
L 205.635852 144.590013 
L 192.10858 147.299088 
L 178.581307 151.196639 
L 165.054034 156.273689 
L 151.526761 165.066777 
L 137.999489 178.172071 
L 124.472216 189.95887 
L 110.944943 195.288152 
L 97.41767 190.058921 
L 83.890398 176.156073 
L 70.363125 156.918415 
L 56.835852 137.986848 
z
" clip-path="url(#paf05906168)" style="fill: #277f8e; fill-opacity: 0.2"/>
   </g>
   <g id="PolyCollection_4">
    <path d="M 56.835852 130.175698 
L 56.835852 154.037024 
L 70.363125 156.087094 
L 83.890398 145.709434 
L 97.41767 143.347355 
L 110.944943 143.276071 
L 124.472216 138.661294 
L 137.999489 130.374482 
L 151.526761 121.384109 
L 165.054034 109.173992 
L 178.581307 97.463939 
L 192.10858 89.924172 
L 205.635852 86.670024 
L 219.163125 85.947182 
L 232.690398 87.04253 
L 246.21767 89.443696 
L 259.744943 92.743735 
L 273.272216 96.591146 
L 286.799489 100.93111 
L 300.326761 105.641135 
L 313.854034 110.524632 
L 327.381307 115.756486 
L 340.90858 120.7117 
L 354.435852 125.317156 
L 367.963125 130.708541 
L 381.490398 137.614136 
L 381.490398 112.101918 
L 381.490398 112.101918 
L 367.963125 104.648957 
L 354.435852 99.692602 
L 340.90858 95.167437 
L 327.381307 90.871246 
L 313.854034 86.557758 
L 300.326761 82.550503 
L 286.799489 78.50004 
L 273.272216 74.55353 
L 259.744943 70.519352 
L 246.21767 66.584823 
L 232.690398 63.023428 
L 219.163125 60.145019 
L 205.635852 58.5854 
L 192.10858 58.04264 
L 178.581307 58.91285 
L 165.054034 62.400939 
L 151.526761 70.901366 
L 137.999489 84.273655 
L 124.472216 96.401158 
L 110.944943 105.164025 
L 97.41767 113.280495 
L 83.890398 124.858503 
L 70.363125 137.520622 
L 56.835852 130.175698 
z
" clip-path="url(#paf05906168)" style="fill: #1fa187; fill-opacity: 0.2"/>
   </g>
   <g id="PolyCollection_5">
    <path d="M 56.835852 95.928819 
L 56.835852 112.363559 
L 70.363125 131.576576 
L 83.890398 131.134288 
L 97.41767 132.07929 
L 110.944943 134.51376 
L 124.472216 130.096899 
L 137.999489 119.746359 
L 151.526761 105.492498 
L 165.054034 86.877416 
L 178.581307 73.862565 
L 192.10858 67.433856 
L 205.635852 64.903776 
L 219.163125 63.894912 
L 232.690398 64.227479 
L 246.21767 65.03115 
L 259.744943 66.309597 
L 273.272216 67.872909 
L 286.799489 69.703761 
L 300.326761 71.922907 
L 313.854034 74.196328 
L 327.381307 76.881883 
L 340.90858 79.780443 
L 354.435852 82.896282 
L 367.963125 87.273175 
L 381.490398 93.690473 
L 381.490398 73.411103 
L 381.490398 73.411103 
L 367.963125 66.374013 
L 354.435852 62.166201 
L 340.90858 58.552907 
L 327.381307 55.535974 
L 313.854034 52.977731 
L 300.326761 51.002284 
L 286.799489 49.180075 
L 273.272216 47.591547 
L 259.744943 45.979023 
L 246.21767 44.435159 
L 232.690398 43.20775 
L 219.163125 42.265061 
L 205.635852 42.658895 
L 192.10858 43.465185 
L 178.581307 44.844894 
L 165.054034 47.549521 
L 151.526761 55.607987 
L 137.999489 73.285501 
L 124.472216 92.426212 
L 110.944943 105.819909 
L 97.41767 112.700772 
L 83.890398 115.737474 
L 70.363125 114.866862 
L 56.835852 95.928819 
z
" clip-path="url(#paf05906168)" style="fill: #4ac16d; fill-opacity: 0.2"/>
   </g>
   <g id="PolyCollection_6">
    <path d="M 56.835852 62.451046 
L 56.835852 86.06299 
L 70.363125 113.678981 
L 83.890398 121.82743 
L 97.41767 125.903731 
L 110.944943 130.13228 
L 124.472216 126.506284 
L 137.999489 115.413292 
L 151.526761 99.679676 
L 165.054034 79.815091 
L 178.581307 68.53189 
L 192.10858 63.966815 
L 205.635852 62.092752 
L 219.163125 61.205757 
L 232.690398 61.060883 
L 246.21767 60.921089 
L 259.744943 60.932513 
L 273.272216 61.068913 
L 286.799489 61.370835 
L 300.326761 61.987029 
L 313.854034 62.436181 
L 327.381307 63.182163 
L 340.90858 63.992878 
L 354.435852 64.863412 
L 367.963125 66.62629 
L 381.490398 69.908247 
L 381.490398 43.520378 
L 381.490398 43.520378 
L 367.963125 40.607785 
L 354.435852 39.083211 
L 340.90858 37.803694 
L 327.381307 36.720226 
L 313.854034 35.728195 
L 300.326761 35.252946 
L 286.799489 34.927035 
L 273.272216 34.689466 
L 259.744943 34.542536 
L 246.21767 34.492472 
L 232.690398 34.546814 
L 219.163125 34.414125 
L 205.635852 35.980816 
L 192.10858 37.295409 
L 178.581307 38.984085 
L 165.054034 41.849606 
L 151.526761 49.432289 
L 137.999489 69.348312 
L 124.472216 92.764107 
L 110.944943 108.969072 
L 97.41767 113.372009 
L 83.890398 107.840263 
L 70.363125 93.53713 
L 56.835852 62.451046 
z
" clip-path="url(#paf05906168)" style="fill: #a0da39; fill-opacity: 0.2"/>
   </g>
   <g id="matplotlib.axis_1">
    <g id="xtick_1">
     <g id="line2d_1">
      <defs>
       <path id="me15191a901" d="M 0 0 
L 0 3.5 
" style="stroke: #000000; stroke-width: 0.8"/>
      </defs>
      <g>
       <use xlink:href="#me15191a901" x="56.835852" y="288.430125" style="stroke: #000000; stroke-width: 0.8"/>
      </g>
     </g>
     <g id="text_1">
      <!-- 0 -->
      <g transform="translate(53.654602 303.028562) scale(0.1 -0.1)">
       <defs>
        <path id="DejaVuSans-30" d="M 2034 4250 
Q 1547 4250 1301 3770 
Q 1056 3291 1056 2328 
Q 1056 1369 1301 889 
Q 1547 409 2034 409 
Q 2525 409 2770 889 
Q 3016 1369 3016 2328 
Q 3016 3291 2770 3770 
Q 2525 4250 2034 4250 
z
M 2034 4750 
Q 2819 4750 3233 4129 
Q 3647 3509 3647 2328 
Q 3647 1150 3233 529 
Q 2819 -91 2034 -91 
Q 1250 -91 836 529 
Q 422 1150 422 2328 
Q 422 3509 836 4129 
Q 1250 4750 2034 4750 
z
" transform="scale(0.015625)"/>
       </defs>
       <use xlink:href="#DejaVuSans-30"/>
      </g>
     </g>
    </g>
    <g id="xtick_2">
     <g id="line2d_2">
      <g>
       <use xlink:href="#me15191a901" x="121.766761" y="288.430125" style="stroke: #000000; stroke-width: 0.8"/>
      </g>
     </g>
     <g id="text_2">
      <!-- 20 -->
      <g transform="translate(115.404261 303.028562) scale(0.1 -0.1)">
       <defs>
        <path id="DejaVuSans-32" d="M 1228 531 
L 3431 531 
L 3431 0 
L 469 0 
L 469 531 
Q 828 903 1448 1529 
Q 2069 2156 2228 2338 
Q 2531 2678 2651 2914 
Q 2772 3150 2772 3378 
Q 2772 3750 2511 3984 
Q 2250 4219 1831 4219 
Q 1534 4219 1204 4116 
Q 875 4013 500 3803 
L 500 4441 
Q 881 4594 1212 4672 
Q 1544 4750 1819 4750 
Q 2544 4750 2975 4387 
Q 3406 4025 3406 3419 
Q 3406 3131 3298 2873 
Q 3191 2616 2906 2266 
Q 2828 2175 2409 1742 
Q 1991 1309 1228 531 
z
" transform="scale(0.015625)"/>
       </defs>
       <use xlink:href="#DejaVuSans-32"/>
       <use xlink:href="#DejaVuSans-30" x="63.623047"/>
      </g>
     </g>
    </g>
    <g id="xtick_3">
     <g id="line2d_3">
      <g>
       <use xlink:href="#me15191a901" x="186.69767" y="288.430125" style="stroke: #000000; stroke-width: 0.8"/>
      </g>
     </g>
     <g id="text_3">
      <!-- 40 -->
      <g transform="translate(180.33517 303.028562) scale(0.1 -0.1)">
       <defs>
        <path id="DejaVuSans-34" d="M 2419 4116 
L 825 1625 
L 2419 1625 
L 2419 4116 
z
M 2253 4666 
L 3047 4666 
L 3047 1625 
L 3713 1625 
L 3713 1100 
L 3047 1100 
L 3047 0 
L 2419 0 
L 2419 1100 
L 313 1100 
L 313 1709 
L 2253 4666 
z
" transform="scale(0.015625)"/>
       </defs>
       <use xlink:href="#DejaVuSans-34"/>
       <use xlink:href="#DejaVuSans-30" x="63.623047"/>
      </g>
     </g>
    </g>
    <g id="xtick_4">
     <g id="line2d_4">
      <g>
       <use xlink:href="#me15191a901" x="251.62858" y="288.430125" style="stroke: #000000; stroke-width: 0.8"/>
      </g>
     </g>
     <g id="text_4">
      <!-- 60 -->
      <g transform="translate(245.26608 303.028562) scale(0.1 -0.1)">
       <defs>
        <path id="DejaVuSans-36" d="M 2113 2584 
Q 1688 2584 1439 2293 
Q 1191 2003 1191 1497 
Q 1191 994 1439 701 
Q 1688 409 2113 409 
Q 2538 409 2786 701 
Q 3034 994 3034 1497 
Q 3034 2003 2786 2293 
Q 2538 2584 2113 2584 
z
M 3366 4563 
L 3366 3988 
Q 3128 4100 2886 4159 
Q 2644 4219 2406 4219 
Q 1781 4219 1451 3797 
Q 1122 3375 1075 2522 
Q 1259 2794 1537 2939 
Q 1816 3084 2150 3084 
Q 2853 3084 3261 2657 
Q 3669 2231 3669 1497 
Q 3669 778 3244 343 
Q 2819 -91 2113 -91 
Q 1303 -91 875 529 
Q 447 1150 447 2328 
Q 447 3434 972 4092 
Q 1497 4750 2381 4750 
Q 2619 4750 2861 4703 
Q 3103 4656 3366 4563 
z
" transform="scale(0.015625)"/>
       </defs>
       <use xlink:href="#DejaVuSans-36"/>
       <use xlink:href="#DejaVuSans-30" x="63.623047"/>
      </g>
     </g>
    </g>
    <g id="xtick_5">
     <g id="line2d_5">
      <g>
       <use xlink:href="#me15191a901" x="316.559489" y="288.430125" style="stroke: #000000; stroke-width: 0.8"/>
      </g>
     </g>
     <g id="text_5">
      <!-- 80 -->
      <g transform="translate(310.196989 303.028562) scale(0.1 -0.1)">
       <defs>
        <path id="DejaVuSans-38" d="M 2034 2216 
Q 1584 2216 1326 1975 
Q 1069 1734 1069 1313 
Q 1069 891 1326 650 
Q 1584 409 2034 409 
Q 2484 409 2743 651 
Q 3003 894 3003 1313 
Q 3003 1734 2745 1975 
Q 2488 2216 2034 2216 
z
M 1403 2484 
Q 997 2584 770 2862 
Q 544 3141 544 3541 
Q 544 4100 942 4425 
Q 1341 4750 2034 4750 
Q 2731 4750 3128 4425 
Q 3525 4100 3525 3541 
Q 3525 3141 3298 2862 
Q 3072 2584 2669 2484 
Q 3125 2378 3379 2068 
Q 3634 1759 3634 1313 
Q 3634 634 3220 271 
Q 2806 -91 2034 -91 
Q 1263 -91 848 271 
Q 434 634 434 1313 
Q 434 1759 690 2068 
Q 947 2378 1403 2484 
z
M 1172 3481 
Q 1172 3119 1398 2916 
Q 1625 2713 2034 2713 
Q 2441 2713 2670 2916 
Q 2900 3119 2900 3481 
Q 2900 3844 2670 4047 
Q 2441 4250 2034 4250 
Q 1625 4250 1398 4047 
Q 1172 3844 1172 3481 
z
" transform="scale(0.015625)"/>
       </defs>
       <use xlink:href="#DejaVuSans-38"/>
       <use xlink:href="#DejaVuSans-30" x="63.623047"/>
      </g>
     </g>
    </g>
    <g id="xtick_6">
     <g id="line2d_6">
      <g>
       <use xlink:href="#me15191a901" x="381.490398" y="288.430125" style="stroke: #000000; stroke-width: 0.8"/>
      </g>
     </g>
     <g id="text_6">
      <!-- 100 -->
      <g transform="translate(371.946648 303.028562) scale(0.1 -0.1)">
       <defs>
        <path id="DejaVuSans-31" d="M 794 531 
L 1825 531 
L 1825 4091 
L 703 3866 
L 703 4441 
L 1819 4666 
L 2450 4666 
L 2450 531 
L 3481 531 
L 3481 0 
L 794 0 
L 794 531 
z
" transform="scale(0.015625)"/>
       </defs>
       <use xlink:href="#DejaVuSans-31"/>
       <use xlink:href="#DejaVuSans-30" x="63.623047"/>
       <use xlink:href="#DejaVuSans-30" x="127.246094"/>
      </g>
     </g>
    </g>
    <g id="text_7">
     <!-- Percentage -->
     <g transform="translate(191.040469 316.706687) scale(0.1 -0.1)">
      <defs>
       <path id="DejaVuSans-50" d="M 1259 4147 
L 1259 2394 
L 2053 2394 
Q 2494 2394 2734 2622 
Q 2975 2850 2975 3272 
Q 2975 3691 2734 3919 
Q 2494 4147 2053 4147 
L 1259 4147 
z
M 628 4666 
L 2053 4666 
Q 2838 4666 3239 4311 
Q 3641 3956 3641 3272 
Q 3641 2581 3239 2228 
Q 2838 1875 2053 1875 
L 1259 1875 
L 1259 0 
L 628 0 
L 628 4666 
z
" transform="scale(0.015625)"/>
       <path id="DejaVuSans-65" d="M 3597 1894 
L 3597 1613 
L 953 1613 
Q 991 1019 1311 708 
Q 1631 397 2203 397 
Q 2534 397 2845 478 
Q 3156 559 3463 722 
L 3463 178 
Q 3153 47 2828 -22 
Q 2503 -91 2169 -91 
Q 1331 -91 842 396 
Q 353 884 353 1716 
Q 353 2575 817 3079 
Q 1281 3584 2069 3584 
Q 2775 3584 3186 3129 
Q 3597 2675 3597 1894 
z
M 3022 2063 
Q 3016 2534 2758 2815 
Q 2500 3097 2075 3097 
Q 1594 3097 1305 2825 
Q 1016 2553 972 2059 
L 3022 2063 
z
" transform="scale(0.015625)"/>
       <path id="DejaVuSans-72" d="M 2631 2963 
Q 2534 3019 2420 3045 
Q 2306 3072 2169 3072 
Q 1681 3072 1420 2755 
Q 1159 2438 1159 1844 
L 1159 0 
L 581 0 
L 581 3500 
L 1159 3500 
L 1159 2956 
Q 1341 3275 1631 3429 
Q 1922 3584 2338 3584 
Q 2397 3584 2469 3576 
Q 2541 3569 2628 3553 
L 2631 2963 
z
" transform="scale(0.015625)"/>
       <path id="DejaVuSans-63" d="M 3122 3366 
L 3122 2828 
Q 2878 2963 2633 3030 
Q 2388 3097 2138 3097 
Q 1578 3097 1268 2742 
Q 959 2388 959 1747 
Q 959 1106 1268 751 
Q 1578 397 2138 397 
Q 2388 397 2633 464 
Q 2878 531 3122 666 
L 3122 134 
Q 2881 22 2623 -34 
Q 2366 -91 2075 -91 
Q 1284 -91 818 406 
Q 353 903 353 1747 
Q 353 2603 823 3093 
Q 1294 3584 2113 3584 
Q 2378 3584 2631 3529 
Q 2884 3475 3122 3366 
z
" transform="scale(0.015625)"/>
       <path id="DejaVuSans-6e" d="M 3513 2113 
L 3513 0 
L 2938 0 
L 2938 2094 
Q 2938 2591 2744 2837 
Q 2550 3084 2163 3084 
Q 1697 3084 1428 2787 
Q 1159 2491 1159 1978 
L 1159 0 
L 581 0 
L 581 3500 
L 1159 3500 
L 1159 2956 
Q 1366 3272 1645 3428 
Q 1925 3584 2291 3584 
Q 2894 3584 3203 3211 
Q 3513 2838 3513 2113 
z
" transform="scale(0.015625)"/>
       <path id="DejaVuSans-74" d="M 1172 4494 
L 1172 3500 
L 2356 3500 
L 2356 3053 
L 1172 3053 
L 1172 1153 
Q 1172 725 1289 603 
Q 1406 481 1766 481 
L 2356 481 
L 2356 0 
L 1766 0 
Q 1100 0 847 248 
Q 594 497 594 1153 
L 594 3053 
L 172 3053 
L 172 3500 
L 594 3500 
L 594 4494 
L 1172 4494 
z
" transform="scale(0.015625)"/>
       <path id="DejaVuSans-61" d="M 2194 1759 
Q 1497 1759 1228 1600 
Q 959 1441 959 1056 
Q 959 750 1161 570 
Q 1363 391 1709 391 
Q 2188 391 2477 730 
Q 2766 1069 2766 1631 
L 2766 1759 
L 2194 1759 
z
M 3341 1997 
L 3341 0 
L 2766 0 
L 2766 531 
Q 2569 213 2275 61 
Q 1981 -91 1556 -91 
Q 1019 -91 701 211 
Q 384 513 384 1019 
Q 384 1609 779 1909 
Q 1175 2209 1959 2209 
L 2766 2209 
L 2766 2266 
Q 2766 2663 2505 2880 
Q 2244 3097 1772 3097 
Q 1472 3097 1187 3025 
Q 903 2953 641 2809 
L 641 3341 
Q 956 3463 1253 3523 
Q 1550 3584 1831 3584 
Q 2591 3584 2966 3190 
Q 3341 2797 3341 1997 
z
" transform="scale(0.015625)"/>
       <path id="DejaVuSans-67" d="M 2906 1791 
Q 2906 2416 2648 2759 
Q 2391 3103 1925 3103 
Q 1463 3103 1205 2759 
Q 947 2416 947 1791 
Q 947 1169 1205 825 
Q 1463 481 1925 481 
Q 2391 481 2648 825 
Q 2906 1169 2906 1791 
z
M 3481 434 
Q 3481 -459 3084 -895 
Q 2688 -1331 1869 -1331 
Q 1566 -1331 1297 -1286 
Q 1028 -1241 775 -1147 
L 775 -588 
Q 1028 -725 1275 -790 
Q 1522 -856 1778 -856 
Q 2344 -856 2625 -561 
Q 2906 -266 2906 331 
L 2906 616 
Q 2728 306 2450 153 
Q 2172 0 1784 0 
Q 1141 0 747 490 
Q 353 981 353 1791 
Q 353 2603 747 3093 
Q 1141 3584 1784 3584 
Q 2172 3584 2450 3431 
Q 2728 3278 2906 2969 
L 2906 3500 
L 3481 3500 
L 3481 434 
z
" transform="scale(0.015625)"/>
      </defs>
      <use xlink:href="#DejaVuSans-50"/>
      <use xlink:href="#DejaVuSans-65" x="56.677734"/>
      <use xlink:href="#DejaVuSans-72" x="118.201172"/>
      <use xlink:href="#DejaVuSans-63" x="157.064453"/>
      <use xlink:href="#DejaVuSans-65" x="212.044922"/>
      <use xlink:href="#DejaVuSans-6e" x="273.568359"/>
      <use xlink:href="#DejaVuSans-74" x="336.947266"/>
      <use xlink:href="#DejaVuSans-61" x="376.15625"/>
      <use xlink:href="#DejaVuSans-67" x="437.435547"/>
      <use xlink:href="#DejaVuSans-65" x="500.912109"/>
     </g>
    </g>
   </g>
   <g id="matplotlib.axis_2">
    <g id="ytick_1">
     <g id="line2d_7">
      <defs>
       <path id="m30defe49c6" d="M 0 0 
L -3.5 0 
" style="stroke: #000000; stroke-width: 0.8"/>
      </defs>
      <g>
       <use xlink:href="#m30defe49c6" x="40.603125" y="257.385371" style="stroke: #000000; stroke-width: 0.8"/>
      </g>
     </g>
     <g id="text_8">
      <!-- 5 -->
      <g transform="translate(27.240625 261.184589) scale(0.1 -0.1)">
       <defs>
        <path id="DejaVuSans-35" d="M 691 4666 
L 3169 4666 
L 3169 4134 
L 1269 4134 
L 1269 2991 
Q 1406 3038 1543 3061 
Q 1681 3084 1819 3084 
Q 2600 3084 3056 2656 
Q 3513 2228 3513 1497 
Q 3513 744 3044 326 
Q 2575 -91 1722 -91 
Q 1428 -91 1123 -41 
Q 819 9 494 109 
L 494 744 
Q 775 591 1075 516 
Q 1375 441 1709 441 
Q 2250 441 2565 725 
Q 2881 1009 2881 1497 
Q 2881 1984 2565 2268 
Q 2250 2553 1709 2553 
Q 1456 2553 1204 2497 
Q 953 2441 691 2322 
L 691 4666 
z
" transform="scale(0.015625)"/>
       </defs>
       <use xlink:href="#DejaVuSans-35"/>
      </g>
     </g>
    </g>
    <g id="ytick_2">
     <g id="line2d_8">
      <g>
       <use xlink:href="#m30defe49c6" x="40.603125" y="225.813248" style="stroke: #000000; stroke-width: 0.8"/>
      </g>
     </g>
     <g id="text_9">
      <!-- 10 -->
      <g transform="translate(20.878125 229.612466) scale(0.1 -0.1)">
       <use xlink:href="#DejaVuSans-31"/>
       <use xlink:href="#DejaVuSans-30" x="63.623047"/>
      </g>
     </g>
    </g>
    <g id="ytick_3">
     <g id="line2d_9">
      <g>
       <use xlink:href="#m30defe49c6" x="40.603125" y="194.241125" style="stroke: #000000; stroke-width: 0.8"/>
      </g>
     </g>
     <g id="text_10">
      <!-- 15 -->
      <g transform="translate(20.878125 198.040343) scale(0.1 -0.1)">
       <use xlink:href="#DejaVuSans-31"/>
       <use xlink:href="#DejaVuSans-35" x="63.623047"/>
      </g>
     </g>
    </g>
    <g id="ytick_4">
     <g id="line2d_10">
      <g>
       <use xlink:href="#m30defe49c6" x="40.603125" y="162.669002" style="stroke: #000000; stroke-width: 0.8"/>
      </g>
     </g>
     <g id="text_11">
      <!-- 20 -->
      <g transform="translate(20.878125 166.46822) scale(0.1 -0.1)">
       <use xlink:href="#DejaVuSans-32"/>
       <use xlink:href="#DejaVuSans-30" x="63.623047"/>
      </g>
     </g>
    </g>
    <g id="ytick_5">
     <g id="line2d_11">
      <g>
       <use xlink:href="#m30defe49c6" x="40.603125" y="131.096878" style="stroke: #000000; stroke-width: 0.8"/>
      </g>
     </g>
     <g id="text_12">
      <!-- 25 -->
      <g transform="translate(20.878125 134.896097) scale(0.1 -0.1)">
       <use xlink:href="#DejaVuSans-32"/>
       <use xlink:href="#DejaVuSans-35" x="63.623047"/>
      </g>
     </g>
    </g>
    <g id="ytick_6">
     <g id="line2d_12">
      <g>
       <use xlink:href="#m30defe49c6" x="40.603125" y="99.524755" style="stroke: #000000; stroke-width: 0.8"/>
      </g>
     </g>
     <g id="text_13">
      <!-- 30 -->
      <g transform="translate(20.878125 103.323974) scale(0.1 -0.1)">
       <defs>
        <path id="DejaVuSans-33" d="M 2597 2516 
Q 3050 2419 3304 2112 
Q 3559 1806 3559 1356 
Q 3559 666 3084 287 
Q 2609 -91 1734 -91 
Q 1441 -91 1130 -33 
Q 819 25 488 141 
L 488 750 
Q 750 597 1062 519 
Q 1375 441 1716 441 
Q 2309 441 2620 675 
Q 2931 909 2931 1356 
Q 2931 1769 2642 2001 
Q 2353 2234 1838 2234 
L 1294 2234 
L 1294 2753 
L 1863 2753 
Q 2328 2753 2575 2939 
Q 2822 3125 2822 3475 
Q 2822 3834 2567 4026 
Q 2313 4219 1838 4219 
Q 1578 4219 1281 4162 
Q 984 4106 628 3988 
L 628 4550 
Q 988 4650 1302 4700 
Q 1616 4750 1894 4750 
Q 2613 4750 3031 4423 
Q 3450 4097 3450 3541 
Q 3450 3153 3228 2886 
Q 3006 2619 2597 2516 
z
" transform="scale(0.015625)"/>
       </defs>
       <use xlink:href="#DejaVuSans-33"/>
       <use xlink:href="#DejaVuSans-30" x="63.623047"/>
      </g>
     </g>
    </g>
    <g id="ytick_7">
     <g id="line2d_13">
      <g>
       <use xlink:href="#m30defe49c6" x="40.603125" y="67.952632" style="stroke: #000000; stroke-width: 0.8"/>
      </g>
     </g>
     <g id="text_14">
      <!-- 35 -->
      <g transform="translate(20.878125 71.751851) scale(0.1 -0.1)">
       <use xlink:href="#DejaVuSans-33"/>
       <use xlink:href="#DejaVuSans-35" x="63.623047"/>
      </g>
     </g>
    </g>
    <g id="ytick_8">
     <g id="line2d_14">
      <g>
       <use xlink:href="#m30defe49c6" x="40.603125" y="36.380509" style="stroke: #000000; stroke-width: 0.8"/>
      </g>
     </g>
     <g id="text_15">
      <!-- 40 -->
      <g transform="translate(20.878125 40.179728) scale(0.1 -0.1)">
       <use xlink:href="#DejaVuSans-34"/>
       <use xlink:href="#DejaVuSans-30" x="63.623047"/>
      </g>
     </g>
    </g>
    <g id="text_16">
     <!-- y (pixel) -->
     <g transform="translate(14.798438 175.656156) rotate(-90) scale(0.1 -0.1)">
      <defs>
       <path id="DejaVuSans-79" d="M 2059 -325 
Q 1816 -950 1584 -1140 
Q 1353 -1331 966 -1331 
L 506 -1331 
L 506 -850 
L 844 -850 
Q 1081 -850 1212 -737 
Q 1344 -625 1503 -206 
L 1606 56 
L 191 3500 
L 800 3500 
L 1894 763 
L 2988 3500 
L 3597 3500 
L 2059 -325 
z
" transform="scale(0.015625)"/>
       <path id="DejaVuSans-20" transform="scale(0.015625)"/>
       <path id="DejaVuSans-28" d="M 1984 4856 
Q 1566 4138 1362 3434 
Q 1159 2731 1159 2009 
Q 1159 1288 1364 580 
Q 1569 -128 1984 -844 
L 1484 -844 
Q 1016 -109 783 600 
Q 550 1309 550 2009 
Q 550 2706 781 3412 
Q 1013 4119 1484 4856 
L 1984 4856 
z
" transform="scale(0.015625)"/>
       <path id="DejaVuSans-70" d="M 1159 525 
L 1159 -1331 
L 581 -1331 
L 581 3500 
L 1159 3500 
L 1159 2969 
Q 1341 3281 1617 3432 
Q 1894 3584 2278 3584 
Q 2916 3584 3314 3078 
Q 3713 2572 3713 1747 
Q 3713 922 3314 415 
Q 2916 -91 2278 -91 
Q 1894 -91 1617 61 
Q 1341 213 1159 525 
z
M 3116 1747 
Q 3116 2381 2855 2742 
Q 2594 3103 2138 3103 
Q 1681 3103 1420 2742 
Q 1159 2381 1159 1747 
Q 1159 1113 1420 752 
Q 1681 391 2138 391 
Q 2594 391 2855 752 
Q 3116 1113 3116 1747 
z
" transform="scale(0.015625)"/>
       <path id="DejaVuSans-69" d="M 603 3500 
L 1178 3500 
L 1178 0 
L 603 0 
L 603 3500 
z
M 603 4863 
L 1178 4863 
L 1178 4134 
L 603 4134 
L 603 4863 
z
" transform="scale(0.015625)"/>
       <path id="DejaVuSans-78" d="M 3513 3500 
L 2247 1797 
L 3578 0 
L 2900 0 
L 1881 1375 
L 863 0 
L 184 0 
L 1544 1831 
L 300 3500 
L 978 3500 
L 1906 2253 
L 2834 3500 
L 3513 3500 
z
" transform="scale(0.015625)"/>
       <path id="DejaVuSans-6c" d="M 603 4863 
L 1178 4863 
L 1178 0 
L 603 0 
L 603 4863 
z
" transform="scale(0.015625)"/>
       <path id="DejaVuSans-29" d="M 513 4856 
L 1013 4856 
Q 1481 4119 1714 3412 
Q 1947 2706 1947 2009 
Q 1947 1309 1714 600 
Q 1481 -109 1013 -844 
L 513 -844 
Q 928 -128 1133 580 
Q 1338 1288 1338 2009 
Q 1338 2731 1133 3434 
Q 928 4138 513 4856 
z
" transform="scale(0.015625)"/>
      </defs>
      <use xlink:href="#DejaVuSans-79"/>
      <use xlink:href="#DejaVuSans-20" x="59.179688"/>
      <use xlink:href="#DejaVuSans-28" x="90.966797"/>
      <use xlink:href="#DejaVuSans-70" x="129.980469"/>
      <use xlink:href="#DejaVuSans-69" x="193.457031"/>
      <use xlink:href="#DejaVuSans-78" x="221.240234"/>
      <use xlink:href="#DejaVuSans-65" x="277.294922"/>
      <use xlink:href="#DejaVuSans-6c" x="338.818359"/>
      <use xlink:href="#DejaVuSans-29" x="366.601562"/>
     </g>
    </g>
   </g>
   <g id="line2d_15">
    <path d="M 56.835852 242.275105 
L 70.363125 250.032273 
L 83.890398 258.412302 
L 97.41767 264.927644 
L 110.944943 268.462736 
L 124.472216 267.625898 
L 137.999489 262.770859 
L 151.526761 255.499115 
L 165.054034 247.072516 
L 178.581307 239.678088 
L 192.10858 234.249285 
L 205.635852 231.302449 
L 219.163125 230.103231 
L 232.690398 229.972946 
L 246.21767 230.780359 
L 259.744943 232.195787 
L 273.272216 233.881359 
L 286.799489 235.284868 
L 300.326761 236.119163 
L 313.854034 236.578804 
L 327.381307 237.188858 
L 340.90858 237.612942 
L 354.435852 237.612355 
L 367.963125 237.739899 
L 381.490398 239.173601 
" clip-path="url(#paf05906168)" style="fill: none; stroke: #46327e; stroke-width: 1.5; stroke-linecap: square"/>
   </g>
   <g id="line2d_16">
    <path d="M 56.835852 213.727587 
L 70.363125 220.938188 
L 83.890398 226.305035 
L 97.41767 229.347648 
L 110.944943 230.033328 
L 124.472216 226.911623 
L 137.999489 220.618174 
L 151.526761 212.480426 
L 165.054034 204.103741 
L 178.581307 197.25663 
L 192.10858 192.555345 
L 205.635852 190.615502 
L 219.163125 190.854688 
L 232.690398 192.226664 
L 246.21767 194.54556 
L 259.744943 197.319273 
L 273.272216 200.010304 
L 286.799489 202.00256 
L 300.326761 202.932597 
L 313.854034 203.542496 
L 327.381307 204.45582 
L 340.90858 205.408403 
L 354.435852 206.289262 
L 367.963125 207.51516 
L 381.490398 209.908641 
" clip-path="url(#paf05906168)" style="fill: none; stroke: #365c8d; stroke-width: 1.5; stroke-linecap: square"/>
   </g>
   <g id="line2d_17">
    <path d="M 56.835852 158.028053 
L 70.363125 174.818252 
L 83.890398 191.482141 
L 97.41767 203.387342 
L 110.944943 208.898628 
L 124.472216 206.877305 
L 137.999489 198.463293 
L 151.526761 187.638835 
L 165.054034 177.400848 
L 178.581307 169.721863 
L 192.10858 164.626522 
L 205.635852 161.592876 
L 219.163125 159.811478 
L 232.690398 159.021211 
L 246.21767 158.721437 
L 259.744943 158.553609 
L 273.272216 158.15892 
L 286.799489 157.079033 
L 300.326761 155.292871 
L 313.854034 153.353409 
L 327.381307 151.860134 
L 340.90858 150.383457 
L 354.435852 148.945144 
L 367.963125 148.219775 
L 381.490398 150.160189 
" clip-path="url(#paf05906168)" style="fill: none; stroke: #277f8e; stroke-width: 1.5; stroke-linecap: square"/>
   </g>
   <g id="line2d_18">
    <path d="M 56.835852 142.106361 
L 70.363125 146.803858 
L 83.890398 135.283969 
L 97.41767 128.313925 
L 110.944943 124.220048 
L 124.472216 117.531226 
L 137.999489 107.324068 
L 151.526761 96.142737 
L 165.054034 85.787465 
L 178.581307 78.188395 
L 192.10858 73.983406 
L 205.635852 72.627712 
L 219.163125 73.0461 
L 232.690398 75.032979 
L 246.21767 78.01426 
L 259.744943 81.631544 
L 273.272216 85.572338 
L 286.799489 89.715575 
L 300.326761 94.095819 
L 313.854034 98.541195 
L 327.381307 103.313866 
L 340.90858 107.939568 
L 354.435852 112.504879 
L 367.963125 117.678749 
L 381.490398 124.858027 
" clip-path="url(#paf05906168)" style="fill: none; stroke: #1fa187; stroke-width: 1.5; stroke-linecap: square"/>
   </g>
   <g id="line2d_19">
    <path d="M 56.835852 104.146189 
L 70.363125 123.221719 
L 83.890398 123.435881 
L 97.41767 122.390031 
L 110.944943 120.166834 
L 124.472216 111.261556 
L 137.999489 96.51593 
L 151.526761 80.550243 
L 165.054034 67.213468 
L 178.581307 59.353729 
L 192.10858 55.449521 
L 205.635852 53.781336 
L 219.163125 53.079986 
L 232.690398 53.717614 
L 246.21767 54.733154 
L 259.744943 56.14431 
L 273.272216 57.732228 
L 286.799489 59.441918 
L 300.326761 61.462596 
L 313.854034 63.58703 
L 327.381307 66.208929 
L 340.90858 69.166675 
L 354.435852 72.531241 
L 367.963125 76.823594 
L 381.490398 83.550788 
" clip-path="url(#paf05906168)" style="fill: none; stroke: #4ac16d; stroke-width: 1.5; stroke-linecap: square"/>
   </g>
   <g id="line2d_20">
    <path d="M 56.835852 74.257018 
L 70.363125 103.608055 
L 83.890398 114.833847 
L 97.41767 119.63787 
L 110.944943 119.550676 
L 124.472216 109.635195 
L 137.999489 92.380802 
L 151.526761 74.555982 
L 165.054034 60.832349 
L 178.581307 53.757987 
L 192.10858 50.631112 
L 205.635852 49.036784 
L 219.163125 47.809941 
L 232.690398 47.803848 
L 246.21767 47.70678 
L 259.744943 47.737524 
L 273.272216 47.879189 
L 286.799489 48.148935 
L 300.326761 48.619988 
L 313.854034 49.082188 
L 327.381307 49.951194 
L 340.90858 50.898286 
L 354.435852 51.973311 
L 367.963125 53.617037 
L 381.490398 56.714312 
" clip-path="url(#paf05906168)" style="fill: none; stroke: #a0da39; stroke-width: 1.5; stroke-linecap: square"/>
   </g>
   <g id="patch_3">
    <path d="M 40.603125 288.430125 
L 40.603125 22.318125 
" style="fill: none; stroke: #000000; stroke-width: 0.8; stroke-linejoin: miter; stroke-linecap: square"/>
   </g>
   <g id="patch_4">
    <path d="M 397.723125 288.430125 
L 397.723125 22.318125 
" style="fill: none; stroke: #000000; stroke-width: 0.8; stroke-linejoin: miter; stroke-linecap: square"/>
   </g>
   <g id="patch_5">
    <path d="M 40.603125 288.430125 
L 397.723125 288.430125 
" style="fill: none; stroke: #000000; stroke-width: 0.8; stroke-linejoin: miter; stroke-linecap: square"/>
   </g>
   <g id="patch_6">
    <path d="M 40.603125 22.318125 
L 397.723125 22.318125 
" style="fill: none; stroke: #000000; stroke-width: 0.8; stroke-linejoin: miter; stroke-linecap: square"/>
   </g>
   <g id="text_17">
    <!-- V3Off_Levelwalk - Joint Y over average step cycle -->
    <g transform="translate(70.85625 16.318125) scale(0.12 -0.12)">
     <defs>
      <path id="DejaVuSans-56" d="M 1831 0 
L 50 4666 
L 709 4666 
L 2188 738 
L 3669 4666 
L 4325 4666 
L 2547 0 
L 1831 0 
z
" transform="scale(0.015625)"/>
      <path id="DejaVuSans-4f" d="M 2522 4238 
Q 1834 4238 1429 3725 
Q 1025 3213 1025 2328 
Q 1025 1447 1429 934 
Q 1834 422 2522 422 
Q 3209 422 3611 934 
Q 4013 1447 4013 2328 
Q 4013 3213 3611 3725 
Q 3209 4238 2522 4238 
z
M 2522 4750 
Q 3503 4750 4090 4092 
Q 4678 3434 4678 2328 
Q 4678 1225 4090 567 
Q 3503 -91 2522 -91 
Q 1538 -91 948 565 
Q 359 1222 359 2328 
Q 359 3434 948 4092 
Q 1538 4750 2522 4750 
z
" transform="scale(0.015625)"/>
      <path id="DejaVuSans-66" d="M 2375 4863 
L 2375 4384 
L 1825 4384 
Q 1516 4384 1395 4259 
Q 1275 4134 1275 3809 
L 1275 3500 
L 2222 3500 
L 2222 3053 
L 1275 3053 
L 1275 0 
L 697 0 
L 697 3053 
L 147 3053 
L 147 3500 
L 697 3500 
L 697 3744 
Q 697 4328 969 4595 
Q 1241 4863 1831 4863 
L 2375 4863 
z
" transform="scale(0.015625)"/>
      <path id="DejaVuSans-5f" d="M 3263 -1063 
L 3263 -1509 
L -63 -1509 
L -63 -1063 
L 3263 -1063 
z
" transform="scale(0.015625)"/>
      <path id="DejaVuSans-4c" d="M 628 4666 
L 1259 4666 
L 1259 531 
L 3531 531 
L 3531 0 
L 628 0 
L 628 4666 
z
" transform="scale(0.015625)"/>
      <path id="DejaVuSans-76" d="M 191 3500 
L 800 3500 
L 1894 563 
L 2988 3500 
L 3597 3500 
L 2284 0 
L 1503 0 
L 191 3500 
z
" transform="scale(0.015625)"/>
      <path id="DejaVuSans-77" d="M 269 3500 
L 844 3500 
L 1563 769 
L 2278 3500 
L 2956 3500 
L 3675 769 
L 4391 3500 
L 4966 3500 
L 4050 0 
L 3372 0 
L 2619 2869 
L 1863 0 
L 1184 0 
L 269 3500 
z
" transform="scale(0.015625)"/>
      <path id="DejaVuSans-6b" d="M 581 4863 
L 1159 4863 
L 1159 1991 
L 2875 3500 
L 3609 3500 
L 1753 1863 
L 3688 0 
L 2938 0 
L 1159 1709 
L 1159 0 
L 581 0 
L 581 4863 
z
" transform="scale(0.015625)"/>
      <path id="DejaVuSans-2d" d="M 313 2009 
L 1997 2009 
L 1997 1497 
L 313 1497 
L 313 2009 
z
" transform="scale(0.015625)"/>
      <path id="DejaVuSans-4a" d="M 628 4666 
L 1259 4666 
L 1259 325 
Q 1259 -519 939 -900 
Q 619 -1281 -91 -1281 
L -331 -1281 
L -331 -750 
L -134 -750 
Q 284 -750 456 -515 
Q 628 -281 628 325 
L 628 4666 
z
" transform="scale(0.015625)"/>
      <path id="DejaVuSans-6f" d="M 1959 3097 
Q 1497 3097 1228 2736 
Q 959 2375 959 1747 
Q 959 1119 1226 758 
Q 1494 397 1959 397 
Q 2419 397 2687 759 
Q 2956 1122 2956 1747 
Q 2956 2369 2687 2733 
Q 2419 3097 1959 3097 
z
M 1959 3584 
Q 2709 3584 3137 3096 
Q 3566 2609 3566 1747 
Q 3566 888 3137 398 
Q 2709 -91 1959 -91 
Q 1206 -91 779 398 
Q 353 888 353 1747 
Q 353 2609 779 3096 
Q 1206 3584 1959 3584 
z
" transform="scale(0.015625)"/>
      <path id="DejaVuSans-59" d="M -13 4666 
L 666 4666 
L 1959 2747 
L 3244 4666 
L 3922 4666 
L 2272 2222 
L 2272 0 
L 1638 0 
L 1638 2222 
L -13 4666 
z
" transform="scale(0.015625)"/>
      <path id="DejaVuSans-73" d="M 2834 3397 
L 2834 2853 
Q 2591 2978 2328 3040 
Q 2066 3103 1784 3103 
Q 1356 3103 1142 2972 
Q 928 2841 928 2578 
Q 928 2378 1081 2264 
Q 1234 2150 1697 2047 
L 1894 2003 
Q 2506 1872 2764 1633 
Q 3022 1394 3022 966 
Q 3022 478 2636 193 
Q 2250 -91 1575 -91 
Q 1294 -91 989 -36 
Q 684 19 347 128 
L 347 722 
Q 666 556 975 473 
Q 1284 391 1588 391 
Q 1994 391 2212 530 
Q 2431 669 2431 922 
Q 2431 1156 2273 1281 
Q 2116 1406 1581 1522 
L 1381 1569 
Q 847 1681 609 1914 
Q 372 2147 372 2553 
Q 372 3047 722 3315 
Q 1072 3584 1716 3584 
Q 2034 3584 2315 3537 
Q 2597 3491 2834 3397 
z
" transform="scale(0.015625)"/>
     </defs>
     <use xlink:href="#DejaVuSans-56"/>
     <use xlink:href="#DejaVuSans-33" x="68.408203"/>
     <use xlink:href="#DejaVuSans-4f" x="132.03125"/>
     <use xlink:href="#DejaVuSans-66" x="210.742188"/>
     <use xlink:href="#DejaVuSans-66" x="245.947266"/>
     <use xlink:href="#DejaVuSans-5f" x="281.152344"/>
     <use xlink:href="#DejaVuSans-4c" x="331.152344"/>
     <use xlink:href="#DejaVuSans-65" x="385.115234"/>
     <use xlink:href="#DejaVuSans-76" x="446.638672"/>
     <use xlink:href="#DejaVuSans-65" x="505.818359"/>
     <use xlink:href="#DejaVuSans-6c" x="567.341797"/>
     <use xlink:href="#DejaVuSans-77" x="595.125"/>
     <use xlink:href="#DejaVuSans-61" x="676.912109"/>
     <use xlink:href="#DejaVuSans-6c" x="738.191406"/>
     <use xlink:href="#DejaVuSans-6b" x="765.974609"/>
     <use xlink:href="#DejaVuSans-20" x="823.884766"/>
     <use xlink:href="#DejaVuSans-2d" x="855.671875"/>
     <use xlink:href="#DejaVuSans-20" x="891.755859"/>
     <use xlink:href="#DejaVuSans-4a" x="923.542969"/>
     <use xlink:href="#DejaVuSans-6f" x="953.035156"/>
     <use xlink:href="#DejaVuSans-69" x="1014.216797"/>
     <use xlink:href="#DejaVuSans-6e" x="1042"/>
     <use xlink:href="#DejaVuSans-74" x="1105.378906"/>
     <use xlink:href="#DejaVuSans-20" x="1144.587891"/>
     <use xlink:href="#DejaVuSans-59" x="1176.375"/>
     <use xlink:href="#DejaVuSans-20" x="1237.458984"/>
     <use xlink:href="#DejaVuSans-6f" x="1269.246094"/>
     <use xlink:href="#DejaVuSans-76" x="1330.427734"/>
     <use xlink:href="#DejaVuSans-65" x="1389.607422"/>
     <use xlink:href="#DejaVuSans-72" x="1451.130859"/>
     <use xlink:href="#DejaVuSans-20" x="1492.244141"/>
     <use xlink:href="#DejaVuSans-61" x="1524.03125"/>
     <use xlink:href="#DejaVuSans-76" x="1585.310547"/>
     <use xlink:href="#DejaVuSans-65" x="1644.490234"/>
     <use xlink:href="#DejaVuSans-72" x="1706.013672"/>
     <use xlink:href="#DejaVuSans-61" x="1747.126953"/>
     <use xlink:href="#DejaVuSans-67" x="1808.40625"/>
     <use xlink:href="#DejaVuSans-65" x="1871.882812"/>
     <use xlink:href="#DejaVuSans-20" x="1933.40625"/>
     <use xlink:href="#DejaVuSans-73" x="1965.193359"/>
     <use xlink:href="#DejaVuSans-74" x="2017.292969"/>
     <use xlink:href="#DejaVuSans-65" x="2056.501953"/>
     <use xlink:href="#DejaVuSans-70" x="2118.025391"/>
     <use xlink:href="#DejaVuSans-20" x="2181.501953"/>
     <use xlink:href="#DejaVuSans-63" x="2213.289062"/>
     <use xlink:href="#DejaVuSans-79" x="2268.269531"/>
     <use xlink:href="#DejaVuSans-63" x="2327.449219"/>
     <use xlink:href="#DejaVuSans-6c" x="2382.429688"/>
     <use xlink:href="#DejaVuSans-65" x="2410.212891"/>
    </g>
   </g>
   <g id="legend_1">
    <g id="patch_7">
     <path d="M 47.603125 118.386875 
L 135.885938 118.386875 
Q 137.885938 118.386875 137.885938 116.386875 
L 137.885938 29.318125 
Q 137.885938 27.318125 135.885938 27.318125 
L 47.603125 27.318125 
Q 45.603125 27.318125 45.603125 29.318125 
L 45.603125 116.386875 
Q 45.603125 118.386875 47.603125 118.386875 
z
" style="fill: #ffffff; opacity: 0.8; stroke: #cccccc; stroke-linejoin: miter"/>
    </g>
    <g id="line2d_21">
     <path d="M 49.603125 35.416562 
L 59.603125 35.416562 
L 69.603125 35.416562 
" style="fill: none; stroke: #46327e; stroke-width: 1.5; stroke-linecap: square"/>
    </g>
    <g id="text_18">
     <!-- Crest  -->
     <g transform="translate(77.603125 38.916562) scale(0.1 -0.1)">
      <defs>
       <path id="DejaVuSans-43" d="M 4122 4306 
L 4122 3641 
Q 3803 3938 3442 4084 
Q 3081 4231 2675 4231 
Q 1875 4231 1450 3742 
Q 1025 3253 1025 2328 
Q 1025 1406 1450 917 
Q 1875 428 2675 428 
Q 3081 428 3442 575 
Q 3803 722 4122 1019 
L 4122 359 
Q 3791 134 3420 21 
Q 3050 -91 2638 -91 
Q 1578 -91 968 557 
Q 359 1206 359 2328 
Q 359 3453 968 4101 
Q 1578 4750 2638 4750 
Q 3056 4750 3426 4639 
Q 3797 4528 4122 4306 
z
" transform="scale(0.015625)"/>
      </defs>
      <use xlink:href="#DejaVuSans-43"/>
      <use xlink:href="#DejaVuSans-72" x="69.824219"/>
      <use xlink:href="#DejaVuSans-65" x="108.6875"/>
      <use xlink:href="#DejaVuSans-73" x="170.210938"/>
      <use xlink:href="#DejaVuSans-74" x="222.310547"/>
      <use xlink:href="#DejaVuSans-20" x="261.519531"/>
     </g>
    </g>
    <g id="line2d_22">
     <path d="M 49.603125 50.094688 
L 59.603125 50.094688 
L 69.603125 50.094688 
" style="fill: none; stroke: #365c8d; stroke-width: 1.5; stroke-linecap: square"/>
    </g>
    <g id="text_19">
     <!-- Hip  -->
     <g transform="translate(77.603125 53.594688) scale(0.1 -0.1)">
      <defs>
       <path id="DejaVuSans-48" d="M 628 4666 
L 1259 4666 
L 1259 2753 
L 3553 2753 
L 3553 4666 
L 4184 4666 
L 4184 0 
L 3553 0 
L 3553 2222 
L 1259 2222 
L 1259 0 
L 628 0 
L 628 4666 
z
" transform="scale(0.015625)"/>
      </defs>
      <use xlink:href="#DejaVuSans-48"/>
      <use xlink:href="#DejaVuSans-69" x="75.195312"/>
      <use xlink:href="#DejaVuSans-70" x="102.978516"/>
      <use xlink:href="#DejaVuSans-20" x="166.455078"/>
     </g>
    </g>
    <g id="line2d_23">
     <path d="M 49.603125 64.772812 
L 59.603125 64.772812 
L 69.603125 64.772812 
" style="fill: none; stroke: #277f8e; stroke-width: 1.5; stroke-linecap: square"/>
    </g>
    <g id="text_20">
     <!-- Knee  -->
     <g transform="translate(77.603125 68.272812) scale(0.1 -0.1)">
      <defs>
       <path id="DejaVuSans-4b" d="M 628 4666 
L 1259 4666 
L 1259 2694 
L 3353 4666 
L 4166 4666 
L 1850 2491 
L 4331 0 
L 3500 0 
L 1259 2247 
L 1259 0 
L 628 0 
L 628 4666 
z
" transform="scale(0.015625)"/>
      </defs>
      <use xlink:href="#DejaVuSans-4b"/>
      <use xlink:href="#DejaVuSans-6e" x="65.576172"/>
      <use xlink:href="#DejaVuSans-65" x="128.955078"/>
      <use xlink:href="#DejaVuSans-65" x="190.478516"/>
      <use xlink:href="#DejaVuSans-20" x="252.001953"/>
     </g>
    </g>
    <g id="line2d_24">
     <path d="M 49.603125 79.450938 
L 59.603125 79.450938 
L 69.603125 79.450938 
" style="fill: none; stroke: #1fa187; stroke-width: 1.5; stroke-linecap: square"/>
    </g>
    <g id="text_21">
     <!-- Ankle  -->
     <g transform="translate(77.603125 82.950938) scale(0.1 -0.1)">
      <defs>
       <path id="DejaVuSans-41" d="M 2188 4044 
L 1331 1722 
L 3047 1722 
L 2188 4044 
z
M 1831 4666 
L 2547 4666 
L 4325 0 
L 3669 0 
L 3244 1197 
L 1141 1197 
L 716 0 
L 50 0 
L 1831 4666 
z
" transform="scale(0.015625)"/>
      </defs>
      <use xlink:href="#DejaVuSans-41"/>
      <use xlink:href="#DejaVuSans-6e" x="68.408203"/>
      <use xlink:href="#DejaVuSans-6b" x="131.787109"/>
      <use xlink:href="#DejaVuSans-6c" x="189.697266"/>
      <use xlink:href="#DejaVuSans-65" x="217.480469"/>
      <use xlink:href="#DejaVuSans-20" x="279.003906"/>
     </g>
    </g>
    <g id="line2d_25">
     <path d="M 49.603125 94.129063 
L 59.603125 94.129063 
L 69.603125 94.129063 
" style="fill: none; stroke: #4ac16d; stroke-width: 1.5; stroke-linecap: square"/>
    </g>
    <g id="text_22">
     <!-- Metatarsal  -->
     <g transform="translate(77.603125 97.629063) scale(0.1 -0.1)">
      <defs>
       <path id="DejaVuSans-4d" d="M 628 4666 
L 1569 4666 
L 2759 1491 
L 3956 4666 
L 4897 4666 
L 4897 0 
L 4281 0 
L 4281 4097 
L 3078 897 
L 2444 897 
L 1241 4097 
L 1241 0 
L 628 0 
L 628 4666 
z
" transform="scale(0.015625)"/>
      </defs>
      <use xlink:href="#DejaVuSans-4d"/>
      <use xlink:href="#DejaVuSans-65" x="86.279297"/>
      <use xlink:href="#DejaVuSans-74" x="147.802734"/>
      <use xlink:href="#DejaVuSans-61" x="187.011719"/>
      <use xlink:href="#DejaVuSans-74" x="248.291016"/>
      <use xlink:href="#DejaVuSans-61" x="287.5"/>
      <use xlink:href="#DejaVuSans-72" x="348.779297"/>
      <use xlink:href="#DejaVuSans-73" x="389.892578"/>
      <use xlink:href="#DejaVuSans-61" x="441.992188"/>
      <use xlink:href="#DejaVuSans-6c" x="503.271484"/>
      <use xlink:href="#DejaVuSans-20" x="531.054688"/>
     </g>
    </g>
    <g id="line2d_26">
     <path d="M 49.603125 108.807187 
L 59.603125 108.807187 
L 69.603125 108.807187 
" style="fill: none; stroke: #a0da39; stroke-width: 1.5; stroke-linecap: square"/>
    </g>
    <g id="text_23">
     <!-- ToeTip  -->
     <g transform="translate(77.603125 112.307187) scale(0.1 -0.1)">
      <defs>
       <path id="DejaVuSans-54" d="M -19 4666 
L 3928 4666 
L 3928 4134 
L 2272 4134 
L 2272 0 
L 1638 0 
L 1638 4134 
L -19 4134 
L -19 4666 
z
" transform="scale(0.015625)"/>
      </defs>
      <use xlink:href="#DejaVuSans-54"/>
      <use xlink:href="#DejaVuSans-6f" x="44.083984"/>
      <use xlink:href="#DejaVuSans-65" x="105.265625"/>
      <use xlink:href="#DejaVuSans-54" x="166.789062"/>
      <use xlink:href="#DejaVuSans-69" x="224.748047"/>
      <use xlink:href="#DejaVuSans-70" x="252.53125"/>
      <use xlink:href="#DejaVuSans-20" x="316.007812"/>
     </g>
    </g>
   </g>
  </g>
 </g>
 <defs>
  <clipPath id="paf05906168">
   <rect x="40.603125" y="22.318125" width="357.12" height="266.112"/>
  </clipPath>
 </defs>
</svg>
