<?xml version="1.0" encoding="utf-8" standalone="no"?>
<!DOCTYPE svg PUBLIC "-//W3C//DTD SVG 1.1//EN"
  "http://www.w3.org/Graphics/SVG/1.1/DTD/svg11.dtd">
<svg xmlns:xlink="http://www.w3.org/1999/xlink" width="404.923125pt" height="325.986375pt" viewBox="0 0 404.923125 325.986375" xmlns="http://www.w3.org/2000/svg" version="1.1">
 <metadata>
  <rdf:RDF xmlns:dc="http://purl.org/dc/elements/1.1/" xmlns:cc="http://creativecommons.org/ns#" xmlns:rdf="http://www.w3.org/1999/02/22-rdf-syntax-ns#">
   <cc:Work>
    <dc:type rdf:resource="http://purl.org/dc/dcmitype/StillImage"/>
    <dc:date>2024-08-07T13:01:28.972078</dc:date>
    <dc:format>image/svg+xml</dc:format>
    <dc:creator>
     <cc:Agent>
      <dc:title>Matplotlib v3.8.4, https://matplotlib.org/</dc:title>
     </cc:Agent>
    </dc:creator>
   </cc:Work>
  </rdf:RDF>
 </metadata>
 <defs>
  <style type="text/css">*{stroke-linejoin: round; stroke-linecap: butt}</style>
 </defs>
 <g id="figure_1">
  <g id="patch_1">
   <path d="M 0 325.986375 
L 404.923125 325.986375 
L 404.923125 0 
L 0 0 
z
" style="fill: #ffffff"/>
  </g>
  <g id="axes_1">
   <g id="patch_2">
    <path d="M 40.603125 288.430125 
L 397.723125 288.430125 
L 397.723125 22.318125 
L 40.603125 22.318125 
z
" style="fill: #ffffff"/>
   </g>
   <g id="PolyCollection_1">
    <path d="M 56.835852 47.357214 
L 56.835852 94.387376 
L 70.363125 94.890428 
L 83.890398 95.93088 
L 97.41767 96.989698 
L 110.944943 97.79577 
L 124.472216 98.615616 
L 137.999489 99.761073 
L 151.526761 100.817256 
L 165.054034 101.062039 
L 178.581307 101.050878 
L 192.10858 100.832763 
L 205.635852 100.810129 
L 219.163125 100.635845 
L 232.690398 99.793548 
L 246.21767 98.870832 
L 259.744943 98.679052 
L 273.272216 98.665677 
L 286.799489 98.752312 
L 300.326761 98.210269 
L 313.854034 97.622394 
L 327.381307 96.815738 
L 340.90858 95.949606 
L 354.435852 95.169739 
L 367.963125 94.472952 
L 381.490398 94.411632 
L 381.490398 44.444181 
L 381.490398 44.444181 
L 367.963125 44.43525 
L 354.435852 43.403207 
L 340.90858 42.862109 
L 327.381307 41.58579 
L 313.854034 40.903059 
L 300.326761 39.960445 
L 286.799489 38.340449 
L 273.272216 37.226901 
L 259.744943 35.699961 
L 246.21767 35.316865 
L 232.690398 34.414125 
L 219.163125 35.228132 
L 205.635852 35.989973 
L 192.10858 36.364537 
L 178.581307 36.40497 
L 165.054034 37.544661 
L 151.526761 39.361321 
L 137.999489 40.251791 
L 124.472216 40.668288 
L 110.944943 41.825877 
L 97.41767 43.055973 
L 83.890398 43.78064 
L 70.363125 45.947981 
L 56.835852 47.357214 
z
" clip-path="url(#pd8d2194fec)" style="fill: #46327e; fill-opacity: 0.2"/>
   </g>
   <g id="PolyCollection_2">
    <path d="M 56.835852 66.932465 
L 56.835852 114.12198 
L 70.363125 115.907916 
L 83.890398 117.703646 
L 97.41767 119.06986 
L 110.944943 119.839465 
L 124.472216 119.911603 
L 137.999489 119.506904 
L 151.526761 119.204655 
L 165.054034 118.738864 
L 178.581307 118.256437 
L 192.10858 117.741847 
L 205.635852 117.140502 
L 219.163125 115.970188 
L 232.690398 114.318332 
L 246.21767 112.895064 
L 259.744943 111.559544 
L 273.272216 110.667473 
L 286.799489 110.087493 
L 300.326761 109.64321 
L 313.854034 109.329411 
L 327.381307 108.911408 
L 340.90858 108.818763 
L 354.435852 108.941085 
L 367.963125 109.28731 
L 381.490398 110.019951 
L 381.490398 62.566839 
L 381.490398 62.566839 
L 367.963125 62.753131 
L 354.435852 62.755612 
L 340.90858 62.828073 
L 327.381307 62.362785 
L 313.854034 61.507474 
L 300.326761 60.698251 
L 286.799489 59.803927 
L 273.272216 58.718973 
L 259.744943 56.994407 
L 246.21767 55.614375 
L 232.690398 54.626225 
L 219.163125 54.163457 
L 205.635852 54.063082 
L 192.10858 53.558324 
L 178.581307 52.998786 
L 165.054034 53.337562 
L 151.526761 54.560269 
L 137.999489 55.521584 
L 124.472216 56.550269 
L 110.944943 58.095725 
L 97.41767 60.158484 
L 83.890398 61.795306 
L 70.363125 64.453632 
L 56.835852 66.932465 
z
" clip-path="url(#pd8d2194fec)" style="fill: #365c8d; fill-opacity: 0.2"/>
   </g>
   <g id="PolyCollection_3">
    <path d="M 56.835852 101.072383 
L 56.835852 157.690417 
L 70.363125 160.266877 
L 83.890398 162.406465 
L 97.41767 163.49941 
L 110.944943 163.458775 
L 124.472216 162.613422 
L 137.999489 160.637326 
L 151.526761 158.737756 
L 165.054034 157.633159 
L 178.581307 156.983337 
L 192.10858 156.176008 
L 205.635852 155.071602 
L 219.163125 153.544258 
L 232.690398 151.543955 
L 246.21767 149.468995 
L 259.744943 147.688376 
L 273.272216 146.17624 
L 286.799489 145.451622 
L 300.326761 145.255747 
L 313.854034 145.22341 
L 327.381307 145.617638 
L 340.90858 146.354427 
L 354.435852 147.263189 
L 367.963125 148.284314 
L 381.490398 149.611903 
L 381.490398 97.380885 
L 381.490398 97.380885 
L 367.963125 98.23512 
L 354.435852 99.195803 
L 340.90858 99.842266 
L 327.381307 100.121139 
L 313.854034 99.874524 
L 300.326761 99.565517 
L 286.799489 99.073571 
L 273.272216 98.377338 
L 259.744943 97.08279 
L 246.21767 95.301697 
L 232.690398 93.609782 
L 219.163125 92.388537 
L 205.635852 91.248207 
L 192.10858 89.842537 
L 178.581307 88.677192 
L 165.054034 88.328733 
L 151.526761 88.56735 
L 137.999489 89.399214 
L 124.472216 90.168824 
L 110.944943 91.63311 
L 97.41767 93.746251 
L 83.890398 95.851715 
L 70.363125 98.361241 
L 56.835852 101.072383 
z
" clip-path="url(#pd8d2194fec)" style="fill: #277f8e; fill-opacity: 0.2"/>
   </g>
   <g id="PolyCollection_4">
    <path d="M 56.835852 158.940594 
L 56.835852 162.469325 
L 70.363125 163.310282 
L 83.890398 164.192669 
L 97.41767 164.833748 
L 110.944943 165.157803 
L 124.472216 165.508595 
L 137.999489 165.855706 
L 151.526761 165.770359 
L 165.054034 166.209639 
L 178.581307 166.690353 
L 192.10858 167.186777 
L 205.635852 167.556984 
L 219.163125 167.799907 
L 232.690398 167.792204 
L 246.21767 167.853175 
L 259.744943 167.752578 
L 273.272216 167.384062 
L 286.799489 167.703015 
L 300.326761 168.014301 
L 313.854034 168.448883 
L 327.381307 168.631477 
L 340.90858 168.720377 
L 354.435852 168.621828 
L 367.963125 168.394198 
L 381.490398 168.232421 
L 381.490398 156.180373 
L 381.490398 156.180373 
L 367.963125 156.098184 
L 354.435852 156.025378 
L 340.90858 155.753352 
L 327.381307 155.420434 
L 313.854034 155.174023 
L 300.326761 155.044871 
L 286.799489 154.936277 
L 273.272216 155.001274 
L 259.744943 155.147912 
L 246.21767 155.211143 
L 232.690398 155.072399 
L 219.163125 155.454583 
L 205.635852 155.914486 
L 192.10858 156.421442 
L 178.581307 156.524903 
L 165.054034 156.809338 
L 151.526761 156.658095 
L 137.999489 156.120585 
L 124.472216 155.909983 
L 110.944943 156.043296 
L 97.41767 156.677483 
L 83.890398 157.445189 
L 70.363125 158.433868 
L 56.835852 158.940594 
z
" clip-path="url(#pd8d2194fec)" style="fill: #1fa187; fill-opacity: 0.2"/>
   </g>
   <g id="PolyCollection_5">
    <path d="M 56.835852 204.403264 
L 56.835852 237.773987 
L 70.363125 238.468744 
L 83.890398 239.12922 
L 97.41767 239.499186 
L 110.944943 239.355338 
L 124.472216 239.238664 
L 137.999489 238.869977 
L 151.526761 238.511035 
L 165.054034 238.379903 
L 178.581307 238.265183 
L 192.10858 238.193323 
L 205.635852 238.074513 
L 219.163125 237.860652 
L 232.690398 237.324478 
L 246.21767 236.784033 
L 259.744943 236.306908 
L 273.272216 235.77808 
L 286.799489 235.653488 
L 300.326761 235.70479 
L 313.854034 235.939344 
L 327.381307 236.286693 
L 340.90858 236.501078 
L 354.435852 236.713939 
L 367.963125 236.843968 
L 381.490398 236.827224 
L 381.490398 202.385271 
L 381.490398 202.385271 
L 367.963125 202.286412 
L 354.435852 202.285803 
L 340.90858 202.112482 
L 327.381307 202.092105 
L 313.854034 201.93049 
L 300.326761 201.726236 
L 286.799489 201.670075 
L 273.272216 201.706047 
L 259.744943 201.652051 
L 246.21767 201.462806 
L 232.690398 201.52489 
L 219.163125 201.841383 
L 205.635852 201.818957 
L 192.10858 201.874703 
L 178.581307 201.969504 
L 165.054034 202.102119 
L 151.526761 202.167691 
L 137.999489 202.310507 
L 124.472216 202.306765 
L 110.944943 202.542717 
L 97.41767 203.131579 
L 83.890398 203.757311 
L 70.363125 204.223984 
L 56.835852 204.403264 
z
" clip-path="url(#pd8d2194fec)" style="fill: #4ac16d; fill-opacity: 0.2"/>
   </g>
   <g id="PolyCollection_6">
    <path d="M 56.835852 270.998317 
L 56.835852 275.061591 
L 70.363125 274.678227 
L 83.890398 274.348494 
L 97.41767 273.929395 
L 110.944943 273.660551 
L 124.472216 273.708727 
L 137.999489 274.17403 
L 151.526761 274.596824 
L 165.054034 275.033452 
L 178.581307 275.288657 
L 192.10858 275.519072 
L 205.635852 275.720643 
L 219.163125 275.853176 
L 232.690398 275.879707 
L 246.21767 275.947316 
L 259.744943 275.99873 
L 273.272216 275.957426 
L 286.799489 276.019148 
L 300.326761 276.146333 
L 313.854034 276.334125 
L 327.381307 276.299152 
L 340.90858 276.230489 
L 354.435852 276.099636 
L 367.963125 275.825914 
L 381.490398 275.497902 
L 381.490398 270.406993 
L 381.490398 270.406993 
L 367.963125 270.086006 
L 354.435852 269.702653 
L 340.90858 269.361376 
L 327.381307 268.939514 
L 313.854034 268.690408 
L 300.326761 268.568545 
L 286.799489 268.596836 
L 273.272216 268.85088 
L 259.744943 269.147694 
L 246.21767 269.334441 
L 232.690398 269.75002 
L 219.163125 270.165536 
L 205.635852 270.397184 
L 192.10858 270.618018 
L 178.581307 270.918884 
L 165.054034 271.224067 
L 151.526761 271.388371 
L 137.999489 271.527882 
L 124.472216 271.513991 
L 110.944943 271.493156 
L 97.41767 271.448336 
L 83.890398 271.475744 
L 70.363125 271.423509 
L 56.835852 270.998317 
z
" clip-path="url(#pd8d2194fec)" style="fill: #a0da39; fill-opacity: 0.2"/>
   </g>
   <g id="matplotlib.axis_1">
    <g id="xtick_1">
     <g id="line2d_1">
      <defs>
       <path id="ma50939b92e" d="M 0 0 
L 0 3.5 
" style="stroke: #000000; stroke-width: 0.8"/>
      </defs>
      <g>
       <use xlink:href="#ma50939b92e" x="56.835852" y="288.430125" style="stroke: #000000; stroke-width: 0.8"/>
      </g>
     </g>
     <g id="text_1">
      <!-- 0 -->
      <g transform="translate(53.654602 303.028562) scale(0.1 -0.1)">
       <defs>
        <path id="DejaVuSans-30" d="M 2034 4250 
Q 1547 4250 1301 3770 
Q 1056 3291 1056 2328 
Q 1056 1369 1301 889 
Q 1547 409 2034 409 
Q 2525 409 2770 889 
Q 3016 1369 3016 2328 
Q 3016 3291 2770 3770 
Q 2525 4250 2034 4250 
z
M 2034 4750 
Q 2819 4750 3233 4129 
Q 3647 3509 3647 2328 
Q 3647 1150 3233 529 
Q 2819 -91 2034 -91 
Q 1250 -91 836 529 
Q 422 1150 422 2328 
Q 422 3509 836 4129 
Q 1250 4750 2034 4750 
z
" transform="scale(0.015625)"/>
       </defs>
       <use xlink:href="#DejaVuSans-30"/>
      </g>
     </g>
    </g>
    <g id="xtick_2">
     <g id="line2d_2">
      <g>
       <use xlink:href="#ma50939b92e" x="121.766761" y="288.430125" style="stroke: #000000; stroke-width: 0.8"/>
      </g>
     </g>
     <g id="text_2">
      <!-- 20 -->
      <g transform="translate(115.404261 303.028562) scale(0.1 -0.1)">
       <defs>
        <path id="DejaVuSans-32" d="M 1228 531 
L 3431 531 
L 3431 0 
L 469 0 
L 469 531 
Q 828 903 1448 1529 
Q 2069 2156 2228 2338 
Q 2531 2678 2651 2914 
Q 2772 3150 2772 3378 
Q 2772 3750 2511 3984 
Q 2250 4219 1831 4219 
Q 1534 4219 1204 4116 
Q 875 4013 500 3803 
L 500 4441 
Q 881 4594 1212 4672 
Q 1544 4750 1819 4750 
Q 2544 4750 2975 4387 
Q 3406 4025 3406 3419 
Q 3406 3131 3298 2873 
Q 3191 2616 2906 2266 
Q 2828 2175 2409 1742 
Q 1991 1309 1228 531 
z
" transform="scale(0.015625)"/>
       </defs>
       <use xlink:href="#DejaVuSans-32"/>
       <use xlink:href="#DejaVuSans-30" x="63.623047"/>
      </g>
     </g>
    </g>
    <g id="xtick_3">
     <g id="line2d_3">
      <g>
       <use xlink:href="#ma50939b92e" x="186.69767" y="288.430125" style="stroke: #000000; stroke-width: 0.8"/>
      </g>
     </g>
     <g id="text_3">
      <!-- 40 -->
      <g transform="translate(180.33517 303.028562) scale(0.1 -0.1)">
       <defs>
        <path id="DejaVuSans-34" d="M 2419 4116 
L 825 1625 
L 2419 1625 
L 2419 4116 
z
M 2253 4666 
L 3047 4666 
L 3047 1625 
L 3713 1625 
L 3713 1100 
L 3047 1100 
L 3047 0 
L 2419 0 
L 2419 1100 
L 313 1100 
L 313 1709 
L 2253 4666 
z
" transform="scale(0.015625)"/>
       </defs>
       <use xlink:href="#DejaVuSans-34"/>
       <use xlink:href="#DejaVuSans-30" x="63.623047"/>
      </g>
     </g>
    </g>
    <g id="xtick_4">
     <g id="line2d_4">
      <g>
       <use xlink:href="#ma50939b92e" x="251.62858" y="288.430125" style="stroke: #000000; stroke-width: 0.8"/>
      </g>
     </g>
     <g id="text_4">
      <!-- 60 -->
      <g transform="translate(245.26608 303.028562) scale(0.1 -0.1)">
       <defs>
        <path id="DejaVuSans-36" d="M 2113 2584 
Q 1688 2584 1439 2293 
Q 1191 2003 1191 1497 
Q 1191 994 1439 701 
Q 1688 409 2113 409 
Q 2538 409 2786 701 
Q 3034 994 3034 1497 
Q 3034 2003 2786 2293 
Q 2538 2584 2113 2584 
z
M 3366 4563 
L 3366 3988 
Q 3128 4100 2886 4159 
Q 2644 4219 2406 4219 
Q 1781 4219 1451 3797 
Q 1122 3375 1075 2522 
Q 1259 2794 1537 2939 
Q 1816 3084 2150 3084 
Q 2853 3084 3261 2657 
Q 3669 2231 3669 1497 
Q 3669 778 3244 343 
Q 2819 -91 2113 -91 
Q 1303 -91 875 529 
Q 447 1150 447 2328 
Q 447 3434 972 4092 
Q 1497 4750 2381 4750 
Q 2619 4750 2861 4703 
Q 3103 4656 3366 4563 
z
" transform="scale(0.015625)"/>
       </defs>
       <use xlink:href="#DejaVuSans-36"/>
       <use xlink:href="#DejaVuSans-30" x="63.623047"/>
      </g>
     </g>
    </g>
    <g id="xtick_5">
     <g id="line2d_5">
      <g>
       <use xlink:href="#ma50939b92e" x="316.559489" y="288.430125" style="stroke: #000000; stroke-width: 0.8"/>
      </g>
     </g>
     <g id="text_5">
      <!-- 80 -->
      <g transform="translate(310.196989 303.028562) scale(0.1 -0.1)">
       <defs>
        <path id="DejaVuSans-38" d="M 2034 2216 
Q 1584 2216 1326 1975 
Q 1069 1734 1069 1313 
Q 1069 891 1326 650 
Q 1584 409 2034 409 
Q 2484 409 2743 651 
Q 3003 894 3003 1313 
Q 3003 1734 2745 1975 
Q 2488 2216 2034 2216 
z
M 1403 2484 
Q 997 2584 770 2862 
Q 544 3141 544 3541 
Q 544 4100 942 4425 
Q 1341 4750 2034 4750 
Q 2731 4750 3128 4425 
Q 3525 4100 3525 3541 
Q 3525 3141 3298 2862 
Q 3072 2584 2669 2484 
Q 3125 2378 3379 2068 
Q 3634 1759 3634 1313 
Q 3634 634 3220 271 
Q 2806 -91 2034 -91 
Q 1263 -91 848 271 
Q 434 634 434 1313 
Q 434 1759 690 2068 
Q 947 2378 1403 2484 
z
M 1172 3481 
Q 1172 3119 1398 2916 
Q 1625 2713 2034 2713 
Q 2441 2713 2670 2916 
Q 2900 3119 2900 3481 
Q 2900 3844 2670 4047 
Q 2441 4250 2034 4250 
Q 1625 4250 1398 4047 
Q 1172 3844 1172 3481 
z
" transform="scale(0.015625)"/>
       </defs>
       <use xlink:href="#DejaVuSans-38"/>
       <use xlink:href="#DejaVuSans-30" x="63.623047"/>
      </g>
     </g>
    </g>
    <g id="xtick_6">
     <g id="line2d_6">
      <g>
       <use xlink:href="#ma50939b92e" x="381.490398" y="288.430125" style="stroke: #000000; stroke-width: 0.8"/>
      </g>
     </g>
     <g id="text_6">
      <!-- 100 -->
      <g transform="translate(371.946648 303.028562) scale(0.1 -0.1)">
       <defs>
        <path id="DejaVuSans-31" d="M 794 531 
L 1825 531 
L 1825 4091 
L 703 3866 
L 703 4441 
L 1819 4666 
L 2450 4666 
L 2450 531 
L 3481 531 
L 3481 0 
L 794 0 
L 794 531 
z
" transform="scale(0.015625)"/>
       </defs>
       <use xlink:href="#DejaVuSans-31"/>
       <use xlink:href="#DejaVuSans-30" x="63.623047"/>
       <use xlink:href="#DejaVuSans-30" x="127.246094"/>
      </g>
     </g>
    </g>
    <g id="text_7">
     <!-- Percentage -->
     <g transform="translate(191.040469 316.706687) scale(0.1 -0.1)">
      <defs>
       <path id="DejaVuSans-50" d="M 1259 4147 
L 1259 2394 
L 2053 2394 
Q 2494 2394 2734 2622 
Q 2975 2850 2975 3272 
Q 2975 3691 2734 3919 
Q 2494 4147 2053 4147 
L 1259 4147 
z
M 628 4666 
L 2053 4666 
Q 2838 4666 3239 4311 
Q 3641 3956 3641 3272 
Q 3641 2581 3239 2228 
Q 2838 1875 2053 1875 
L 1259 1875 
L 1259 0 
L 628 0 
L 628 4666 
z
" transform="scale(0.015625)"/>
       <path id="DejaVuSans-65" d="M 3597 1894 
L 3597 1613 
L 953 1613 
Q 991 1019 1311 708 
Q 1631 397 2203 397 
Q 2534 397 2845 478 
Q 3156 559 3463 722 
L 3463 178 
Q 3153 47 2828 -22 
Q 2503 -91 2169 -91 
Q 1331 -91 842 396 
Q 353 884 353 1716 
Q 353 2575 817 3079 
Q 1281 3584 2069 3584 
Q 2775 3584 3186 3129 
Q 3597 2675 3597 1894 
z
M 3022 2063 
Q 3016 2534 2758 2815 
Q 2500 3097 2075 3097 
Q 1594 3097 1305 2825 
Q 1016 2553 972 2059 
L 3022 2063 
z
" transform="scale(0.015625)"/>
       <path id="DejaVuSans-72" d="M 2631 2963 
Q 2534 3019 2420 3045 
Q 2306 3072 2169 3072 
Q 1681 3072 1420 2755 
Q 1159 2438 1159 1844 
L 1159 0 
L 581 0 
L 581 3500 
L 1159 3500 
L 1159 2956 
Q 1341 3275 1631 3429 
Q 1922 3584 2338 3584 
Q 2397 3584 2469 3576 
Q 2541 3569 2628 3553 
L 2631 2963 
z
" transform="scale(0.015625)"/>
       <path id="DejaVuSans-63" d="M 3122 3366 
L 3122 2828 
Q 2878 2963 2633 3030 
Q 2388 3097 2138 3097 
Q 1578 3097 1268 2742 
Q 959 2388 959 1747 
Q 959 1106 1268 751 
Q 1578 397 2138 397 
Q 2388 397 2633 464 
Q 2878 531 3122 666 
L 3122 134 
Q 2881 22 2623 -34 
Q 2366 -91 2075 -91 
Q 1284 -91 818 406 
Q 353 903 353 1747 
Q 353 2603 823 3093 
Q 1294 3584 2113 3584 
Q 2378 3584 2631 3529 
Q 2884 3475 3122 3366 
z
" transform="scale(0.015625)"/>
       <path id="DejaVuSans-6e" d="M 3513 2113 
L 3513 0 
L 2938 0 
L 2938 2094 
Q 2938 2591 2744 2837 
Q 2550 3084 2163 3084 
Q 1697 3084 1428 2787 
Q 1159 2491 1159 1978 
L 1159 0 
L 581 0 
L 581 3500 
L 1159 3500 
L 1159 2956 
Q 1366 3272 1645 3428 
Q 1925 3584 2291 3584 
Q 2894 3584 3203 3211 
Q 3513 2838 3513 2113 
z
" transform="scale(0.015625)"/>
       <path id="DejaVuSans-74" d="M 1172 4494 
L 1172 3500 
L 2356 3500 
L 2356 3053 
L 1172 3053 
L 1172 1153 
Q 1172 725 1289 603 
Q 1406 481 1766 481 
L 2356 481 
L 2356 0 
L 1766 0 
Q 1100 0 847 248 
Q 594 497 594 1153 
L 594 3053 
L 172 3053 
L 172 3500 
L 594 3500 
L 594 4494 
L 1172 4494 
z
" transform="scale(0.015625)"/>
       <path id="DejaVuSans-61" d="M 2194 1759 
Q 1497 1759 1228 1600 
Q 959 1441 959 1056 
Q 959 750 1161 570 
Q 1363 391 1709 391 
Q 2188 391 2477 730 
Q 2766 1069 2766 1631 
L 2766 1759 
L 2194 1759 
z
M 3341 1997 
L 3341 0 
L 2766 0 
L 2766 531 
Q 2569 213 2275 61 
Q 1981 -91 1556 -91 
Q 1019 -91 701 211 
Q 384 513 384 1019 
Q 384 1609 779 1909 
Q 1175 2209 1959 2209 
L 2766 2209 
L 2766 2266 
Q 2766 2663 2505 2880 
Q 2244 3097 1772 3097 
Q 1472 3097 1187 3025 
Q 903 2953 641 2809 
L 641 3341 
Q 956 3463 1253 3523 
Q 1550 3584 1831 3584 
Q 2591 3584 2966 3190 
Q 3341 2797 3341 1997 
z
" transform="scale(0.015625)"/>
       <path id="DejaVuSans-67" d="M 2906 1791 
Q 2906 2416 2648 2759 
Q 2391 3103 1925 3103 
Q 1463 3103 1205 2759 
Q 947 2416 947 1791 
Q 947 1169 1205 825 
Q 1463 481 1925 481 
Q 2391 481 2648 825 
Q 2906 1169 2906 1791 
z
M 3481 434 
Q 3481 -459 3084 -895 
Q 2688 -1331 1869 -1331 
Q 1566 -1331 1297 -1286 
Q 1028 -1241 775 -1147 
L 775 -588 
Q 1028 -725 1275 -790 
Q 1522 -856 1778 -856 
Q 2344 -856 2625 -561 
Q 2906 -266 2906 331 
L 2906 616 
Q 2728 306 2450 153 
Q 2172 0 1784 0 
Q 1141 0 747 490 
Q 353 981 353 1791 
Q 353 2603 747 3093 
Q 1141 3584 1784 3584 
Q 2172 3584 2450 3431 
Q 2728 3278 2906 2969 
L 2906 3500 
L 3481 3500 
L 3481 434 
z
" transform="scale(0.015625)"/>
      </defs>
      <use xlink:href="#DejaVuSans-50"/>
      <use xlink:href="#DejaVuSans-65" x="56.677734"/>
      <use xlink:href="#DejaVuSans-72" x="118.201172"/>
      <use xlink:href="#DejaVuSans-63" x="157.064453"/>
      <use xlink:href="#DejaVuSans-65" x="212.044922"/>
      <use xlink:href="#DejaVuSans-6e" x="273.568359"/>
      <use xlink:href="#DejaVuSans-74" x="336.947266"/>
      <use xlink:href="#DejaVuSans-61" x="376.15625"/>
      <use xlink:href="#DejaVuSans-67" x="437.435547"/>
      <use xlink:href="#DejaVuSans-65" x="500.912109"/>
     </g>
    </g>
   </g>
   <g id="matplotlib.axis_2">
    <g id="ytick_1">
     <g id="line2d_7">
      <defs>
       <path id="m5435a52e13" d="M 0 0 
L -3.5 0 
" style="stroke: #000000; stroke-width: 0.8"/>
      </defs>
      <g>
       <use xlink:href="#m5435a52e13" x="40.603125" y="272.806516" style="stroke: #000000; stroke-width: 0.8"/>
      </g>
     </g>
     <g id="text_8">
      <!-- 5 -->
      <g transform="translate(27.240625 276.605735) scale(0.1 -0.1)">
       <defs>
        <path id="DejaVuSans-35" d="M 691 4666 
L 3169 4666 
L 3169 4134 
L 1269 4134 
L 1269 2991 
Q 1406 3038 1543 3061 
Q 1681 3084 1819 3084 
Q 2600 3084 3056 2656 
Q 3513 2228 3513 1497 
Q 3513 744 3044 326 
Q 2575 -91 1722 -91 
Q 1428 -91 1123 -41 
Q 819 9 494 109 
L 494 744 
Q 775 591 1075 516 
Q 1375 441 1709 441 
Q 2250 441 2565 725 
Q 2881 1009 2881 1497 
Q 2881 1984 2565 2268 
Q 2250 2553 1709 2553 
Q 1456 2553 1204 2497 
Q 953 2441 691 2322 
L 691 4666 
z
" transform="scale(0.015625)"/>
       </defs>
       <use xlink:href="#DejaVuSans-35"/>
      </g>
     </g>
    </g>
    <g id="ytick_2">
     <g id="line2d_8">
      <g>
       <use xlink:href="#m5435a52e13" x="40.603125" y="231.241608" style="stroke: #000000; stroke-width: 0.8"/>
      </g>
     </g>
     <g id="text_9">
      <!-- 10 -->
      <g transform="translate(20.878125 235.040826) scale(0.1 -0.1)">
       <use xlink:href="#DejaVuSans-31"/>
       <use xlink:href="#DejaVuSans-30" x="63.623047"/>
      </g>
     </g>
    </g>
    <g id="ytick_3">
     <g id="line2d_9">
      <g>
       <use xlink:href="#m5435a52e13" x="40.603125" y="189.676699" style="stroke: #000000; stroke-width: 0.8"/>
      </g>
     </g>
     <g id="text_10">
      <!-- 15 -->
      <g transform="translate(20.878125 193.475918) scale(0.1 -0.1)">
       <use xlink:href="#DejaVuSans-31"/>
       <use xlink:href="#DejaVuSans-35" x="63.623047"/>
      </g>
     </g>
    </g>
    <g id="ytick_4">
     <g id="line2d_10">
      <g>
       <use xlink:href="#m5435a52e13" x="40.603125" y="148.111791" style="stroke: #000000; stroke-width: 0.8"/>
      </g>
     </g>
     <g id="text_11">
      <!-- 20 -->
      <g transform="translate(20.878125 151.91101) scale(0.1 -0.1)">
       <use xlink:href="#DejaVuSans-32"/>
       <use xlink:href="#DejaVuSans-30" x="63.623047"/>
      </g>
     </g>
    </g>
    <g id="ytick_5">
     <g id="line2d_11">
      <g>
       <use xlink:href="#m5435a52e13" x="40.603125" y="106.546882" style="stroke: #000000; stroke-width: 0.8"/>
      </g>
     </g>
     <g id="text_12">
      <!-- 25 -->
      <g transform="translate(20.878125 110.346101) scale(0.1 -0.1)">
       <use xlink:href="#DejaVuSans-32"/>
       <use xlink:href="#DejaVuSans-35" x="63.623047"/>
      </g>
     </g>
    </g>
    <g id="ytick_6">
     <g id="line2d_12">
      <g>
       <use xlink:href="#m5435a52e13" x="40.603125" y="64.981974" style="stroke: #000000; stroke-width: 0.8"/>
      </g>
     </g>
     <g id="text_13">
      <!-- 30 -->
      <g transform="translate(20.878125 68.781193) scale(0.1 -0.1)">
       <defs>
        <path id="DejaVuSans-33" d="M 2597 2516 
Q 3050 2419 3304 2112 
Q 3559 1806 3559 1356 
Q 3559 666 3084 287 
Q 2609 -91 1734 -91 
Q 1441 -91 1130 -33 
Q 819 25 488 141 
L 488 750 
Q 750 597 1062 519 
Q 1375 441 1716 441 
Q 2309 441 2620 675 
Q 2931 909 2931 1356 
Q 2931 1769 2642 2001 
Q 2353 2234 1838 2234 
L 1294 2234 
L 1294 2753 
L 1863 2753 
Q 2328 2753 2575 2939 
Q 2822 3125 2822 3475 
Q 2822 3834 2567 4026 
Q 2313 4219 1838 4219 
Q 1578 4219 1281 4162 
Q 984 4106 628 3988 
L 628 4550 
Q 988 4650 1302 4700 
Q 1616 4750 1894 4750 
Q 2613 4750 3031 4423 
Q 3450 4097 3450 3541 
Q 3450 3153 3228 2886 
Q 3006 2619 2597 2516 
z
" transform="scale(0.015625)"/>
       </defs>
       <use xlink:href="#DejaVuSans-33"/>
       <use xlink:href="#DejaVuSans-30" x="63.623047"/>
      </g>
     </g>
    </g>
    <g id="ytick_7">
     <g id="line2d_13">
      <g>
       <use xlink:href="#m5435a52e13" x="40.603125" y="23.417065" style="stroke: #000000; stroke-width: 0.8"/>
      </g>
     </g>
     <g id="text_14">
      <!-- 35 -->
      <g transform="translate(20.878125 27.216284) scale(0.1 -0.1)">
       <use xlink:href="#DejaVuSans-33"/>
       <use xlink:href="#DejaVuSans-35" x="63.623047"/>
      </g>
     </g>
    </g>
    <g id="text_15">
     <!-- y (pixel) -->
     <g transform="translate(14.798438 175.656156) rotate(-90) scale(0.1 -0.1)">
      <defs>
       <path id="DejaVuSans-79" d="M 2059 -325 
Q 1816 -950 1584 -1140 
Q 1353 -1331 966 -1331 
L 506 -1331 
L 506 -850 
L 844 -850 
Q 1081 -850 1212 -737 
Q 1344 -625 1503 -206 
L 1606 56 
L 191 3500 
L 800 3500 
L 1894 763 
L 2988 3500 
L 3597 3500 
L 2059 -325 
z
" transform="scale(0.015625)"/>
       <path id="DejaVuSans-20" transform="scale(0.015625)"/>
       <path id="DejaVuSans-28" d="M 1984 4856 
Q 1566 4138 1362 3434 
Q 1159 2731 1159 2009 
Q 1159 1288 1364 580 
Q 1569 -128 1984 -844 
L 1484 -844 
Q 1016 -109 783 600 
Q 550 1309 550 2009 
Q 550 2706 781 3412 
Q 1013 4119 1484 4856 
L 1984 4856 
z
" transform="scale(0.015625)"/>
       <path id="DejaVuSans-70" d="M 1159 525 
L 1159 -1331 
L 581 -1331 
L 581 3500 
L 1159 3500 
L 1159 2969 
Q 1341 3281 1617 3432 
Q 1894 3584 2278 3584 
Q 2916 3584 3314 3078 
Q 3713 2572 3713 1747 
Q 3713 922 3314 415 
Q 2916 -91 2278 -91 
Q 1894 -91 1617 61 
Q 1341 213 1159 525 
z
M 3116 1747 
Q 3116 2381 2855 2742 
Q 2594 3103 2138 3103 
Q 1681 3103 1420 2742 
Q 1159 2381 1159 1747 
Q 1159 1113 1420 752 
Q 1681 391 2138 391 
Q 2594 391 2855 752 
Q 3116 1113 3116 1747 
z
" transform="scale(0.015625)"/>
       <path id="DejaVuSans-69" d="M 603 3500 
L 1178 3500 
L 1178 0 
L 603 0 
L 603 3500 
z
M 603 4863 
L 1178 4863 
L 1178 4134 
L 603 4134 
L 603 4863 
z
" transform="scale(0.015625)"/>
       <path id="DejaVuSans-78" d="M 3513 3500 
L 2247 1797 
L 3578 0 
L 2900 0 
L 1881 1375 
L 863 0 
L 184 0 
L 1544 1831 
L 300 3500 
L 978 3500 
L 1906 2253 
L 2834 3500 
L 3513 3500 
z
" transform="scale(0.015625)"/>
       <path id="DejaVuSans-6c" d="M 603 4863 
L 1178 4863 
L 1178 0 
L 603 0 
L 603 4863 
z
" transform="scale(0.015625)"/>
       <path id="DejaVuSans-29" d="M 513 4856 
L 1013 4856 
Q 1481 4119 1714 3412 
Q 1947 2706 1947 2009 
Q 1947 1309 1714 600 
Q 1481 -109 1013 -844 
L 513 -844 
Q 928 -128 1133 580 
Q 1338 1288 1338 2009 
Q 1338 2731 1133 3434 
Q 928 4138 513 4856 
z
" transform="scale(0.015625)"/>
      </defs>
      <use xlink:href="#DejaVuSans-79"/>
      <use xlink:href="#DejaVuSans-20" x="59.179688"/>
      <use xlink:href="#DejaVuSans-28" x="90.966797"/>
      <use xlink:href="#DejaVuSans-70" x="129.980469"/>
      <use xlink:href="#DejaVuSans-69" x="193.457031"/>
      <use xlink:href="#DejaVuSans-78" x="221.240234"/>
      <use xlink:href="#DejaVuSans-65" x="277.294922"/>
      <use xlink:href="#DejaVuSans-6c" x="338.818359"/>
      <use xlink:href="#DejaVuSans-29" x="366.601562"/>
     </g>
    </g>
   </g>
   <g id="line2d_14">
    <path d="M 56.835852 70.872295 
L 70.363125 70.419205 
L 83.890398 69.85576 
L 97.41767 70.022835 
L 110.944943 69.810823 
L 124.472216 69.641952 
L 137.999489 70.006432 
L 151.526761 70.089289 
L 165.054034 69.30335 
L 178.581307 68.727924 
L 192.10858 68.59865 
L 205.635852 68.400051 
L 219.163125 67.931988 
L 232.690398 67.103837 
L 246.21767 67.093849 
L 259.744943 67.189506 
L 273.272216 67.946289 
L 286.799489 68.54638 
L 300.326761 69.085357 
L 313.854034 69.262727 
L 327.381307 69.200764 
L 340.90858 69.405858 
L 354.435852 69.286473 
L 367.963125 69.454101 
L 381.490398 69.427907 
" clip-path="url(#pd8d2194fec)" style="fill: none; stroke: #46327e; stroke-width: 1.5; stroke-linecap: square"/>
   </g>
   <g id="line2d_15">
    <path d="M 56.835852 90.527222 
L 70.363125 90.180774 
L 83.890398 89.749476 
L 97.41767 89.614172 
L 110.944943 88.967595 
L 124.472216 88.230936 
L 137.999489 87.514244 
L 151.526761 86.882462 
L 165.054034 86.038213 
L 178.581307 85.627612 
L 192.10858 85.650085 
L 205.635852 85.601792 
L 219.163125 85.066822 
L 232.690398 84.472278 
L 246.21767 84.254719 
L 259.744943 84.276976 
L 273.272216 84.693223 
L 286.799489 84.94571 
L 300.326761 85.170731 
L 313.854034 85.418442 
L 327.381307 85.637096 
L 340.90858 85.823418 
L 354.435852 85.848349 
L 367.963125 86.020221 
L 381.490398 86.293395 
" clip-path="url(#pd8d2194fec)" style="fill: none; stroke: #365c8d; stroke-width: 1.5; stroke-linecap: square"/>
   </g>
   <g id="line2d_16">
    <path d="M 56.835852 129.3814 
L 70.363125 129.314059 
L 83.890398 129.12909 
L 97.41767 128.622831 
L 110.944943 127.545942 
L 124.472216 126.391123 
L 137.999489 125.01827 
L 151.526761 123.652553 
L 165.054034 122.980946 
L 178.581307 122.830265 
L 192.10858 123.009272 
L 205.635852 123.159904 
L 219.163125 122.966398 
L 232.690398 122.576868 
L 246.21767 122.385346 
L 259.744943 122.385583 
L 273.272216 122.276789 
L 286.799489 122.262596 
L 300.326761 122.410632 
L 313.854034 122.548967 
L 327.381307 122.869388 
L 340.90858 123.098347 
L 354.435852 123.229496 
L 367.963125 123.259717 
L 381.490398 123.496394 
" clip-path="url(#pd8d2194fec)" style="fill: none; stroke: #277f8e; stroke-width: 1.5; stroke-linecap: square"/>
   </g>
   <g id="line2d_17">
    <path d="M 56.835852 160.704959 
L 70.363125 160.872075 
L 83.890398 160.818929 
L 97.41767 160.755615 
L 110.944943 160.600549 
L 124.472216 160.709289 
L 137.999489 160.988146 
L 151.526761 161.214227 
L 165.054034 161.509489 
L 178.581307 161.607628 
L 192.10858 161.80411 
L 205.635852 161.735735 
L 219.163125 161.627245 
L 232.690398 161.432302 
L 246.21767 161.532159 
L 259.744943 161.450245 
L 273.272216 161.192668 
L 286.799489 161.319646 
L 300.326761 161.529586 
L 313.854034 161.811453 
L 327.381307 162.025955 
L 340.90858 162.236864 
L 354.435852 162.323603 
L 367.963125 162.246191 
L 381.490398 162.206397 
" clip-path="url(#pd8d2194fec)" style="fill: none; stroke: #1fa187; stroke-width: 1.5; stroke-linecap: square"/>
   </g>
   <g id="line2d_18">
    <path d="M 56.835852 221.088626 
L 70.363125 221.346364 
L 83.890398 221.443265 
L 97.41767 221.315383 
L 110.944943 220.949027 
L 124.472216 220.772714 
L 137.999489 220.590242 
L 151.526761 220.339363 
L 165.054034 220.241011 
L 178.581307 220.117343 
L 192.10858 220.034013 
L 205.635852 219.946735 
L 219.163125 219.851018 
L 232.690398 219.424684 
L 246.21767 219.12342 
L 259.744943 218.97948 
L 273.272216 218.742063 
L 286.799489 218.661782 
L 300.326761 218.715513 
L 313.854034 218.934917 
L 327.381307 219.189399 
L 340.90858 219.30678 
L 354.435852 219.499871 
L 367.963125 219.56519 
L 381.490398 219.606248 
" clip-path="url(#pd8d2194fec)" style="fill: none; stroke: #4ac16d; stroke-width: 1.5; stroke-linecap: square"/>
   </g>
   <g id="line2d_19">
    <path d="M 56.835852 273.029954 
L 70.363125 273.050868 
L 83.890398 272.912119 
L 97.41767 272.688866 
L 110.944943 272.576854 
L 124.472216 272.611359 
L 137.999489 272.850956 
L 151.526761 272.992597 
L 165.054034 273.12876 
L 178.581307 273.10377 
L 192.10858 273.068545 
L 205.635852 273.058913 
L 219.163125 273.009356 
L 232.690398 272.814863 
L 246.21767 272.640878 
L 259.744943 272.573212 
L 273.272216 272.404153 
L 286.799489 272.307992 
L 300.326761 272.357439 
L 313.854034 272.512267 
L 327.381307 272.619333 
L 340.90858 272.795933 
L 354.435852 272.901144 
L 367.963125 272.95596 
L 381.490398 272.952448 
" clip-path="url(#pd8d2194fec)" style="fill: none; stroke: #a0da39; stroke-width: 1.5; stroke-linecap: square"/>
   </g>
   <g id="patch_3">
    <path d="M 40.603125 288.430125 
L 40.603125 22.318125 
" style="fill: none; stroke: #000000; stroke-width: 0.8; stroke-linejoin: miter; stroke-linecap: square"/>
   </g>
   <g id="patch_4">
    <path d="M 397.723125 288.430125 
L 397.723125 22.318125 
" style="fill: none; stroke: #000000; stroke-width: 0.8; stroke-linejoin: miter; stroke-linecap: square"/>
   </g>
   <g id="patch_5">
    <path d="M 40.603125 288.430125 
L 397.723125 288.430125 
" style="fill: none; stroke: #000000; stroke-width: 0.8; stroke-linejoin: miter; stroke-linecap: square"/>
   </g>
   <g id="patch_6">
    <path d="M 40.603125 22.318125 
L 397.723125 22.318125 
" style="fill: none; stroke: #000000; stroke-width: 0.8; stroke-linejoin: miter; stroke-linecap: square"/>
   </g>
   <g id="text_16">
    <!-- WT - Joint Y over average step cycle -->
    <g transform="translate(110.693438 16.318125) scale(0.12 -0.12)">
     <defs>
      <path id="DejaVuSans-57" d="M 213 4666 
L 850 4666 
L 1831 722 
L 2809 4666 
L 3519 4666 
L 4500 722 
L 5478 4666 
L 6119 4666 
L 4947 0 
L 4153 0 
L 3169 4050 
L 2175 0 
L 1381 0 
L 213 4666 
z
" transform="scale(0.015625)"/>
      <path id="DejaVuSans-54" d="M -19 4666 
L 3928 4666 
L 3928 4134 
L 2272 4134 
L 2272 0 
L 1638 0 
L 1638 4134 
L -19 4134 
L -19 4666 
z
" transform="scale(0.015625)"/>
      <path id="DejaVuSans-2d" d="M 313 2009 
L 1997 2009 
L 1997 1497 
L 313 1497 
L 313 2009 
z
" transform="scale(0.015625)"/>
      <path id="DejaVuSans-4a" d="M 628 4666 
L 1259 4666 
L 1259 325 
Q 1259 -519 939 -900 
Q 619 -1281 -91 -1281 
L -331 -1281 
L -331 -750 
L -134 -750 
Q 284 -750 456 -515 
Q 628 -281 628 325 
L 628 4666 
z
" transform="scale(0.015625)"/>
      <path id="DejaVuSans-6f" d="M 1959 3097 
Q 1497 3097 1228 2736 
Q 959 2375 959 1747 
Q 959 1119 1226 758 
Q 1494 397 1959 397 
Q 2419 397 2687 759 
Q 2956 1122 2956 1747 
Q 2956 2369 2687 2733 
Q 2419 3097 1959 3097 
z
M 1959 3584 
Q 2709 3584 3137 3096 
Q 3566 2609 3566 1747 
Q 3566 888 3137 398 
Q 2709 -91 1959 -91 
Q 1206 -91 779 398 
Q 353 888 353 1747 
Q 353 2609 779 3096 
Q 1206 3584 1959 3584 
z
" transform="scale(0.015625)"/>
      <path id="DejaVuSans-59" d="M -13 4666 
L 666 4666 
L 1959 2747 
L 3244 4666 
L 3922 4666 
L 2272 2222 
L 2272 0 
L 1638 0 
L 1638 2222 
L -13 4666 
z
" transform="scale(0.015625)"/>
      <path id="DejaVuSans-76" d="M 191 3500 
L 800 3500 
L 1894 563 
L 2988 3500 
L 3597 3500 
L 2284 0 
L 1503 0 
L 191 3500 
z
" transform="scale(0.015625)"/>
      <path id="DejaVuSans-73" d="M 2834 3397 
L 2834 2853 
Q 2591 2978 2328 3040 
Q 2066 3103 1784 3103 
Q 1356 3103 1142 2972 
Q 928 2841 928 2578 
Q 928 2378 1081 2264 
Q 1234 2150 1697 2047 
L 1894 2003 
Q 2506 1872 2764 1633 
Q 3022 1394 3022 966 
Q 3022 478 2636 193 
Q 2250 -91 1575 -91 
Q 1294 -91 989 -36 
Q 684 19 347 128 
L 347 722 
Q 666 556 975 473 
Q 1284 391 1588 391 
Q 1994 391 2212 530 
Q 2431 669 2431 922 
Q 2431 1156 2273 1281 
Q 2116 1406 1581 1522 
L 1381 1569 
Q 847 1681 609 1914 
Q 372 2147 372 2553 
Q 372 3047 722 3315 
Q 1072 3584 1716 3584 
Q 2034 3584 2315 3537 
Q 2597 3491 2834 3397 
z
" transform="scale(0.015625)"/>
     </defs>
     <use xlink:href="#DejaVuSans-57"/>
     <use xlink:href="#DejaVuSans-54" x="98.876953"/>
     <use xlink:href="#DejaVuSans-20" x="159.960938"/>
     <use xlink:href="#DejaVuSans-2d" x="191.748047"/>
     <use xlink:href="#DejaVuSans-20" x="227.832031"/>
     <use xlink:href="#DejaVuSans-4a" x="259.619141"/>
     <use xlink:href="#DejaVuSans-6f" x="289.111328"/>
     <use xlink:href="#DejaVuSans-69" x="350.292969"/>
     <use xlink:href="#DejaVuSans-6e" x="378.076172"/>
     <use xlink:href="#DejaVuSans-74" x="441.455078"/>
     <use xlink:href="#DejaVuSans-20" x="480.664062"/>
     <use xlink:href="#DejaVuSans-59" x="512.451172"/>
     <use xlink:href="#DejaVuSans-20" x="573.535156"/>
     <use xlink:href="#DejaVuSans-6f" x="605.322266"/>
     <use xlink:href="#DejaVuSans-76" x="666.503906"/>
     <use xlink:href="#DejaVuSans-65" x="725.683594"/>
     <use xlink:href="#DejaVuSans-72" x="787.207031"/>
     <use xlink:href="#DejaVuSans-20" x="828.320312"/>
     <use xlink:href="#DejaVuSans-61" x="860.107422"/>
     <use xlink:href="#DejaVuSans-76" x="921.386719"/>
     <use xlink:href="#DejaVuSans-65" x="980.566406"/>
     <use xlink:href="#DejaVuSans-72" x="1042.089844"/>
     <use xlink:href="#DejaVuSans-61" x="1083.203125"/>
     <use xlink:href="#DejaVuSans-67" x="1144.482422"/>
     <use xlink:href="#DejaVuSans-65" x="1207.958984"/>
     <use xlink:href="#DejaVuSans-20" x="1269.482422"/>
     <use xlink:href="#DejaVuSans-73" x="1301.269531"/>
     <use xlink:href="#DejaVuSans-74" x="1353.369141"/>
     <use xlink:href="#DejaVuSans-65" x="1392.578125"/>
     <use xlink:href="#DejaVuSans-70" x="1454.101562"/>
     <use xlink:href="#DejaVuSans-20" x="1517.578125"/>
     <use xlink:href="#DejaVuSans-63" x="1549.365234"/>
     <use xlink:href="#DejaVuSans-79" x="1604.345703"/>
     <use xlink:href="#DejaVuSans-63" x="1663.525391"/>
     <use xlink:href="#DejaVuSans-6c" x="1718.505859"/>
     <use xlink:href="#DejaVuSans-65" x="1746.289062"/>
    </g>
   </g>
   <g id="legend_1">
    <g id="patch_7">
     <path d="M 302.440313 118.386875 
L 390.723125 118.386875 
Q 392.723125 118.386875 392.723125 116.386875 
L 392.723125 29.318125 
Q 392.723125 27.318125 390.723125 27.318125 
L 302.440313 27.318125 
Q 300.440313 27.318125 300.440313 29.318125 
L 300.440313 116.386875 
Q 300.440313 118.386875 302.440313 118.386875 
z
" style="fill: #ffffff; opacity: 0.8; stroke: #cccccc; stroke-linejoin: miter"/>
    </g>
    <g id="line2d_20">
     <path d="M 304.440313 35.416562 
L 314.440313 35.416562 
L 324.440313 35.416562 
" style="fill: none; stroke: #46327e; stroke-width: 1.5; stroke-linecap: square"/>
    </g>
    <g id="text_17">
     <!-- ToeTip  -->
     <g transform="translate(332.440313 38.916562) scale(0.1 -0.1)">
      <use xlink:href="#DejaVuSans-54"/>
      <use xlink:href="#DejaVuSans-6f" x="44.083984"/>
      <use xlink:href="#DejaVuSans-65" x="105.265625"/>
      <use xlink:href="#DejaVuSans-54" x="166.789062"/>
      <use xlink:href="#DejaVuSans-69" x="224.748047"/>
      <use xlink:href="#DejaVuSans-70" x="252.53125"/>
      <use xlink:href="#DejaVuSans-20" x="316.007812"/>
     </g>
    </g>
    <g id="line2d_21">
     <path d="M 304.440313 50.094688 
L 314.440313 50.094688 
L 324.440313 50.094688 
" style="fill: none; stroke: #365c8d; stroke-width: 1.5; stroke-linecap: square"/>
    </g>
    <g id="text_18">
     <!-- Metatarsal  -->
     <g transform="translate(332.440313 53.594688) scale(0.1 -0.1)">
      <defs>
       <path id="DejaVuSans-4d" d="M 628 4666 
L 1569 4666 
L 2759 1491 
L 3956 4666 
L 4897 4666 
L 4897 0 
L 4281 0 
L 4281 4097 
L 3078 897 
L 2444 897 
L 1241 4097 
L 1241 0 
L 628 0 
L 628 4666 
z
" transform="scale(0.015625)"/>
      </defs>
      <use xlink:href="#DejaVuSans-4d"/>
      <use xlink:href="#DejaVuSans-65" x="86.279297"/>
      <use xlink:href="#DejaVuSans-74" x="147.802734"/>
      <use xlink:href="#DejaVuSans-61" x="187.011719"/>
      <use xlink:href="#DejaVuSans-74" x="248.291016"/>
      <use xlink:href="#DejaVuSans-61" x="287.5"/>
      <use xlink:href="#DejaVuSans-72" x="348.779297"/>
      <use xlink:href="#DejaVuSans-73" x="389.892578"/>
      <use xlink:href="#DejaVuSans-61" x="441.992188"/>
      <use xlink:href="#DejaVuSans-6c" x="503.271484"/>
      <use xlink:href="#DejaVuSans-20" x="531.054688"/>
     </g>
    </g>
    <g id="line2d_22">
     <path d="M 304.440313 64.772812 
L 314.440313 64.772812 
L 324.440313 64.772812 
" style="fill: none; stroke: #277f8e; stroke-width: 1.5; stroke-linecap: square"/>
    </g>
    <g id="text_19">
     <!-- Ankle  -->
     <g transform="translate(332.440313 68.272812) scale(0.1 -0.1)">
      <defs>
       <path id="DejaVuSans-41" d="M 2188 4044 
L 1331 1722 
L 3047 1722 
L 2188 4044 
z
M 1831 4666 
L 2547 4666 
L 4325 0 
L 3669 0 
L 3244 1197 
L 1141 1197 
L 716 0 
L 50 0 
L 1831 4666 
z
" transform="scale(0.015625)"/>
       <path id="DejaVuSans-6b" d="M 581 4863 
L 1159 4863 
L 1159 1991 
L 2875 3500 
L 3609 3500 
L 1753 1863 
L 3688 0 
L 2938 0 
L 1159 1709 
L 1159 0 
L 581 0 
L 581 4863 
z
" transform="scale(0.015625)"/>
      </defs>
      <use xlink:href="#DejaVuSans-41"/>
      <use xlink:href="#DejaVuSans-6e" x="68.408203"/>
      <use xlink:href="#DejaVuSans-6b" x="131.787109"/>
      <use xlink:href="#DejaVuSans-6c" x="189.697266"/>
      <use xlink:href="#DejaVuSans-65" x="217.480469"/>
      <use xlink:href="#DejaVuSans-20" x="279.003906"/>
     </g>
    </g>
    <g id="line2d_23">
     <path d="M 304.440313 79.450938 
L 314.440313 79.450938 
L 324.440313 79.450938 
" style="fill: none; stroke: #1fa187; stroke-width: 1.5; stroke-linecap: square"/>
    </g>
    <g id="text_20">
     <!-- Knee  -->
     <g transform="translate(332.440313 82.950938) scale(0.1 -0.1)">
      <defs>
       <path id="DejaVuSans-4b" d="M 628 4666 
L 1259 4666 
L 1259 2694 
L 3353 4666 
L 4166 4666 
L 1850 2491 
L 4331 0 
L 3500 0 
L 1259 2247 
L 1259 0 
L 628 0 
L 628 4666 
z
" transform="scale(0.015625)"/>
      </defs>
      <use xlink:href="#DejaVuSans-4b"/>
      <use xlink:href="#DejaVuSans-6e" x="65.576172"/>
      <use xlink:href="#DejaVuSans-65" x="128.955078"/>
      <use xlink:href="#DejaVuSans-65" x="190.478516"/>
      <use xlink:href="#DejaVuSans-20" x="252.001953"/>
     </g>
    </g>
    <g id="line2d_24">
     <path d="M 304.440313 94.129063 
L 314.440313 94.129063 
L 324.440313 94.129063 
" style="fill: none; stroke: #4ac16d; stroke-width: 1.5; stroke-linecap: square"/>
    </g>
    <g id="text_21">
     <!-- Hip  -->
     <g transform="translate(332.440313 97.629063) scale(0.1 -0.1)">
      <defs>
       <path id="DejaVuSans-48" d="M 628 4666 
L 1259 4666 
L 1259 2753 
L 3553 2753 
L 3553 4666 
L 4184 4666 
L 4184 0 
L 3553 0 
L 3553 2222 
L 1259 2222 
L 1259 0 
L 628 0 
L 628 4666 
z
" transform="scale(0.015625)"/>
      </defs>
      <use xlink:href="#DejaVuSans-48"/>
      <use xlink:href="#DejaVuSans-69" x="75.195312"/>
      <use xlink:href="#DejaVuSans-70" x="102.978516"/>
      <use xlink:href="#DejaVuSans-20" x="166.455078"/>
     </g>
    </g>
    <g id="line2d_25">
     <path d="M 304.440313 108.807187 
L 314.440313 108.807187 
L 324.440313 108.807187 
" style="fill: none; stroke: #a0da39; stroke-width: 1.5; stroke-linecap: square"/>
    </g>
    <g id="text_22">
     <!-- Crest  -->
     <g transform="translate(332.440313 112.307187) scale(0.1 -0.1)">
      <defs>
       <path id="DejaVuSans-43" d="M 4122 4306 
L 4122 3641 
Q 3803 3938 3442 4084 
Q 3081 4231 2675 4231 
Q 1875 4231 1450 3742 
Q 1025 3253 1025 2328 
Q 1025 1406 1450 917 
Q 1875 428 2675 428 
Q 3081 428 3442 575 
Q 3803 722 4122 1019 
L 4122 359 
Q 3791 134 3420 21 
Q 3050 -91 2638 -91 
Q 1578 -91 968 557 
Q 359 1206 359 2328 
Q 359 3453 968 4101 
Q 1578 4750 2638 4750 
Q 3056 4750 3426 4639 
Q 3797 4528 4122 4306 
z
" transform="scale(0.015625)"/>
      </defs>
      <use xlink:href="#DejaVuSans-43"/>
      <use xlink:href="#DejaVuSans-72" x="69.824219"/>
      <use xlink:href="#DejaVuSans-65" x="108.6875"/>
      <use xlink:href="#DejaVuSans-73" x="170.210938"/>
      <use xlink:href="#DejaVuSans-74" x="222.310547"/>
      <use xlink:href="#DejaVuSans-20" x="261.519531"/>
     </g>
    </g>
   </g>
  </g>
 </g>
 <defs>
  <clipPath id="pd8d2194fec">
   <rect x="40.603125" y="22.318125" width="357.12" height="266.112"/>
  </clipPath>
 </defs>
</svg>
