<?xml version="1.0" encoding="utf-8" standalone="no"?>
<!DOCTYPE svg PUBLIC "-//W3C//DTD SVG 1.1//EN"
  "http://www.w3.org/Graphics/SVG/1.1/DTD/svg11.dtd">
<svg xmlns:xlink="http://www.w3.org/1999/xlink" width="404.923125pt" height="325.986375pt" viewBox="0 0 404.923125 325.986375" xmlns="http://www.w3.org/2000/svg" version="1.1">
 <metadata>
  <rdf:RDF xmlns:dc="http://purl.org/dc/elements/1.1/" xmlns:cc="http://creativecommons.org/ns#" xmlns:rdf="http://www.w3.org/1999/02/22-rdf-syntax-ns#">
   <cc:Work>
    <dc:type rdf:resource="http://purl.org/dc/dcmitype/StillImage"/>
    <dc:date>2024-08-08T17:49:43.207923</dc:date>
    <dc:format>image/svg+xml</dc:format>
    <dc:creator>
     <cc:Agent>
      <dc:title>Matplotlib v3.8.4, https://matplotlib.org/</dc:title>
     </cc:Agent>
    </dc:creator>
   </cc:Work>
  </rdf:RDF>
 </metadata>
 <defs>
  <style type="text/css">*{stroke-linejoin: round; stroke-linecap: butt}</style>
 </defs>
 <g id="figure_1">
  <g id="patch_1">
   <path d="M 0 325.986375 
L 404.923125 325.986375 
L 404.923125 0 
L 0 0 
z
" style="fill: #ffffff"/>
  </g>
  <g id="axes_1">
   <g id="patch_2">
    <path d="M 40.603125 288.430125 
L 397.723125 288.430125 
L 397.723125 22.318125 
L 40.603125 22.318125 
z
" style="fill: #ffffff"/>
   </g>
   <g id="PolyCollection_1">
    <path d="M 56.835852 249.029822 
L 56.835852 263.760669 
L 70.363125 266.124373 
L 83.890398 268.301121 
L 97.41767 271.08402 
L 110.944943 274.021354 
L 124.472216 276.334125 
L 137.999489 275.099208 
L 151.526761 269.410467 
L 165.054034 263.204338 
L 178.581307 258.363507 
L 192.10858 254.152212 
L 205.635852 250.589911 
L 219.163125 247.994096 
L 232.690398 246.409572 
L 246.21767 245.783673 
L 259.744943 245.78261 
L 273.272216 246.121178 
L 286.799489 246.879866 
L 300.326761 247.949475 
L 313.854034 249.297938 
L 327.381307 251.231342 
L 340.90858 253.866336 
L 354.435852 256.876325 
L 367.963125 259.600747 
L 381.490398 262.079288 
L 381.490398 245.260282 
L 381.490398 245.260282 
L 367.963125 243.261362 
L 354.435852 242.528691 
L 340.90858 242.034749 
L 327.381307 241.847984 
L 313.854034 241.840357 
L 300.326761 241.45485 
L 286.799489 241.170456 
L 273.272216 241.246237 
L 259.744943 241.529799 
L 246.21767 241.502499 
L 232.690398 241.864128 
L 219.163125 242.803885 
L 205.635852 243.903967 
L 192.10858 245.673384 
L 178.581307 248.669436 
L 165.054034 252.501583 
L 151.526761 257.684614 
L 137.999489 262.706311 
L 124.472216 265.254069 
L 110.944943 264.798333 
L 97.41767 262.590706 
L 83.890398 259.34714 
L 70.363125 254.240957 
L 56.835852 249.029822 
z
" clip-path="url(#p219f7e9f73)" style="fill: #46327e; fill-opacity: 0.2"/>
   </g>
   <g id="PolyCollection_2">
    <path d="M 56.835852 204.212583 
L 56.835852 234.750405 
L 70.363125 237.822039 
L 83.890398 236.408981 
L 97.41767 232.093987 
L 110.944943 227.817873 
L 124.472216 224.804882 
L 137.999489 221.568423 
L 151.526761 217.083337 
L 165.054034 213.287707 
L 178.581307 211.364647 
L 192.10858 209.887235 
L 205.635852 209.374875 
L 219.163125 209.494119 
L 232.690398 209.918262 
L 246.21767 210.642711 
L 259.744943 211.8061 
L 273.272216 213.204172 
L 286.799489 214.67108 
L 300.326761 215.985536 
L 313.854034 217.485882 
L 327.381307 219.405139 
L 340.90858 222.386222 
L 354.435852 226.118708 
L 367.963125 229.761145 
L 381.490398 232.406548 
L 381.490398 197.821692 
L 381.490398 197.821692 
L 367.963125 194.984233 
L 354.435852 193.137362 
L 340.90858 191.461897 
L 327.381307 189.602597 
L 313.854034 188.04478 
L 300.326761 186.419293 
L 286.799489 184.90107 
L 273.272216 183.774132 
L 259.744943 182.38877 
L 246.21767 180.683232 
L 232.690398 179.236081 
L 219.163125 179.012528 
L 205.635852 179.131076 
L 192.10858 180.518183 
L 178.581307 183.297112 
L 165.054034 187.540254 
L 151.526761 193.770889 
L 137.999489 201.033038 
L 124.472216 207.11078 
L 110.944943 210.580153 
L 97.41767 212.103857 
L 83.890398 213.188551 
L 70.363125 211.614526 
L 56.835852 204.212583 
z
" clip-path="url(#p219f7e9f73)" style="fill: #365c8d; fill-opacity: 0.2"/>
   </g>
   <g id="PolyCollection_3">
    <path d="M 56.835852 135.223451 
L 56.835852 153.320339 
L 70.363125 160.094806 
L 83.890398 166.128798 
L 97.41767 176.178367 
L 110.944943 186.537072 
L 124.472216 194.213808 
L 137.999489 193.949832 
L 151.526761 188.089475 
L 165.054034 181.342286 
L 178.581307 175.530077 
L 192.10858 169.292988 
L 205.635852 163.054162 
L 219.163125 157.857052 
L 232.690398 153.144625 
L 246.21767 149.013262 
L 259.744943 145.834692 
L 273.272216 143.094444 
L 286.799489 140.766458 
L 300.326761 138.568828 
L 313.854034 137.188278 
L 327.381307 136.814675 
L 340.90858 138.271447 
L 354.435852 141.014746 
L 367.963125 144.41853 
L 381.490398 148.269486 
L 381.490398 123.446223 
L 381.490398 123.446223 
L 367.963125 119.734963 
L 354.435852 119.925495 
L 340.90858 121.820757 
L 327.381307 124.66393 
L 313.854034 127.756529 
L 300.326761 130.293738 
L 286.799489 132.264636 
L 273.272216 134.629129 
L 259.744943 137.491951 
L 246.21767 140.417184 
L 232.690398 143.508541 
L 219.163125 147.47807 
L 205.635852 151.97547 
L 192.10858 157.06363 
L 178.581307 163.253921 
L 165.054034 170.533315 
L 151.526761 179.390085 
L 137.999489 185.449144 
L 124.472216 184.835957 
L 110.944943 179.203058 
L 97.41767 170.537444 
L 83.890398 162.263448 
L 70.363125 151.025712 
L 56.835852 135.223451 
z
" clip-path="url(#p219f7e9f73)" style="fill: #277f8e; fill-opacity: 0.2"/>
   </g>
   <g id="PolyCollection_4">
    <path d="M 56.835852 146.643768 
L 56.835852 184.719922 
L 70.363125 190.995279 
L 83.890398 182.764124 
L 97.41767 162.05096 
L 110.944943 142.529913 
L 124.472216 127.651659 
L 137.999489 118.189632 
L 151.526761 114.004399 
L 165.054034 113.193762 
L 178.581307 114.899239 
L 192.10858 117.260178 
L 205.635852 120.552276 
L 219.163125 124.622557 
L 232.690398 129.158207 
L 246.21767 133.913116 
L 259.744943 138.952922 
L 273.272216 144.127413 
L 286.799489 149.209405 
L 300.326761 154.208635 
L 313.854034 158.745958 
L 327.381307 163.25359 
L 340.90858 167.571482 
L 354.435852 171.242664 
L 367.963125 173.883619 
L 381.490398 176.126071 
L 381.490398 125.530498 
L 381.490398 125.530498 
L 367.963125 117.080788 
L 354.435852 112.594417 
L 340.90858 109.055618 
L 327.381307 105.94572 
L 313.854034 102.613359 
L 300.326761 98.999544 
L 286.799489 94.925352 
L 273.272216 90.684172 
L 259.744943 86.302199 
L 246.21767 81.564119 
L 232.690398 77.187685 
L 219.163125 73.353479 
L 205.635852 70.39583 
L 192.10858 68.348669 
L 178.581307 67.269198 
L 165.054034 68.07386 
L 151.526761 72.118988 
L 137.999489 80.659547 
L 124.472216 93.485865 
L 110.944943 108.554419 
L 97.41767 125.531364 
L 83.890398 146.737403 
L 70.363125 161.785877 
L 56.835852 146.643768 
z
" clip-path="url(#p219f7e9f73)" style="fill: #1fa187; fill-opacity: 0.2"/>
   </g>
   <g id="PolyCollection_5">
    <path d="M 56.835852 99.316176 
L 56.835852 137.64963 
L 70.363125 143.537693 
L 83.890398 142.547869 
L 97.41767 134.061236 
L 110.944943 125.104942 
L 124.472216 116.072224 
L 137.999489 106.929964 
L 151.526761 98.464342 
L 165.054034 94.370682 
L 178.581307 93.594765 
L 192.10858 93.317056 
L 205.635852 93.546469 
L 219.163125 94.413168 
L 232.690398 95.91405 
L 246.21767 97.652278 
L 259.744943 99.580897 
L 273.272216 101.700423 
L 286.799489 104.204009 
L 300.326761 106.975246 
L 313.854034 109.893624 
L 327.381307 113.553778 
L 340.90858 117.931896 
L 354.435852 122.199654 
L 367.963125 126.861004 
L 381.490398 131.833233 
L 381.490398 77.818719 
L 381.490398 77.818719 
L 367.963125 68.360264 
L 354.435852 62.963555 
L 340.90858 59.472029 
L 327.381307 57.119534 
L 313.854034 55.147376 
L 300.326761 53.302573 
L 286.799489 51.481085 
L 273.272216 49.916512 
L 259.744943 48.329342 
L 246.21767 46.772047 
L 232.690398 45.447035 
L 219.163125 44.349613 
L 205.635852 43.638935 
L 192.10858 43.521087 
L 178.581307 43.90182 
L 165.054034 45.49669 
L 151.526761 51.604137 
L 137.999489 63.413411 
L 124.472216 80.547684 
L 110.944943 95.698981 
L 97.41767 107.607039 
L 83.890398 118.857018 
L 70.363125 122.613923 
L 56.835852 99.316176 
z
" clip-path="url(#p219f7e9f73)" style="fill: #4ac16d; fill-opacity: 0.2"/>
   </g>
   <g id="PolyCollection_6">
    <path d="M 56.835852 60.740314 
L 56.835852 101.0109 
L 70.363125 105.132296 
L 83.890398 109.059028 
L 97.41767 111.910072 
L 110.944943 112.978042 
L 124.472216 112.716581 
L 137.999489 107.992315 
L 151.526761 99.331667 
L 165.054034 95.159078 
L 178.581307 94.245805 
L 192.10858 93.239199 
L 205.635852 92.430274 
L 219.163125 91.86707 
L 232.690398 91.861374 
L 246.21767 92.001947 
L 259.744943 92.270687 
L 273.272216 92.555804 
L 286.799489 92.970633 
L 300.326761 93.531302 
L 313.854034 94.079049 
L 327.381307 94.904016 
L 340.90858 95.848247 
L 354.435852 96.7047 
L 367.963125 97.588567 
L 381.490398 98.998185 
L 381.490398 44.63174 
L 381.490398 44.63174 
L 367.963125 39.602483 
L 354.435852 37.548597 
L 340.90858 36.354865 
L 327.381307 35.480455 
L 313.854034 35.28177 
L 300.326761 35.181526 
L 286.799489 34.854838 
L 273.272216 34.779022 
L 259.744943 34.801266 
L 246.21767 34.51032 
L 232.690398 34.414125 
L 219.163125 34.652107 
L 205.635852 34.982965 
L 192.10858 35.881366 
L 178.581307 36.789736 
L 165.054034 37.957607 
L 151.526761 44.729643 
L 137.999489 57.578081 
L 124.472216 75.305621 
L 110.944943 85.597581 
L 97.41767 87.803276 
L 83.890398 87.306332 
L 70.363125 82.713961 
L 56.835852 60.740314 
z
" clip-path="url(#p219f7e9f73)" style="fill: #a0da39; fill-opacity: 0.2"/>
   </g>
   <g id="matplotlib.axis_1">
    <g id="xtick_1">
     <g id="line2d_1">
      <defs>
       <path id="me22c515634" d="M 0 0 
L 0 3.5 
" style="stroke: #000000; stroke-width: 0.8"/>
      </defs>
      <g>
       <use xlink:href="#me22c515634" x="56.835852" y="288.430125" style="stroke: #000000; stroke-width: 0.8"/>
      </g>
     </g>
     <g id="text_1">
      <!-- 0 -->
      <g transform="translate(53.654602 303.028562) scale(0.1 -0.1)">
       <defs>
        <path id="DejaVuSans-30" d="M 2034 4250 
Q 1547 4250 1301 3770 
Q 1056 3291 1056 2328 
Q 1056 1369 1301 889 
Q 1547 409 2034 409 
Q 2525 409 2770 889 
Q 3016 1369 3016 2328 
Q 3016 3291 2770 3770 
Q 2525 4250 2034 4250 
z
M 2034 4750 
Q 2819 4750 3233 4129 
Q 3647 3509 3647 2328 
Q 3647 1150 3233 529 
Q 2819 -91 2034 -91 
Q 1250 -91 836 529 
Q 422 1150 422 2328 
Q 422 3509 836 4129 
Q 1250 4750 2034 4750 
z
" transform="scale(0.015625)"/>
       </defs>
       <use xlink:href="#DejaVuSans-30"/>
      </g>
     </g>
    </g>
    <g id="xtick_2">
     <g id="line2d_2">
      <g>
       <use xlink:href="#me22c515634" x="121.766761" y="288.430125" style="stroke: #000000; stroke-width: 0.8"/>
      </g>
     </g>
     <g id="text_2">
      <!-- 20 -->
      <g transform="translate(115.404261 303.028562) scale(0.1 -0.1)">
       <defs>
        <path id="DejaVuSans-32" d="M 1228 531 
L 3431 531 
L 3431 0 
L 469 0 
L 469 531 
Q 828 903 1448 1529 
Q 2069 2156 2228 2338 
Q 2531 2678 2651 2914 
Q 2772 3150 2772 3378 
Q 2772 3750 2511 3984 
Q 2250 4219 1831 4219 
Q 1534 4219 1204 4116 
Q 875 4013 500 3803 
L 500 4441 
Q 881 4594 1212 4672 
Q 1544 4750 1819 4750 
Q 2544 4750 2975 4387 
Q 3406 4025 3406 3419 
Q 3406 3131 3298 2873 
Q 3191 2616 2906 2266 
Q 2828 2175 2409 1742 
Q 1991 1309 1228 531 
z
" transform="scale(0.015625)"/>
       </defs>
       <use xlink:href="#DejaVuSans-32"/>
       <use xlink:href="#DejaVuSans-30" x="63.623047"/>
      </g>
     </g>
    </g>
    <g id="xtick_3">
     <g id="line2d_3">
      <g>
       <use xlink:href="#me22c515634" x="186.69767" y="288.430125" style="stroke: #000000; stroke-width: 0.8"/>
      </g>
     </g>
     <g id="text_3">
      <!-- 40 -->
      <g transform="translate(180.33517 303.028562) scale(0.1 -0.1)">
       <defs>
        <path id="DejaVuSans-34" d="M 2419 4116 
L 825 1625 
L 2419 1625 
L 2419 4116 
z
M 2253 4666 
L 3047 4666 
L 3047 1625 
L 3713 1625 
L 3713 1100 
L 3047 1100 
L 3047 0 
L 2419 0 
L 2419 1100 
L 313 1100 
L 313 1709 
L 2253 4666 
z
" transform="scale(0.015625)"/>
       </defs>
       <use xlink:href="#DejaVuSans-34"/>
       <use xlink:href="#DejaVuSans-30" x="63.623047"/>
      </g>
     </g>
    </g>
    <g id="xtick_4">
     <g id="line2d_4">
      <g>
       <use xlink:href="#me22c515634" x="251.62858" y="288.430125" style="stroke: #000000; stroke-width: 0.8"/>
      </g>
     </g>
     <g id="text_4">
      <!-- 60 -->
      <g transform="translate(245.26608 303.028562) scale(0.1 -0.1)">
       <defs>
        <path id="DejaVuSans-36" d="M 2113 2584 
Q 1688 2584 1439 2293 
Q 1191 2003 1191 1497 
Q 1191 994 1439 701 
Q 1688 409 2113 409 
Q 2538 409 2786 701 
Q 3034 994 3034 1497 
Q 3034 2003 2786 2293 
Q 2538 2584 2113 2584 
z
M 3366 4563 
L 3366 3988 
Q 3128 4100 2886 4159 
Q 2644 4219 2406 4219 
Q 1781 4219 1451 3797 
Q 1122 3375 1075 2522 
Q 1259 2794 1537 2939 
Q 1816 3084 2150 3084 
Q 2853 3084 3261 2657 
Q 3669 2231 3669 1497 
Q 3669 778 3244 343 
Q 2819 -91 2113 -91 
Q 1303 -91 875 529 
Q 447 1150 447 2328 
Q 447 3434 972 4092 
Q 1497 4750 2381 4750 
Q 2619 4750 2861 4703 
Q 3103 4656 3366 4563 
z
" transform="scale(0.015625)"/>
       </defs>
       <use xlink:href="#DejaVuSans-36"/>
       <use xlink:href="#DejaVuSans-30" x="63.623047"/>
      </g>
     </g>
    </g>
    <g id="xtick_5">
     <g id="line2d_5">
      <g>
       <use xlink:href="#me22c515634" x="316.559489" y="288.430125" style="stroke: #000000; stroke-width: 0.8"/>
      </g>
     </g>
     <g id="text_5">
      <!-- 80 -->
      <g transform="translate(310.196989 303.028562) scale(0.1 -0.1)">
       <defs>
        <path id="DejaVuSans-38" d="M 2034 2216 
Q 1584 2216 1326 1975 
Q 1069 1734 1069 1313 
Q 1069 891 1326 650 
Q 1584 409 2034 409 
Q 2484 409 2743 651 
Q 3003 894 3003 1313 
Q 3003 1734 2745 1975 
Q 2488 2216 2034 2216 
z
M 1403 2484 
Q 997 2584 770 2862 
Q 544 3141 544 3541 
Q 544 4100 942 4425 
Q 1341 4750 2034 4750 
Q 2731 4750 3128 4425 
Q 3525 4100 3525 3541 
Q 3525 3141 3298 2862 
Q 3072 2584 2669 2484 
Q 3125 2378 3379 2068 
Q 3634 1759 3634 1313 
Q 3634 634 3220 271 
Q 2806 -91 2034 -91 
Q 1263 -91 848 271 
Q 434 634 434 1313 
Q 434 1759 690 2068 
Q 947 2378 1403 2484 
z
M 1172 3481 
Q 1172 3119 1398 2916 
Q 1625 2713 2034 2713 
Q 2441 2713 2670 2916 
Q 2900 3119 2900 3481 
Q 2900 3844 2670 4047 
Q 2441 4250 2034 4250 
Q 1625 4250 1398 4047 
Q 1172 3844 1172 3481 
z
" transform="scale(0.015625)"/>
       </defs>
       <use xlink:href="#DejaVuSans-38"/>
       <use xlink:href="#DejaVuSans-30" x="63.623047"/>
      </g>
     </g>
    </g>
    <g id="xtick_6">
     <g id="line2d_6">
      <g>
       <use xlink:href="#me22c515634" x="381.490398" y="288.430125" style="stroke: #000000; stroke-width: 0.8"/>
      </g>
     </g>
     <g id="text_6">
      <!-- 100 -->
      <g transform="translate(371.946648 303.028562) scale(0.1 -0.1)">
       <defs>
        <path id="DejaVuSans-31" d="M 794 531 
L 1825 531 
L 1825 4091 
L 703 3866 
L 703 4441 
L 1819 4666 
L 2450 4666 
L 2450 531 
L 3481 531 
L 3481 0 
L 794 0 
L 794 531 
z
" transform="scale(0.015625)"/>
       </defs>
       <use xlink:href="#DejaVuSans-31"/>
       <use xlink:href="#DejaVuSans-30" x="63.623047"/>
       <use xlink:href="#DejaVuSans-30" x="127.246094"/>
      </g>
     </g>
    </g>
    <g id="text_7">
     <!-- Percentage -->
     <g transform="translate(191.040469 316.706687) scale(0.1 -0.1)">
      <defs>
       <path id="DejaVuSans-50" d="M 1259 4147 
L 1259 2394 
L 2053 2394 
Q 2494 2394 2734 2622 
Q 2975 2850 2975 3272 
Q 2975 3691 2734 3919 
Q 2494 4147 2053 4147 
L 1259 4147 
z
M 628 4666 
L 2053 4666 
Q 2838 4666 3239 4311 
Q 3641 3956 3641 3272 
Q 3641 2581 3239 2228 
Q 2838 1875 2053 1875 
L 1259 1875 
L 1259 0 
L 628 0 
L 628 4666 
z
" transform="scale(0.015625)"/>
       <path id="DejaVuSans-65" d="M 3597 1894 
L 3597 1613 
L 953 1613 
Q 991 1019 1311 708 
Q 1631 397 2203 397 
Q 2534 397 2845 478 
Q 3156 559 3463 722 
L 3463 178 
Q 3153 47 2828 -22 
Q 2503 -91 2169 -91 
Q 1331 -91 842 396 
Q 353 884 353 1716 
Q 353 2575 817 3079 
Q 1281 3584 2069 3584 
Q 2775 3584 3186 3129 
Q 3597 2675 3597 1894 
z
M 3022 2063 
Q 3016 2534 2758 2815 
Q 2500 3097 2075 3097 
Q 1594 3097 1305 2825 
Q 1016 2553 972 2059 
L 3022 2063 
z
" transform="scale(0.015625)"/>
       <path id="DejaVuSans-72" d="M 2631 2963 
Q 2534 3019 2420 3045 
Q 2306 3072 2169 3072 
Q 1681 3072 1420 2755 
Q 1159 2438 1159 1844 
L 1159 0 
L 581 0 
L 581 3500 
L 1159 3500 
L 1159 2956 
Q 1341 3275 1631 3429 
Q 1922 3584 2338 3584 
Q 2397 3584 2469 3576 
Q 2541 3569 2628 3553 
L 2631 2963 
z
" transform="scale(0.015625)"/>
       <path id="DejaVuSans-63" d="M 3122 3366 
L 3122 2828 
Q 2878 2963 2633 3030 
Q 2388 3097 2138 3097 
Q 1578 3097 1268 2742 
Q 959 2388 959 1747 
Q 959 1106 1268 751 
Q 1578 397 2138 397 
Q 2388 397 2633 464 
Q 2878 531 3122 666 
L 3122 134 
Q 2881 22 2623 -34 
Q 2366 -91 2075 -91 
Q 1284 -91 818 406 
Q 353 903 353 1747 
Q 353 2603 823 3093 
Q 1294 3584 2113 3584 
Q 2378 3584 2631 3529 
Q 2884 3475 3122 3366 
z
" transform="scale(0.015625)"/>
       <path id="DejaVuSans-6e" d="M 3513 2113 
L 3513 0 
L 2938 0 
L 2938 2094 
Q 2938 2591 2744 2837 
Q 2550 3084 2163 3084 
Q 1697 3084 1428 2787 
Q 1159 2491 1159 1978 
L 1159 0 
L 581 0 
L 581 3500 
L 1159 3500 
L 1159 2956 
Q 1366 3272 1645 3428 
Q 1925 3584 2291 3584 
Q 2894 3584 3203 3211 
Q 3513 2838 3513 2113 
z
" transform="scale(0.015625)"/>
       <path id="DejaVuSans-74" d="M 1172 4494 
L 1172 3500 
L 2356 3500 
L 2356 3053 
L 1172 3053 
L 1172 1153 
Q 1172 725 1289 603 
Q 1406 481 1766 481 
L 2356 481 
L 2356 0 
L 1766 0 
Q 1100 0 847 248 
Q 594 497 594 1153 
L 594 3053 
L 172 3053 
L 172 3500 
L 594 3500 
L 594 4494 
L 1172 4494 
z
" transform="scale(0.015625)"/>
       <path id="DejaVuSans-61" d="M 2194 1759 
Q 1497 1759 1228 1600 
Q 959 1441 959 1056 
Q 959 750 1161 570 
Q 1363 391 1709 391 
Q 2188 391 2477 730 
Q 2766 1069 2766 1631 
L 2766 1759 
L 2194 1759 
z
M 3341 1997 
L 3341 0 
L 2766 0 
L 2766 531 
Q 2569 213 2275 61 
Q 1981 -91 1556 -91 
Q 1019 -91 701 211 
Q 384 513 384 1019 
Q 384 1609 779 1909 
Q 1175 2209 1959 2209 
L 2766 2209 
L 2766 2266 
Q 2766 2663 2505 2880 
Q 2244 3097 1772 3097 
Q 1472 3097 1187 3025 
Q 903 2953 641 2809 
L 641 3341 
Q 956 3463 1253 3523 
Q 1550 3584 1831 3584 
Q 2591 3584 2966 3190 
Q 3341 2797 3341 1997 
z
" transform="scale(0.015625)"/>
       <path id="DejaVuSans-67" d="M 2906 1791 
Q 2906 2416 2648 2759 
Q 2391 3103 1925 3103 
Q 1463 3103 1205 2759 
Q 947 2416 947 1791 
Q 947 1169 1205 825 
Q 1463 481 1925 481 
Q 2391 481 2648 825 
Q 2906 1169 2906 1791 
z
M 3481 434 
Q 3481 -459 3084 -895 
Q 2688 -1331 1869 -1331 
Q 1566 -1331 1297 -1286 
Q 1028 -1241 775 -1147 
L 775 -588 
Q 1028 -725 1275 -790 
Q 1522 -856 1778 -856 
Q 2344 -856 2625 -561 
Q 2906 -266 2906 331 
L 2906 616 
Q 2728 306 2450 153 
Q 2172 0 1784 0 
Q 1141 0 747 490 
Q 353 981 353 1791 
Q 353 2603 747 3093 
Q 1141 3584 1784 3584 
Q 2172 3584 2450 3431 
Q 2728 3278 2906 2969 
L 2906 3500 
L 3481 3500 
L 3481 434 
z
" transform="scale(0.015625)"/>
      </defs>
      <use xlink:href="#DejaVuSans-50"/>
      <use xlink:href="#DejaVuSans-65" x="56.677734"/>
      <use xlink:href="#DejaVuSans-72" x="118.201172"/>
      <use xlink:href="#DejaVuSans-63" x="157.064453"/>
      <use xlink:href="#DejaVuSans-65" x="212.044922"/>
      <use xlink:href="#DejaVuSans-6e" x="273.568359"/>
      <use xlink:href="#DejaVuSans-74" x="336.947266"/>
      <use xlink:href="#DejaVuSans-61" x="376.15625"/>
      <use xlink:href="#DejaVuSans-67" x="437.435547"/>
      <use xlink:href="#DejaVuSans-65" x="500.912109"/>
     </g>
    </g>
   </g>
   <g id="matplotlib.axis_2">
    <g id="ytick_1">
     <g id="line2d_7">
      <defs>
       <path id="me569fd5781" d="M 0 0 
L -3.5 0 
" style="stroke: #000000; stroke-width: 0.8"/>
      </defs>
      <g>
       <use xlink:href="#me569fd5781" x="40.603125" y="255.425785" style="stroke: #000000; stroke-width: 0.8"/>
      </g>
     </g>
     <g id="text_8">
      <!-- 5 -->
      <g transform="translate(27.240625 259.225003) scale(0.1 -0.1)">
       <defs>
        <path id="DejaVuSans-35" d="M 691 4666 
L 3169 4666 
L 3169 4134 
L 1269 4134 
L 1269 2991 
Q 1406 3038 1543 3061 
Q 1681 3084 1819 3084 
Q 2600 3084 3056 2656 
Q 3513 2228 3513 1497 
Q 3513 744 3044 326 
Q 2575 -91 1722 -91 
Q 1428 -91 1123 -41 
Q 819 9 494 109 
L 494 744 
Q 775 591 1075 516 
Q 1375 441 1709 441 
Q 2250 441 2565 725 
Q 2881 1009 2881 1497 
Q 2881 1984 2565 2268 
Q 2250 2553 1709 2553 
Q 1456 2553 1204 2497 
Q 953 2441 691 2322 
L 691 4666 
z
" transform="scale(0.015625)"/>
       </defs>
       <use xlink:href="#DejaVuSans-35"/>
      </g>
     </g>
    </g>
    <g id="ytick_2">
     <g id="line2d_8">
      <g>
       <use xlink:href="#me569fd5781" x="40.603125" y="218.626839" style="stroke: #000000; stroke-width: 0.8"/>
      </g>
     </g>
     <g id="text_9">
      <!-- 10 -->
      <g transform="translate(20.878125 222.426058) scale(0.1 -0.1)">
       <use xlink:href="#DejaVuSans-31"/>
       <use xlink:href="#DejaVuSans-30" x="63.623047"/>
      </g>
     </g>
    </g>
    <g id="ytick_3">
     <g id="line2d_9">
      <g>
       <use xlink:href="#me569fd5781" x="40.603125" y="181.827894" style="stroke: #000000; stroke-width: 0.8"/>
      </g>
     </g>
     <g id="text_10">
      <!-- 15 -->
      <g transform="translate(20.878125 185.627113) scale(0.1 -0.1)">
       <use xlink:href="#DejaVuSans-31"/>
       <use xlink:href="#DejaVuSans-35" x="63.623047"/>
      </g>
     </g>
    </g>
    <g id="ytick_4">
     <g id="line2d_10">
      <g>
       <use xlink:href="#me569fd5781" x="40.603125" y="145.028948" style="stroke: #000000; stroke-width: 0.8"/>
      </g>
     </g>
     <g id="text_11">
      <!-- 20 -->
      <g transform="translate(20.878125 148.828167) scale(0.1 -0.1)">
       <use xlink:href="#DejaVuSans-32"/>
       <use xlink:href="#DejaVuSans-30" x="63.623047"/>
      </g>
     </g>
    </g>
    <g id="ytick_5">
     <g id="line2d_11">
      <g>
       <use xlink:href="#me569fd5781" x="40.603125" y="108.230003" style="stroke: #000000; stroke-width: 0.8"/>
      </g>
     </g>
     <g id="text_12">
      <!-- 25 -->
      <g transform="translate(20.878125 112.029222) scale(0.1 -0.1)">
       <use xlink:href="#DejaVuSans-32"/>
       <use xlink:href="#DejaVuSans-35" x="63.623047"/>
      </g>
     </g>
    </g>
    <g id="ytick_6">
     <g id="line2d_12">
      <g>
       <use xlink:href="#me569fd5781" x="40.603125" y="71.431057" style="stroke: #000000; stroke-width: 0.8"/>
      </g>
     </g>
     <g id="text_13">
      <!-- 30 -->
      <g transform="translate(20.878125 75.230276) scale(0.1 -0.1)">
       <defs>
        <path id="DejaVuSans-33" d="M 2597 2516 
Q 3050 2419 3304 2112 
Q 3559 1806 3559 1356 
Q 3559 666 3084 287 
Q 2609 -91 1734 -91 
Q 1441 -91 1130 -33 
Q 819 25 488 141 
L 488 750 
Q 750 597 1062 519 
Q 1375 441 1716 441 
Q 2309 441 2620 675 
Q 2931 909 2931 1356 
Q 2931 1769 2642 2001 
Q 2353 2234 1838 2234 
L 1294 2234 
L 1294 2753 
L 1863 2753 
Q 2328 2753 2575 2939 
Q 2822 3125 2822 3475 
Q 2822 3834 2567 4026 
Q 2313 4219 1838 4219 
Q 1578 4219 1281 4162 
Q 984 4106 628 3988 
L 628 4550 
Q 988 4650 1302 4700 
Q 1616 4750 1894 4750 
Q 2613 4750 3031 4423 
Q 3450 4097 3450 3541 
Q 3450 3153 3228 2886 
Q 3006 2619 2597 2516 
z
" transform="scale(0.015625)"/>
       </defs>
       <use xlink:href="#DejaVuSans-33"/>
       <use xlink:href="#DejaVuSans-30" x="63.623047"/>
      </g>
     </g>
    </g>
    <g id="ytick_7">
     <g id="line2d_13">
      <g>
       <use xlink:href="#me569fd5781" x="40.603125" y="34.632112" style="stroke: #000000; stroke-width: 0.8"/>
      </g>
     </g>
     <g id="text_14">
      <!-- 35 -->
      <g transform="translate(20.878125 38.431331) scale(0.1 -0.1)">
       <use xlink:href="#DejaVuSans-33"/>
       <use xlink:href="#DejaVuSans-35" x="63.623047"/>
      </g>
     </g>
    </g>
    <g id="text_15">
     <!-- y (pixel) -->
     <g transform="translate(14.798438 175.656156) rotate(-90) scale(0.1 -0.1)">
      <defs>
       <path id="DejaVuSans-79" d="M 2059 -325 
Q 1816 -950 1584 -1140 
Q 1353 -1331 966 -1331 
L 506 -1331 
L 506 -850 
L 844 -850 
Q 1081 -850 1212 -737 
Q 1344 -625 1503 -206 
L 1606 56 
L 191 3500 
L 800 3500 
L 1894 763 
L 2988 3500 
L 3597 3500 
L 2059 -325 
z
" transform="scale(0.015625)"/>
       <path id="DejaVuSans-20" transform="scale(0.015625)"/>
       <path id="DejaVuSans-28" d="M 1984 4856 
Q 1566 4138 1362 3434 
Q 1159 2731 1159 2009 
Q 1159 1288 1364 580 
Q 1569 -128 1984 -844 
L 1484 -844 
Q 1016 -109 783 600 
Q 550 1309 550 2009 
Q 550 2706 781 3412 
Q 1013 4119 1484 4856 
L 1984 4856 
z
" transform="scale(0.015625)"/>
       <path id="DejaVuSans-70" d="M 1159 525 
L 1159 -1331 
L 581 -1331 
L 581 3500 
L 1159 3500 
L 1159 2969 
Q 1341 3281 1617 3432 
Q 1894 3584 2278 3584 
Q 2916 3584 3314 3078 
Q 3713 2572 3713 1747 
Q 3713 922 3314 415 
Q 2916 -91 2278 -91 
Q 1894 -91 1617 61 
Q 1341 213 1159 525 
z
M 3116 1747 
Q 3116 2381 2855 2742 
Q 2594 3103 2138 3103 
Q 1681 3103 1420 2742 
Q 1159 2381 1159 1747 
Q 1159 1113 1420 752 
Q 1681 391 2138 391 
Q 2594 391 2855 752 
Q 3116 1113 3116 1747 
z
" transform="scale(0.015625)"/>
       <path id="DejaVuSans-69" d="M 603 3500 
L 1178 3500 
L 1178 0 
L 603 0 
L 603 3500 
z
M 603 4863 
L 1178 4863 
L 1178 4134 
L 603 4134 
L 603 4863 
z
" transform="scale(0.015625)"/>
       <path id="DejaVuSans-78" d="M 3513 3500 
L 2247 1797 
L 3578 0 
L 2900 0 
L 1881 1375 
L 863 0 
L 184 0 
L 1544 1831 
L 300 3500 
L 978 3500 
L 1906 2253 
L 2834 3500 
L 3513 3500 
z
" transform="scale(0.015625)"/>
       <path id="DejaVuSans-6c" d="M 603 4863 
L 1178 4863 
L 1178 0 
L 603 0 
L 603 4863 
z
" transform="scale(0.015625)"/>
       <path id="DejaVuSans-29" d="M 513 4856 
L 1013 4856 
Q 1481 4119 1714 3412 
Q 1947 2706 1947 2009 
Q 1947 1309 1714 600 
Q 1481 -109 1013 -844 
L 513 -844 
Q 928 -128 1133 580 
Q 1338 1288 1338 2009 
Q 1338 2731 1133 3434 
Q 928 4138 513 4856 
z
" transform="scale(0.015625)"/>
      </defs>
      <use xlink:href="#DejaVuSans-79"/>
      <use xlink:href="#DejaVuSans-20" x="59.179688"/>
      <use xlink:href="#DejaVuSans-28" x="90.966797"/>
      <use xlink:href="#DejaVuSans-70" x="129.980469"/>
      <use xlink:href="#DejaVuSans-69" x="193.457031"/>
      <use xlink:href="#DejaVuSans-78" x="221.240234"/>
      <use xlink:href="#DejaVuSans-65" x="277.294922"/>
      <use xlink:href="#DejaVuSans-6c" x="338.818359"/>
      <use xlink:href="#DejaVuSans-29" x="366.601562"/>
     </g>
    </g>
   </g>
   <g id="line2d_14">
    <path d="M 56.835852 256.395245 
L 70.363125 260.182665 
L 83.890398 263.82413 
L 97.41767 266.837363 
L 110.944943 269.409844 
L 124.472216 270.794097 
L 137.999489 268.90276 
L 151.526761 263.547541 
L 165.054034 257.852961 
L 178.581307 253.516472 
L 192.10858 249.912798 
L 205.635852 247.246939 
L 219.163125 245.39899 
L 232.690398 244.13685 
L 246.21767 243.643086 
L 259.744943 243.656205 
L 273.272216 243.683707 
L 286.799489 244.025161 
L 300.326761 244.702163 
L 313.854034 245.569148 
L 327.381307 246.539663 
L 340.90858 247.950543 
L 354.435852 249.702508 
L 367.963125 251.431054 
L 381.490398 253.669785 
" clip-path="url(#p219f7e9f73)" style="fill: none; stroke: #46327e; stroke-width: 1.5; stroke-linecap: square"/>
   </g>
   <g id="line2d_15">
    <path d="M 56.835852 219.481494 
L 70.363125 224.718283 
L 83.890398 224.798766 
L 97.41767 222.098922 
L 110.944943 219.199013 
L 124.472216 215.957831 
L 137.999489 211.300731 
L 151.526761 205.427113 
L 165.054034 200.413981 
L 178.581307 197.33088 
L 192.10858 195.202709 
L 205.635852 194.252975 
L 219.163125 194.253323 
L 232.690398 194.577172 
L 246.21767 195.662971 
L 259.744943 197.097435 
L 273.272216 198.489152 
L 286.799489 199.786075 
L 300.326761 201.202415 
L 313.854034 202.765331 
L 327.381307 204.503868 
L 340.90858 206.924059 
L 354.435852 209.628035 
L 367.963125 212.372689 
L 381.490398 215.11412 
" clip-path="url(#p219f7e9f73)" style="fill: none; stroke: #365c8d; stroke-width: 1.5; stroke-linecap: square"/>
   </g>
   <g id="line2d_16">
    <path d="M 56.835852 144.271895 
L 70.363125 155.560259 
L 83.890398 164.196123 
L 97.41767 173.357906 
L 110.944943 182.870065 
L 124.472216 189.524882 
L 137.999489 189.699488 
L 151.526761 183.73978 
L 165.054034 175.9378 
L 178.581307 169.391999 
L 192.10858 163.178309 
L 205.635852 157.514816 
L 219.163125 152.667561 
L 232.690398 148.326583 
L 246.21767 144.715223 
L 259.744943 141.663321 
L 273.272216 138.861787 
L 286.799489 136.515547 
L 300.326761 134.431283 
L 313.854034 132.472403 
L 327.381307 130.739303 
L 340.90858 130.046102 
L 354.435852 130.47012 
L 367.963125 132.076746 
L 381.490398 135.857854 
" clip-path="url(#p219f7e9f73)" style="fill: none; stroke: #277f8e; stroke-width: 1.5; stroke-linecap: square"/>
   </g>
   <g id="line2d_17">
    <path d="M 56.835852 165.681845 
L 70.363125 176.390578 
L 83.890398 164.750764 
L 97.41767 143.791162 
L 110.944943 125.542166 
L 124.472216 110.568762 
L 137.999489 99.424589 
L 151.526761 93.061694 
L 165.054034 90.633811 
L 178.581307 91.084218 
L 192.10858 92.804423 
L 205.635852 95.474053 
L 219.163125 98.988018 
L 232.690398 103.172946 
L 246.21767 107.738617 
L 259.744943 112.627561 
L 273.272216 117.405793 
L 286.799489 122.067378 
L 300.326761 126.60409 
L 313.854034 130.679659 
L 327.381307 134.599655 
L 340.90858 138.31355 
L 354.435852 141.91854 
L 367.963125 145.482204 
L 381.490398 150.828285 
" clip-path="url(#p219f7e9f73)" style="fill: none; stroke: #1fa187; stroke-width: 1.5; stroke-linecap: square"/>
   </g>
   <g id="line2d_18">
    <path d="M 56.835852 118.482903 
L 70.363125 133.075808 
L 83.890398 130.702443 
L 97.41767 120.834137 
L 110.944943 110.401962 
L 124.472216 98.309954 
L 137.999489 85.171687 
L 151.526761 75.034239 
L 165.054034 69.933686 
L 178.581307 68.748293 
L 192.10858 68.419072 
L 205.635852 68.592702 
L 219.163125 69.38139 
L 232.690398 70.680543 
L 246.21767 72.212163 
L 259.744943 73.95512 
L 273.272216 75.808467 
L 286.799489 77.842547 
L 300.326761 80.13891 
L 313.854034 82.5205 
L 327.381307 85.336656 
L 340.90858 88.701962 
L 354.435852 92.581604 
L 367.963125 97.610634 
L 381.490398 104.825976 
" clip-path="url(#p219f7e9f73)" style="fill: none; stroke: #4ac16d; stroke-width: 1.5; stroke-linecap: square"/>
   </g>
   <g id="line2d_19">
    <path d="M 56.835852 80.875607 
L 70.363125 93.923128 
L 83.890398 98.18268 
L 97.41767 99.856674 
L 110.944943 99.287811 
L 124.472216 94.011101 
L 137.999489 82.785198 
L 151.526761 72.030655 
L 165.054034 66.558342 
L 178.581307 65.51777 
L 192.10858 64.560282 
L 205.635852 63.70662 
L 219.163125 63.259588 
L 232.690398 63.13775 
L 246.21767 63.256133 
L 259.744943 63.535977 
L 273.272216 63.667413 
L 286.799489 63.912735 
L 300.326761 64.356414 
L 313.854034 64.68041 
L 327.381307 65.192236 
L 340.90858 66.101556 
L 354.435852 67.126648 
L 367.963125 68.595525 
L 381.490398 71.814963 
" clip-path="url(#p219f7e9f73)" style="fill: none; stroke: #a0da39; stroke-width: 1.5; stroke-linecap: square"/>
   </g>
   <g id="patch_3">
    <path d="M 40.603125 288.430125 
L 40.603125 22.318125 
" style="fill: none; stroke: #000000; stroke-width: 0.8; stroke-linejoin: miter; stroke-linecap: square"/>
   </g>
   <g id="patch_4">
    <path d="M 397.723125 288.430125 
L 397.723125 22.318125 
" style="fill: none; stroke: #000000; stroke-width: 0.8; stroke-linejoin: miter; stroke-linecap: square"/>
   </g>
   <g id="patch_5">
    <path d="M 40.603125 288.430125 
L 397.723125 288.430125 
" style="fill: none; stroke: #000000; stroke-width: 0.8; stroke-linejoin: miter; stroke-linecap: square"/>
   </g>
   <g id="patch_6">
    <path d="M 40.603125 22.318125 
L 397.723125 22.318125 
" style="fill: none; stroke: #000000; stroke-width: 0.8; stroke-linejoin: miter; stroke-linecap: square"/>
   </g>
   <g id="text_16">
    <!-- WT_levelwalk - Joint Y over average step cycle -->
    <g transform="translate(79.699688 16.318125) scale(0.12 -0.12)">
     <defs>
      <path id="DejaVuSans-57" d="M 213 4666 
L 850 4666 
L 1831 722 
L 2809 4666 
L 3519 4666 
L 4500 722 
L 5478 4666 
L 6119 4666 
L 4947 0 
L 4153 0 
L 3169 4050 
L 2175 0 
L 1381 0 
L 213 4666 
z
" transform="scale(0.015625)"/>
      <path id="DejaVuSans-54" d="M -19 4666 
L 3928 4666 
L 3928 4134 
L 2272 4134 
L 2272 0 
L 1638 0 
L 1638 4134 
L -19 4134 
L -19 4666 
z
" transform="scale(0.015625)"/>
      <path id="DejaVuSans-5f" d="M 3263 -1063 
L 3263 -1509 
L -63 -1509 
L -63 -1063 
L 3263 -1063 
z
" transform="scale(0.015625)"/>
      <path id="DejaVuSans-76" d="M 191 3500 
L 800 3500 
L 1894 563 
L 2988 3500 
L 3597 3500 
L 2284 0 
L 1503 0 
L 191 3500 
z
" transform="scale(0.015625)"/>
      <path id="DejaVuSans-77" d="M 269 3500 
L 844 3500 
L 1563 769 
L 2278 3500 
L 2956 3500 
L 3675 769 
L 4391 3500 
L 4966 3500 
L 4050 0 
L 3372 0 
L 2619 2869 
L 1863 0 
L 1184 0 
L 269 3500 
z
" transform="scale(0.015625)"/>
      <path id="DejaVuSans-6b" d="M 581 4863 
L 1159 4863 
L 1159 1991 
L 2875 3500 
L 3609 3500 
L 1753 1863 
L 3688 0 
L 2938 0 
L 1159 1709 
L 1159 0 
L 581 0 
L 581 4863 
z
" transform="scale(0.015625)"/>
      <path id="DejaVuSans-2d" d="M 313 2009 
L 1997 2009 
L 1997 1497 
L 313 1497 
L 313 2009 
z
" transform="scale(0.015625)"/>
      <path id="DejaVuSans-4a" d="M 628 4666 
L 1259 4666 
L 1259 325 
Q 1259 -519 939 -900 
Q 619 -1281 -91 -1281 
L -331 -1281 
L -331 -750 
L -134 -750 
Q 284 -750 456 -515 
Q 628 -281 628 325 
L 628 4666 
z
" transform="scale(0.015625)"/>
      <path id="DejaVuSans-6f" d="M 1959 3097 
Q 1497 3097 1228 2736 
Q 959 2375 959 1747 
Q 959 1119 1226 758 
Q 1494 397 1959 397 
Q 2419 397 2687 759 
Q 2956 1122 2956 1747 
Q 2956 2369 2687 2733 
Q 2419 3097 1959 3097 
z
M 1959 3584 
Q 2709 3584 3137 3096 
Q 3566 2609 3566 1747 
Q 3566 888 3137 398 
Q 2709 -91 1959 -91 
Q 1206 -91 779 398 
Q 353 888 353 1747 
Q 353 2609 779 3096 
Q 1206 3584 1959 3584 
z
" transform="scale(0.015625)"/>
      <path id="DejaVuSans-59" d="M -13 4666 
L 666 4666 
L 1959 2747 
L 3244 4666 
L 3922 4666 
L 2272 2222 
L 2272 0 
L 1638 0 
L 1638 2222 
L -13 4666 
z
" transform="scale(0.015625)"/>
      <path id="DejaVuSans-73" d="M 2834 3397 
L 2834 2853 
Q 2591 2978 2328 3040 
Q 2066 3103 1784 3103 
Q 1356 3103 1142 2972 
Q 928 2841 928 2578 
Q 928 2378 1081 2264 
Q 1234 2150 1697 2047 
L 1894 2003 
Q 2506 1872 2764 1633 
Q 3022 1394 3022 966 
Q 3022 478 2636 193 
Q 2250 -91 1575 -91 
Q 1294 -91 989 -36 
Q 684 19 347 128 
L 347 722 
Q 666 556 975 473 
Q 1284 391 1588 391 
Q 1994 391 2212 530 
Q 2431 669 2431 922 
Q 2431 1156 2273 1281 
Q 2116 1406 1581 1522 
L 1381 1569 
Q 847 1681 609 1914 
Q 372 2147 372 2553 
Q 372 3047 722 3315 
Q 1072 3584 1716 3584 
Q 2034 3584 2315 3537 
Q 2597 3491 2834 3397 
z
" transform="scale(0.015625)"/>
     </defs>
     <use xlink:href="#DejaVuSans-57"/>
     <use xlink:href="#DejaVuSans-54" x="98.876953"/>
     <use xlink:href="#DejaVuSans-5f" x="159.960938"/>
     <use xlink:href="#DejaVuSans-6c" x="209.960938"/>
     <use xlink:href="#DejaVuSans-65" x="237.744141"/>
     <use xlink:href="#DejaVuSans-76" x="299.267578"/>
     <use xlink:href="#DejaVuSans-65" x="358.447266"/>
     <use xlink:href="#DejaVuSans-6c" x="419.970703"/>
     <use xlink:href="#DejaVuSans-77" x="447.753906"/>
     <use xlink:href="#DejaVuSans-61" x="529.541016"/>
     <use xlink:href="#DejaVuSans-6c" x="590.820312"/>
     <use xlink:href="#DejaVuSans-6b" x="618.603516"/>
     <use xlink:href="#DejaVuSans-20" x="676.513672"/>
     <use xlink:href="#DejaVuSans-2d" x="708.300781"/>
     <use xlink:href="#DejaVuSans-20" x="744.384766"/>
     <use xlink:href="#DejaVuSans-4a" x="776.171875"/>
     <use xlink:href="#DejaVuSans-6f" x="805.664062"/>
     <use xlink:href="#DejaVuSans-69" x="866.845703"/>
     <use xlink:href="#DejaVuSans-6e" x="894.628906"/>
     <use xlink:href="#DejaVuSans-74" x="958.007812"/>
     <use xlink:href="#DejaVuSans-20" x="997.216797"/>
     <use xlink:href="#DejaVuSans-59" x="1029.003906"/>
     <use xlink:href="#DejaVuSans-20" x="1090.087891"/>
     <use xlink:href="#DejaVuSans-6f" x="1121.875"/>
     <use xlink:href="#DejaVuSans-76" x="1183.056641"/>
     <use xlink:href="#DejaVuSans-65" x="1242.236328"/>
     <use xlink:href="#DejaVuSans-72" x="1303.759766"/>
     <use xlink:href="#DejaVuSans-20" x="1344.873047"/>
     <use xlink:href="#DejaVuSans-61" x="1376.660156"/>
     <use xlink:href="#DejaVuSans-76" x="1437.939453"/>
     <use xlink:href="#DejaVuSans-65" x="1497.119141"/>
     <use xlink:href="#DejaVuSans-72" x="1558.642578"/>
     <use xlink:href="#DejaVuSans-61" x="1599.755859"/>
     <use xlink:href="#DejaVuSans-67" x="1661.035156"/>
     <use xlink:href="#DejaVuSans-65" x="1724.511719"/>
     <use xlink:href="#DejaVuSans-20" x="1786.035156"/>
     <use xlink:href="#DejaVuSans-73" x="1817.822266"/>
     <use xlink:href="#DejaVuSans-74" x="1869.921875"/>
     <use xlink:href="#DejaVuSans-65" x="1909.130859"/>
     <use xlink:href="#DejaVuSans-70" x="1970.654297"/>
     <use xlink:href="#DejaVuSans-20" x="2034.130859"/>
     <use xlink:href="#DejaVuSans-63" x="2065.917969"/>
     <use xlink:href="#DejaVuSans-79" x="2120.898438"/>
     <use xlink:href="#DejaVuSans-63" x="2180.078125"/>
     <use xlink:href="#DejaVuSans-6c" x="2235.058594"/>
     <use xlink:href="#DejaVuSans-65" x="2262.841797"/>
    </g>
   </g>
   <g id="legend_1">
    <g id="patch_7">
     <path d="M 47.603125 118.386875 
L 135.885938 118.386875 
Q 137.885938 118.386875 137.885938 116.386875 
L 137.885938 29.318125 
Q 137.885938 27.318125 135.885938 27.318125 
L 47.603125 27.318125 
Q 45.603125 27.318125 45.603125 29.318125 
L 45.603125 116.386875 
Q 45.603125 118.386875 47.603125 118.386875 
z
" style="fill: #ffffff; opacity: 0.8; stroke: #cccccc; stroke-linejoin: miter"/>
    </g>
    <g id="line2d_20">
     <path d="M 49.603125 35.416562 
L 59.603125 35.416562 
L 69.603125 35.416562 
" style="fill: none; stroke: #46327e; stroke-width: 1.5; stroke-linecap: square"/>
    </g>
    <g id="text_17">
     <!-- Crest  -->
     <g transform="translate(77.603125 38.916562) scale(0.1 -0.1)">
      <defs>
       <path id="DejaVuSans-43" d="M 4122 4306 
L 4122 3641 
Q 3803 3938 3442 4084 
Q 3081 4231 2675 4231 
Q 1875 4231 1450 3742 
Q 1025 3253 1025 2328 
Q 1025 1406 1450 917 
Q 1875 428 2675 428 
Q 3081 428 3442 575 
Q 3803 722 4122 1019 
L 4122 359 
Q 3791 134 3420 21 
Q 3050 -91 2638 -91 
Q 1578 -91 968 557 
Q 359 1206 359 2328 
Q 359 3453 968 4101 
Q 1578 4750 2638 4750 
Q 3056 4750 3426 4639 
Q 3797 4528 4122 4306 
z
" transform="scale(0.015625)"/>
      </defs>
      <use xlink:href="#DejaVuSans-43"/>
      <use xlink:href="#DejaVuSans-72" x="69.824219"/>
      <use xlink:href="#DejaVuSans-65" x="108.6875"/>
      <use xlink:href="#DejaVuSans-73" x="170.210938"/>
      <use xlink:href="#DejaVuSans-74" x="222.310547"/>
      <use xlink:href="#DejaVuSans-20" x="261.519531"/>
     </g>
    </g>
    <g id="line2d_21">
     <path d="M 49.603125 50.094688 
L 59.603125 50.094688 
L 69.603125 50.094688 
" style="fill: none; stroke: #365c8d; stroke-width: 1.5; stroke-linecap: square"/>
    </g>
    <g id="text_18">
     <!-- Hip  -->
     <g transform="translate(77.603125 53.594688) scale(0.1 -0.1)">
      <defs>
       <path id="DejaVuSans-48" d="M 628 4666 
L 1259 4666 
L 1259 2753 
L 3553 2753 
L 3553 4666 
L 4184 4666 
L 4184 0 
L 3553 0 
L 3553 2222 
L 1259 2222 
L 1259 0 
L 628 0 
L 628 4666 
z
" transform="scale(0.015625)"/>
      </defs>
      <use xlink:href="#DejaVuSans-48"/>
      <use xlink:href="#DejaVuSans-69" x="75.195312"/>
      <use xlink:href="#DejaVuSans-70" x="102.978516"/>
      <use xlink:href="#DejaVuSans-20" x="166.455078"/>
     </g>
    </g>
    <g id="line2d_22">
     <path d="M 49.603125 64.772812 
L 59.603125 64.772812 
L 69.603125 64.772812 
" style="fill: none; stroke: #277f8e; stroke-width: 1.5; stroke-linecap: square"/>
    </g>
    <g id="text_19">
     <!-- Knee  -->
     <g transform="translate(77.603125 68.272812) scale(0.1 -0.1)">
      <defs>
       <path id="DejaVuSans-4b" d="M 628 4666 
L 1259 4666 
L 1259 2694 
L 3353 4666 
L 4166 4666 
L 1850 2491 
L 4331 0 
L 3500 0 
L 1259 2247 
L 1259 0 
L 628 0 
L 628 4666 
z
" transform="scale(0.015625)"/>
      </defs>
      <use xlink:href="#DejaVuSans-4b"/>
      <use xlink:href="#DejaVuSans-6e" x="65.576172"/>
      <use xlink:href="#DejaVuSans-65" x="128.955078"/>
      <use xlink:href="#DejaVuSans-65" x="190.478516"/>
      <use xlink:href="#DejaVuSans-20" x="252.001953"/>
     </g>
    </g>
    <g id="line2d_23">
     <path d="M 49.603125 79.450938 
L 59.603125 79.450938 
L 69.603125 79.450938 
" style="fill: none; stroke: #1fa187; stroke-width: 1.5; stroke-linecap: square"/>
    </g>
    <g id="text_20">
     <!-- Ankle  -->
     <g transform="translate(77.603125 82.950938) scale(0.1 -0.1)">
      <defs>
       <path id="DejaVuSans-41" d="M 2188 4044 
L 1331 1722 
L 3047 1722 
L 2188 4044 
z
M 1831 4666 
L 2547 4666 
L 4325 0 
L 3669 0 
L 3244 1197 
L 1141 1197 
L 716 0 
L 50 0 
L 1831 4666 
z
" transform="scale(0.015625)"/>
      </defs>
      <use xlink:href="#DejaVuSans-41"/>
      <use xlink:href="#DejaVuSans-6e" x="68.408203"/>
      <use xlink:href="#DejaVuSans-6b" x="131.787109"/>
      <use xlink:href="#DejaVuSans-6c" x="189.697266"/>
      <use xlink:href="#DejaVuSans-65" x="217.480469"/>
      <use xlink:href="#DejaVuSans-20" x="279.003906"/>
     </g>
    </g>
    <g id="line2d_24">
     <path d="M 49.603125 94.129063 
L 59.603125 94.129063 
L 69.603125 94.129063 
" style="fill: none; stroke: #4ac16d; stroke-width: 1.5; stroke-linecap: square"/>
    </g>
    <g id="text_21">
     <!-- Metatarsal  -->
     <g transform="translate(77.603125 97.629063) scale(0.1 -0.1)">
      <defs>
       <path id="DejaVuSans-4d" d="M 628 4666 
L 1569 4666 
L 2759 1491 
L 3956 4666 
L 4897 4666 
L 4897 0 
L 4281 0 
L 4281 4097 
L 3078 897 
L 2444 897 
L 1241 4097 
L 1241 0 
L 628 0 
L 628 4666 
z
" transform="scale(0.015625)"/>
      </defs>
      <use xlink:href="#DejaVuSans-4d"/>
      <use xlink:href="#DejaVuSans-65" x="86.279297"/>
      <use xlink:href="#DejaVuSans-74" x="147.802734"/>
      <use xlink:href="#DejaVuSans-61" x="187.011719"/>
      <use xlink:href="#DejaVuSans-74" x="248.291016"/>
      <use xlink:href="#DejaVuSans-61" x="287.5"/>
      <use xlink:href="#DejaVuSans-72" x="348.779297"/>
      <use xlink:href="#DejaVuSans-73" x="389.892578"/>
      <use xlink:href="#DejaVuSans-61" x="441.992188"/>
      <use xlink:href="#DejaVuSans-6c" x="503.271484"/>
      <use xlink:href="#DejaVuSans-20" x="531.054688"/>
     </g>
    </g>
    <g id="line2d_25">
     <path d="M 49.603125 108.807187 
L 59.603125 108.807187 
L 69.603125 108.807187 
" style="fill: none; stroke: #a0da39; stroke-width: 1.5; stroke-linecap: square"/>
    </g>
    <g id="text_22">
     <!-- ToeTip  -->
     <g transform="translate(77.603125 112.307187) scale(0.1 -0.1)">
      <use xlink:href="#DejaVuSans-54"/>
      <use xlink:href="#DejaVuSans-6f" x="44.083984"/>
      <use xlink:href="#DejaVuSans-65" x="105.265625"/>
      <use xlink:href="#DejaVuSans-54" x="166.789062"/>
      <use xlink:href="#DejaVuSans-69" x="224.748047"/>
      <use xlink:href="#DejaVuSans-70" x="252.53125"/>
      <use xlink:href="#DejaVuSans-20" x="316.007812"/>
     </g>
    </g>
   </g>
  </g>
 </g>
 <defs>
  <clipPath id="p219f7e9f73">
   <rect x="40.603125" y="22.318125" width="357.12" height="266.112"/>
  </clipPath>
 </defs>
</svg>
