<?xml version="1.0" encoding="utf-8" standalone="no"?>
<!DOCTYPE svg PUBLIC "-//W3C//DTD SVG 1.1//EN"
  "http://www.w3.org/Graphics/SVG/1.1/DTD/svg11.dtd">
<svg xmlns:xlink="http://www.w3.org/1999/xlink" width="416.480937pt" height="325.986375pt" viewBox="0 0 416.480937 325.986375" xmlns="http://www.w3.org/2000/svg" version="1.1">
 <metadata>
  <rdf:RDF xmlns:dc="http://purl.org/dc/elements/1.1/" xmlns:cc="http://creativecommons.org/ns#" xmlns:rdf="http://www.w3.org/1999/02/22-rdf-syntax-ns#">
   <cc:Work>
    <dc:type rdf:resource="http://purl.org/dc/dcmitype/StillImage"/>
    <dc:date>2024-08-08T17:49:46.346579</dc:date>
    <dc:format>image/svg+xml</dc:format>
    <dc:creator>
     <cc:Agent>
      <dc:title>Matplotlib v3.8.4, https://matplotlib.org/</dc:title>
     </cc:Agent>
    </dc:creator>
   </cc:Work>
  </rdf:RDF>
 </metadata>
 <defs>
  <style type="text/css">*{stroke-linejoin: round; stroke-linecap: butt}</style>
 </defs>
 <g id="figure_1">
  <g id="patch_1">
   <path d="M 0 325.986375 
L 416.480937 325.986375 
L 416.480937 0 
L 0 0 
z
" style="fill: #ffffff"/>
  </g>
  <g id="axes_1">
   <g id="patch_2">
    <path d="M 52.160938 288.430125 
L 409.280938 288.430125 
L 409.280938 22.318125 
L 52.160938 22.318125 
z
" style="fill: #ffffff"/>
   </g>
   <g id="PolyCollection_1">
    <path d="M 68.393665 196.124104 
L 68.393665 212.708667 
L 81.920938 217.114654 
L 95.44821 218.39955 
L 108.975483 219.176366 
L 122.502756 219.188771 
L 136.030028 223.407133 
L 149.557301 222.735468 
L 163.084574 221.65756 
L 176.611847 226.272711 
L 190.139119 226.712946 
L 203.666392 225.238708 
L 217.193665 227.472786 
L 230.720938 228.881283 
L 244.24821 231.052042 
L 257.775483 231.430499 
L 271.302756 230.974988 
L 284.830028 230.949849 
L 298.357301 229.574311 
L 311.884574 227.022817 
L 325.411847 224.375063 
L 338.939119 218.865281 
L 352.466392 216.486075 
L 365.993665 215.983597 
L 379.520938 216.39154 
L 393.04821 214.483993 
L 393.04821 200.900282 
L 393.04821 200.900282 
L 379.520938 203.795529 
L 365.993665 207.330667 
L 352.466392 211.919382 
L 338.939119 217.151781 
L 325.411847 220.903944 
L 311.884574 222.773227 
L 298.357301 222.134017 
L 284.830028 220.974504 
L 271.302756 220.663431 
L 257.775483 219.098257 
L 244.24821 220.739662 
L 230.720938 223.15887 
L 217.193665 222.474299 
L 203.666392 221.439069 
L 190.139119 220.227293 
L 176.611847 219.861637 
L 163.084574 218.170634 
L 149.557301 217.443456 
L 136.030028 215.815186 
L 122.502756 213.766808 
L 108.975483 210.17737 
L 95.44821 205.577692 
L 81.920938 200.773219 
L 68.393665 196.124104 
z
" clip-path="url(#p8cab9c3182)" style="fill: #46327e; fill-opacity: 0.2"/>
   </g>
   <g id="PolyCollection_2">
    <path d="M 68.393665 191.239661 
L 68.393665 212.64218 
L 81.920938 212.62449 
L 95.44821 211.984267 
L 108.975483 214.002885 
L 122.502756 215.132501 
L 136.030028 216.547654 
L 149.557301 219.754606 
L 163.084574 224.813614 
L 176.611847 233.118837 
L 190.139119 234.722966 
L 203.666392 233.428174 
L 217.193665 236.411535 
L 230.720938 236.415959 
L 244.24821 236.210913 
L 257.775483 235.679496 
L 271.302756 234.6086 
L 284.830028 233.899756 
L 298.357301 231.598714 
L 311.884574 227.405295 
L 325.411847 224.305032 
L 338.939119 220.883183 
L 352.466392 218.839524 
L 365.993665 217.617834 
L 379.520938 216.062724 
L 393.04821 213.206658 
L 393.04821 198.492428 
L 393.04821 198.492428 
L 379.520938 204.075444 
L 365.993665 208.280448 
L 352.466392 213.021421 
L 338.939119 217.322568 
L 325.411847 220.78102 
L 311.884574 221.259432 
L 298.357301 219.33128 
L 284.830028 219.486759 
L 271.302756 221.551169 
L 257.775483 222.075094 
L 244.24821 223.770368 
L 230.720938 225.337691 
L 217.193665 225.18541 
L 203.666392 225.027574 
L 190.139119 224.850641 
L 176.611847 225.639858 
L 163.084574 222.687816 
L 149.557301 216.574257 
L 136.030028 208.991419 
L 122.502756 202.869334 
L 108.975483 198.037944 
L 95.44821 196.231918 
L 81.920938 192.000251 
L 68.393665 191.239661 
z
" clip-path="url(#p8cab9c3182)" style="fill: #365c8d; fill-opacity: 0.2"/>
   </g>
   <g id="PolyCollection_3">
    <path d="M 68.393665 167.171587 
L 68.393665 195.713069 
L 81.920938 201.392898 
L 95.44821 203.929719 
L 108.975483 212.497531 
L 122.502756 217.315804 
L 136.030028 220.179917 
L 149.557301 222.842458 
L 163.084574 228.411101 
L 176.611847 237.683331 
L 190.139119 241.676148 
L 203.666392 244.245025 
L 217.193665 248.668773 
L 230.720938 251.159223 
L 244.24821 251.583143 
L 257.775483 251.537082 
L 271.302756 251.372292 
L 284.830028 251.001359 
L 298.357301 247.914436 
L 311.884574 244.435685 
L 325.411847 241.651034 
L 338.939119 238.197719 
L 352.466392 234.202032 
L 365.993665 227.712759 
L 379.520938 216.297696 
L 393.04821 195.743119 
L 393.04821 172.03098 
L 393.04821 172.03098 
L 379.520938 195.783422 
L 365.993665 213.612784 
L 352.466392 221.923526 
L 338.939119 226.670187 
L 325.411847 229.390698 
L 311.884574 227.630514 
L 298.357301 224.549864 
L 284.830028 223.680546 
L 271.302756 224.663342 
L 257.775483 225.215628 
L 244.24821 226.15833 
L 230.720938 227.633841 
L 217.193665 227.507631 
L 203.666392 226.383315 
L 190.139119 227.953606 
L 176.611847 228.146176 
L 163.084574 223.369872 
L 149.557301 211.551366 
L 136.030028 191.442409 
L 122.502756 174.842395 
L 108.975483 159.36135 
L 95.44821 162.125407 
L 81.920938 165.274068 
L 68.393665 167.171587 
z
" clip-path="url(#p8cab9c3182)" style="fill: #277f8e; fill-opacity: 0.2"/>
   </g>
   <g id="PolyCollection_4">
    <path d="M 68.393665 160.85288 
L 68.393665 197.14509 
L 81.920938 202.650544 
L 95.44821 186.192058 
L 108.975483 181.088156 
L 122.502756 185.636555 
L 136.030028 191.971861 
L 149.557301 218.441807 
L 163.084574 249.192005 
L 176.611847 262.042907 
L 190.139119 264.04557 
L 203.666392 262.788085 
L 217.193665 264.347905 
L 230.720938 265.708421 
L 244.24821 262.398465 
L 257.775483 259.484564 
L 271.302756 257.465913 
L 284.830028 255.602847 
L 298.357301 251.106198 
L 311.884574 247.227476 
L 325.411847 244.359 
L 338.939119 241.610292 
L 352.466392 237.564322 
L 365.993665 230.413995 
L 379.520938 218.121625 
L 393.04821 196.327995 
L 393.04821 173.43872 
L 393.04821 173.43872 
L 379.520938 197.225816 
L 365.993665 213.263881 
L 352.466392 220.70633 
L 338.939119 225.644071 
L 325.411847 229.620325 
L 311.884574 229.299957 
L 298.357301 227.435997 
L 284.830028 227.956095 
L 271.302756 229.59619 
L 257.775483 231.163454 
L 244.24821 232.739482 
L 230.720938 234.689404 
L 217.193665 235.666588 
L 203.666392 239.948089 
L 190.139119 246.144793 
L 176.611847 250.546262 
L 163.084574 235.533311 
L 149.557301 191.165533 
L 136.030028 148.31461 
L 122.502756 133.391567 
L 108.975483 134.233589 
L 95.44821 157.152584 
L 81.920938 163.968562 
L 68.393665 160.85288 
z
" clip-path="url(#p8cab9c3182)" style="fill: #1fa187; fill-opacity: 0.2"/>
   </g>
   <g id="PolyCollection_5">
    <path d="M 68.393665 105.950527 
L 68.393665 136.615052 
L 81.920938 170.66337 
L 95.44821 168.930625 
L 108.975483 180.39984 
L 122.502756 187.429324 
L 136.030028 191.914898 
L 149.557301 221.05742 
L 163.084574 255.027373 
L 176.611847 266.403953 
L 190.139119 269.07847 
L 203.666392 268.191388 
L 217.193665 271.145136 
L 230.720938 273.685751 
L 244.24821 272.768353 
L 257.775483 271.606011 
L 271.302756 271.093825 
L 284.830028 270.425798 
L 298.357301 268.17408 
L 311.884574 266.440776 
L 325.411847 264.630081 
L 338.939119 263.187779 
L 352.466392 259.902825 
L 365.993665 253.716342 
L 379.520938 242.727617 
L 393.04821 214.462189 
L 393.04821 173.003422 
L 393.04821 173.003422 
L 379.520938 215.08716 
L 365.993665 228.392531 
L 352.466392 233.350885 
L 338.939119 236.92264 
L 325.411847 238.375867 
L 311.884574 238.989229 
L 298.357301 237.984027 
L 284.830028 238.509907 
L 271.302756 238.86881 
L 257.775483 239.049906 
L 244.24821 239.684692 
L 230.720938 241.180664 
L 217.193665 240.518199 
L 203.666392 244.162856 
L 190.139119 249.130267 
L 176.611847 253.775291 
L 163.084574 237.659056 
L 149.557301 188.807558 
L 136.030028 139.488491 
L 122.502756 121.559425 
L 108.975483 104.71594 
L 95.44821 112.66927 
L 81.920938 88.985853 
L 68.393665 105.950527 
z
" clip-path="url(#p8cab9c3182)" style="fill: #4ac16d; fill-opacity: 0.2"/>
   </g>
   <g id="PolyCollection_6">
    <path d="M 68.393665 97.618646 
L 68.393665 121.014713 
L 81.920938 144.388003 
L 95.44821 152.695167 
L 108.975483 178.566909 
L 122.502756 188.097243 
L 136.030028 193.378763 
L 149.557301 223.920791 
L 163.084574 256.986828 
L 176.611847 266.490446 
L 190.139119 270.291206 
L 203.666392 269.228647 
L 217.193665 272.591387 
L 230.720938 276.334125 
L 244.24821 275.334921 
L 257.775483 275.709627 
L 271.302756 275.912345 
L 284.830028 275.098079 
L 298.357301 273.164765 
L 311.884574 272.633565 
L 325.411847 272.116054 
L 338.939119 271.407432 
L 352.466392 270.586462 
L 365.993665 267.658187 
L 379.520938 264.994375 
L 393.04821 255.369144 
L 393.04821 214.307833 
L 393.04821 214.307833 
L 379.520938 233.459269 
L 365.993665 235.714692 
L 352.466392 237.574951 
L 338.939119 238.884952 
L 325.411847 239.904802 
L 311.884574 240.905429 
L 298.357301 240.710644 
L 284.830028 241.756167 
L 271.302756 241.765103 
L 257.775483 242.219643 
L 244.24821 242.415252 
L 230.720938 242.808318 
L 217.193665 242.19523 
L 203.666392 245.377769 
L 190.139119 251.21778 
L 176.611847 255.119619 
L 163.084574 238.039861 
L 149.557301 189.081565 
L 136.030028 133.829323 
L 122.502756 112.446251 
L 108.975483 76.37061 
L 95.44821 79.77992 
L 81.920938 34.414125 
L 68.393665 97.618646 
z
" clip-path="url(#p8cab9c3182)" style="fill: #a0da39; fill-opacity: 0.2"/>
   </g>
   <g id="matplotlib.axis_1">
    <g id="xtick_1">
     <g id="line2d_1">
      <defs>
       <path id="m431e85d4c3" d="M 0 0 
L 0 3.5 
" style="stroke: #000000; stroke-width: 0.8"/>
      </defs>
      <g>
       <use xlink:href="#m431e85d4c3" x="68.393665" y="288.430125" style="stroke: #000000; stroke-width: 0.8"/>
      </g>
     </g>
     <g id="text_1">
      <!-- 0 -->
      <g transform="translate(65.212415 303.028562) scale(0.1 -0.1)">
       <defs>
        <path id="DejaVuSans-30" d="M 2034 4250 
Q 1547 4250 1301 3770 
Q 1056 3291 1056 2328 
Q 1056 1369 1301 889 
Q 1547 409 2034 409 
Q 2525 409 2770 889 
Q 3016 1369 3016 2328 
Q 3016 3291 2770 3770 
Q 2525 4250 2034 4250 
z
M 2034 4750 
Q 2819 4750 3233 4129 
Q 3647 3509 3647 2328 
Q 3647 1150 3233 529 
Q 2819 -91 2034 -91 
Q 1250 -91 836 529 
Q 422 1150 422 2328 
Q 422 3509 836 4129 
Q 1250 4750 2034 4750 
z
" transform="scale(0.015625)"/>
       </defs>
       <use xlink:href="#DejaVuSans-30"/>
      </g>
     </g>
    </g>
    <g id="xtick_2">
     <g id="line2d_2">
      <g>
       <use xlink:href="#m431e85d4c3" x="133.324574" y="288.430125" style="stroke: #000000; stroke-width: 0.8"/>
      </g>
     </g>
     <g id="text_2">
      <!-- 20 -->
      <g transform="translate(126.962074 303.028562) scale(0.1 -0.1)">
       <defs>
        <path id="DejaVuSans-32" d="M 1228 531 
L 3431 531 
L 3431 0 
L 469 0 
L 469 531 
Q 828 903 1448 1529 
Q 2069 2156 2228 2338 
Q 2531 2678 2651 2914 
Q 2772 3150 2772 3378 
Q 2772 3750 2511 3984 
Q 2250 4219 1831 4219 
Q 1534 4219 1204 4116 
Q 875 4013 500 3803 
L 500 4441 
Q 881 4594 1212 4672 
Q 1544 4750 1819 4750 
Q 2544 4750 2975 4387 
Q 3406 4025 3406 3419 
Q 3406 3131 3298 2873 
Q 3191 2616 2906 2266 
Q 2828 2175 2409 1742 
Q 1991 1309 1228 531 
z
" transform="scale(0.015625)"/>
       </defs>
       <use xlink:href="#DejaVuSans-32"/>
       <use xlink:href="#DejaVuSans-30" x="63.623047"/>
      </g>
     </g>
    </g>
    <g id="xtick_3">
     <g id="line2d_3">
      <g>
       <use xlink:href="#m431e85d4c3" x="198.255483" y="288.430125" style="stroke: #000000; stroke-width: 0.8"/>
      </g>
     </g>
     <g id="text_3">
      <!-- 40 -->
      <g transform="translate(191.892983 303.028562) scale(0.1 -0.1)">
       <defs>
        <path id="DejaVuSans-34" d="M 2419 4116 
L 825 1625 
L 2419 1625 
L 2419 4116 
z
M 2253 4666 
L 3047 4666 
L 3047 1625 
L 3713 1625 
L 3713 1100 
L 3047 1100 
L 3047 0 
L 2419 0 
L 2419 1100 
L 313 1100 
L 313 1709 
L 2253 4666 
z
" transform="scale(0.015625)"/>
       </defs>
       <use xlink:href="#DejaVuSans-34"/>
       <use xlink:href="#DejaVuSans-30" x="63.623047"/>
      </g>
     </g>
    </g>
    <g id="xtick_4">
     <g id="line2d_4">
      <g>
       <use xlink:href="#m431e85d4c3" x="263.186392" y="288.430125" style="stroke: #000000; stroke-width: 0.8"/>
      </g>
     </g>
     <g id="text_4">
      <!-- 60 -->
      <g transform="translate(256.823892 303.028562) scale(0.1 -0.1)">
       <defs>
        <path id="DejaVuSans-36" d="M 2113 2584 
Q 1688 2584 1439 2293 
Q 1191 2003 1191 1497 
Q 1191 994 1439 701 
Q 1688 409 2113 409 
Q 2538 409 2786 701 
Q 3034 994 3034 1497 
Q 3034 2003 2786 2293 
Q 2538 2584 2113 2584 
z
M 3366 4563 
L 3366 3988 
Q 3128 4100 2886 4159 
Q 2644 4219 2406 4219 
Q 1781 4219 1451 3797 
Q 1122 3375 1075 2522 
Q 1259 2794 1537 2939 
Q 1816 3084 2150 3084 
Q 2853 3084 3261 2657 
Q 3669 2231 3669 1497 
Q 3669 778 3244 343 
Q 2819 -91 2113 -91 
Q 1303 -91 875 529 
Q 447 1150 447 2328 
Q 447 3434 972 4092 
Q 1497 4750 2381 4750 
Q 2619 4750 2861 4703 
Q 3103 4656 3366 4563 
z
" transform="scale(0.015625)"/>
       </defs>
       <use xlink:href="#DejaVuSans-36"/>
       <use xlink:href="#DejaVuSans-30" x="63.623047"/>
      </g>
     </g>
    </g>
    <g id="xtick_5">
     <g id="line2d_5">
      <g>
       <use xlink:href="#m431e85d4c3" x="328.117301" y="288.430125" style="stroke: #000000; stroke-width: 0.8"/>
      </g>
     </g>
     <g id="text_5">
      <!-- 80 -->
      <g transform="translate(321.754801 303.028562) scale(0.1 -0.1)">
       <defs>
        <path id="DejaVuSans-38" d="M 2034 2216 
Q 1584 2216 1326 1975 
Q 1069 1734 1069 1313 
Q 1069 891 1326 650 
Q 1584 409 2034 409 
Q 2484 409 2743 651 
Q 3003 894 3003 1313 
Q 3003 1734 2745 1975 
Q 2488 2216 2034 2216 
z
M 1403 2484 
Q 997 2584 770 2862 
Q 544 3141 544 3541 
Q 544 4100 942 4425 
Q 1341 4750 2034 4750 
Q 2731 4750 3128 4425 
Q 3525 4100 3525 3541 
Q 3525 3141 3298 2862 
Q 3072 2584 2669 2484 
Q 3125 2378 3379 2068 
Q 3634 1759 3634 1313 
Q 3634 634 3220 271 
Q 2806 -91 2034 -91 
Q 1263 -91 848 271 
Q 434 634 434 1313 
Q 434 1759 690 2068 
Q 947 2378 1403 2484 
z
M 1172 3481 
Q 1172 3119 1398 2916 
Q 1625 2713 2034 2713 
Q 2441 2713 2670 2916 
Q 2900 3119 2900 3481 
Q 2900 3844 2670 4047 
Q 2441 4250 2034 4250 
Q 1625 4250 1398 4047 
Q 1172 3844 1172 3481 
z
" transform="scale(0.015625)"/>
       </defs>
       <use xlink:href="#DejaVuSans-38"/>
       <use xlink:href="#DejaVuSans-30" x="63.623047"/>
      </g>
     </g>
    </g>
    <g id="xtick_6">
     <g id="line2d_6">
      <g>
       <use xlink:href="#m431e85d4c3" x="393.04821" y="288.430125" style="stroke: #000000; stroke-width: 0.8"/>
      </g>
     </g>
     <g id="text_6">
      <!-- 100 -->
      <g transform="translate(383.50446 303.028562) scale(0.1 -0.1)">
       <defs>
        <path id="DejaVuSans-31" d="M 794 531 
L 1825 531 
L 1825 4091 
L 703 3866 
L 703 4441 
L 1819 4666 
L 2450 4666 
L 2450 531 
L 3481 531 
L 3481 0 
L 794 0 
L 794 531 
z
" transform="scale(0.015625)"/>
       </defs>
       <use xlink:href="#DejaVuSans-31"/>
       <use xlink:href="#DejaVuSans-30" x="63.623047"/>
       <use xlink:href="#DejaVuSans-30" x="127.246094"/>
      </g>
     </g>
    </g>
    <g id="text_7">
     <!-- Percentage -->
     <g transform="translate(202.598281 316.706687) scale(0.1 -0.1)">
      <defs>
       <path id="DejaVuSans-50" d="M 1259 4147 
L 1259 2394 
L 2053 2394 
Q 2494 2394 2734 2622 
Q 2975 2850 2975 3272 
Q 2975 3691 2734 3919 
Q 2494 4147 2053 4147 
L 1259 4147 
z
M 628 4666 
L 2053 4666 
Q 2838 4666 3239 4311 
Q 3641 3956 3641 3272 
Q 3641 2581 3239 2228 
Q 2838 1875 2053 1875 
L 1259 1875 
L 1259 0 
L 628 0 
L 628 4666 
z
" transform="scale(0.015625)"/>
       <path id="DejaVuSans-65" d="M 3597 1894 
L 3597 1613 
L 953 1613 
Q 991 1019 1311 708 
Q 1631 397 2203 397 
Q 2534 397 2845 478 
Q 3156 559 3463 722 
L 3463 178 
Q 3153 47 2828 -22 
Q 2503 -91 2169 -91 
Q 1331 -91 842 396 
Q 353 884 353 1716 
Q 353 2575 817 3079 
Q 1281 3584 2069 3584 
Q 2775 3584 3186 3129 
Q 3597 2675 3597 1894 
z
M 3022 2063 
Q 3016 2534 2758 2815 
Q 2500 3097 2075 3097 
Q 1594 3097 1305 2825 
Q 1016 2553 972 2059 
L 3022 2063 
z
" transform="scale(0.015625)"/>
       <path id="DejaVuSans-72" d="M 2631 2963 
Q 2534 3019 2420 3045 
Q 2306 3072 2169 3072 
Q 1681 3072 1420 2755 
Q 1159 2438 1159 1844 
L 1159 0 
L 581 0 
L 581 3500 
L 1159 3500 
L 1159 2956 
Q 1341 3275 1631 3429 
Q 1922 3584 2338 3584 
Q 2397 3584 2469 3576 
Q 2541 3569 2628 3553 
L 2631 2963 
z
" transform="scale(0.015625)"/>
       <path id="DejaVuSans-63" d="M 3122 3366 
L 3122 2828 
Q 2878 2963 2633 3030 
Q 2388 3097 2138 3097 
Q 1578 3097 1268 2742 
Q 959 2388 959 1747 
Q 959 1106 1268 751 
Q 1578 397 2138 397 
Q 2388 397 2633 464 
Q 2878 531 3122 666 
L 3122 134 
Q 2881 22 2623 -34 
Q 2366 -91 2075 -91 
Q 1284 -91 818 406 
Q 353 903 353 1747 
Q 353 2603 823 3093 
Q 1294 3584 2113 3584 
Q 2378 3584 2631 3529 
Q 2884 3475 3122 3366 
z
" transform="scale(0.015625)"/>
       <path id="DejaVuSans-6e" d="M 3513 2113 
L 3513 0 
L 2938 0 
L 2938 2094 
Q 2938 2591 2744 2837 
Q 2550 3084 2163 3084 
Q 1697 3084 1428 2787 
Q 1159 2491 1159 1978 
L 1159 0 
L 581 0 
L 581 3500 
L 1159 3500 
L 1159 2956 
Q 1366 3272 1645 3428 
Q 1925 3584 2291 3584 
Q 2894 3584 3203 3211 
Q 3513 2838 3513 2113 
z
" transform="scale(0.015625)"/>
       <path id="DejaVuSans-74" d="M 1172 4494 
L 1172 3500 
L 2356 3500 
L 2356 3053 
L 1172 3053 
L 1172 1153 
Q 1172 725 1289 603 
Q 1406 481 1766 481 
L 2356 481 
L 2356 0 
L 1766 0 
Q 1100 0 847 248 
Q 594 497 594 1153 
L 594 3053 
L 172 3053 
L 172 3500 
L 594 3500 
L 594 4494 
L 1172 4494 
z
" transform="scale(0.015625)"/>
       <path id="DejaVuSans-61" d="M 2194 1759 
Q 1497 1759 1228 1600 
Q 959 1441 959 1056 
Q 959 750 1161 570 
Q 1363 391 1709 391 
Q 2188 391 2477 730 
Q 2766 1069 2766 1631 
L 2766 1759 
L 2194 1759 
z
M 3341 1997 
L 3341 0 
L 2766 0 
L 2766 531 
Q 2569 213 2275 61 
Q 1981 -91 1556 -91 
Q 1019 -91 701 211 
Q 384 513 384 1019 
Q 384 1609 779 1909 
Q 1175 2209 1959 2209 
L 2766 2209 
L 2766 2266 
Q 2766 2663 2505 2880 
Q 2244 3097 1772 3097 
Q 1472 3097 1187 3025 
Q 903 2953 641 2809 
L 641 3341 
Q 956 3463 1253 3523 
Q 1550 3584 1831 3584 
Q 2591 3584 2966 3190 
Q 3341 2797 3341 1997 
z
" transform="scale(0.015625)"/>
       <path id="DejaVuSans-67" d="M 2906 1791 
Q 2906 2416 2648 2759 
Q 2391 3103 1925 3103 
Q 1463 3103 1205 2759 
Q 947 2416 947 1791 
Q 947 1169 1205 825 
Q 1463 481 1925 481 
Q 2391 481 2648 825 
Q 2906 1169 2906 1791 
z
M 3481 434 
Q 3481 -459 3084 -895 
Q 2688 -1331 1869 -1331 
Q 1566 -1331 1297 -1286 
Q 1028 -1241 775 -1147 
L 775 -588 
Q 1028 -725 1275 -790 
Q 1522 -856 1778 -856 
Q 2344 -856 2625 -561 
Q 2906 -266 2906 331 
L 2906 616 
Q 2728 306 2450 153 
Q 2172 0 1784 0 
Q 1141 0 747 490 
Q 353 981 353 1791 
Q 353 2603 747 3093 
Q 1141 3584 1784 3584 
Q 2172 3584 2450 3431 
Q 2728 3278 2906 2969 
L 2906 3500 
L 3481 3500 
L 3481 434 
z
" transform="scale(0.015625)"/>
      </defs>
      <use xlink:href="#DejaVuSans-50"/>
      <use xlink:href="#DejaVuSans-65" x="56.677734"/>
      <use xlink:href="#DejaVuSans-72" x="118.201172"/>
      <use xlink:href="#DejaVuSans-63" x="157.064453"/>
      <use xlink:href="#DejaVuSans-65" x="212.044922"/>
      <use xlink:href="#DejaVuSans-6e" x="273.568359"/>
      <use xlink:href="#DejaVuSans-74" x="336.947266"/>
      <use xlink:href="#DejaVuSans-61" x="376.15625"/>
      <use xlink:href="#DejaVuSans-67" x="437.435547"/>
      <use xlink:href="#DejaVuSans-65" x="500.912109"/>
     </g>
    </g>
   </g>
   <g id="matplotlib.axis_2">
    <g id="ytick_1">
     <g id="line2d_7">
      <defs>
       <path id="mb0f776009a" d="M 0 0 
L -3.5 0 
" style="stroke: #000000; stroke-width: 0.8"/>
      </defs>
      <g>
       <use xlink:href="#mb0f776009a" x="52.160938" y="262.258079" style="stroke: #000000; stroke-width: 0.8"/>
      </g>
     </g>
     <g id="text_8">
      <!-- −0.5 -->
      <g transform="translate(20.878125 266.057298) scale(0.1 -0.1)">
       <defs>
        <path id="DejaVuSans-2212" d="M 678 2272 
L 4684 2272 
L 4684 1741 
L 678 1741 
L 678 2272 
z
" transform="scale(0.015625)"/>
        <path id="DejaVuSans-2e" d="M 684 794 
L 1344 794 
L 1344 0 
L 684 0 
L 684 794 
z
" transform="scale(0.015625)"/>
        <path id="DejaVuSans-35" d="M 691 4666 
L 3169 4666 
L 3169 4134 
L 1269 4134 
L 1269 2991 
Q 1406 3038 1543 3061 
Q 1681 3084 1819 3084 
Q 2600 3084 3056 2656 
Q 3513 2228 3513 1497 
Q 3513 744 3044 326 
Q 2575 -91 1722 -91 
Q 1428 -91 1123 -41 
Q 819 9 494 109 
L 494 744 
Q 775 591 1075 516 
Q 1375 441 1709 441 
Q 2250 441 2565 725 
Q 2881 1009 2881 1497 
Q 2881 1984 2565 2268 
Q 2250 2553 1709 2553 
Q 1456 2553 1204 2497 
Q 953 2441 691 2322 
L 691 4666 
z
" transform="scale(0.015625)"/>
       </defs>
       <use xlink:href="#DejaVuSans-2212"/>
       <use xlink:href="#DejaVuSans-30" x="83.789062"/>
       <use xlink:href="#DejaVuSans-2e" x="147.412109"/>
       <use xlink:href="#DejaVuSans-35" x="179.199219"/>
      </g>
     </g>
    </g>
    <g id="ytick_2">
     <g id="line2d_8">
      <g>
       <use xlink:href="#mb0f776009a" x="52.160938" y="219.866702" style="stroke: #000000; stroke-width: 0.8"/>
      </g>
     </g>
     <g id="text_9">
      <!-- 0.0 -->
      <g transform="translate(29.257813 223.665921) scale(0.1 -0.1)">
       <use xlink:href="#DejaVuSans-30"/>
       <use xlink:href="#DejaVuSans-2e" x="63.623047"/>
       <use xlink:href="#DejaVuSans-30" x="95.410156"/>
      </g>
     </g>
    </g>
    <g id="ytick_3">
     <g id="line2d_9">
      <g>
       <use xlink:href="#mb0f776009a" x="52.160938" y="177.475325" style="stroke: #000000; stroke-width: 0.8"/>
      </g>
     </g>
     <g id="text_10">
      <!-- 0.5 -->
      <g transform="translate(29.257813 181.274543) scale(0.1 -0.1)">
       <use xlink:href="#DejaVuSans-30"/>
       <use xlink:href="#DejaVuSans-2e" x="63.623047"/>
       <use xlink:href="#DejaVuSans-35" x="95.410156"/>
      </g>
     </g>
    </g>
    <g id="ytick_4">
     <g id="line2d_10">
      <g>
       <use xlink:href="#mb0f776009a" x="52.160938" y="135.083947" style="stroke: #000000; stroke-width: 0.8"/>
      </g>
     </g>
     <g id="text_11">
      <!-- 1.0 -->
      <g transform="translate(29.257813 138.883166) scale(0.1 -0.1)">
       <use xlink:href="#DejaVuSans-31"/>
       <use xlink:href="#DejaVuSans-2e" x="63.623047"/>
       <use xlink:href="#DejaVuSans-30" x="95.410156"/>
      </g>
     </g>
    </g>
    <g id="ytick_5">
     <g id="line2d_11">
      <g>
       <use xlink:href="#mb0f776009a" x="52.160938" y="92.69257" style="stroke: #000000; stroke-width: 0.8"/>
      </g>
     </g>
     <g id="text_12">
      <!-- 1.5 -->
      <g transform="translate(29.257813 96.491789) scale(0.1 -0.1)">
       <use xlink:href="#DejaVuSans-31"/>
       <use xlink:href="#DejaVuSans-2e" x="63.623047"/>
       <use xlink:href="#DejaVuSans-35" x="95.410156"/>
      </g>
     </g>
    </g>
    <g id="ytick_6">
     <g id="line2d_12">
      <g>
       <use xlink:href="#mb0f776009a" x="52.160938" y="50.301193" style="stroke: #000000; stroke-width: 0.8"/>
      </g>
     </g>
     <g id="text_13">
      <!-- 2.0 -->
      <g transform="translate(29.257813 54.100412) scale(0.1 -0.1)">
       <use xlink:href="#DejaVuSans-32"/>
       <use xlink:href="#DejaVuSans-2e" x="63.623047"/>
       <use xlink:href="#DejaVuSans-30" x="95.410156"/>
      </g>
     </g>
    </g>
    <g id="text_14">
     <!-- Velocity (x in pixels / 4 ms) -->
     <g transform="translate(14.798438 222.720219) rotate(-90) scale(0.1 -0.1)">
      <defs>
       <path id="DejaVuSans-56" d="M 1831 0 
L 50 4666 
L 709 4666 
L 2188 738 
L 3669 4666 
L 4325 4666 
L 2547 0 
L 1831 0 
z
" transform="scale(0.015625)"/>
       <path id="DejaVuSans-6c" d="M 603 4863 
L 1178 4863 
L 1178 0 
L 603 0 
L 603 4863 
z
" transform="scale(0.015625)"/>
       <path id="DejaVuSans-6f" d="M 1959 3097 
Q 1497 3097 1228 2736 
Q 959 2375 959 1747 
Q 959 1119 1226 758 
Q 1494 397 1959 397 
Q 2419 397 2687 759 
Q 2956 1122 2956 1747 
Q 2956 2369 2687 2733 
Q 2419 3097 1959 3097 
z
M 1959 3584 
Q 2709 3584 3137 3096 
Q 3566 2609 3566 1747 
Q 3566 888 3137 398 
Q 2709 -91 1959 -91 
Q 1206 -91 779 398 
Q 353 888 353 1747 
Q 353 2609 779 3096 
Q 1206 3584 1959 3584 
z
" transform="scale(0.015625)"/>
       <path id="DejaVuSans-69" d="M 603 3500 
L 1178 3500 
L 1178 0 
L 603 0 
L 603 3500 
z
M 603 4863 
L 1178 4863 
L 1178 4134 
L 603 4134 
L 603 4863 
z
" transform="scale(0.015625)"/>
       <path id="DejaVuSans-79" d="M 2059 -325 
Q 1816 -950 1584 -1140 
Q 1353 -1331 966 -1331 
L 506 -1331 
L 506 -850 
L 844 -850 
Q 1081 -850 1212 -737 
Q 1344 -625 1503 -206 
L 1606 56 
L 191 3500 
L 800 3500 
L 1894 763 
L 2988 3500 
L 3597 3500 
L 2059 -325 
z
" transform="scale(0.015625)"/>
       <path id="DejaVuSans-20" transform="scale(0.015625)"/>
       <path id="DejaVuSans-28" d="M 1984 4856 
Q 1566 4138 1362 3434 
Q 1159 2731 1159 2009 
Q 1159 1288 1364 580 
Q 1569 -128 1984 -844 
L 1484 -844 
Q 1016 -109 783 600 
Q 550 1309 550 2009 
Q 550 2706 781 3412 
Q 1013 4119 1484 4856 
L 1984 4856 
z
" transform="scale(0.015625)"/>
       <path id="DejaVuSans-78" d="M 3513 3500 
L 2247 1797 
L 3578 0 
L 2900 0 
L 1881 1375 
L 863 0 
L 184 0 
L 1544 1831 
L 300 3500 
L 978 3500 
L 1906 2253 
L 2834 3500 
L 3513 3500 
z
" transform="scale(0.015625)"/>
       <path id="DejaVuSans-70" d="M 1159 525 
L 1159 -1331 
L 581 -1331 
L 581 3500 
L 1159 3500 
L 1159 2969 
Q 1341 3281 1617 3432 
Q 1894 3584 2278 3584 
Q 2916 3584 3314 3078 
Q 3713 2572 3713 1747 
Q 3713 922 3314 415 
Q 2916 -91 2278 -91 
Q 1894 -91 1617 61 
Q 1341 213 1159 525 
z
M 3116 1747 
Q 3116 2381 2855 2742 
Q 2594 3103 2138 3103 
Q 1681 3103 1420 2742 
Q 1159 2381 1159 1747 
Q 1159 1113 1420 752 
Q 1681 391 2138 391 
Q 2594 391 2855 752 
Q 3116 1113 3116 1747 
z
" transform="scale(0.015625)"/>
       <path id="DejaVuSans-73" d="M 2834 3397 
L 2834 2853 
Q 2591 2978 2328 3040 
Q 2066 3103 1784 3103 
Q 1356 3103 1142 2972 
Q 928 2841 928 2578 
Q 928 2378 1081 2264 
Q 1234 2150 1697 2047 
L 1894 2003 
Q 2506 1872 2764 1633 
Q 3022 1394 3022 966 
Q 3022 478 2636 193 
Q 2250 -91 1575 -91 
Q 1294 -91 989 -36 
Q 684 19 347 128 
L 347 722 
Q 666 556 975 473 
Q 1284 391 1588 391 
Q 1994 391 2212 530 
Q 2431 669 2431 922 
Q 2431 1156 2273 1281 
Q 2116 1406 1581 1522 
L 1381 1569 
Q 847 1681 609 1914 
Q 372 2147 372 2553 
Q 372 3047 722 3315 
Q 1072 3584 1716 3584 
Q 2034 3584 2315 3537 
Q 2597 3491 2834 3397 
z
" transform="scale(0.015625)"/>
       <path id="DejaVuSans-2f" d="M 1625 4666 
L 2156 4666 
L 531 -594 
L 0 -594 
L 1625 4666 
z
" transform="scale(0.015625)"/>
       <path id="DejaVuSans-6d" d="M 3328 2828 
Q 3544 3216 3844 3400 
Q 4144 3584 4550 3584 
Q 5097 3584 5394 3201 
Q 5691 2819 5691 2113 
L 5691 0 
L 5113 0 
L 5113 2094 
Q 5113 2597 4934 2840 
Q 4756 3084 4391 3084 
Q 3944 3084 3684 2787 
Q 3425 2491 3425 1978 
L 3425 0 
L 2847 0 
L 2847 2094 
Q 2847 2600 2669 2842 
Q 2491 3084 2119 3084 
Q 1678 3084 1418 2786 
Q 1159 2488 1159 1978 
L 1159 0 
L 581 0 
L 581 3500 
L 1159 3500 
L 1159 2956 
Q 1356 3278 1631 3431 
Q 1906 3584 2284 3584 
Q 2666 3584 2933 3390 
Q 3200 3197 3328 2828 
z
" transform="scale(0.015625)"/>
       <path id="DejaVuSans-29" d="M 513 4856 
L 1013 4856 
Q 1481 4119 1714 3412 
Q 1947 2706 1947 2009 
Q 1947 1309 1714 600 
Q 1481 -109 1013 -844 
L 513 -844 
Q 928 -128 1133 580 
Q 1338 1288 1338 2009 
Q 1338 2731 1133 3434 
Q 928 4138 513 4856 
z
" transform="scale(0.015625)"/>
      </defs>
      <use xlink:href="#DejaVuSans-56"/>
      <use xlink:href="#DejaVuSans-65" x="60.658203"/>
      <use xlink:href="#DejaVuSans-6c" x="122.181641"/>
      <use xlink:href="#DejaVuSans-6f" x="149.964844"/>
      <use xlink:href="#DejaVuSans-63" x="211.146484"/>
      <use xlink:href="#DejaVuSans-69" x="266.126953"/>
      <use xlink:href="#DejaVuSans-74" x="293.910156"/>
      <use xlink:href="#DejaVuSans-79" x="333.119141"/>
      <use xlink:href="#DejaVuSans-20" x="392.298828"/>
      <use xlink:href="#DejaVuSans-28" x="424.085938"/>
      <use xlink:href="#DejaVuSans-78" x="463.099609"/>
      <use xlink:href="#DejaVuSans-20" x="522.279297"/>
      <use xlink:href="#DejaVuSans-69" x="554.066406"/>
      <use xlink:href="#DejaVuSans-6e" x="581.849609"/>
      <use xlink:href="#DejaVuSans-20" x="645.228516"/>
      <use xlink:href="#DejaVuSans-70" x="677.015625"/>
      <use xlink:href="#DejaVuSans-69" x="740.492188"/>
      <use xlink:href="#DejaVuSans-78" x="768.275391"/>
      <use xlink:href="#DejaVuSans-65" x="824.330078"/>
      <use xlink:href="#DejaVuSans-6c" x="885.853516"/>
      <use xlink:href="#DejaVuSans-73" x="913.636719"/>
      <use xlink:href="#DejaVuSans-20" x="965.736328"/>
      <use xlink:href="#DejaVuSans-2f" x="997.523438"/>
      <use xlink:href="#DejaVuSans-20" x="1031.214844"/>
      <use xlink:href="#DejaVuSans-34" x="1063.001953"/>
      <use xlink:href="#DejaVuSans-20" x="1126.625"/>
      <use xlink:href="#DejaVuSans-6d" x="1158.412109"/>
      <use xlink:href="#DejaVuSans-73" x="1255.824219"/>
      <use xlink:href="#DejaVuSans-29" x="1307.923828"/>
     </g>
    </g>
   </g>
   <g id="line2d_13">
    <path d="M 68.393665 204.416385 
L 81.920938 208.943937 
L 95.44821 211.988621 
L 108.975483 214.676868 
L 122.502756 216.47779 
L 136.030028 219.61116 
L 149.557301 220.089462 
L 163.084574 219.914097 
L 176.611847 223.067174 
L 190.139119 223.470119 
L 203.666392 223.338889 
L 217.193665 224.973542 
L 230.720938 226.020076 
L 244.24821 225.895852 
L 257.775483 225.264378 
L 271.302756 225.81921 
L 284.830028 225.962176 
L 298.357301 225.854164 
L 311.884574 224.898022 
L 325.411847 222.639504 
L 338.939119 218.008531 
L 352.466392 214.202729 
L 365.993665 211.657132 
L 379.520938 210.093534 
L 393.04821 207.692137 
" clip-path="url(#p8cab9c3182)" style="fill: none; stroke: #46327e; stroke-width: 1.5; stroke-linecap: square"/>
   </g>
   <g id="line2d_14">
    <path d="M 68.393665 201.940921 
L 81.920938 202.312371 
L 95.44821 204.108092 
L 108.975483 206.020415 
L 122.502756 209.000918 
L 136.030028 212.769537 
L 149.557301 218.164432 
L 163.084574 223.750715 
L 176.611847 229.379348 
L 190.139119 229.786804 
L 203.666392 229.227874 
L 217.193665 230.798473 
L 230.720938 230.876825 
L 244.24821 229.99064 
L 257.775483 228.877295 
L 271.302756 228.079884 
L 284.830028 226.693258 
L 298.357301 225.464997 
L 311.884574 224.332364 
L 325.411847 222.543026 
L 338.939119 219.102876 
L 352.466392 215.930473 
L 365.993665 212.949141 
L 379.520938 210.069084 
L 393.04821 205.849543 
" clip-path="url(#p8cab9c3182)" style="fill: none; stroke: #365c8d; stroke-width: 1.5; stroke-linecap: square"/>
   </g>
   <g id="line2d_15">
    <path d="M 68.393665 181.442328 
L 81.920938 183.333483 
L 95.44821 183.027563 
L 108.975483 185.929441 
L 122.502756 196.0791 
L 136.030028 205.811163 
L 149.557301 217.196912 
L 163.084574 225.890486 
L 176.611847 232.914754 
L 190.139119 234.814877 
L 203.666392 235.31417 
L 217.193665 238.088202 
L 230.720938 239.396532 
L 244.24821 238.870736 
L 257.775483 238.376355 
L 271.302756 238.017817 
L 284.830028 237.340952 
L 298.357301 236.23215 
L 311.884574 236.0331 
L 325.411847 235.520866 
L 338.939119 232.433953 
L 352.466392 228.062779 
L 365.993665 220.662772 
L 379.520938 206.040559 
L 393.04821 183.887049 
" clip-path="url(#p8cab9c3182)" style="fill: none; stroke: #277f8e; stroke-width: 1.5; stroke-linecap: square"/>
   </g>
   <g id="line2d_16">
    <path d="M 68.393665 178.998985 
L 81.920938 183.309553 
L 95.44821 171.672321 
L 108.975483 157.660873 
L 122.502756 159.514061 
L 136.030028 170.143236 
L 149.557301 204.80367 
L 163.084574 242.362658 
L 176.611847 256.294585 
L 190.139119 255.095181 
L 203.666392 251.368087 
L 217.193665 250.007246 
L 230.720938 250.198913 
L 244.24821 247.568974 
L 257.775483 245.324009 
L 271.302756 243.531052 
L 284.830028 241.779471 
L 298.357301 239.271097 
L 311.884574 238.263717 
L 325.411847 236.989662 
L 338.939119 233.627181 
L 352.466392 229.135326 
L 365.993665 221.838938 
L 379.520938 207.673721 
L 393.04821 184.883358 
" clip-path="url(#p8cab9c3182)" style="fill: none; stroke: #1fa187; stroke-width: 1.5; stroke-linecap: square"/>
   </g>
   <g id="line2d_17">
    <path d="M 68.393665 121.28279 
L 81.920938 129.824612 
L 95.44821 140.799948 
L 108.975483 142.55789 
L 122.502756 154.494375 
L 136.030028 165.701695 
L 149.557301 204.932489 
L 163.084574 246.343215 
L 176.611847 260.089622 
L 190.139119 259.104368 
L 203.666392 256.177122 
L 217.193665 255.831667 
L 230.720938 257.433207 
L 244.24821 256.226523 
L 257.775483 255.327959 
L 271.302756 254.981317 
L 284.830028 254.467853 
L 298.357301 253.079054 
L 311.884574 252.715002 
L 325.411847 251.502974 
L 338.939119 250.055209 
L 352.466392 246.626855 
L 365.993665 241.054437 
L 379.520938 228.907389 
L 393.04821 193.732806 
" clip-path="url(#p8cab9c3182)" style="fill: none; stroke: #4ac16d; stroke-width: 1.5; stroke-linecap: square"/>
   </g>
   <g id="line2d_18">
    <path d="M 68.393665 109.316679 
L 81.920938 89.401064 
L 95.44821 116.237544 
L 108.975483 127.46876 
L 122.502756 150.271747 
L 136.030028 163.604043 
L 149.557301 206.501178 
L 163.084574 247.513345 
L 176.611847 260.805032 
L 190.139119 260.754493 
L 203.666392 257.303208 
L 217.193665 257.393309 
L 230.720938 259.571221 
L 244.24821 258.875087 
L 257.775483 258.964635 
L 271.302756 258.838724 
L 284.830028 258.427123 
L 298.357301 256.937705 
L 311.884574 256.769497 
L 325.411847 256.010428 
L 338.939119 255.146192 
L 352.466392 254.080707 
L 365.993665 251.686439 
L 379.520938 249.226822 
L 393.04821 234.838488 
" clip-path="url(#p8cab9c3182)" style="fill: none; stroke: #a0da39; stroke-width: 1.5; stroke-linecap: square"/>
   </g>
   <g id="patch_3">
    <path d="M 52.160938 288.430125 
L 52.160938 22.318125 
" style="fill: none; stroke: #000000; stroke-width: 0.8; stroke-linejoin: miter; stroke-linecap: square"/>
   </g>
   <g id="patch_4">
    <path d="M 409.280938 288.430125 
L 409.280938 22.318125 
" style="fill: none; stroke: #000000; stroke-width: 0.8; stroke-linejoin: miter; stroke-linecap: square"/>
   </g>
   <g id="patch_5">
    <path d="M 52.160938 288.430125 
L 409.280938 288.430125 
" style="fill: none; stroke: #000000; stroke-width: 0.8; stroke-linejoin: miter; stroke-linecap: square"/>
   </g>
   <g id="patch_6">
    <path d="M 52.160938 22.318125 
L 409.280938 22.318125 
" style="fill: none; stroke: #000000; stroke-width: 0.8; stroke-linejoin: miter; stroke-linecap: square"/>
   </g>
   <g id="text_15">
    <!-- WT_levelwalk - Joint velocities over average step cycle -->
    <g transform="translate(66.538438 16.318125) scale(0.12 -0.12)">
     <defs>
      <path id="DejaVuSans-57" d="M 213 4666 
L 850 4666 
L 1831 722 
L 2809 4666 
L 3519 4666 
L 4500 722 
L 5478 4666 
L 6119 4666 
L 4947 0 
L 4153 0 
L 3169 4050 
L 2175 0 
L 1381 0 
L 213 4666 
z
" transform="scale(0.015625)"/>
      <path id="DejaVuSans-54" d="M -19 4666 
L 3928 4666 
L 3928 4134 
L 2272 4134 
L 2272 0 
L 1638 0 
L 1638 4134 
L -19 4134 
L -19 4666 
z
" transform="scale(0.015625)"/>
      <path id="DejaVuSans-5f" d="M 3263 -1063 
L 3263 -1509 
L -63 -1509 
L -63 -1063 
L 3263 -1063 
z
" transform="scale(0.015625)"/>
      <path id="DejaVuSans-76" d="M 191 3500 
L 800 3500 
L 1894 563 
L 2988 3500 
L 3597 3500 
L 2284 0 
L 1503 0 
L 191 3500 
z
" transform="scale(0.015625)"/>
      <path id="DejaVuSans-77" d="M 269 3500 
L 844 3500 
L 1563 769 
L 2278 3500 
L 2956 3500 
L 3675 769 
L 4391 3500 
L 4966 3500 
L 4050 0 
L 3372 0 
L 2619 2869 
L 1863 0 
L 1184 0 
L 269 3500 
z
" transform="scale(0.015625)"/>
      <path id="DejaVuSans-6b" d="M 581 4863 
L 1159 4863 
L 1159 1991 
L 2875 3500 
L 3609 3500 
L 1753 1863 
L 3688 0 
L 2938 0 
L 1159 1709 
L 1159 0 
L 581 0 
L 581 4863 
z
" transform="scale(0.015625)"/>
      <path id="DejaVuSans-2d" d="M 313 2009 
L 1997 2009 
L 1997 1497 
L 313 1497 
L 313 2009 
z
" transform="scale(0.015625)"/>
      <path id="DejaVuSans-4a" d="M 628 4666 
L 1259 4666 
L 1259 325 
Q 1259 -519 939 -900 
Q 619 -1281 -91 -1281 
L -331 -1281 
L -331 -750 
L -134 -750 
Q 284 -750 456 -515 
Q 628 -281 628 325 
L 628 4666 
z
" transform="scale(0.015625)"/>
     </defs>
     <use xlink:href="#DejaVuSans-57"/>
     <use xlink:href="#DejaVuSans-54" x="98.876953"/>
     <use xlink:href="#DejaVuSans-5f" x="159.960938"/>
     <use xlink:href="#DejaVuSans-6c" x="209.960938"/>
     <use xlink:href="#DejaVuSans-65" x="237.744141"/>
     <use xlink:href="#DejaVuSans-76" x="299.267578"/>
     <use xlink:href="#DejaVuSans-65" x="358.447266"/>
     <use xlink:href="#DejaVuSans-6c" x="419.970703"/>
     <use xlink:href="#DejaVuSans-77" x="447.753906"/>
     <use xlink:href="#DejaVuSans-61" x="529.541016"/>
     <use xlink:href="#DejaVuSans-6c" x="590.820312"/>
     <use xlink:href="#DejaVuSans-6b" x="618.603516"/>
     <use xlink:href="#DejaVuSans-20" x="676.513672"/>
     <use xlink:href="#DejaVuSans-2d" x="708.300781"/>
     <use xlink:href="#DejaVuSans-20" x="744.384766"/>
     <use xlink:href="#DejaVuSans-4a" x="776.171875"/>
     <use xlink:href="#DejaVuSans-6f" x="805.664062"/>
     <use xlink:href="#DejaVuSans-69" x="866.845703"/>
     <use xlink:href="#DejaVuSans-6e" x="894.628906"/>
     <use xlink:href="#DejaVuSans-74" x="958.007812"/>
     <use xlink:href="#DejaVuSans-20" x="997.216797"/>
     <use xlink:href="#DejaVuSans-76" x="1029.003906"/>
     <use xlink:href="#DejaVuSans-65" x="1088.183594"/>
     <use xlink:href="#DejaVuSans-6c" x="1149.707031"/>
     <use xlink:href="#DejaVuSans-6f" x="1177.490234"/>
     <use xlink:href="#DejaVuSans-63" x="1238.671875"/>
     <use xlink:href="#DejaVuSans-69" x="1293.652344"/>
     <use xlink:href="#DejaVuSans-74" x="1321.435547"/>
     <use xlink:href="#DejaVuSans-69" x="1360.644531"/>
     <use xlink:href="#DejaVuSans-65" x="1388.427734"/>
     <use xlink:href="#DejaVuSans-73" x="1449.951172"/>
     <use xlink:href="#DejaVuSans-20" x="1502.050781"/>
     <use xlink:href="#DejaVuSans-6f" x="1533.837891"/>
     <use xlink:href="#DejaVuSans-76" x="1595.019531"/>
     <use xlink:href="#DejaVuSans-65" x="1654.199219"/>
     <use xlink:href="#DejaVuSans-72" x="1715.722656"/>
     <use xlink:href="#DejaVuSans-20" x="1756.835938"/>
     <use xlink:href="#DejaVuSans-61" x="1788.623047"/>
     <use xlink:href="#DejaVuSans-76" x="1849.902344"/>
     <use xlink:href="#DejaVuSans-65" x="1909.082031"/>
     <use xlink:href="#DejaVuSans-72" x="1970.605469"/>
     <use xlink:href="#DejaVuSans-61" x="2011.71875"/>
     <use xlink:href="#DejaVuSans-67" x="2072.998047"/>
     <use xlink:href="#DejaVuSans-65" x="2136.474609"/>
     <use xlink:href="#DejaVuSans-20" x="2197.998047"/>
     <use xlink:href="#DejaVuSans-73" x="2229.785156"/>
     <use xlink:href="#DejaVuSans-74" x="2281.884766"/>
     <use xlink:href="#DejaVuSans-65" x="2321.09375"/>
     <use xlink:href="#DejaVuSans-70" x="2382.617188"/>
     <use xlink:href="#DejaVuSans-20" x="2446.09375"/>
     <use xlink:href="#DejaVuSans-63" x="2477.880859"/>
     <use xlink:href="#DejaVuSans-79" x="2532.861328"/>
     <use xlink:href="#DejaVuSans-63" x="2592.041016"/>
     <use xlink:href="#DejaVuSans-6c" x="2647.021484"/>
     <use xlink:href="#DejaVuSans-65" x="2674.804688"/>
    </g>
   </g>
   <g id="legend_1">
    <g id="patch_7">
     <path d="M 313.998125 118.386875 
L 402.280938 118.386875 
Q 404.280938 118.386875 404.280938 116.386875 
L 404.280938 29.318125 
Q 404.280938 27.318125 402.280938 27.318125 
L 313.998125 27.318125 
Q 311.998125 27.318125 311.998125 29.318125 
L 311.998125 116.386875 
Q 311.998125 118.386875 313.998125 118.386875 
z
" style="fill: #ffffff; opacity: 0.8; stroke: #cccccc; stroke-linejoin: miter"/>
    </g>
    <g id="line2d_19">
     <path d="M 315.998125 35.416562 
L 325.998125 35.416562 
L 335.998125 35.416562 
" style="fill: none; stroke: #46327e; stroke-width: 1.5; stroke-linecap: square"/>
    </g>
    <g id="text_16">
     <!-- Crest  -->
     <g transform="translate(343.998125 38.916562) scale(0.1 -0.1)">
      <defs>
       <path id="DejaVuSans-43" d="M 4122 4306 
L 4122 3641 
Q 3803 3938 3442 4084 
Q 3081 4231 2675 4231 
Q 1875 4231 1450 3742 
Q 1025 3253 1025 2328 
Q 1025 1406 1450 917 
Q 1875 428 2675 428 
Q 3081 428 3442 575 
Q 3803 722 4122 1019 
L 4122 359 
Q 3791 134 3420 21 
Q 3050 -91 2638 -91 
Q 1578 -91 968 557 
Q 359 1206 359 2328 
Q 359 3453 968 4101 
Q 1578 4750 2638 4750 
Q 3056 4750 3426 4639 
Q 3797 4528 4122 4306 
z
" transform="scale(0.015625)"/>
      </defs>
      <use xlink:href="#DejaVuSans-43"/>
      <use xlink:href="#DejaVuSans-72" x="69.824219"/>
      <use xlink:href="#DejaVuSans-65" x="108.6875"/>
      <use xlink:href="#DejaVuSans-73" x="170.210938"/>
      <use xlink:href="#DejaVuSans-74" x="222.310547"/>
      <use xlink:href="#DejaVuSans-20" x="261.519531"/>
     </g>
    </g>
    <g id="line2d_20">
     <path d="M 315.998125 50.094688 
L 325.998125 50.094688 
L 335.998125 50.094688 
" style="fill: none; stroke: #365c8d; stroke-width: 1.5; stroke-linecap: square"/>
    </g>
    <g id="text_17">
     <!-- Hip  -->
     <g transform="translate(343.998125 53.594688) scale(0.1 -0.1)">
      <defs>
       <path id="DejaVuSans-48" d="M 628 4666 
L 1259 4666 
L 1259 2753 
L 3553 2753 
L 3553 4666 
L 4184 4666 
L 4184 0 
L 3553 0 
L 3553 2222 
L 1259 2222 
L 1259 0 
L 628 0 
L 628 4666 
z
" transform="scale(0.015625)"/>
      </defs>
      <use xlink:href="#DejaVuSans-48"/>
      <use xlink:href="#DejaVuSans-69" x="75.195312"/>
      <use xlink:href="#DejaVuSans-70" x="102.978516"/>
      <use xlink:href="#DejaVuSans-20" x="166.455078"/>
     </g>
    </g>
    <g id="line2d_21">
     <path d="M 315.998125 64.772812 
L 325.998125 64.772812 
L 335.998125 64.772812 
" style="fill: none; stroke: #277f8e; stroke-width: 1.5; stroke-linecap: square"/>
    </g>
    <g id="text_18">
     <!-- Knee  -->
     <g transform="translate(343.998125 68.272812) scale(0.1 -0.1)">
      <defs>
       <path id="DejaVuSans-4b" d="M 628 4666 
L 1259 4666 
L 1259 2694 
L 3353 4666 
L 4166 4666 
L 1850 2491 
L 4331 0 
L 3500 0 
L 1259 2247 
L 1259 0 
L 628 0 
L 628 4666 
z
" transform="scale(0.015625)"/>
      </defs>
      <use xlink:href="#DejaVuSans-4b"/>
      <use xlink:href="#DejaVuSans-6e" x="65.576172"/>
      <use xlink:href="#DejaVuSans-65" x="128.955078"/>
      <use xlink:href="#DejaVuSans-65" x="190.478516"/>
      <use xlink:href="#DejaVuSans-20" x="252.001953"/>
     </g>
    </g>
    <g id="line2d_22">
     <path d="M 315.998125 79.450938 
L 325.998125 79.450938 
L 335.998125 79.450938 
" style="fill: none; stroke: #1fa187; stroke-width: 1.5; stroke-linecap: square"/>
    </g>
    <g id="text_19">
     <!-- Ankle  -->
     <g transform="translate(343.998125 82.950938) scale(0.1 -0.1)">
      <defs>
       <path id="DejaVuSans-41" d="M 2188 4044 
L 1331 1722 
L 3047 1722 
L 2188 4044 
z
M 1831 4666 
L 2547 4666 
L 4325 0 
L 3669 0 
L 3244 1197 
L 1141 1197 
L 716 0 
L 50 0 
L 1831 4666 
z
" transform="scale(0.015625)"/>
      </defs>
      <use xlink:href="#DejaVuSans-41"/>
      <use xlink:href="#DejaVuSans-6e" x="68.408203"/>
      <use xlink:href="#DejaVuSans-6b" x="131.787109"/>
      <use xlink:href="#DejaVuSans-6c" x="189.697266"/>
      <use xlink:href="#DejaVuSans-65" x="217.480469"/>
      <use xlink:href="#DejaVuSans-20" x="279.003906"/>
     </g>
    </g>
    <g id="line2d_23">
     <path d="M 315.998125 94.129063 
L 325.998125 94.129063 
L 335.998125 94.129063 
" style="fill: none; stroke: #4ac16d; stroke-width: 1.5; stroke-linecap: square"/>
    </g>
    <g id="text_20">
     <!-- Metatarsal  -->
     <g transform="translate(343.998125 97.629063) scale(0.1 -0.1)">
      <defs>
       <path id="DejaVuSans-4d" d="M 628 4666 
L 1569 4666 
L 2759 1491 
L 3956 4666 
L 4897 4666 
L 4897 0 
L 4281 0 
L 4281 4097 
L 3078 897 
L 2444 897 
L 1241 4097 
L 1241 0 
L 628 0 
L 628 4666 
z
" transform="scale(0.015625)"/>
      </defs>
      <use xlink:href="#DejaVuSans-4d"/>
      <use xlink:href="#DejaVuSans-65" x="86.279297"/>
      <use xlink:href="#DejaVuSans-74" x="147.802734"/>
      <use xlink:href="#DejaVuSans-61" x="187.011719"/>
      <use xlink:href="#DejaVuSans-74" x="248.291016"/>
      <use xlink:href="#DejaVuSans-61" x="287.5"/>
      <use xlink:href="#DejaVuSans-72" x="348.779297"/>
      <use xlink:href="#DejaVuSans-73" x="389.892578"/>
      <use xlink:href="#DejaVuSans-61" x="441.992188"/>
      <use xlink:href="#DejaVuSans-6c" x="503.271484"/>
      <use xlink:href="#DejaVuSans-20" x="531.054688"/>
     </g>
    </g>
    <g id="line2d_24">
     <path d="M 315.998125 108.807187 
L 325.998125 108.807187 
L 335.998125 108.807187 
" style="fill: none; stroke: #a0da39; stroke-width: 1.5; stroke-linecap: square"/>
    </g>
    <g id="text_21">
     <!-- ToeTip  -->
     <g transform="translate(343.998125 112.307187) scale(0.1 -0.1)">
      <use xlink:href="#DejaVuSans-54"/>
      <use xlink:href="#DejaVuSans-6f" x="44.083984"/>
      <use xlink:href="#DejaVuSans-65" x="105.265625"/>
      <use xlink:href="#DejaVuSans-54" x="166.789062"/>
      <use xlink:href="#DejaVuSans-69" x="224.748047"/>
      <use xlink:href="#DejaVuSans-70" x="252.53125"/>
      <use xlink:href="#DejaVuSans-20" x="316.007812"/>
     </g>
    </g>
   </g>
  </g>
 </g>
 <defs>
  <clipPath id="p8cab9c3182">
   <rect x="52.160938" y="22.318125" width="357.12" height="266.112"/>
  </clipPath>
 </defs>
</svg>
